<svg width="25" height="24" viewBox="0 0 25 24" fill="none" xmlns="http://www.w3.org/2000/svg">
<path d="M7.95979 17.2488C7.62263 17.232 7.33594 17.4927 7.31913 17.8299C7.30231 18.167 7.56301 18.4537 7.90018 18.4705C9.05003 18.5271 9.68535 18.6487 10.274 18.8612C10.7152 19.021 11.1288 19.2282 11.7167 19.5225C11.9614 19.6456 12.2358 19.7832 12.5546 19.9384C12.7236 20.021 12.9216 20.021 13.0906 19.9384C13.4094 19.7832 13.6838 19.6456 13.9285 19.5225C14.5164 19.2282 14.93 19.021 15.3719 18.8612C15.9598 18.6487 16.5959 18.5271 17.7458 18.4705C18.0829 18.4537 18.3436 18.167 18.3268 17.8299C18.31 17.4927 18.0233 17.232 17.6861 17.2488C16.4667 17.3085 15.7 17.4422 14.9561 17.7106C14.4423 17.8964 13.9362 18.1502 13.3131 18.4621C13.1579 18.5401 12.9951 18.6219 12.823 18.7075C12.651 18.6219 12.4882 18.5401 12.3322 18.4621C11.7091 18.1502 11.203 17.8964 10.6893 17.7106C9.94614 17.4422 9.17916 17.3085 7.95979 17.2488Z" fill="black"/>
<path fill-rule="evenodd" clip-rule="evenodd" d="M5.47133 4.00017C4.45375 3.98641 3.625 4.80904 3.625 5.82127V13.8083C3.625 14.8275 4.45604 15.6264 5.44763 15.6509C7.48819 15.7013 8.52413 15.8894 9.39566 16.173C9.83527 16.3168 10.2428 16.4873 10.7397 16.6945L10.7611 16.7036C11.2642 16.9139 11.8437 17.1555 12.596 17.4208C12.7275 17.4674 12.8712 17.4674 13.0027 17.4208C13.755 17.1555 14.3345 16.9139 14.8376 16.7036L14.859 16.6945C15.3559 16.4873 15.7634 16.3168 16.203 16.173C17.0746 15.8894 18.1105 15.7013 20.151 15.6509C21.1426 15.6264 21.9737 14.8275 21.9737 13.8083V5.82127C21.9737 4.80904 21.1449 3.98641 20.1273 4.00017C18.0394 4.02922 16.862 4.14543 15.8268 4.44664C15.0592 4.67064 14.3727 4.99863 13.4721 5.42829C13.2611 5.52921 13.0379 5.63624 12.7993 5.74786C12.5608 5.63624 12.3376 5.5292 12.1266 5.42829C11.2259 4.99863 10.5394 4.67064 9.77187 4.44664C8.73669 4.14541 7.55926 4.02921 5.47133 4.00017ZM11.5286 6.4995C11.7304 6.59583 11.9483 6.69979 12.1876 6.8122V15.9644C11.8367 15.8275 11.5256 15.6976 11.2328 15.5752L11.1907 15.5577C10.7106 15.3566 10.2626 15.1693 9.77404 15.0103C8.74957 14.6769 7.5859 14.4804 5.47821 14.4284C5.11889 14.4193 4.84823 14.1333 4.84823 13.8084V5.82132C4.84823 5.48876 5.12116 5.21888 5.45451 5.22346C7.5211 5.25251 8.56076 5.36872 9.42995 5.621C10.0943 5.81519 10.6631 6.08665 11.5286 6.4995ZM14.3658 15.5752C14.0729 15.6975 13.7618 15.8275 13.4109 15.9643V6.81212C13.6502 6.69973 13.868 6.59575 14.0699 6.49942C14.9353 6.08657 15.5041 5.81517 16.1686 5.62174C17.0378 5.36867 18.0776 5.25248 20.144 5.22341C20.4773 5.21882 20.7503 5.48947 20.7503 5.82127V13.8083C20.7503 14.1333 20.4797 14.4192 20.1203 14.4284C18.0124 14.4804 16.8489 14.6769 15.8245 15.0102C15.336 15.1692 14.8879 15.3565 14.4078 15.5576L14.3658 15.5752Z" fill="black"/>
</svg>
