<svg width="25" height="24" viewBox="0 0 25 24" fill="none" xmlns="http://www.w3.org/2000/svg">
<path d="M18.3345 4H6.41554C5.60914 4 4.83577 4.32034 4.26555 4.89055C3.69534 5.46077 3.375 6.23414 3.375 7.04054V13.6081C3.375 14.4145 3.69534 15.1879 4.26555 15.7581C4.83577 16.3283 5.60914 16.6486 6.41554 16.6486H9.43581V19.7297C9.43273 19.8462 9.46318 19.9611 9.52353 20.0608C9.58388 20.1604 9.67159 20.2407 9.77622 20.2919C9.88085 20.3432 9.99801 20.3633 10.1137 20.3498C10.2295 20.3364 10.3389 20.29 10.4291 20.2162L14.9291 16.6486H18.3345C18.7337 16.6486 19.1291 16.57 19.498 16.4172C19.8669 16.2644 20.2021 16.0404 20.4844 15.7581C20.7668 15.4758 20.9908 15.1406 21.1436 14.7717C21.2964 14.4028 21.375 14.0074 21.375 13.6081V7.04054C21.375 6.23414 21.0547 5.46077 20.4844 4.89055C19.9142 4.32034 19.1409 4 18.3345 4ZM20.1588 13.6081C20.1588 14.0919 19.9666 14.556 19.6245 14.8981C19.2823 15.2402 18.8183 15.4324 18.3345 15.4324H14.7061C14.5676 15.4279 14.4317 15.4708 14.3209 15.5541L10.652 18.473V16.0405C10.652 15.8793 10.588 15.7246 10.4739 15.6105C10.3599 15.4965 10.2052 15.4324 10.0439 15.4324H6.41554C5.9317 15.4324 5.46768 15.2402 5.12555 14.8981C4.78342 14.556 4.59122 14.0919 4.59122 13.6081V7.04054C4.59122 6.5567 4.78342 6.09268 5.12555 5.75055C5.46768 5.40842 5.9317 5.21622 6.41554 5.21622H18.3345C18.8183 5.21622 19.2823 5.40842 19.6245 5.75055C19.9666 6.09268 20.1588 6.5567 20.1588 7.04054V13.6081Z" fill="black"/>
<path d="M7.46965 8.37891C7.07275 8.37891 6.68476 8.4966 6.35475 8.71711C6.02474 8.93761 5.76753 9.25102 5.61565 9.61771C5.46376 9.9844 5.42402 10.3879 5.50145 10.7772C5.57888 11.1664 5.77001 11.524 6.05066 11.8047C6.33131 12.0853 6.68888 12.2764 7.07815 12.3539C7.46742 12.4313 7.87091 12.3916 8.2376 12.2397C8.60429 12.0878 8.9177 11.8306 9.13821 11.5006C9.35871 11.1705 9.47641 10.7826 9.47641 10.3857C9.47641 10.1221 9.4245 9.86118 9.32365 9.61771C9.2228 9.37424 9.07498 9.15302 8.88864 8.96667C8.7023 8.78033 8.48107 8.63251 8.2376 8.53166C7.99413 8.43081 7.73318 8.37891 7.46965 8.37891ZM7.46965 11.1762C7.31329 11.1762 7.16045 11.1298 7.03045 11.043C6.90044 10.9561 6.79912 10.8326 6.73928 10.6882C6.67945 10.5437 6.66379 10.3848 6.6943 10.2314C6.7248 10.0781 6.80009 9.93723 6.91065 9.82667C7.02121 9.71611 7.16207 9.64082 7.31542 9.61031C7.46877 9.57981 7.62772 9.59546 7.77218 9.6553C7.91663 9.71513 8.04009 9.81646 8.12696 9.94646C8.21382 10.0765 8.26019 10.2293 8.26019 10.3857C8.26019 10.5953 8.1769 10.7964 8.02865 10.9447C7.88039 11.0929 7.67931 11.1762 7.46965 11.1762Z" fill="black"/>
<path d="M12.3759 8.37891C11.979 8.37891 11.591 8.4966 11.261 8.71711C10.931 8.93761 10.6738 9.25102 10.5219 9.61771C10.37 9.9844 10.3303 10.3879 10.4077 10.7772C10.4851 11.1664 10.6763 11.524 10.9569 11.8047C11.2376 12.0853 11.5951 12.2764 11.9844 12.3539C12.3737 12.4313 12.7772 12.3916 13.1439 12.2397C13.5105 12.0878 13.824 11.8306 14.0445 11.5006C14.265 11.1705 14.3827 10.7826 14.3827 10.3857C14.3827 9.85344 14.1712 9.34301 13.7949 8.96667C13.4186 8.59033 12.9081 8.37891 12.3759 8.37891ZM12.3759 11.1762C12.2195 11.1762 12.0667 11.1298 11.9367 11.043C11.8067 10.9561 11.7054 10.8326 11.6455 10.6882C11.5857 10.5437 11.57 10.3848 11.6005 10.2314C11.6311 10.0781 11.7063 9.93723 11.8169 9.82667C11.9275 9.71611 12.0683 9.64082 12.2217 9.61031C12.375 9.57981 12.534 9.59546 12.6784 9.6553C12.8229 9.71513 12.9463 9.81646 13.0332 9.94646C13.1201 10.0765 13.1664 10.2293 13.1664 10.3857C13.1664 10.5953 13.0831 10.7964 12.9349 10.9447C12.7866 11.0929 12.5856 11.1762 12.3759 11.1762Z" fill="black"/>
<path d="M17.2802 8.37891C16.8833 8.37891 16.4953 8.4966 16.1653 8.71711C15.8353 8.93761 15.5781 9.25102 15.4262 9.61771C15.2743 9.9844 15.2346 10.3879 15.312 10.7772C15.3894 11.1664 15.5806 11.524 15.8612 11.8047C16.1419 12.0853 16.4994 12.2764 16.8887 12.3539C17.278 12.4313 17.6815 12.3916 18.0481 12.2397C18.4148 12.0878 18.7282 11.8306 18.9488 11.5006C19.1693 11.1705 19.287 10.7826 19.287 10.3857C19.287 9.85344 19.0755 9.34301 18.6992 8.96667C18.3228 8.59033 17.8124 8.37891 17.2802 8.37891ZM17.2802 11.1762C17.1238 11.1762 16.971 11.1298 16.841 11.043C16.711 10.9561 16.6097 10.8326 16.5498 10.6882C16.49 10.5437 16.4743 10.3848 16.5048 10.2314C16.5353 10.0781 16.6106 9.93723 16.7212 9.82667C16.8318 9.71611 16.9726 9.64082 17.126 9.61031C17.2793 9.57981 17.4383 9.59546 17.5827 9.6553C17.7272 9.71513 17.8506 9.81646 17.9375 9.94646C18.0244 10.0765 18.0707 10.2293 18.0707 10.3857C18.0707 10.5953 17.9874 10.7964 17.8392 10.9447C17.6909 11.0929 17.4899 11.1762 17.2802 11.1762Z" fill="black"/>
</svg>
