<svg width="25" height="24" viewBox="0 0 25 24" fill="none" xmlns="http://www.w3.org/2000/svg">
<path d="M16.325 12.4001C16.325 13.3706 16.91 14.2458 17.8062 14.6171C18.7032 14.9891 19.736 14.7836 20.4222 14.0974C21.1084 13.4111 21.3139 12.3784 20.9419 11.4814C20.5707 10.5851 19.6954 10.0002 18.7249 10.0002C17.3997 10.0017 16.3265 11.0749 16.325 12.4001ZM19.9249 12.4001C19.9249 12.8853 19.6324 13.3233 19.1839 13.5086C18.7354 13.6946 18.2195 13.5918 17.8767 13.2483C17.5332 12.9056 17.4305 12.3896 17.6164 11.9411C17.8017 11.4926 18.2397 11.2001 18.7249 11.2001C19.3872 11.2008 19.9242 11.7379 19.9249 12.4001ZM14.525 12.4001C14.525 11.4296 13.94 10.5544 13.0437 10.1831C12.1468 9.81109 11.114 10.0166 10.4278 10.7028C9.74153 11.3891 9.53604 12.4218 9.90803 13.3188C10.2793 14.2151 11.1545 14.8 12.125 14.8C13.4503 14.7985 14.5234 13.7253 14.525 12.4001ZM10.925 12.4001C10.925 11.9149 11.2175 11.4769 11.666 11.2916C12.1145 11.1056 12.6305 11.2084 12.9732 11.5519C13.3168 11.8946 13.4195 12.4106 13.2335 12.8591C13.0483 13.3076 12.6103 13.6001 12.125 13.6001C11.4628 13.5994 10.9258 13.0623 10.925 12.4001ZM7.92504 12.4001C7.92504 11.4296 7.34004 10.5544 6.44381 10.1831C5.54681 9.81109 4.51403 10.0166 3.82783 10.7028C3.14159 11.3891 2.93609 12.4218 3.30809 13.3188C3.67934 14.2151 4.55458 14.8 5.52509 14.8C6.85032 14.7985 7.9235 13.7253 7.92504 12.4001ZM4.32507 12.4001C4.32507 11.9149 4.61756 11.4769 5.06606 11.2916C5.51455 11.1056 6.03055 11.2084 6.3733 11.5519C6.71681 11.8946 6.81955 12.4106 6.63356 12.8591C6.44831 13.3076 6.01031 13.6001 5.52507 13.6001C4.86283 13.5994 4.32582 13.0623 4.32507 12.4001Z" fill="black"/>
</svg>
