<svg width="25" height="24" viewBox="0 0 25 24" fill="none" xmlns="http://www.w3.org/2000/svg">
<path d="M16.9946 8.27344C16.7309 8.27344 16.5293 8.47507 16.5293 8.73875V12.7715C16.5293 13.0352 16.7309 13.2368 16.9946 13.2368C17.2583 13.2368 17.4599 13.0352 17.4599 12.7715V8.73875C17.4599 8.47507 17.2583 8.27344 16.9946 8.27344Z"  fill="black"/>
<path d="M3.5 18.9759C3.5 20.0926 4.39961 20.9922 5.51637 20.9922H12.9614C13.2251 20.9922 13.4268 20.7906 13.4268 20.5269C13.4268 20.2632 13.2251 20.0616 12.9614 20.0616H5.51637C4.91146 20.0616 4.43063 19.5808 4.43063 18.9759V5.01637C4.43063 4.41146 4.91146 3.93063 5.51637 3.93063H13.4268V5.01637C13.4268 6.13313 14.3264 7.03274 15.4431 7.03274H16.9942C17.2579 7.03274 17.4595 6.83111 17.4595 6.56743C17.4595 5.62128 17.0872 4.72167 16.4203 4.03921C15.7378 3.37225 14.8382 3 13.8921 3H5.51637C4.39961 3 3.5 3.89961 3.5 5.01637V18.9759ZM14.3574 3.97717C14.8847 4.07023 15.3656 4.3184 15.7533 4.70616C16.1411 5.09392 16.3893 5.57475 16.4823 6.10211H15.4431C14.8382 6.10211 14.3574 5.62128 14.3574 5.01637V3.97717Z" fill="black"/>
<path fill-rule="evenodd" clip-rule="evenodd" d="M6 9C6 8.72386 6.22386 8.5 6.5 8.5H13.5C13.7761 8.5 14 8.72386 14 9C14 9.27614 13.7761 9.5 13.5 9.5H6.5C6.22386 9.5 6 9.27614 6 9Z" fill="black"/>
<path fill-rule="evenodd" clip-rule="evenodd" d="M6 12.002C6 11.7258 6.22386 11.502 6.5 11.502H13.5C13.7761 11.502 14 11.7258 14 12.002C14 12.2781 13.7761 12.502 13.5 12.502H6.5C6.22386 12.502 6 12.2781 6 12.002Z" fill="black"/>
<path fill-rule="evenodd" clip-rule="evenodd" d="M6 15C6 14.7239 6.22386 14.5 6.5 14.5H9.49916C9.7753 14.5 10 14.7239 10 15C10 15.2761 9.77614 15.5 9.5 15.5H6.5C6.22386 15.5 6 15.2761 6 15Z" fill="black"/>
<path fill-rule="evenodd" clip-rule="evenodd" d="M17 14C14.8972 14 13.0734 15.086 12.1669 16.1151C11.7244 16.6182 11.5 17.1218 11.5 17.5C11.5 17.8782 11.7244 18.3818 12.1669 18.8849C13.0734 19.914 14.8973 21 17 21C19.1027 21 20.9266 19.914 21.8331 18.8849C22.2756 18.3818 22.5 17.8782 22.5 17.5C22.5 17.1218 22.2756 16.6182 21.8331 16.1151C20.9266 15.086 19.1027 14 17 14ZM17 15C18.5843 15 19.8163 15.4777 20.6875 16.2468C21.0185 16.5399 21.2719 16.8408 21.4192 17.1169C21.4939 17.2579 21.542 17.3867 21.542 17.5C21.542 17.6133 21.4939 17.7421 21.4192 17.8831C21.2719 18.1592 21.0185 18.4601 20.6875 18.7532C19.8164 19.5222 18.5841 20 17 20C15.4159 20 14.2677 19.5223 13.3965 18.7532C13.0655 18.4601 12.8121 18.1592 12.6648 17.8831C12.5901 17.7421 12.542 17.6133 12.542 17.5C12.542 17.3867 12.5901 17.2579 12.6648 17.1169C12.8121 16.8408 13.0655 16.5399 13.3965 16.2468C14.2676 15.4778 15.4159 15 17 15Z" fill="black"/>
<circle cx="17" cy="17.5" r="1" stroke="#7833B3"/>
</svg>
