<svg width="25" height="24" viewBox="0 0 25 24" fill="none" xmlns="http://www.w3.org/2000/svg">
<rect width="24" height="24" transform="translate(0.875)" fill="white"/>
<path d="M19.144 20.3122H6.60619C5.62075 20.3122 4.7373 19.8022 4.24454 18.9487C3.75182 18.0953 3.75182 17.0761 4.24454 16.2227L10.5141 5.36343C11.0076 4.50998 11.8895 4 12.875 4C13.8605 4 14.7431 4.50921 15.2359 5.36343L21.5055 16.2221C21.9982 17.0756 21.9982 18.0947 21.5055 18.9482C21.012 19.8016 20.13 20.3116 19.1438 20.3116L19.144 20.3122ZM11.5537 5.96331L5.28416 16.8226C5.00817 17.3003 5.00817 17.871 5.28416 18.3487C5.56014 18.8272 6.05436 19.1122 6.60632 19.1122H19.1449C19.6969 19.1122 20.1911 18.8272 20.4671 18.3487C20.7431 17.871 20.7431 17.3003 20.4671 16.8226L14.1967 5.96331C13.9207 5.48559 13.4273 5.19985 12.8753 5.19985C12.3233 5.19985 11.8297 5.48484 11.5537 5.96331Z" fill="black"/>
<path d="M12.8747 14.9794C11.92 14.9794 11.1258 14.264 11.0268 13.3145L10.7148 10.3214C10.6511 9.71022 10.8505 9.09826 11.2615 8.64229C11.6725 8.18632 12.2605 7.92383 12.8754 7.92383C13.4896 7.92383 14.0776 8.18557 14.4893 8.64229C14.9003 9.09826 15.0998 9.71022 15.036 10.3214L14.7241 13.3153C14.6251 14.2648 13.8301 14.9802 12.8762 14.9802L12.8747 14.9794ZM12.8747 9.1238C12.5957 9.1238 12.3392 9.23779 12.1525 9.44478C11.9657 9.65176 11.8787 9.91876 11.908 10.1962L12.22 13.1893C12.2552 13.5253 12.5364 13.7788 12.8747 13.7788C13.2129 13.7788 13.4942 13.5253 13.5294 13.1893L13.8414 10.1955C13.8706 9.91799 13.7836 9.65176 13.5969 9.44401C13.4102 9.23703 13.1537 9.12303 12.8747 9.12303L12.8747 9.1238Z" fill="black"/>
<path d="M12.8754 18.7118C11.9725 18.7118 11.2383 17.9776 11.2383 17.0746C11.2383 16.1717 11.9725 15.4375 12.8754 15.4375C13.7784 15.4375 14.5126 16.1717 14.5126 17.0746C14.5126 17.9776 13.7784 18.7118 12.8754 18.7118ZM12.8754 16.6374C12.6339 16.6374 12.4382 16.8331 12.4382 17.0746C12.4382 17.316 12.6347 17.5118 12.8754 17.5118C13.1169 17.5118 13.3126 17.3153 13.3126 17.0746C13.3126 16.8331 13.1162 16.6374 12.8754 16.6374Z" fill="black"/>
</svg>
