<svg width="204" height="198" viewBox="0 0 204 198" fill="none" xmlns="http://www.w3.org/2000/svg">
<path fill-rule="evenodd" clip-rule="evenodd" d="M158.157 186.203C185.199 168.057 203 137.176 203 102.132C203 46.2784 157.781 1 102 1C46.2192 1 1 46.2784 1 102.132C1 137.111 18.7347 167.942 45.6916 186.102L158.157 186.203Z" stroke="#FFD209" stroke-dasharray="10"/>
<path fill-rule="evenodd" clip-rule="evenodd" d="M134.219 32.2543L130.558 32.6602L132.191 29.3582L131.786 25.6965L135.088 27.3303L138.749 26.9244L137.115 30.2264L137.521 33.888L134.219 32.2543Z" fill="#D3C1E5"/>
<path fill-rule="evenodd" clip-rule="evenodd" d="M40.5 47.25L36.6109 48.3891L37.75 44.5L36.6109 40.6109L40.5 41.75L44.3891 40.6109L43.25 44.5L44.3891 48.3891L40.5 47.25Z" fill="#D3C1E5"/>
<path fill-rule="evenodd" clip-rule="evenodd" d="M178.5 70.25H174.603L176.551 73.625L178.5 77L180.449 73.625L182.397 70.25H178.5Z" fill="#FFD209"/>
<path fill-rule="evenodd" clip-rule="evenodd" d="M84.145 32.3496L80.076 30.8686L83.3931 28.0852L86.7102 25.3019L87.4621 29.5662L88.214 33.8306L84.145 32.3496Z" fill="#FFCC00" fill-opacity="0.99"/>
<path fill-rule="evenodd" clip-rule="evenodd" d="M177.264 119.758L174.295 121.94L174.059 118.263L171.877 115.295L175.554 115.059L178.522 112.877L178.758 116.553L180.94 119.521L177.264 119.758Z" fill="#FFD209"/>
<path fill-rule="evenodd" clip-rule="evenodd" d="M41.6583 81.9952L39.1142 84.6598L38.2432 81.0801L35.5786 78.536L39.1583 77.6651L41.7023 75.0005L42.5733 78.5801L45.2379 81.1242L41.6583 81.9952Z" fill="#FFD209"/>
<rect x="12" y="185" width="180" height="2" rx="1" fill="#FFD209"/>
<g filter="url(#filter0_d_4717_21518)">
<g filter="url(#filter1_d_4717_21518)">
<path fill-rule="evenodd" clip-rule="evenodd" d="M62 115.58L142 115.58V173.999C142 176.208 140.209 177.999 138 177.999H66C63.7909 177.999 62 176.208 62 173.999V115.58Z" fill="#FEFDF6"/>
</g>
<path fill-rule="evenodd" clip-rule="evenodd" d="M102.305 75.299L142 115.58L102.305 140.909L62 115.58L102.305 75.299Z" fill="#E9E8E1"/>
<path fill-rule="evenodd" clip-rule="evenodd" d="M102.152 115.604L142 115.58L102.305 140.909L62.0037 115.58L102.152 115.604Z" fill="#DFDDD5"/>
</g>
<mask id="mask0_4717_21518" style="mask-type:luminance" maskUnits="userSpaceOnUse" x="51" y="79" width="96" height="62">
<path fill-rule="evenodd" clip-rule="evenodd" d="M50.9999 79.3106L147 79.7363L141.998 115.605L118.49 130.592L102.37 140.866L84.9617 130.021L61.9999 115.605L50.9999 79.3106Z" fill="white"/>
</mask>
<g mask="url(#mask0_4717_21518)">
<g filter="url(#filter2_d_4717_21518)">
<g filter="url(#filter3_d_4717_21518)">
<rect x="73" y="93" width="59" height="34" rx="2" fill="#F9F8F3"/>
</g>
<rect x="80.375" y="100.352" width="27.6562" height="2.75676" rx="1.37838" fill="#352245"/>
<rect x="80.375" y="116.893" width="23.0469" height="2.75676" rx="1.37838" fill="#352245"/>
<rect x="80.375" y="108.621" width="31.3438" height="2.75676" rx="1.37838" fill="#352245"/>
</g>
</g>
<g filter="url(#filter4_d_4717_21518)">
<rect x="62" y="58" width="80" height="120" rx="4" fill="#FEFDF6"/>
</g>
<rect x="70" y="85" width="64" height="37" rx="2" fill="#F9F8F3"/>
<path d="M70 87C70 85.8954 70.8954 85 72 85V122C70.8954 122 70 121.105 70 120V87Z" fill="#352245"/>
<rect x="80" y="93" width="30" height="3" rx="1.5" fill="#ECEBE5"/>
<rect x="80" y="111" width="25" height="3" rx="1.5" fill="#ECEBE5"/>
<rect x="80" y="102" width="34" height="3" rx="1.5" fill="#E2E1D9"/>
<rect x="70" y="138" width="64" height="37" rx="2" fill="#F9F8F3"/>
<path d="M70 140C70 138.895 70.8954 138 72 138V175C70.8954 175 70 174.105 70 173V140Z" fill="#352245"/>
<rect x="80" y="146" width="30" height="3" rx="1.5" fill="#ECEBE5"/>
<rect x="80" y="164" width="25" height="3" rx="1.5" fill="#ECEBE5"/>
<rect x="80" y="155" width="34" height="3" rx="1.5" fill="#E2E1D9"/>
<rect x="128" y="66" width="6" height="6" rx="1" fill="#352245"/>
<rect x="89" y="74" width="26" height="3" rx="1.5" fill="#FFD209"/>
<rect x="89" y="130" width="26" height="3" rx="1.5" fill="#FFD209"/>
<defs>
<filter id="filter0_d_4717_21518" x="48" y="61.2988" width="108" height="130.701" filterUnits="userSpaceOnUse" color-interpolation-filters="sRGB">
<feFlood flood-opacity="0" result="BackgroundImageFix"/>
<feColorMatrix in="SourceAlpha" type="matrix" values="0 0 0 0 0 0 0 0 0 0 0 0 0 0 0 0 0 0 127 0" result="hardAlpha"/>
<feOffset/>
<feGaussianBlur stdDeviation="7"/>
<feColorMatrix type="matrix" values="0 0 0 0 0 0 0 0 0 0 0 0 0 0 0 0 0 0 0.2 0"/>
<feBlend mode="normal" in2="BackgroundImageFix" result="effect1_dropShadow_4717_21518"/>
<feBlend mode="normal" in="SourceGraphic" in2="effect1_dropShadow_4717_21518" result="shape"/>
</filter>
<filter id="filter1_d_4717_21518" x="42" y="95.5801" width="120" height="102.42" filterUnits="userSpaceOnUse" color-interpolation-filters="sRGB">
<feFlood flood-opacity="0" result="BackgroundImageFix"/>
<feColorMatrix in="SourceAlpha" type="matrix" values="0 0 0 0 0 0 0 0 0 0 0 0 0 0 0 0 0 0 127 0" result="hardAlpha"/>
<feOffset/>
<feGaussianBlur stdDeviation="10"/>
<feColorMatrix type="matrix" values="0 0 0 0 0 0 0 0 0 0 0 0 0 0 0 0 0 0 0.12 0"/>
<feBlend mode="normal" in2="BackgroundImageFix" result="effect1_dropShadow_4717_21518"/>
<feBlend mode="normal" in="SourceGraphic" in2="effect1_dropShadow_4717_21518" result="shape"/>
</filter>
<filter id="filter2_d_4717_21518" x="69" y="89" width="67" height="42" filterUnits="userSpaceOnUse" color-interpolation-filters="sRGB">
<feFlood flood-opacity="0" result="BackgroundImageFix"/>
<feColorMatrix in="SourceAlpha" type="matrix" values="0 0 0 0 0 0 0 0 0 0 0 0 0 0 0 0 0 0 127 0" result="hardAlpha"/>
<feOffset/>
<feGaussianBlur stdDeviation="2"/>
<feColorMatrix type="matrix" values="0 0 0 0 0 0 0 0 0 0 0 0 0 0 0 0 0 0 0.1 0"/>
<feBlend mode="normal" in2="BackgroundImageFix" result="effect1_dropShadow_4717_21518"/>
<feBlend mode="normal" in="SourceGraphic" in2="effect1_dropShadow_4717_21518" result="shape"/>
</filter>
<filter id="filter3_d_4717_21518" x="67" y="89" width="71" height="46" filterUnits="userSpaceOnUse" color-interpolation-filters="sRGB">
<feFlood flood-opacity="0" result="BackgroundImageFix"/>
<feColorMatrix in="SourceAlpha" type="matrix" values="0 0 0 0 0 0 0 0 0 0 0 0 0 0 0 0 0 0 127 0" result="hardAlpha"/>
<feOffset dy="2"/>
<feGaussianBlur stdDeviation="3"/>
<feColorMatrix type="matrix" values="0 0 0 0 0 0 0 0 0 0 0 0 0 0 0 0 0 0 0.1 0"/>
<feBlend mode="normal" in2="BackgroundImageFix" result="effect1_dropShadow_4717_21518"/>
<feBlend mode="normal" in="SourceGraphic" in2="effect1_dropShadow_4717_21518" result="shape"/>
</filter>
<filter id="filter4_d_4717_21518" x="46" y="42" width="112" height="152" filterUnits="userSpaceOnUse" color-interpolation-filters="sRGB">
<feFlood flood-opacity="0" result="BackgroundImageFix"/>
<feColorMatrix in="SourceAlpha" type="matrix" values="0 0 0 0 0 0 0 0 0 0 0 0 0 0 0 0 0 0 127 0" result="hardAlpha"/>
<feOffset/>
<feGaussianBlur stdDeviation="8"/>
<feColorMatrix type="matrix" values="0 0 0 0 0 0 0 0 0 0 0 0 0 0 0 0 0 0 0.1 0"/>
<feBlend mode="normal" in2="BackgroundImageFix" result="effect1_dropShadow_4717_21518"/>
<feBlend mode="normal" in="SourceGraphic" in2="effect1_dropShadow_4717_21518" result="shape"/>
</filter>
</defs>
</svg>
