<svg width="204" height="189" viewBox="0 0 204 189" fill="none" xmlns="http://www.w3.org/2000/svg">
<path fill-rule="evenodd" clip-rule="evenodd" d="M134.773 188.093C151.556 176.12 162.603 155.745 162.603 132.623C162.603 95.771 134.539 65.8965 99.9208 65.8965C65.3022 65.8965 37.2383 95.771 37.2383 132.623C37.2383 155.702 48.2448 176.044 64.9748 188.026L134.773 188.093Z" fill="white" fill-opacity="0.2"/>
<path fill-rule="evenodd" clip-rule="evenodd" d="M158.157 187.93C185.199 169.614 203 138.446 203 103.075C203 46.7005 157.781 1 102 1C46.2192 1 1 46.7005 1 103.075C1 138.38 18.7347 169.498 45.6916 187.827L158.157 187.93Z" stroke="#FFD209" stroke-dasharray="10"/>
<path fill-rule="evenodd" clip-rule="evenodd" d="M70.324 39.0552L73.9102 39.4783L72.3101 36.0357L72.7076 32.218L69.4736 33.9214L65.8873 33.4982L67.4874 36.9409L67.0899 40.7585L70.324 39.0552Z" fill="#D3C1E5"/>
<path fill-rule="evenodd" clip-rule="evenodd" d="M141.547 45.3066L145.356 46.4942L144.24 42.4394L145.356 38.3846L141.547 39.5722L137.738 38.3846L138.853 42.4394L137.738 46.4942L141.547 45.3066Z" fill="#D3C1E5"/>
<path fill-rule="evenodd" clip-rule="evenodd" d="M103.136 20.6035L107.664 22.9882L107.107 17.6435L109.348 12.8238L104.327 13.4162L99.7992 11.0315L100.356 16.3762L98.1155 21.196L103.136 20.6035Z" fill="#FFD209"/>
<path fill-rule="evenodd" clip-rule="evenodd" d="M167.011 65.1167H170.827L168.919 68.6355L167.011 72.1543L165.102 68.6355L163.194 65.1167H167.011Z" fill="#FFD209"/>
<path fill-rule="evenodd" clip-rule="evenodd" d="M28.4232 60.1633H32.6642L30.5437 56.2535L28.4232 52.3438L26.3027 56.2535L24.1822 60.1633H28.4232Z" fill="#D3C1E5"/>
<path fill-rule="evenodd" clip-rule="evenodd" d="M19.4783 107.866L23.0645 108.289L21.4644 104.846L21.8619 101.029L18.6279 102.732L15.0416 102.309L16.6417 105.751L16.2442 109.569L19.4783 107.866Z" fill="#FFD209"/>
<g clip-path="url(#clip0_4716_17176)" filter="url(#filter0_d_4716_17176)">
<path fill-rule="evenodd" clip-rule="evenodd" d="M33.8085 79.0352C33.5389 77.9641 34.1814 76.8501 35.2436 76.5471L111.889 54.685C112.735 54.4439 113.426 55.341 112.998 56.1248L107.16 66.8278L117.243 72.9895C117.981 73.4407 117.804 74.5854 116.959 74.8266L40.3134 96.6887C39.2512 96.9916 38.1716 96.3689 37.9019 95.2977L33.8085 79.0352Z" fill="#F0E5FF"/>
<path d="M44.989 88.3192L43.2803 81.5309L45.819 80.8068C46.5178 80.6074 47.0882 80.6214 47.5302 80.8488C47.9722 81.0761 48.2559 81.4386 48.3812 81.9364C48.4902 82.3696 48.4619 82.7484 48.2962 83.0728C48.1289 83.3908 47.8931 83.6416 47.5889 83.8254C47.8584 83.804 48.112 83.8425 48.3498 83.941C48.594 84.0376 48.8031 84.1859 48.9771 84.3857C49.1511 84.5855 49.2722 84.8212 49.3406 85.0927C49.4285 85.4418 49.4216 85.7833 49.3202 86.1171C49.2234 86.4427 49.0319 86.7329 48.7457 86.9878C48.4594 87.2427 48.079 87.4378 47.6046 87.5731L44.989 88.3192ZM45.0319 84.1494L46.4263 83.7517C46.8174 83.6401 47.0927 83.4646 47.2523 83.2251C47.4103 82.9791 47.4485 82.6944 47.3672 82.3712C47.2874 82.0544 47.1214 81.8315 46.8691 81.7025C46.6231 81.5717 46.295 81.5649 45.8847 81.6819L44.5096 82.0741L45.0319 84.1494ZM45.7959 87.1847L47.2576 86.7678C47.6679 86.6508 47.9609 86.4633 48.1364 86.2053C48.3184 85.9455 48.3655 85.6411 48.2776 85.292C48.1897 84.9429 48.002 84.7019 47.7143 84.5692C47.425 84.43 47.0784 84.418 46.6745 84.5332L45.2321 84.9446L45.7959 87.1847ZM53.4729 86.024C52.9921 86.1611 52.5326 86.1917 52.0943 86.1158C51.6608 86.0315 51.279 85.8252 50.949 85.4966C50.6253 85.1663 50.387 84.6972 50.2341 84.0895L49.1674 79.8517L50.1867 79.5609L51.2558 83.8085C51.4056 84.4032 51.6564 84.7994 52.0085 84.9969C52.3606 85.1945 52.777 85.2247 53.2578 85.0875C53.7322 84.9522 54.0755 84.7053 54.2876 84.3469C54.4997 83.9884 54.5309 83.5118 54.3812 82.917L53.3121 78.6695L54.3314 78.3787L55.3981 82.6165C55.5511 83.2243 55.5586 83.7591 55.4206 84.2211C55.2891 84.6813 55.049 85.0651 54.7004 85.3724C54.3565 85.6715 53.9473 85.8886 53.4729 86.024ZM60.3772 84.0546C59.7105 84.2448 59.0969 84.2639 58.5364 84.1119C57.9807 83.9517 57.5056 83.6472 57.1109 83.1985C56.7146 82.7434 56.4294 82.1699 56.2553 81.4782C56.0796 80.78 56.0572 80.1315 56.1882 79.5329C56.3176 78.9278 56.5853 78.408 56.9913 77.9734C57.4037 77.5371 57.9432 77.2238 58.61 77.0336C59.3985 76.8087 60.0916 76.8189 60.6893 77.0641C61.287 77.3094 61.7411 77.7619 62.0515 78.4217L60.9167 78.7454C60.7277 78.3767 60.4564 78.118 60.1029 77.9693C59.7495 77.8207 59.3259 77.8168 58.8323 77.9576C58.1591 78.1496 57.6856 78.5341 57.4117 79.1112C57.1361 79.6817 57.1001 80.3711 57.3035 81.1792C57.5053 81.9809 57.8595 82.5554 58.3661 82.9029C58.8727 83.2504 59.4626 83.3281 60.1357 83.1361C60.6294 82.9953 60.996 82.7729 61.2356 82.469C61.4751 82.1651 61.5918 81.8096 61.5855 81.4025L62.7203 81.0789C62.7549 81.7896 62.5702 82.407 62.1661 82.9311C61.7621 83.4552 61.1658 83.8297 60.3772 84.0546ZM64.3533 82.7957L62.6447 76.0075L63.664 75.7167L64.3963 78.626L67.6563 77.6961L66.924 74.7869L67.9433 74.4961L69.652 81.2844L68.6327 81.5751L67.8686 78.5398L64.6087 79.4697L65.3727 82.505L64.3533 82.7957ZM70.5883 81.0173L71.3606 73.5214L72.4761 73.2032L76.6466 79.2893L75.5696 79.5965L74.5752 78.1028L71.8249 78.8873L71.6653 80.7101L70.5883 81.0173ZM71.9083 77.9904L74.0817 77.3705L72.2163 74.5869L71.9083 77.9904ZM77.5854 79.0215L75.8767 72.2332L78.1942 71.5722C78.7264 71.4204 79.1851 71.3866 79.5704 71.4707C79.9622 71.5529 80.2805 71.7255 80.5253 71.9882C80.7684 72.2446 80.9372 72.5602 81.0316 72.9352C81.1374 73.3554 81.1212 73.7688 80.983 74.1755C80.8513 74.5803 80.5702 74.9238 80.1396 75.206L82.2974 77.6774L81.1146 78.0148L79.1184 75.6532L77.9163 75.996L78.6047 78.7307L77.5854 79.0215ZM77.7211 75.2202L78.9616 74.8664C79.4232 74.7347 79.7313 74.5256 79.8859 74.239C80.0469 73.9505 80.0818 73.6253 79.9907 73.2632C79.8996 72.9012 79.7214 72.6437 79.4561 72.4907C79.1892 72.3312 78.8186 72.3191 78.3442 72.4545L77.1133 72.8056L77.7211 75.2202ZM83.436 77.3527L81.7273 70.5644L86.0066 69.3438L86.2166 70.1778L82.9566 71.1077L83.4887 73.2217L86.4602 72.3741L86.6652 73.1887L83.6938 74.0363L84.2454 76.2279L87.5054 75.2981L87.7153 76.1321L83.436 77.3527ZM91.1805 75.2684C90.6868 75.4092 90.2321 75.4454 89.8163 75.3769C89.4006 75.3084 89.0462 75.1427 88.7533 74.8798C88.4668 74.615 88.2642 74.2605 88.1455 73.8163L89.2225 73.5091C89.32 73.8693 89.5224 74.1407 89.8294 74.3234C90.1365 74.506 90.5112 74.5342 90.9536 74.4081C91.3447 74.2965 91.6256 74.1159 91.7964 73.8663C91.9719 73.6083 92.0223 73.3306 91.9474 73.0332C91.8872 72.794 91.7839 72.6156 91.6375 72.498C91.4975 72.3786 91.3223 72.2969 91.112 72.253C90.9081 72.2072 90.6778 72.1793 90.421 72.1694C90.1643 72.1595 89.8931 72.1468 89.6075 72.1312C89.0442 72.1048 88.5962 71.9901 88.2634 71.787C87.937 71.5822 87.7168 71.2535 87.6029 70.8009C87.5005 70.4213 87.5032 70.0637 87.6111 69.728C87.7255 69.3905 87.9266 69.0976 88.2145 68.8492C88.5072 68.5925 88.8747 68.401 89.317 68.2748C89.753 68.1505 90.1548 68.1225 90.5224 68.1909C90.8965 68.2574 91.2131 68.4096 91.4722 68.6475C91.7297 68.8789 91.9097 69.1845 92.0121 69.5641L90.9351 69.8713C90.8912 69.6967 90.8048 69.5447 90.676 69.4151C90.5455 69.2791 90.3807 69.184 90.1816 69.13C89.9825 69.0759 89.7579 69.0845 89.5079 69.1558C89.1857 69.2408 88.94 69.3975 88.7707 69.6259C88.6079 69.8526 88.5639 70.1145 88.6388 70.4119C88.7055 70.677 88.8337 70.8587 89.0233 70.9571C89.213 71.0554 89.4547 71.1147 89.7483 71.1348C90.0404 71.1485 90.375 71.1674 90.7521 71.1915C91.1131 71.2063 91.4446 71.2538 91.7465 71.334C92.0484 71.4142 92.308 71.5584 92.5253 71.7667C92.7491 71.9731 92.9097 72.2702 93.0074 72.6582C93.0936 73.0008 93.0876 73.3455 92.9894 73.6923C92.8895 74.0326 92.6901 74.3458 92.3911 74.6321C92.0905 74.9118 91.6869 75.1239 91.1805 75.2684ZM96.0382 73.7581L94.5395 67.8038L92.5488 68.3716L92.3389 67.5376L97.3299 66.114L97.5398 66.948L95.5588 67.513L97.0575 73.4673L96.0382 73.7581Z" fill="#24162F"/>
</g>
<g clip-path="url(#clip1_4716_17176)" filter="url(#filter1_d_4716_17176)">
<rect x="91.1055" y="91.9609" width="46.0325" height="18.7669" rx="2" fill="#F0E5FF"/>
<path d="M100.63 104.961V97.9609H101.69L105.2 103.231V97.9609H106.26V104.961H105.2L101.69 99.6909V104.961H100.63ZM110.911 105.081C110.217 105.081 109.611 104.928 109.091 104.621C108.571 104.314 108.164 103.891 107.871 103.351C107.577 102.804 107.431 102.174 107.431 101.461C107.431 100.748 107.577 100.121 107.871 99.5809C108.164 99.0343 108.571 98.6076 109.091 98.3009C109.611 97.9943 110.217 97.8409 110.911 97.8409C111.604 97.8409 112.211 97.9943 112.731 98.3009C113.251 98.6076 113.654 99.0343 113.941 99.5809C114.234 100.121 114.381 100.748 114.381 101.461C114.381 102.174 114.234 102.804 113.941 103.351C113.654 103.891 113.251 104.314 112.731 104.621C112.211 104.928 111.604 105.081 110.911 105.081ZM110.911 104.131C111.391 104.131 111.807 104.024 112.161 103.811C112.521 103.598 112.801 103.291 113.001 102.891C113.201 102.491 113.301 102.014 113.301 101.461C113.301 100.908 113.201 100.431 113.001 100.031C112.801 99.6309 112.521 99.3243 112.161 99.1109C111.807 98.8976 111.391 98.7909 110.911 98.7909C110.431 98.7909 110.011 98.8976 109.651 99.1109C109.291 99.3243 109.011 99.6309 108.811 100.031C108.617 100.431 108.521 100.908 108.521 101.461C108.521 102.014 108.617 102.491 108.811 102.891C109.011 103.291 109.291 103.598 109.651 103.811C110.011 104.024 110.431 104.131 110.911 104.131ZM118.801 104.961V99.1609L117.671 99.4209V98.6409L119.221 97.9609H119.901V104.961H118.801ZM123.893 105.081C123.38 105.081 122.947 104.984 122.593 104.791C122.24 104.598 121.953 104.341 121.733 104.021C121.52 103.701 121.367 103.341 121.273 102.941C121.18 102.541 121.133 102.131 121.133 101.711C121.133 100.938 121.24 100.261 121.453 99.6809C121.673 99.1009 121.987 98.6509 122.393 98.3309C122.8 98.0043 123.293 97.8409 123.873 97.8409C124.333 97.8409 124.727 97.9309 125.053 98.1109C125.38 98.2909 125.633 98.5309 125.813 98.8309C126 99.1309 126.113 99.4576 126.153 99.8109H125.163C125.103 99.4643 124.96 99.1976 124.733 99.0109C124.507 98.8243 124.217 98.7309 123.863 98.7309C123.377 98.7309 122.973 98.9609 122.653 99.4209C122.34 99.8743 122.173 100.574 122.153 101.521C122.313 101.228 122.56 100.978 122.893 100.771C123.233 100.564 123.623 100.461 124.063 100.461C124.457 100.461 124.823 100.554 125.163 100.741C125.51 100.928 125.79 101.191 126.003 101.531C126.223 101.864 126.333 102.261 126.333 102.721C126.333 103.128 126.233 103.511 126.033 103.871C125.833 104.231 125.55 104.524 125.183 104.751C124.823 104.971 124.393 105.081 123.893 105.081ZM123.833 104.161C124.113 104.161 124.363 104.101 124.583 103.981C124.803 103.861 124.977 103.698 125.103 103.491C125.23 103.278 125.293 103.038 125.293 102.771C125.293 102.344 125.153 102.004 124.873 101.751C124.6 101.498 124.25 101.371 123.823 101.371C123.543 101.371 123.29 101.434 123.063 101.561C122.843 101.688 122.67 101.858 122.543 102.071C122.417 102.278 122.353 102.508 122.353 102.761C122.353 103.034 122.417 103.278 122.543 103.491C122.677 103.698 122.853 103.861 123.073 103.981C123.3 104.101 123.553 104.161 123.833 104.161Z" fill="#24162F"/>
</g>
<g filter="url(#filter2_d_4716_17176)">
<g clip-path="url(#clip2_4716_17176)">
<rect x="20.5879" y="156.604" width="37.2178" height="18.7669" rx="2" fill="#F0E5FF"/>
<path d="M28.8499 169.629V163.829L27.7199 164.089V163.309L29.2699 162.629H29.9499V169.629H28.8499ZM31.2321 169.629V168.869C31.6854 168.509 32.1188 168.146 32.5321 167.779C32.9454 167.412 33.3121 167.052 33.6321 166.699C33.9588 166.339 34.2154 165.989 34.4021 165.649C34.5888 165.302 34.6821 164.969 34.6821 164.649C34.6821 164.436 34.6454 164.236 34.5721 164.049C34.4988 163.856 34.3788 163.702 34.2121 163.589C34.0454 163.469 33.8221 163.409 33.5421 163.409C33.1221 163.409 32.8054 163.542 32.5921 163.809C32.3854 164.076 32.2854 164.396 32.2921 164.769H31.2621C31.2688 164.276 31.3721 163.862 31.5721 163.529C31.7788 163.196 32.0521 162.942 32.3921 162.769C32.7388 162.596 33.1288 162.509 33.5621 162.509C34.2221 162.509 34.7488 162.696 35.1421 163.069C35.5421 163.436 35.7421 163.949 35.7421 164.609C35.7421 165.002 35.6454 165.392 35.4521 165.779C35.2654 166.166 35.0188 166.539 34.7121 166.899C34.4121 167.252 34.0888 167.586 33.7421 167.899C33.3954 168.212 33.0654 168.496 32.7521 168.749H35.9521V169.629H31.2321ZM37.4748 169.689C37.2748 169.689 37.1081 169.626 36.9748 169.499C36.8481 169.366 36.7848 169.209 36.7848 169.029C36.7848 168.842 36.8481 168.686 36.9748 168.559C37.1081 168.426 37.2748 168.359 37.4748 168.359C37.6748 168.359 37.8381 168.426 37.9648 168.559C38.0914 168.686 38.1548 168.842 38.1548 169.029C38.1548 169.209 38.0914 169.366 37.9648 169.499C37.8381 169.626 37.6748 169.689 37.4748 169.689ZM37.4748 165.879C37.2748 165.879 37.1081 165.816 36.9748 165.689C36.8481 165.556 36.7848 165.399 36.7848 165.219C36.7848 165.032 36.8481 164.876 36.9748 164.749C37.1081 164.616 37.2748 164.549 37.4748 164.549C37.6748 164.549 37.8381 164.616 37.9648 164.749C38.0914 164.876 38.1548 165.032 38.1548 165.219C38.1548 165.399 38.0914 165.556 37.9648 165.689C37.8381 165.816 37.6748 165.879 37.4748 165.879ZM39.152 169.629V168.869C39.6054 168.509 40.0387 168.146 40.452 167.779C40.8654 167.412 41.232 167.052 41.552 166.699C41.8787 166.339 42.1354 165.989 42.322 165.649C42.5087 165.302 42.602 164.969 42.602 164.649C42.602 164.436 42.5654 164.236 42.492 164.049C42.4187 163.856 42.2987 163.702 42.132 163.589C41.9654 163.469 41.742 163.409 41.462 163.409C41.042 163.409 40.7254 163.542 40.512 163.809C40.3054 164.076 40.2054 164.396 40.212 164.769H39.182C39.1887 164.276 39.292 163.862 39.492 163.529C39.6987 163.196 39.972 162.942 40.312 162.769C40.6587 162.596 41.0487 162.509 41.482 162.509C42.142 162.509 42.6687 162.696 43.062 163.069C43.462 163.436 43.662 163.949 43.662 164.609C43.662 165.002 43.5654 165.392 43.372 165.779C43.1854 166.166 42.9387 166.539 42.632 166.899C42.332 167.252 42.0087 167.586 41.662 167.899C41.3154 168.212 40.9854 168.496 40.672 168.749H43.872V169.629H39.152ZM47.7366 169.749C47.1032 169.749 46.5566 169.599 46.0966 169.299C45.6432 168.992 45.2932 168.569 45.0466 168.029C44.8066 167.482 44.6866 166.849 44.6866 166.129C44.6866 165.409 44.8066 164.779 45.0466 164.239C45.2932 163.692 45.6432 163.269 46.0966 162.969C46.5566 162.662 47.1032 162.509 47.7366 162.509C48.3699 162.509 48.9132 162.662 49.3666 162.969C49.8199 163.269 50.1666 163.692 50.4066 164.239C50.6532 164.779 50.7766 165.409 50.7766 166.129C50.7766 166.849 50.6532 167.482 50.4066 168.029C50.1666 168.569 49.8199 168.992 49.3666 169.299C48.9132 169.599 48.3699 169.749 47.7366 169.749ZM47.7366 168.799C48.1166 168.799 48.4532 168.692 48.7466 168.479C49.0466 168.266 49.2799 167.959 49.4466 167.559C49.6132 167.159 49.6966 166.682 49.6966 166.129C49.6966 165.576 49.6132 165.099 49.4466 164.699C49.2799 164.299 49.0466 163.992 48.7466 163.779C48.4532 163.566 48.1166 163.459 47.7366 163.459C47.3499 163.459 47.0099 163.566 46.7166 163.779C46.4232 163.992 46.1932 164.299 46.0266 164.699C45.8599 165.099 45.7766 165.576 45.7766 166.129C45.7766 166.682 45.8599 167.159 46.0266 167.559C46.1932 167.959 46.4232 168.266 46.7166 168.479C47.0099 168.692 47.3499 168.799 47.7366 168.799Z" fill="#24162F"/>
</g>
</g>
<g clip-path="url(#clip3_4716_17176)" filter="url(#filter3_d_4716_17176)">
<rect x="144.098" y="128.453" width="51.909" height="18.7669" rx="2" fill="#F0E5FF"/>
<path d="M156.752 141.749C156.252 141.749 155.799 141.652 155.392 141.459C154.992 141.259 154.672 140.956 154.432 140.549C154.199 140.142 154.082 139.626 154.082 138.999V134.629H155.142V139.009C155.142 139.622 155.289 140.072 155.582 140.359C155.875 140.646 156.272 140.789 156.772 140.789C157.265 140.789 157.659 140.646 157.952 140.359C158.245 140.072 158.392 139.622 158.392 139.009V134.629H159.452V138.999C159.452 139.626 159.329 140.142 159.082 140.549C158.842 140.956 158.515 141.259 158.102 141.459C157.695 141.652 157.245 141.749 156.752 141.749ZM160.812 141.629V134.629H163.222C163.775 134.629 164.228 134.722 164.582 134.909C164.942 135.096 165.208 135.349 165.382 135.669C165.555 135.982 165.642 136.332 165.642 136.719C165.642 137.152 165.525 137.546 165.292 137.899C165.065 138.252 164.708 138.506 164.222 138.659L165.712 141.629H164.482L163.122 138.809H161.872V141.629H160.812ZM161.872 138.009H163.162C163.642 138.009 163.992 137.892 164.212 137.659C164.438 137.426 164.552 137.122 164.552 136.749C164.552 136.376 164.442 136.079 164.222 135.859C164.002 135.632 163.645 135.519 163.152 135.519H161.872V138.009ZM166.896 141.629V134.629H169.536C170.262 134.629 170.812 134.799 171.186 135.139C171.559 135.479 171.746 135.906 171.746 136.419C171.746 136.866 171.626 137.222 171.386 137.489C171.146 137.749 170.856 137.926 170.516 138.019C170.782 138.072 171.019 138.179 171.226 138.339C171.439 138.499 171.606 138.699 171.726 138.939C171.846 139.179 171.906 139.439 171.906 139.719C171.906 140.079 171.816 140.406 171.636 140.699C171.462 140.986 171.206 141.212 170.866 141.379C170.526 141.546 170.109 141.629 169.616 141.629H166.896ZM167.956 137.629H169.406C169.812 137.629 170.122 137.536 170.336 137.349C170.549 137.156 170.656 136.892 170.656 136.559C170.656 136.232 170.549 135.972 170.336 135.779C170.129 135.586 169.812 135.489 169.386 135.489H167.956V137.629ZM167.956 140.759H169.476C169.902 140.759 170.232 140.659 170.466 140.459C170.706 140.259 170.826 139.979 170.826 139.619C170.826 139.259 170.702 138.976 170.456 138.769C170.209 138.556 169.876 138.449 169.456 138.449H167.956V140.759ZM172.53 141.629L175.11 134.629H176.27L178.83 141.629H177.71L177.11 139.919H174.25L173.65 141.629H172.53ZM174.55 139.079H176.81L175.68 135.889L174.55 139.079ZM179.806 141.629V134.629H180.866L184.376 139.899V134.629H185.436V141.629H184.376L180.866 136.359V141.629H179.806Z" fill="#24162F"/>
</g>
<rect x="11.7734" y="186.838" width="176.295" height="2.08521" rx="1.0426" fill="#FFD209"/>
<path fill-rule="evenodd" clip-rule="evenodd" d="M124.406 132.623C124.406 148.052 124.406 178.783 124.406 178.783C124.406 179.201 124.084 179.54 123.686 179.54H76.1557C75.758 179.54 75.4355 179.201 75.4355 178.783C75.4355 178.783 75.4355 148.093 75.4355 132.623C75.4355 130.405 99.9209 121.154 99.9209 121.154C99.9209 121.154 124.406 130.363 124.406 132.623Z" fill="white"/>
<rect x="80.332" y="139.92" width="9.79415" height="10.426" rx="1" fill="#EAE9E0"/>
<rect x="80.332" y="157.645" width="9.79415" height="10.426" rx="1" fill="#EAE9E0"/>
<rect x="95.0234" y="139.92" width="9.79415" height="10.426" rx="1" fill="#EAE9E0"/>
<rect x="95.0234" y="157.645" width="9.79415" height="10.426" rx="1" fill="#EAE9E0"/>
<rect x="109.715" y="139.92" width="9.79415" height="10.426" rx="1" fill="#EAE9E0"/>
<rect x="109.715" y="157.645" width="9.79415" height="10.426" rx="1" fill="#EAE9E0"/>
<path fill-rule="evenodd" clip-rule="evenodd" d="M69.5586 129.229C69.5586 128.802 69.829 128.423 70.232 128.284L99.9205 118.025L129.609 128.284C130.012 128.423 130.282 128.802 130.282 129.229V133.593C130.282 134.28 129.605 134.762 128.956 134.538L99.9205 124.505L70.8852 134.538C70.2357 134.762 69.5586 134.28 69.5586 133.593V129.229Z" fill="#F9F8F3"/>
<defs>
<filter id="filter0_d_4716_17176" x="25.3203" y="49.4277" width="100.537" height="58.8086" filterUnits="userSpaceOnUse" color-interpolation-filters="sRGB">
<feFlood flood-opacity="0" result="BackgroundImageFix"/>
<feColorMatrix in="SourceAlpha" type="matrix" values="0 0 0 0 0 0 0 0 0 0 0 0 0 0 0 0 0 0 127 0" result="hardAlpha"/>
<feOffset dy="3"/>
<feGaussianBlur stdDeviation="4"/>
<feColorMatrix type="matrix" values="0 0 0 0 0 0 0 0 0 0 0 0 0 0 0 0 0 0 0.16 0"/>
<feBlend mode="normal" in2="BackgroundImageFix" result="effect1_dropShadow_4716_17176"/>
<feBlend mode="normal" in="SourceGraphic" in2="effect1_dropShadow_4716_17176" result="shape"/>
</filter>
<filter id="filter1_d_4716_17176" x="83.1055" y="86.9609" width="62.0332" height="34.7676" filterUnits="userSpaceOnUse" color-interpolation-filters="sRGB">
<feFlood flood-opacity="0" result="BackgroundImageFix"/>
<feColorMatrix in="SourceAlpha" type="matrix" values="0 0 0 0 0 0 0 0 0 0 0 0 0 0 0 0 0 0 127 0" result="hardAlpha"/>
<feOffset dy="3"/>
<feGaussianBlur stdDeviation="4"/>
<feColorMatrix type="matrix" values="0 0 0 0 0 0 0 0 0 0 0 0 0 0 0 0 0 0 0.16 0"/>
<feBlend mode="normal" in2="BackgroundImageFix" result="effect1_dropShadow_4716_17176"/>
<feBlend mode="normal" in="SourceGraphic" in2="effect1_dropShadow_4716_17176" result="shape"/>
</filter>
<filter id="filter2_d_4716_17176" x="12.5879" y="151.604" width="53.2168" height="34.7676" filterUnits="userSpaceOnUse" color-interpolation-filters="sRGB">
<feFlood flood-opacity="0" result="BackgroundImageFix"/>
<feColorMatrix in="SourceAlpha" type="matrix" values="0 0 0 0 0 0 0 0 0 0 0 0 0 0 0 0 0 0 127 0" result="hardAlpha"/>
<feOffset dy="3"/>
<feGaussianBlur stdDeviation="4"/>
<feColorMatrix type="matrix" values="0 0 0 0 0 0 0 0 0 0 0 0 0 0 0 0 0 0 0.16 0"/>
<feBlend mode="normal" in2="BackgroundImageFix" result="effect1_dropShadow_4716_17176"/>
<feBlend mode="normal" in="SourceGraphic" in2="effect1_dropShadow_4716_17176" result="shape"/>
</filter>
<filter id="filter3_d_4716_17176" x="136.098" y="123.453" width="67.9082" height="34.7676" filterUnits="userSpaceOnUse" color-interpolation-filters="sRGB">
<feFlood flood-opacity="0" result="BackgroundImageFix"/>
<feColorMatrix in="SourceAlpha" type="matrix" values="0 0 0 0 0 0 0 0 0 0 0 0 0 0 0 0 0 0 127 0" result="hardAlpha"/>
<feOffset dy="3"/>
<feGaussianBlur stdDeviation="4"/>
<feColorMatrix type="matrix" values="0 0 0 0 0 0 0 0 0 0 0 0 0 0 0 0 0 0 0.16 0"/>
<feBlend mode="normal" in2="BackgroundImageFix" result="effect1_dropShadow_4716_17176"/>
<feBlend mode="normal" in="SourceGraphic" in2="effect1_dropShadow_4716_17176" result="shape"/>
</filter>
<clipPath id="clip0_4716_17176">
<rect width="82.6371" height="20.7698" fill="white" transform="matrix(0.961645 -0.274296 0.244096 0.969751 33.3203 77.0957)"/>
</clipPath>
<clipPath id="clip1_4716_17176">
<rect width="46.0325" height="18.7669" fill="white" transform="translate(91.1055 91.9609)"/>
</clipPath>
<clipPath id="clip2_4716_17176">
<rect x="20.5879" y="156.604" width="37.2178" height="18.7669" rx="2" fill="white"/>
</clipPath>
<clipPath id="clip3_4716_17176">
<rect width="51.909" height="18.7669" fill="white" transform="translate(144.098 128.453)"/>
</clipPath>
</defs>
</svg>
