<svg width="263" height="188" viewBox="0 0 263 188" fill="none" xmlns="http://www.w3.org/2000/svg">
<g opacity="0.3">
<mask id="mask0_4716_3443" style="mask-type:alpha" maskUnits="userSpaceOnUse" x="74" y="68" width="129" height="119">
<path fill-rule="evenodd" clip-rule="evenodd" d="M174.085 186.533C191.22 174.971 202.5 155.296 202.5 132.968C202.5 97.3818 173.846 68.5332 138.5 68.5332C103.154 68.5332 74.5 97.3818 74.5 132.968C74.5 155.254 85.7378 174.898 102.819 186.468L174.085 186.533Z" fill="white" fill-opacity="0.5"/>
</mask>
<g mask="url(#mask0_4716_3443)">
<path d="M138 68.5918C102.645 68.5918 74 97.4317 74 133.027C74 168.622 102.645 197.462 138 197.462C173.355 197.462 202 168.622 202 133.027C202 97.4317 173.355 68.5918 138 68.5918ZM189.613 133.027C189.613 138.873 188.606 144.511 186.826 149.759H181.587C180.477 149.759 179.419 149.317 178.645 148.512L170.387 140.042C169.226 138.847 169.226 136.898 170.413 135.703L173.639 132.455V130.195C173.639 129.415 173.329 128.662 172.787 128.116L170.361 125.674C169.819 125.128 169.071 124.817 168.297 124.817H164.168C162.568 124.817 161.252 123.491 161.252 121.881C161.252 121.101 161.561 120.348 162.103 119.802L164.529 117.36C165.071 116.814 165.819 116.502 166.594 116.502H174.852C176.452 116.502 177.768 115.177 177.768 113.566V111.124C177.768 109.513 176.452 108.188 174.852 108.188H165.381C163.11 108.188 161.252 110.059 161.252 112.345V113.514C161.252 115.307 160.116 116.892 158.439 117.464L150.284 120.192C149.432 120.478 148.865 121.257 148.865 122.166V122.738C148.865 123.881 147.935 124.817 146.8 124.817H142.671C141.535 124.817 140.606 123.881 140.606 122.738C140.606 121.595 139.677 120.659 138.542 120.659H137.742C136.968 120.659 136.245 121.101 135.884 121.803L133.458 126.661C132.761 128.064 131.342 128.948 129.768 128.948H124.065C121.794 128.948 119.935 127.077 119.935 124.791V118.217C119.935 117.126 120.374 116.061 121.148 115.281L126.335 110.059C127.523 108.864 128.194 107.227 128.194 105.512C128.194 104.629 128.761 103.823 129.613 103.537L139.935 100.082C140.374 99.9259 140.761 99.6921 141.071 99.3803L147.987 92.4172C148.529 91.8716 148.839 91.1181 148.839 90.3386C148.839 88.7277 147.523 87.4027 145.923 87.4027H140.581L136.452 91.5598V93.6383C136.452 94.7815 135.523 95.7169 134.387 95.7169H130.258C129.123 95.7169 128.194 94.7815 128.194 93.6383V88.4419C128.194 87.7924 128.503 87.1688 129.019 86.7791L136.477 81.141C136.968 81.1151 137.458 81.0631 137.948 81.0631C166.465 81.0631 189.613 104.369 189.613 133.027ZM107.574 105.252C107.574 104.473 107.884 103.719 108.426 103.174L114.981 96.5743C115.523 96.0287 116.271 95.7169 117.045 95.7169C118.645 95.7169 119.961 97.0419 119.961 98.6528V102.81C119.961 103.589 119.652 104.343 119.11 104.888L116.684 107.331C116.142 107.876 115.394 108.188 114.619 108.188H110.49C108.89 108.188 107.574 106.863 107.574 105.252ZM140.606 184.861V183.016C140.606 180.73 138.748 178.859 136.477 178.859H131.265C128.477 178.859 124.374 177.482 122.129 175.793L116.4 171.454C113.432 169.22 111.703 165.712 111.703 161.997V155.787C111.703 151.63 113.871 147.785 117.406 145.654L128.477 138.977C130.31 137.885 132.4 137.288 134.516 137.288H142.568C145.381 137.288 148.09 138.301 150.206 140.12L161.355 149.759H166.077C168.271 149.759 170.361 150.643 171.91 152.201L176.374 156.696C177.252 157.58 178.465 158.073 179.703 158.073H183.161C174.8 173.377 158.955 183.925 140.606 184.861Z" fill="black"/>
</g>
</g>
<path fill-rule="evenodd" clip-rule="evenodd" d="M174.085 186.325C191.22 174.784 202.5 155.143 202.5 132.855C202.5 97.331 173.846 68.5332 138.5 68.5332C103.154 68.5332 74.5 97.331 74.5 132.855C74.5 155.102 85.7378 174.711 102.819 186.261L174.085 186.325Z" fill="white" fill-opacity="0.2"/>
<path fill-rule="evenodd" clip-rule="evenodd" d="M195.157 187.134C222.199 168.896 240 137.86 240 102.64C240 46.5059 194.781 1 139 1C83.2192 1 38 46.5059 38 102.64C38 137.795 55.7347 168.78 82.6916 187.032L195.157 187.134Z" stroke="#FFD209" stroke-dasharray="10"/>
<path fill-rule="evenodd" clip-rule="evenodd" d="M106.781 32.413L110.442 32.8209L108.809 29.5023L109.214 25.8222L105.912 27.4642L102.251 27.0563L103.885 30.3749L103.479 34.0549L106.781 32.413Z" fill="#D3C1E5"/>
<path fill-rule="evenodd" clip-rule="evenodd" d="M134.938 49.3839L137.906 51.5772L138.142 47.8823L140.324 44.8992L136.648 44.6619L133.68 42.4686L133.443 46.1636L131.261 49.1466L134.938 49.3839Z" fill="#D3C1E5"/>
<path fill-rule="evenodd" clip-rule="evenodd" d="M72.2056 77.139L76.2334 77.5877L74.4363 73.9373L74.8827 69.8892L71.2505 71.6954L67.2227 71.2467L69.0199 74.8971L68.5734 78.9452L72.2056 77.139Z" fill="#D3C1E5"/>
<path fill-rule="evenodd" clip-rule="evenodd" d="M226.431 100.404L230.393 102.374L229.906 97.9579L231.867 93.9756L227.473 94.4651L223.51 92.4948L223.997 96.9108L222.037 100.893L226.431 100.404Z" fill="#FFD209"/>
<path fill-rule="evenodd" clip-rule="evenodd" d="M100.5 55.5227H104.397L102.449 58.9147L100.5 62.3066L98.5514 58.9147L96.6029 55.5227H100.5Z" fill="#FFD209"/>
<path fill-rule="evenodd" clip-rule="evenodd" d="M59.5 113.816H63.3971L61.4486 117.208L59.5 120.6L57.5514 117.208L55.6029 113.816H59.5Z" fill="#FFD209"/>
<path fill-rule="evenodd" clip-rule="evenodd" d="M186 29.6432H190.33L188.165 25.8743L186 22.1055L183.835 25.8743L181.67 29.6432H186Z" fill="#D3C1E5"/>
<path fill-rule="evenodd" clip-rule="evenodd" d="M151.228 24.3719L154.89 24.7799L153.256 21.4613L153.662 17.7812L150.36 19.4232L146.698 19.0153L148.332 22.3339L147.926 26.0139L151.228 24.3719Z" fill="#FFD209"/>
<rect x="49" y="185.924" width="180" height="2.01004" rx="1.00502" fill="#FFD209"/>
<g filter="url(#filter0_d_4716_3443)">
<g filter="url(#filter1_d_4716_3443)">
<path d="M147.542 97.3145C147.84 96.2509 147.22 95.1448 146.158 94.8439L114.804 85.9673C113.741 85.6664 112.638 86.2846 112.34 87.3482L107.213 105.639L105.337 112.333C105.096 113.192 106.014 113.915 106.791 113.478L109.946 111.701C110.408 111.44 110.956 111.375 111.468 111.52L139.277 119.393C140.34 119.694 141.443 119.075 141.741 118.012L147.542 97.3145Z" fill="#F9F8F3"/>
</g>
<rect width="22.3996" height="2.06716" rx="1.03358" transform="matrix(0.962182 0.272406 -0.269888 0.962892 116.689 92.2305)" fill="#FFD209"/>
<rect width="16.4263" height="2.06716" rx="1.03358" transform="matrix(0.962182 0.272406 -0.269888 0.962892 113.342 104.172)" fill="#FFD209"/>
<rect width="11.9464" height="2.06716" rx="1.03358" transform="matrix(0.962182 0.272406 -0.269888 0.962892 115.016 98.2012)" fill="#FFD209"/>
</g>
<g filter="url(#filter2_d_4716_3443)">
<g filter="url(#filter3_d_4716_3443)">
<path d="M94.6457 149C94.2891 147.955 94.8466 146.816 95.8909 146.456L129.36 134.924C130.404 134.564 131.54 135.12 131.896 136.165L138.548 155.665L141.025 162.924C141.313 163.769 140.436 164.542 139.637 164.149L135.915 162.318C135.439 162.084 134.888 162.05 134.385 162.223L104.752 172.433C103.708 172.793 102.572 172.237 102.216 171.192L94.6457 149Z" fill="#F9F8F3"/>
<path d="M94.6457 149C94.2891 147.955 94.8466 146.816 95.8909 146.456L129.36 134.924C130.404 134.564 131.54 135.12 131.896 136.165L138.548 155.665L141.025 162.924C141.313 163.769 140.436 164.542 139.637 164.149L135.915 162.318C135.439 162.084 134.888 162.05 134.385 162.223L104.752 172.433C103.708 172.793 102.572 172.237 102.216 171.192L94.6457 149Z" stroke="#979797"/>
</g>
<rect width="24.1224" height="2.22545" rx="1.11272" transform="matrix(0.94545 -0.325766 0.322857 0.946448 105.039 149.58)" fill="#352245"/>
<rect width="17.6898" height="2.22545" rx="1.11272" transform="matrix(0.94545 -0.325766 0.322857 0.946448 115.432 160.123)" fill="#352245"/>
<rect width="20.9061" height="2.22545" rx="1.11272" transform="matrix(0.94545 -0.325766 0.322857 0.946448 110.234 154.852)" fill="#352245"/>
</g>
<g clip-path="url(#clip0_4716_3443)">
<g filter="url(#filter4_d_4716_3443)">
<path fill-rule="evenodd" clip-rule="evenodd" d="M156.04 136.124V146.334C156.04 146.552 155.865 146.728 155.65 146.728H155.39C155.175 146.728 155 146.552 155 146.334V136.474V121.938C155 121.786 155.065 121.642 155.178 121.542C155.89 120.913 157.99 120.598 161.476 120.598C165.143 120.598 169.625 123.627 175.019 123.627C176.705 123.627 178.699 123.001 181 121.75V136.474C179.714 137.393 177.72 137.853 175.019 137.853C169.339 137.853 165.149 135.655 161.476 135.655C159.11 135.655 157.298 135.811 156.04 136.124Z" fill="white"/>
</g>
</g>
<g filter="url(#filter5_d_4716_3443)">
<rect x="8" y="105.559" width="62" height="18.0905" rx="2" fill="#F0E5FF"/>
</g>
<path d="M18.71 118V111H23.16V111.86H19.77V114.04H22.86V114.88H19.77V117.14H23.16V118H18.71ZM24.4229 118V111H25.4829L28.9929 116.27V111H30.0529V118H28.9929L25.4829 112.73V118H24.4229ZM34.5137 118.12C33.8537 118.12 33.277 117.97 32.7837 117.67C32.2903 117.37 31.907 116.95 31.6337 116.41C31.3603 115.87 31.2237 115.24 31.2237 114.52C31.2237 113.807 31.3637 113.177 31.6437 112.63C31.9237 112.083 32.3203 111.657 32.8337 111.35C33.3537 111.037 33.967 110.88 34.6737 110.88C35.4737 110.88 36.1403 111.073 36.6737 111.46C37.207 111.847 37.5537 112.38 37.7137 113.06H36.5137C36.407 112.687 36.197 112.393 35.8837 112.18C35.5703 111.967 35.167 111.86 34.6737 111.86C33.9403 111.86 33.3637 112.097 32.9437 112.57C32.5237 113.043 32.3137 113.697 32.3137 114.53C32.3137 115.363 32.5203 116.013 32.9337 116.48C33.347 116.947 33.897 117.18 34.5837 117.18C35.277 117.18 35.797 116.983 36.1437 116.59C36.497 116.197 36.7037 115.673 36.7637 115.02H34.8637V114.2H37.8337V118H36.8637L36.7737 116.97C36.5403 117.337 36.247 117.62 35.8937 117.82C35.5403 118.02 35.0803 118.12 34.5137 118.12ZM39.1202 118V111H40.1802V117.16H43.3602V118H39.1202ZM44.501 118V111H45.561V118H44.501ZM49.2915 118.12C48.7782 118.12 48.3282 118.03 47.9415 117.85C47.5548 117.67 47.2515 117.413 47.0315 117.08C46.8182 116.747 46.7082 116.35 46.7015 115.89H47.8215C47.8282 116.263 47.9582 116.58 48.2115 116.84C48.4648 117.1 48.8215 117.23 49.2815 117.23C49.6882 117.23 50.0048 117.133 50.2315 116.94C50.4648 116.74 50.5815 116.487 50.5815 116.18C50.5815 115.933 50.5248 115.733 50.4115 115.58C50.3048 115.427 50.1548 115.3 49.9615 115.2C49.7748 115.1 49.5582 115.01 49.3115 114.93C49.0648 114.85 48.8048 114.763 48.5315 114.67C47.9915 114.49 47.5848 114.257 47.3115 113.97C47.0448 113.683 46.9115 113.307 46.9115 112.84C46.9048 112.447 46.9948 112.103 47.1815 111.81C47.3748 111.517 47.6415 111.29 47.9815 111.13C48.3282 110.963 48.7315 110.88 49.1915 110.88C49.6448 110.88 50.0415 110.963 50.3815 111.13C50.7282 111.297 50.9982 111.53 51.1915 111.83C51.3848 112.123 51.4848 112.467 51.4915 112.86H50.3715C50.3715 112.68 50.3248 112.51 50.2315 112.35C50.1382 112.183 50.0015 112.047 49.8215 111.94C49.6415 111.833 49.4215 111.78 49.1615 111.78C48.8282 111.773 48.5515 111.857 48.3315 112.03C48.1182 112.203 48.0115 112.443 48.0115 112.75C48.0115 113.023 48.0915 113.233 48.2515 113.38C48.4115 113.527 48.6315 113.65 48.9115 113.75C49.1915 113.843 49.5115 113.953 49.8715 114.08C50.2182 114.193 50.5282 114.33 50.8015 114.49C51.0748 114.65 51.2915 114.86 51.4515 115.12C51.6182 115.38 51.7015 115.71 51.7015 116.11C51.7015 116.463 51.6115 116.793 51.4315 117.1C51.2515 117.4 50.9815 117.647 50.6215 117.84C50.2615 118.027 49.8182 118.12 49.2915 118.12ZM52.8604 118V111H53.9204V114H57.3104V111H58.3704V118H57.3104V114.87H53.9204V118H52.8604Z" fill="#24162F"/>
<g filter="url(#filter6_d_4716_3443)">
<rect x="188" y="54.3008" width="63" height="18.0905" rx="2" fill="#F0E5FF"/>
</g>
<path d="M198.55 67V60H200.96C201.513 60 201.967 60.0933 202.32 60.28C202.68 60.4667 202.947 60.72 203.12 61.04C203.293 61.3533 203.38 61.7033 203.38 62.09C203.38 62.5233 203.263 62.9167 203.03 63.27C202.803 63.6233 202.447 63.8767 201.96 64.03L203.45 67H202.22L200.86 64.18H199.61V67H198.55ZM199.61 63.38H200.9C201.38 63.38 201.73 63.2633 201.95 63.03C202.177 62.7967 202.29 62.4933 202.29 62.12C202.29 61.7467 202.18 61.45 201.96 61.23C201.74 61.0033 201.383 60.89 200.89 60.89H199.61V63.38ZM207.864 67.12C207.17 67.12 206.564 66.9667 206.044 66.66C205.524 66.3533 205.117 65.93 204.824 65.39C204.53 64.8433 204.384 64.2133 204.384 63.5C204.384 62.7867 204.53 62.16 204.824 61.62C205.117 61.0733 205.524 60.6467 206.044 60.34C206.564 60.0333 207.17 59.88 207.864 59.88C208.557 59.88 209.164 60.0333 209.684 60.34C210.204 60.6467 210.607 61.0733 210.894 61.62C211.187 62.16 211.334 62.7867 211.334 63.5C211.334 64.2133 211.187 64.8433 210.894 65.39C210.607 65.93 210.204 66.3533 209.684 66.66C209.164 66.9667 208.557 67.12 207.864 67.12ZM207.864 66.17C208.344 66.17 208.76 66.0633 209.114 65.85C209.474 65.6367 209.754 65.33 209.954 64.93C210.154 64.53 210.254 64.0533 210.254 63.5C210.254 62.9467 210.154 62.47 209.954 62.07C209.754 61.67 209.474 61.3633 209.114 61.15C208.76 60.9367 208.344 60.83 207.864 60.83C207.384 60.83 206.964 60.9367 206.604 61.15C206.244 61.3633 205.964 61.67 205.764 62.07C205.57 62.47 205.474 62.9467 205.474 63.5C205.474 64.0533 205.57 64.53 205.764 64.93C205.964 65.33 206.244 65.6367 206.604 65.85C206.964 66.0633 207.384 66.17 207.864 66.17ZM212.515 67V60H213.765L216.135 64.66L218.495 60H219.745V67H218.685V61.83L216.545 66H215.725L213.575 61.84V67H212.515ZM220.717 67L223.297 60H224.457L227.017 67H225.897L225.297 65.29H222.437L221.837 67H220.717ZM222.737 64.45H224.997L223.867 61.26L222.737 64.45ZM222.457 59.49V58.7L223.867 57.89L225.287 58.7V59.49L223.867 58.66L222.457 59.49ZM227.993 67V60H229.053L232.563 65.27V60H233.623V67H232.563L229.053 61.73V67H227.993ZM234.594 67L237.174 60H238.334L240.894 67H239.774L239.174 65.29H236.314L235.714 67H234.594ZM236.614 64.45H238.874L237.744 61.26L236.614 64.45ZM237.744 59.47C237.277 59.47 236.914 59.34 236.654 59.08C236.401 58.8133 236.274 58.4733 236.274 58.06V57.91H236.864C236.864 58.15 236.931 58.3367 237.064 58.47C237.197 58.5967 237.424 58.66 237.744 58.66C238.071 58.66 238.301 58.5967 238.434 58.47C238.567 58.3367 238.634 58.15 238.634 57.91H239.234V58.06C239.234 58.48 239.104 58.82 238.844 59.08C238.584 59.34 238.217 59.47 237.744 59.47Z" fill="#24162F"/>
<g filter="url(#filter7_d_4716_3443)">
<rect x="207" y="139" width="48" height="18" rx="2" fill="#F0E5FF"/>
</g>
<path d="M214.71 151V144H217.16C217.707 144 218.16 144.093 218.52 144.28C218.88 144.46 219.147 144.71 219.32 145.03C219.5 145.343 219.59 145.7 219.59 146.1C219.59 146.48 219.503 146.83 219.33 147.15C219.163 147.463 218.9 147.713 218.54 147.9C218.18 148.087 217.72 148.18 217.16 148.18H215.77V151H214.71ZM215.77 147.31H217.11C217.61 147.31 217.967 147.203 218.18 146.99C218.4 146.77 218.51 146.473 218.51 146.1C218.51 145.713 218.4 145.413 218.18 145.2C217.967 144.98 217.61 144.87 217.11 144.87H215.77V147.31ZM223.868 151.12C223.174 151.12 222.568 150.967 222.048 150.66C221.528 150.353 221.121 149.93 220.828 149.39C220.534 148.843 220.388 148.213 220.388 147.5C220.388 146.787 220.534 146.16 220.828 145.62C221.121 145.073 221.528 144.647 222.048 144.34C222.568 144.033 223.174 143.88 223.868 143.88C224.561 143.88 225.168 144.033 225.688 144.34C226.208 144.647 226.611 145.073 226.898 145.62C227.191 146.16 227.338 146.787 227.338 147.5C227.338 148.213 227.191 148.843 226.898 149.39C226.611 149.93 226.208 150.353 225.688 150.66C225.168 150.967 224.561 151.12 223.868 151.12ZM223.868 150.17C224.348 150.17 224.764 150.063 225.118 149.85C225.478 149.637 225.758 149.33 225.958 148.93C226.158 148.53 226.258 148.053 226.258 147.5C226.258 146.947 226.158 146.47 225.958 146.07C225.758 145.67 225.478 145.363 225.118 145.15C224.764 144.937 224.348 144.83 223.868 144.83C223.388 144.83 222.968 144.937 222.608 145.15C222.248 145.363 221.968 145.67 221.768 146.07C221.574 146.47 221.478 146.947 221.478 147.5C221.478 148.053 221.574 148.53 221.768 148.93C221.968 149.33 222.248 149.637 222.608 149.85C222.968 150.063 223.388 150.17 223.868 150.17ZM228.519 151V144H229.579V150.16H232.759V151H228.519ZM235.907 151.12C235.393 151.12 234.943 151.03 234.557 150.85C234.17 150.67 233.867 150.413 233.647 150.08C233.433 149.747 233.323 149.35 233.317 148.89H234.437C234.443 149.263 234.573 149.58 234.827 149.84C235.08 150.1 235.437 150.23 235.897 150.23C236.303 150.23 236.62 150.133 236.847 149.94C237.08 149.74 237.197 149.487 237.197 149.18C237.197 148.933 237.14 148.733 237.027 148.58C236.92 148.427 236.77 148.3 236.577 148.2C236.39 148.1 236.173 148.01 235.927 147.93C235.68 147.85 235.42 147.763 235.147 147.67C234.607 147.49 234.2 147.257 233.927 146.97C233.66 146.683 233.527 146.307 233.527 145.84C233.52 145.447 233.61 145.103 233.797 144.81C233.99 144.517 234.257 144.29 234.597 144.13C234.943 143.963 235.347 143.88 235.807 143.88C236.26 143.88 236.657 143.963 236.997 144.13C237.343 144.297 237.613 144.53 237.807 144.83C238 145.123 238.1 145.467 238.107 145.86H236.987C236.987 145.68 236.94 145.51 236.847 145.35C236.753 145.183 236.617 145.047 236.437 144.94C236.257 144.833 236.037 144.78 235.777 144.78C235.443 144.773 235.167 144.857 234.947 145.03C234.733 145.203 234.627 145.443 234.627 145.75C234.627 146.023 234.707 146.233 234.867 146.38C235.027 146.527 235.247 146.65 235.527 146.75C235.807 146.843 236.127 146.953 236.487 147.08C236.833 147.193 237.143 147.33 237.417 147.49C237.69 147.65 237.907 147.86 238.067 148.12C238.233 148.38 238.317 148.71 238.317 149.11C238.317 149.463 238.227 149.793 238.047 150.1C237.867 150.4 237.597 150.647 237.237 150.84C236.877 151.027 236.433 151.12 235.907 151.12ZM239.476 151V144H240.536V147L243.296 144H244.606L242.016 146.79L244.666 151H243.376L241.256 147.6L240.536 148.38V151H239.476ZM245.589 151V144H246.649V151H245.589Z" fill="#24162F"/>
<g filter="url(#filter8_d_4716_3443)">
<rect x="23" y="33" width="72" height="18" rx="2" fill="#F0E5FF"/>
</g>
<path d="M30.97 45V37.86H35.21V38.65H31.87V40.88H32.93C33.6433 40.88 34.1967 40.97 34.59 41.15C34.9833 41.3233 35.2567 41.5633 35.41 41.87C35.5633 42.17 35.64 42.5167 35.64 42.91C35.64 43.3433 35.5533 43.7167 35.38 44.03C35.2133 44.3433 34.94 44.5833 34.56 44.75C34.18 44.9167 33.68 45 33.06 45H30.97ZM32.97 44.23C33.61 44.23 34.06 44.1233 34.32 43.91C34.58 43.69 34.71 43.3567 34.71 42.91C34.71 42.6033 34.6467 42.36 34.52 42.18C34.4 41.9933 34.2 41.86 33.92 41.78C33.6467 41.7 33.28 41.66 32.82 41.66H31.87V44.23H32.97ZM37.8923 45V38.65H36.2323V37.86H38.7823V40.88H39.9123C40.579 40.88 41.1057 40.97 41.4923 41.15C41.879 41.33 42.1523 41.5733 42.3123 41.88C42.479 42.1867 42.5623 42.53 42.5623 42.91C42.5623 43.33 42.4723 43.6967 42.2923 44.01C42.1123 44.3233 41.8357 44.5667 41.4623 44.74C41.0957 44.9133 40.619 45 40.0323 45H37.8923ZM39.9423 44.23C40.5223 44.23 40.949 44.1233 41.2223 43.91C41.4957 43.69 41.6323 43.3567 41.6323 42.91C41.6323 42.6033 41.5657 42.36 41.4323 42.18C41.299 41.9933 41.0957 41.86 40.8223 41.78C40.5557 41.7 40.2157 41.66 39.8023 41.66H38.7823V44.23H39.9423ZM49.1862 45H48.2862V38.65H46.0262C45.9795 39.0167 45.9295 39.4033 45.8762 39.81C45.8228 40.21 45.7662 40.6067 45.7062 41C45.6528 41.3933 45.5995 41.7633 45.5462 42.11C45.4928 42.4567 45.4395 42.76 45.3862 43.02C45.2995 43.4667 45.1928 43.8467 45.0662 44.16C44.9395 44.4733 44.7695 44.71 44.5562 44.87C44.3495 45.03 44.0762 45.11 43.7362 45.11C43.6228 45.11 43.5062 45.0967 43.3862 45.07C43.2728 45.05 43.1728 45.0233 43.0862 44.99V44.24C43.1595 44.2733 43.2428 44.3033 43.3362 44.33C43.4295 44.35 43.5295 44.36 43.6362 44.36C43.8362 44.36 43.9928 44.28 44.1062 44.12C44.2262 43.9533 44.3195 43.75 44.3862 43.51C44.4528 43.2633 44.5095 43.02 44.5562 42.78C44.5962 42.5867 44.6428 42.33 44.6962 42.01C44.7495 41.6833 44.8062 41.3033 44.8662 40.87C44.9328 40.4367 44.9995 39.9667 45.0662 39.46C45.1395 38.9467 45.2095 38.4133 45.2762 37.86H49.1862V45ZM55.1562 37.86V38.66H52.0263V45H51.1263V37.86H55.1562ZM60.1473 45L59.2873 42.79H56.4573L55.6073 45H54.6973L57.4873 37.83H58.2973L61.0773 45H60.1473ZM58.2173 39.83C58.1973 39.7767 58.1639 39.68 58.1173 39.54C58.0706 39.4 58.0239 39.2567 57.9773 39.11C57.9373 38.9567 57.9039 38.84 57.8773 38.76C57.8439 38.8933 57.8073 39.03 57.7673 39.17C57.7339 39.3033 57.6973 39.4267 57.6573 39.54C57.6239 39.6533 57.5939 39.75 57.5673 39.83L56.7573 41.99H59.0173L58.2173 39.83ZM63.944 37.86C64.8773 37.86 65.5573 38.0433 65.984 38.41C66.4107 38.7767 66.624 39.2933 66.624 39.96C66.624 40.2533 66.574 40.5367 66.474 40.81C66.3807 41.0767 66.224 41.3167 66.004 41.53C65.784 41.7433 65.4907 41.9133 65.124 42.04C64.7573 42.16 64.3073 42.22 63.774 42.22H62.954V45H62.054V37.86H63.944ZM63.864 38.63H62.954V41.45H63.674C64.1273 41.45 64.504 41.4033 64.804 41.31C65.104 41.21 65.3273 41.0533 65.474 40.84C65.6207 40.6267 65.694 40.3467 65.694 40C65.694 39.54 65.5473 39.1967 65.254 38.97C64.9607 38.7433 64.4973 38.63 63.864 38.63ZM71.1687 38.55C70.7887 38.55 70.4453 38.6167 70.1387 38.75C69.832 38.8767 69.572 39.0667 69.3587 39.32C69.1453 39.5667 68.982 39.87 68.8687 40.23C68.7553 40.5833 68.6987 40.9833 68.6987 41.43C68.6987 42.0167 68.7887 42.5267 68.9687 42.96C69.1553 43.3933 69.4287 43.7267 69.7887 43.96C70.1553 44.1933 70.612 44.31 71.1587 44.31C71.472 44.31 71.7687 44.2833 72.0487 44.23C72.3287 44.1767 72.602 44.11 72.8687 44.03V44.81C72.602 44.91 72.3253 44.9833 72.0387 45.03C71.7587 45.0767 71.422 45.1 71.0287 45.1C70.302 45.1 69.6953 44.95 69.2087 44.65C68.722 44.35 68.3553 43.9233 68.1087 43.37C67.8687 42.8167 67.7487 42.1667 67.7487 41.42C67.7487 40.88 67.822 40.3867 67.9687 39.94C68.122 39.4933 68.342 39.1067 68.6287 38.78C68.922 38.4533 69.282 38.2033 69.7087 38.03C70.1353 37.85 70.6253 37.76 71.1787 37.76C71.5453 37.76 71.8987 37.7967 72.2387 37.87C72.5787 37.9433 72.882 38.0467 73.1487 38.18L72.7887 38.94C72.5687 38.84 72.322 38.75 72.0487 38.67C71.782 38.59 71.4887 38.55 71.1687 38.55ZM79.637 45H78.557L75.327 41.38V45H74.427V37.86H75.327V41.32L78.477 37.86H79.497L76.397 41.33L79.637 45ZM80.6187 37.86H81.4587V41.78C81.4587 41.9467 81.4553 42.13 81.4487 42.33C81.4487 42.5233 81.4453 42.7167 81.4387 42.91C81.432 43.1033 81.422 43.2767 81.4087 43.43C81.402 43.5767 81.3953 43.69 81.3887 43.77H81.4287L85.3587 37.86H86.3587V45H85.5187V41.12C85.5187 40.94 85.522 40.7467 85.5287 40.54C85.5353 40.3267 85.542 40.1233 85.5487 39.93C85.562 39.73 85.572 39.5533 85.5787 39.4C85.5853 39.2467 85.592 39.1333 85.5987 39.06H85.5587L81.6187 45H80.6187V37.86Z" fill="#24162F"/>
<defs>
<filter id="filter0_d_4716_3443" x="101.299" y="81.8906" width="50.3184" height="41.5781" filterUnits="userSpaceOnUse" color-interpolation-filters="sRGB">
<feFlood flood-opacity="0" result="BackgroundImageFix"/>
<feColorMatrix in="SourceAlpha" type="matrix" values="0 0 0 0 0 0 0 0 0 0 0 0 0 0 0 0 0 0 127 0" result="hardAlpha"/>
<feOffset/>
<feGaussianBlur stdDeviation="2"/>
<feColorMatrix type="matrix" values="0 0 0 0 0 0 0 0 0 0 0 0 0 0 0 0 0 0 0.1 0"/>
<feBlend mode="normal" in2="BackgroundImageFix" result="effect1_dropShadow_4716_3443"/>
<feBlend mode="normal" in="SourceGraphic" in2="effect1_dropShadow_4716_3443" result="shape"/>
</filter>
<filter id="filter1_d_4716_3443" x="99.2988" y="81.8906" width="54.3184" height="45.5781" filterUnits="userSpaceOnUse" color-interpolation-filters="sRGB">
<feFlood flood-opacity="0" result="BackgroundImageFix"/>
<feColorMatrix in="SourceAlpha" type="matrix" values="0 0 0 0 0 0 0 0 0 0 0 0 0 0 0 0 0 0 127 0" result="hardAlpha"/>
<feOffset dy="2"/>
<feGaussianBlur stdDeviation="3"/>
<feColorMatrix type="matrix" values="0 0 0 0 0 0 0 0 0 0 0 0 0 0 0 0 0 0 0.1 0"/>
<feBlend mode="normal" in2="BackgroundImageFix" result="effect1_dropShadow_4716_3443"/>
<feBlend mode="normal" in="SourceGraphic" in2="effect1_dropShadow_4716_3443" result="shape"/>
</filter>
<filter id="filter2_d_4716_3443" x="90.5371" y="130.814" width="54.543" height="45.7285" filterUnits="userSpaceOnUse" color-interpolation-filters="sRGB">
<feFlood flood-opacity="0" result="BackgroundImageFix"/>
<feColorMatrix in="SourceAlpha" type="matrix" values="0 0 0 0 0 0 0 0 0 0 0 0 0 0 0 0 0 0 127 0" result="hardAlpha"/>
<feOffset/>
<feGaussianBlur stdDeviation="2"/>
<feColorMatrix type="matrix" values="0 0 0 0 0 0 0 0 0 0 0 0 0 0 0 0 0 0 0.1 0"/>
<feBlend mode="normal" in2="BackgroundImageFix" result="effect1_dropShadow_4716_3443"/>
<feBlend mode="normal" in="SourceGraphic" in2="effect1_dropShadow_4716_3443" result="shape"/>
</filter>
<filter id="filter3_d_4716_3443" x="88.5371" y="130.814" width="58.543" height="49.7285" filterUnits="userSpaceOnUse" color-interpolation-filters="sRGB">
<feFlood flood-opacity="0" result="BackgroundImageFix"/>
<feColorMatrix in="SourceAlpha" type="matrix" values="0 0 0 0 0 0 0 0 0 0 0 0 0 0 0 0 0 0 127 0" result="hardAlpha"/>
<feOffset dy="2"/>
<feGaussianBlur stdDeviation="3"/>
<feColorMatrix type="matrix" values="0 0 0 0 0 0 0 0 0 0 0 0 0 0 0 0 0 0 0.1 0"/>
<feBlend mode="normal" in2="BackgroundImageFix" result="effect1_dropShadow_4716_3443"/>
<feBlend mode="normal" in="SourceGraphic" in2="effect1_dropShadow_4716_3443" result="shape"/>
</filter>
<filter id="filter4_d_4716_3443" x="149" y="116.598" width="38" height="38.1309" filterUnits="userSpaceOnUse" color-interpolation-filters="sRGB">
<feFlood flood-opacity="0" result="BackgroundImageFix"/>
<feColorMatrix in="SourceAlpha" type="matrix" values="0 0 0 0 0 0 0 0 0 0 0 0 0 0 0 0 0 0 127 0" result="hardAlpha"/>
<feOffset dy="2"/>
<feGaussianBlur stdDeviation="3"/>
<feColorMatrix type="matrix" values="0 0 0 0 0 0 0 0 0 0 0 0 0 0 0 0 0 0 0.1 0"/>
<feBlend mode="normal" in2="BackgroundImageFix" result="effect1_dropShadow_4716_3443"/>
<feBlend mode="normal" in="SourceGraphic" in2="effect1_dropShadow_4716_3443" result="shape"/>
</filter>
<filter id="filter5_d_4716_3443" x="0" y="100.559" width="78" height="34.0898" filterUnits="userSpaceOnUse" color-interpolation-filters="sRGB">
<feFlood flood-opacity="0" result="BackgroundImageFix"/>
<feColorMatrix in="SourceAlpha" type="matrix" values="0 0 0 0 0 0 0 0 0 0 0 0 0 0 0 0 0 0 127 0" result="hardAlpha"/>
<feOffset dy="3"/>
<feGaussianBlur stdDeviation="4"/>
<feColorMatrix type="matrix" values="0 0 0 0 0 0 0 0 0 0 0 0 0 0 0 0 0 0 0.16 0"/>
<feBlend mode="normal" in2="BackgroundImageFix" result="effect1_dropShadow_4716_3443"/>
<feBlend mode="normal" in="SourceGraphic" in2="effect1_dropShadow_4716_3443" result="shape"/>
</filter>
<filter id="filter6_d_4716_3443" x="180" y="49.3008" width="79" height="34.0898" filterUnits="userSpaceOnUse" color-interpolation-filters="sRGB">
<feFlood flood-opacity="0" result="BackgroundImageFix"/>
<feColorMatrix in="SourceAlpha" type="matrix" values="0 0 0 0 0 0 0 0 0 0 0 0 0 0 0 0 0 0 127 0" result="hardAlpha"/>
<feOffset dy="3"/>
<feGaussianBlur stdDeviation="4"/>
<feColorMatrix type="matrix" values="0 0 0 0 0 0 0 0 0 0 0 0 0 0 0 0 0 0 0.16 0"/>
<feBlend mode="normal" in2="BackgroundImageFix" result="effect1_dropShadow_4716_3443"/>
<feBlend mode="normal" in="SourceGraphic" in2="effect1_dropShadow_4716_3443" result="shape"/>
</filter>
<filter id="filter7_d_4716_3443" x="199" y="134" width="64" height="34" filterUnits="userSpaceOnUse" color-interpolation-filters="sRGB">
<feFlood flood-opacity="0" result="BackgroundImageFix"/>
<feColorMatrix in="SourceAlpha" type="matrix" values="0 0 0 0 0 0 0 0 0 0 0 0 0 0 0 0 0 0 127 0" result="hardAlpha"/>
<feOffset dy="3"/>
<feGaussianBlur stdDeviation="4"/>
<feColorMatrix type="matrix" values="0 0 0 0 0 0 0 0 0 0 0 0 0 0 0 0 0 0 0.16 0"/>
<feBlend mode="normal" in2="BackgroundImageFix" result="effect1_dropShadow_4716_3443"/>
<feBlend mode="normal" in="SourceGraphic" in2="effect1_dropShadow_4716_3443" result="shape"/>
</filter>
<filter id="filter8_d_4716_3443" x="15" y="28" width="88" height="34" filterUnits="userSpaceOnUse" color-interpolation-filters="sRGB">
<feFlood flood-opacity="0" result="BackgroundImageFix"/>
<feColorMatrix in="SourceAlpha" type="matrix" values="0 0 0 0 0 0 0 0 0 0 0 0 0 0 0 0 0 0 127 0" result="hardAlpha"/>
<feOffset dy="3"/>
<feGaussianBlur stdDeviation="4"/>
<feColorMatrix type="matrix" values="0 0 0 0 0 0 0 0 0 0 0 0 0 0 0 0 0 0 0.16 0"/>
<feBlend mode="normal" in2="BackgroundImageFix" result="effect1_dropShadow_4716_3443"/>
<feBlend mode="normal" in="SourceGraphic" in2="effect1_dropShadow_4716_3443" result="shape"/>
</filter>
<clipPath id="clip0_4716_3443">
<rect width="32" height="32.1608" fill="white" transform="translate(151.984 117.582)"/>
</clipPath>
</defs>
</svg>
