<svg width="281" height="65" viewBox="0 0 281 65" fill="none" xmlns="http://www.w3.org/2000/svg">
<path d="M80.0005 5.53572L63.7144 33.8214L47.4287 62.1074H112.572L96.2862 33.8214L80.0005 5.53572Z" fill="white"/>
<path fill-rule="evenodd" clip-rule="evenodd" d="M43.4287 64.3936H116.572L98.2862 32.6789L80.0005 0.964676L61.7144 32.6789L43.4287 64.3936ZM51.7817 59.5644L65.8909 35.0935L80.0005 10.6229L108.219 59.5644H51.7817Z" fill="white"/>
<path d="M106.858 5.53572L90.5718 33.8214L74.2861 62.1074H139.429L123.144 33.8214L106.858 5.53572Z" fill="#FDD20C"/>
<path fill-rule="evenodd" clip-rule="evenodd" d="M70.2861 64.3936H143.429L125.144 32.6789L106.858 0.964676L88.5718 32.6789L70.2861 64.3936ZM78.6392 59.5644L92.7484 35.0935L106.858 10.6229L135.076 59.5644H78.6392Z" fill="#FDD20C"/>
<path fill-rule="evenodd" clip-rule="evenodd" d="M36.5714 63.8223L54.8575 32.1081L73.1432 0.393387H0L18.2857 32.108L36.5714 63.8223ZM36.5714 54.1641L8.35304 5.22252H64.7902L50.681 29.6935L36.5714 54.1641Z" fill="#FDD20C"/>
<path d="M169.144 11.2503L163.743 25.5361H160.858L155.429 11.2503H159.303L162.301 20.0796L165.27 11.2503H169.144Z" fill="#FDD20C"/>
<path d="M180.031 18.3609C180.031 16.6047 179.756 15.452 179.208 14.9034C178.786 14.4827 178.229 14.2721 177.533 14.2721C176.857 14.2721 176.308 14.4827 175.887 14.9034C175.338 15.452 175.064 16.6047 175.064 18.3609C175.064 20.1353 175.338 21.297 175.887 21.8456C176.308 22.2667 176.857 22.4769 177.533 22.4769C178.229 22.4769 178.786 22.2667 179.208 21.8456C179.756 21.297 180.031 20.1353 180.031 18.3609ZM183.598 18.3609C183.598 19.7327 183.483 20.8441 183.255 21.695C183.026 22.5454 182.601 23.291 181.979 23.9313C180.882 25.1021 179.4 25.6875 177.533 25.6875C175.686 25.6875 174.213 25.1021 173.116 23.9313C172.494 23.291 172.068 22.5454 171.84 21.695C171.611 20.8441 171.497 19.7327 171.497 18.3609C171.497 17.0072 171.611 15.9049 171.84 15.0541C172.068 14.2036 172.494 13.4584 173.116 12.8177C174.213 11.6473 175.686 11.0615 177.533 11.0615C179.4 11.0615 180.882 11.6473 181.979 12.8177C182.601 13.4584 183.026 14.2036 183.255 15.0541C183.483 15.9049 183.598 17.0072 183.598 18.3609Z" fill="#FDD20C"/>
<path d="M194.794 25.5225H192.845C191.492 25.5225 190.463 25.1204 189.759 24.3149C189.054 23.5103 188.702 22.55 188.702 21.4337V14.354H187.193V11.6375H188.702V7.41171H192.27V11.6375H194.794V14.354H192.27V21.2141C192.27 22.0744 192.681 22.5038 193.504 22.5038H194.794V25.5225Z" fill="#FDD20C"/>
<path d="M207.554 17.0439C207.536 16.4771 207.426 15.9648 207.225 15.5069C206.786 14.5194 205.99 14.0253 204.838 14.0253C203.685 14.0253 202.889 14.5194 202.45 15.5069C202.248 15.9648 202.139 16.4771 202.121 17.0439H207.554ZM211.067 19.4863H202.121C202.121 20.4375 202.399 21.2057 202.958 21.7911C203.516 22.3765 204.279 22.6692 205.249 22.6692C205.999 22.6692 206.608 22.5644 207.074 22.3534C207.541 22.1437 208.011 21.8002 208.487 21.3246L210.655 23.4375C209.868 24.2244 209.073 24.7958 208.268 25.1525C207.462 25.5092 206.447 25.6875 205.222 25.6875C204.307 25.6875 203.479 25.5731 202.738 25.3444C201.997 25.1161 201.307 24.7367 200.666 24.2058C200.026 23.6753 199.523 22.9161 199.157 21.9282C198.791 20.9403 198.608 19.7517 198.608 18.3609C198.608 16.0742 199.175 14.2862 200.31 12.9965C201.444 11.7068 202.953 11.0619 204.838 11.0619C206.776 11.0619 208.299 11.6977 209.406 12.9688C210.513 14.2404 211.067 15.8822 211.067 17.8944V19.4863Z" fill="#FDD20C"/>
<path d="M175.037 51.2861H172.951V36.4405L167.6 48.213H165.816L160.383 36.4405V51.2861H158.298V31.7482H160.383L166.749 45.6059L172.951 31.7482H175.037V51.2861Z" fill="#FDD20C"/>
<path d="M192.654 46.0042C192.818 45.1533 192.901 43.658 192.901 41.5179C192.901 39.3773 192.818 37.882 192.654 37.0316C192.489 36.1807 192.114 35.4533 191.529 34.8493C190.632 33.9167 189.507 33.4502 188.154 33.4502C186.799 33.4502 185.675 33.9167 184.778 34.8493C184.192 35.4533 183.818 36.1807 183.653 37.0316C183.489 37.882 183.406 39.3773 183.406 41.5179C183.406 43.658 183.489 45.1533 183.653 46.0042C183.818 46.8551 184.192 47.5821 184.778 48.186C185.675 49.1191 186.799 49.5856 188.154 49.5856C189.507 49.5856 190.632 49.1191 191.529 48.186C192.114 47.5821 192.489 46.8551 192.654 46.0042ZM194.698 36.4C194.89 37.4151 194.986 39.1214 194.986 41.5179C194.986 43.9144 194.89 45.6203 194.698 46.6354C194.506 47.6506 193.989 48.5795 193.147 49.4204C191.794 50.7749 190.129 51.4512 188.154 51.4512C186.177 51.4512 184.513 50.7749 183.159 49.4204C182.317 48.5795 181.801 47.6506 181.609 46.6354C181.417 45.6203 181.321 43.9144 181.321 41.5179C181.321 39.1214 181.417 37.4151 181.609 36.4C181.801 35.3848 182.317 34.4563 183.159 33.615C184.513 32.2613 186.177 31.5842 188.154 31.5842C190.129 31.5842 191.794 32.2613 193.147 33.615C193.989 34.4563 194.506 35.3848 194.698 36.4Z" fill="#FDD20C"/>
<path d="M215.704 51.2861H213.728L203.355 35.6173V51.2861H201.27V31.7482H203.245L213.618 47.3621V31.7482H215.704V51.2861Z" fill="#FDD20C"/>
<path d="M224.814 51.2861H222.729V31.7482H224.814V51.2861Z" fill="#FDD20C"/>
<path d="M243.227 33.6142H237.574V51.2861H235.488V33.6142H229.835V31.7478H243.227V33.6142Z" fill="#FDD20C"/>
<path d="M258.291 46.0042C258.456 45.1533 258.539 43.658 258.539 41.5179C258.539 39.3773 258.456 37.882 258.291 37.0316C258.127 36.1807 257.751 35.4533 257.166 34.8493C256.27 33.9167 255.145 33.4502 253.791 33.4502C252.437 33.4502 251.312 33.9167 250.416 34.8493C249.83 35.4533 249.456 36.1807 249.291 37.0316C249.126 37.882 249.044 39.3773 249.044 41.5179C249.044 43.658 249.126 45.1533 249.291 46.0042C249.456 46.8551 249.83 47.5821 250.416 48.186C251.312 49.1191 252.437 49.5856 253.791 49.5856C255.145 49.5856 256.27 49.1191 257.166 48.186C257.751 47.5821 258.127 46.8551 258.291 46.0042ZM260.336 36.4C260.528 37.4151 260.624 39.1214 260.624 41.5179C260.624 43.9144 260.528 45.6203 260.336 46.6354C260.144 47.6506 259.626 48.5795 258.785 49.4204C257.431 50.7749 255.767 51.4512 253.791 51.4512C251.815 51.4512 250.151 50.7749 248.797 49.4204C247.955 48.5795 247.439 47.6506 247.247 46.6354C247.054 45.6203 246.958 43.9144 246.958 41.5179C246.958 39.1214 247.054 37.4151 247.247 36.4C247.439 35.3848 247.955 34.4563 248.797 33.615C250.151 32.2613 251.815 31.5842 253.791 31.5842C255.767 31.5842 257.431 32.2613 258.785 33.615C259.626 34.4563 260.144 35.3848 260.336 36.4Z" fill="#FDD20C"/>
<path d="M277.047 39.8567C277.751 39.2441 278.104 38.3614 278.104 37.2088C278.104 36.0562 277.747 35.1694 277.033 34.5472C276.32 33.9255 275.377 33.6142 274.207 33.6142H268.993V40.7761H274.207C275.396 40.7761 276.343 40.4698 277.047 39.8567ZM280.573 51.2861H278.131L273.685 42.6149H268.993V51.2861H266.908V31.7478H274.399C276.119 31.7478 277.513 32.2374 278.584 33.2163C279.654 34.1951 280.189 35.5166 280.189 37.1816C280.189 38.572 279.805 39.7246 279.036 40.6391C278.268 41.5535 277.234 42.148 275.936 42.4225L280.573 51.2861Z" fill="#FDD20C"/>
</svg>
