<svg width="20" height="20" viewBox="0 0 20 20" fill="none" xmlns="http://www.w3.org/2000/svg">
<path d="M10.0628 11.8451C8.94132 11.8451 8.03152 11.0921 8.03152 10.164V5.68109C8.03152 4.75297 8.94132 4 10.0628 4C11.1842 4 12.094 4.75297 12.094 5.68109V10.164C12.094 11.0921 11.1842 11.8451 10.0628 11.8451ZM10.0628 10.7244C10.4363 10.7244 10.7398 10.4732 10.7398 10.164V5.68109C10.7398 5.37193 10.4363 5.12073 10.0628 5.12073C9.68921 5.12073 9.38568 5.37193 9.38568 5.68109V10.164C9.38568 10.4732 9.68921 10.7244 10.0628 10.7244Z" fill="#A1A1AA"/>
<path d="M10.6429 13.9067V15.0671H12.3839C12.7045 15.0671 12.9643 15.318 12.9643 15.6275C12.9643 15.9369 12.7045 16.1878 12.3839 16.1878H7.74107C7.42055 16.1878 7.16071 15.9369 7.16071 15.6275C7.16071 15.318 7.42055 15.0671 7.74107 15.0671H9.48214V13.9067C7.51328 13.6348 6 12.0001 6 10.0238V8.90308C6 8.5936 6.25983 8.34272 6.58036 8.34272C6.90088 8.34272 7.16071 8.5936 7.16071 8.90308V10.0238C7.16071 11.5714 8.45972 12.8256 10.0625 12.8256C11.6653 12.8256 12.9643 11.5714 12.9643 10.0238V8.90308C12.9643 8.5936 13.2241 8.34272 13.5446 8.34272C13.8652 8.34272 14.125 8.5936 14.125 8.90308V10.0238C14.125 12.0001 12.6117 13.6348 10.6429 13.9067Z" fill="#A1A1AA"/>
<path fill-rule="evenodd" clip-rule="evenodd" d="M16 1.5H4C2.61929 1.5 1.5 2.61929 1.5 4V16C1.5 17.3807 2.61929 18.5 4 18.5H16C17.3807 18.5 18.5 17.3807 18.5 16V4C18.5 2.61929 17.3807 1.5 16 1.5ZM4 0C1.79086 0 0 1.79086 0 4V16C0 18.2091 1.79086 20 4 20H16C18.2091 20 20 18.2091 20 16V4C20 1.79086 18.2091 0 16 0H4Z" fill="#A1A1AA"/>
</svg>
