<svg width="20" height="20" viewBox="0 0 20 20" fill="none" xmlns="http://www.w3.org/2000/svg">
<path fill-rule="evenodd" clip-rule="evenodd" d="M16 1.5H4C2.61929 1.5 1.5 2.61929 1.5 4V12.4401L3.68683 10.2533C4.13593 9.80421 4.86407 9.80421 5.31317 10.2533L8 12.9401L13.1599 7.7802C13.6381 7.30202 14.4237 7.33766 14.8566 7.85716L18.5 12.2293V4C18.5 2.61929 17.3807 1.5 16 1.5ZM18.5 14.56C18.4731 14.5358 18.4476 14.5095 18.4238 14.4809L13.9496 9.11186L8.81317 14.2483C8.36407 14.6974 7.63593 14.6974 7.18683 14.2483L4.5 11.5615L1.53033 14.5311C1.52042 14.541 1.51031 14.5506 1.5 14.5598V16C1.5 17.3807 2.61929 18.5 4 18.5H16C17.3807 18.5 18.5 17.3807 18.5 16V14.56ZM4 0C1.79086 0 0 1.79086 0 4V16C0 18.2091 1.79086 20 4 20H16C18.2091 20 20 18.2091 20 16V4C20 1.79086 18.2091 0 16 0H4ZM5.25 6.5C5.94025 6.5 6.5 5.94025 6.5 5.25C6.5 4.55975 5.94025 4 5.25 4C4.55975 4 4 4.55975 4 5.25C4 5.94025 4.55975 6.5 5.25 6.5Z" fill="#A1A1AA"/>
</svg>
