<svg width="20" height="20" viewBox="0 0 20 20" fill="none" xmlns="http://www.w3.org/2000/svg">
<path fill-rule="evenodd" clip-rule="evenodd" d="M16 1.5H4C2.61929 1.5 1.5 2.61929 1.5 4V16C1.5 17.3807 2.61929 18.5 4 18.5H16C17.3807 18.5 18.5 17.3807 18.5 16V4C18.5 2.61929 17.3807 1.5 16 1.5ZM4 0C1.79086 0 0 1.79086 0 4V16C0 18.2091 1.79086 20 4 20H16C18.2091 20 20 18.2091 20 16V4C20 1.79086 18.2091 0 16 0H4Z" fill="#A1A1AA"/>
<path fill-rule="evenodd" clip-rule="evenodd" d="M7.75 7.21389V12.7868L13.3229 10.0004L7.75 7.21389ZM6.25 6.64758C6.25 5.79269 7.14966 5.23667 7.9143 5.61899L14.6199 8.97177C15.4675 9.39558 15.4675 10.6052 14.6199 11.029L7.9143 14.3817C7.14966 14.7641 6.25 14.208 6.25 13.3532V6.64758Z" fill="#A1A1AA"/>
</svg>
