<svg version="1.1" xmlns="http://www.w3.org/2000/svg" viewBox="0 0 510.76205517162305 199.19993591308594" width="510.76205517162305" height="199.19993591308594">
  <!-- svg-source:excalidraw -->
  
  <defs>
    <style class="style-fonts">
      @font-face {
        font-family: "Virgil";
        src: url("https://excalidraw.com/Virgil.woff2");
      }
      @font-face {
        font-family: "Cascadia";
        src: url("https://excalidraw.com/Cascadia.woff2");
      }
    </style>
    
  </defs>
  <rect x="0" y="0" width="510.76205517162305" height="199.19993591308594" fill="#ffffff"></rect><g stroke-linecap="round" transform="translate(10 27.23067826491132) rotate(0 95.07562621570867 76.99113617964508)"><path d="M32 0 M32 0 C77.69 -3.96, 131.89 -1.89, 158.15 0 M32 0 C60.71 0.93, 90.47 3.54, 158.15 0 M158.15 0 C178.18 -0.18, 193.62 7.16, 190.15 32 M158.15 0 C183.14 3.47, 192 14.48, 190.15 32 M190.15 32 C191.16 58.15, 188.68 79.29, 190.15 121.98 M190.15 32 C189.66 53.87, 189.73 73.91, 190.15 121.98 M190.15 121.98 C187.33 140.5, 177.47 150.38, 158.15 153.98 M190.15 121.98 C193.59 141.23, 180.81 151.1, 158.15 153.98 M158.15 153.98 C135.09 157.94, 109.33 152.99, 32 153.98 M158.15 153.98 C108.8 152.73, 58.77 152.3, 32 153.98 M32 153.98 C11.35 156.35, -3.16 146.37, 0 121.98 M32 153.98 C10.29 156.14, 0.24 145.53, 0 121.98 M0 121.98 C0.12 92.95, 2.25 56.43, 0 32 M0 121.98 C1.47 100.94, 0.43 81.13, 0 32 M0 32 C-2.7 8.12, 8.35 3.66, 32 0 M0 32 C-2.2 13.87, 6.58 -0.93, 32 0" stroke="#1e1e1e" stroke-width="1" fill="none"></path></g><g transform="translate(24.31733081612191 33.2455998185373) rotate(0 84.3052845125251 15.037336662857598)"><text x="0" y="0" font-family="Virgil, Segoe UI Emoji" font-size="24.059738660572147px" fill="#1e1e1e" text-anchor="start" style="white-space: pre;" direction="ltr" dominant-baseline="text-before-edge">Polling station</text></g><g transform="translate(35.09435485439383 70.82907556339785) rotate(0 50.89569091796875 42.963819036736)"><text x="0" y="0" font-family="Virgil, Segoe UI Emoji" font-size="17.185527614694394px" fill="#1e1e1e" text-anchor="start" style="white-space: pre;" direction="ltr" dominant-baseline="text-before-edge">id</text><text x="0" y="21.481909518367992" font-family="Virgil, Segoe UI Emoji" font-size="17.185527614694394px" fill="#1e1e1e" text-anchor="start" style="white-space: pre;" direction="ltr" dominant-baseline="text-before-edge">displayOrder</text><text x="0" y="42.963819036735984" font-family="Virgil, Segoe UI Emoji" font-size="17.185527614694394px" fill="#1e1e1e" text-anchor="start" style="white-space: pre;" direction="ltr" dominant-baseline="text-before-edge">address</text><text x="0" y="64.44572855510398" font-family="Virgil, Segoe UI Emoji" font-size="17.185527614694394px" fill="#1e1e1e" text-anchor="start" style="white-space: pre;" direction="ltr" dominant-baseline="text-before-edge">tags[]</text></g><g stroke-linecap="round" transform="translate(331.1620185505293 10) rotate(0 84.80001831054688 89.59996795654297)"><path d="M32 0 M32 0 C68.02 2.87, 104.64 4.61, 137.6 0 M32 0 C59.37 -1.08, 82.96 -0.56, 137.6 0 M137.6 0 C156.61 1.61, 167.55 7.82, 169.6 32 M137.6 0 C158.49 -3.81, 171.83 13.24, 169.6 32 M169.6 32 C175.28 72.85, 174.56 113.07, 169.6 147.2 M169.6 32 C170.32 73.64, 167.52 117.49, 169.6 147.2 M169.6 147.2 C165.92 172.29, 157 177.88, 137.6 179.2 M169.6 147.2 C171.38 172.68, 156.25 176.6, 137.6 179.2 M137.6 179.2 C101.16 179.31, 59.9 183.05, 32 179.2 M137.6 179.2 C105.11 178.66, 76.42 177.4, 32 179.2 M32 179.2 C7.23 176.25, -3.24 171.45, 0 147.2 M32 179.2 C11.52 181.53, 0.19 168.11, 0 147.2 M0 147.2 C-1.51 103.8, -1.01 59.53, 0 32 M0 147.2 C2.2 107.96, 1.01 69.6, 0 32 M0 32 C-2.98 10.97, 8.04 -1.74, 32 0 M0 32 C-2.71 14.73, 14.57 -4.23, 32 0" stroke="#1e1e1e" stroke-width="1" fill="none"></path></g><g transform="translate(341.3010026438286 21.430747398963376) rotate(0 35.209991455078125 17.5)"><text x="0" y="0" font-family="Virgil, Segoe UI Emoji" font-size="28px" fill="#1e1e1e" text-anchor="start" style="white-space: pre;" direction="ltr" dominant-baseline="text-before-edge">Tags</text></g><g transform="translate(364.6737472774297 56.43079434908361) rotate(0 25.679977416992188 37.5)"><text x="0" y="0" font-family="Virgil, Segoe UI Emoji" font-size="20px" fill="#1e1e1e" text-anchor="start" style="white-space: pre;" direction="ltr" dominant-baseline="text-before-edge">id</text><text x="0" y="25" font-family="Virgil, Segoe UI Emoji" font-size="20px" fill="#1e1e1e" text-anchor="start" style="white-space: pre;" direction="ltr" dominant-baseline="text-before-edge">name</text><text x="0" y="50" font-family="Virgil, Segoe UI Emoji" font-size="20px" fill="#1e1e1e" text-anchor="start" style="white-space: pre;" direction="ltr" dominant-baseline="text-before-edge">value</text></g><g mask="url(#mask-EjFdiyCrFHWoKjoJVf81G)" stroke-linecap="round"><g transform="translate(203.88771035575928 104.81587061403803) rotate(0 62.84064693675862 1.3463710365189172)"><path d="M1.58 -1.3 C22.44 -1.51, 106.32 -1.67, 126.68 -0.99 M-1 4.17 C19.37 4.21, 102.97 2.45, 124.66 1.44" stroke="#1e1e1e" stroke-width="1" fill="none"></path></g><g transform="translate(203.88771035575928 104.81587061403803) rotate(0 62.84064693675862 1.3463710365189172)"><path d="M94.96 13.17 C103.55 4.68, 118.89 2.32, 126.1 2.52 M98.66 12.36 C105.84 6.95, 117.04 4.93, 125.96 1.18" stroke="#1e1e1e" stroke-width="1" fill="none"></path></g><g transform="translate(203.88771035575928 104.81587061403803) rotate(0 62.84064693675862 1.3463710365189172)"><path d="M94.31 -7.34 C103.17 -8.54, 118.75 -3.6, 126.1 2.52 M98.02 -8.16 C105.71 -6.14, 117.15 -0.75, 125.96 1.18" stroke="#1e1e1e" stroke-width="1" fill="none"></path></g></g><mask id="mask-EjFdiyCrFHWoKjoJVf81G"><rect x="0" y="0" fill="#fff" width="430.1620185505293" height="206.03560554929658"></rect><rect x="249.0208742798045" y="87.9257380816673" fill="#000" width="36.00798034667969" height="35" opacity="1"></rect></mask><g transform="translate(249.0208742798045 87.9257380816673) rotate(0 17.707483012713396 18.236503568889646)"><text x="18.003990173339844" y="0" font-family="Virgil, Segoe UI Emoji" font-size="28px" fill="#1e1e1e" text-anchor="middle" style="white-space: pre;" direction="ltr" dominant-baseline="text-before-edge">1..n</text></g></svg>