<svg version="1.1" xmlns="http://www.w3.org/2000/svg" viewBox="0 0 778.338444636418 207.1999711256761" width="778.338444636418" height="207.1999711256761">
  <!-- svg-source:excalidraw -->
  
  <defs>
    <style class="style-fonts">
      @font-face {
        font-family: "Virgil";
        src: url("https://excalidraw.com/Virgil.woff2");
      }
      @font-face {
        font-family: "Cascadia";
        src: url("https://excalidraw.com/Cascadia.woff2");
      }
    </style>
    
  </defs>
  <rect x="0" y="0" width="778.338444636418" height="207.1999711256761" fill="#ffffff"></rect><g stroke-linecap="round" transform="translate(280.6153282752401 10.46155958909253) rotate(0 84.80001831054688 89.59996795654297)"><path d="M32 0 M32 0 C54.92 -4.19, 78.53 0.21, 137.6 0 M32 0 C54.79 -3.15, 79.56 0.1, 137.6 0 M137.6 0 C156.1 3.29, 172.6 8.9, 169.6 32 M137.6 0 C161.66 2.55, 166.84 13.94, 169.6 32 M169.6 32 C167.51 71.79, 169.53 111.81, 169.6 147.2 M169.6 32 C171.04 58.11, 169.36 87.96, 169.6 147.2 M169.6 147.2 C165.73 165.55, 162.52 178.29, 137.6 179.2 M169.6 147.2 C167.52 169.29, 154.69 180.85, 137.6 179.2 M137.6 179.2 C109.26 178.29, 79.2 177.46, 32 179.2 M137.6 179.2 C94.96 180.28, 54.61 179.03, 32 179.2 M32 179.2 C7.79 176.25, 1.46 166.46, 0 147.2 M32 179.2 C7.69 179.14, -4.3 168.67, 0 147.2 M0 147.2 C1.22 121.33, -4.71 97.96, 0 32 M0 147.2 C3.11 121.88, 1.84 94.69, 0 32 M0 32 C-2.97 12.88, 11.63 -1.19, 32 0 M0 32 C-2.94 12.74, 12.45 2.95, 32 0" stroke="#1e1e1e" stroke-width="1" fill="none"></path></g><g transform="translate(290.7543123685394 21.89230698805585) rotate(0 75.83795166015625 17.5)"><text x="0" y="0" font-family="Virgil, Segoe UI Emoji" font-size="28px" fill="#1e1e1e" text-anchor="start" style="white-space: pre;" direction="ltr" dominant-baseline="text-before-edge">Municipality</text></g><g transform="translate(314.1270570021407 57.50775263859674) rotate(0 42.38996124267578 62.5)"><text x="0" y="0" font-family="Virgil, Segoe UI Emoji" font-size="20px" fill="#1e1e1e" text-anchor="start" style="white-space: pre;" direction="ltr" dominant-baseline="text-before-edge">id</text><text x="0" y="25" font-family="Virgil, Segoe UI Emoji" font-size="20px" fill="#1e1e1e" text-anchor="start" style="white-space: pre;" direction="ltr" dominant-baseline="text-before-edge">countyId</text><text x="0" y="50" font-family="Virgil, Segoe UI Emoji" font-size="20px" fill="#1e1e1e" text-anchor="start" style="white-space: pre;" direction="ltr" dominant-baseline="text-before-edge">code</text><text x="0" y="75" font-family="Virgil, Segoe UI Emoji" font-size="20px" fill="#1e1e1e" text-anchor="start" style="white-space: pre;" direction="ltr" dominant-baseline="text-before-edge">name</text><text x="0" y="100" font-family="Virgil, Segoe UI Emoji" font-size="20px" fill="#1e1e1e" text-anchor="start" style="white-space: pre;" direction="ltr" dominant-baseline="text-before-edge">...</text></g><g stroke-linecap="round" transform="translate(10 18.00003521259015) rotate(0 84.80001831054688 89.59996795654297)"><path d="M32 0 M32 0 C75.35 1.34, 113.57 0.89, 137.6 0 M32 0 C66.25 -2.24, 103.47 -3.81, 137.6 0 M137.6 0 C158.44 3.6, 172.94 9.65, 169.6 32 M137.6 0 C155.73 2.07, 168.55 10.3, 169.6 32 M169.6 32 C165.64 71.46, 172.26 110.22, 169.6 147.2 M169.6 32 C165.85 54.07, 169.15 76.72, 169.6 147.2 M169.6 147.2 C170.08 169.85, 160.55 179.9, 137.6 179.2 M169.6 147.2 C171.65 169.83, 155.33 175.2, 137.6 179.2 M137.6 179.2 C105.24 180.02, 73.7 181.34, 32 179.2 M137.6 179.2 C100.85 180.89, 68.66 180.24, 32 179.2 M32 179.2 C11.88 179.73, -2.79 168.01, 0 147.2 M32 179.2 C13.77 178.84, 0.43 166.76, 0 147.2 M0 147.2 C-2.6 124.05, 4.91 97.22, 0 32 M0 147.2 C-0.72 105.62, -0.47 61.43, 0 32 M0 32 C0.19 11.22, 11.59 0.99, 32 0 M0 32 C-3.77 8.22, 12.88 1.17, 32 0" stroke="#1e1e1e" stroke-width="1" fill="none"></path></g><g transform="translate(49.062042236328125 28.200032160832336) rotate(0 45.73797607421875 17.5)"><text x="0" y="0" font-family="Virgil, Segoe UI Emoji" font-size="28px" fill="#1e1e1e" text-anchor="start" style="white-space: pre;" direction="ltr" dominant-baseline="text-before-edge">County</text></g><g transform="translate(63.204017639160156 71.20006267841046) rotate(0 23.139984130859375 50)"><text x="0" y="0" font-family="Virgil, Segoe UI Emoji" font-size="20px" fill="#1e1e1e" text-anchor="start" style="white-space: pre;" direction="ltr" dominant-baseline="text-before-edge">id</text><text x="0" y="25" font-family="Virgil, Segoe UI Emoji" font-size="20px" fill="#1e1e1e" text-anchor="start" style="white-space: pre;" direction="ltr" dominant-baseline="text-before-edge">code</text><text x="0" y="50" font-family="Virgil, Segoe UI Emoji" font-size="20px" fill="#1e1e1e" text-anchor="start" style="white-space: pre;" direction="ltr" dominant-baseline="text-before-edge">name</text><text x="0" y="75" font-family="Virgil, Segoe UI Emoji" font-size="20px" fill="#1e1e1e" text-anchor="start" style="white-space: pre;" direction="ltr" dominant-baseline="text-before-edge">...</text></g><g stroke-linecap="round" transform="translate(547.0461378831128 10) rotate(0 110.64615337665259 89.59996795654297)"><path d="M32 0 M32 0 C89.85 -4.49, 156.22 -2.42, 189.29 0 M32 0 C67.85 1.38, 104.76 3.99, 189.29 0 M189.29 0 C209.32 -0.18, 224.76 7.16, 221.29 32 M189.29 0 C214.28 3.47, 223.14 14.48, 221.29 32 M221.29 32 C222.04 64.8, 219.56 92.59, 221.29 147.2 M221.29 32 C220.36 59.78, 220.42 85.74, 221.29 147.2 M221.29 147.2 C218.47 165.72, 208.61 175.6, 189.29 179.2 M221.29 147.2 C224.73 166.44, 211.95 176.31, 189.29 179.2 M189.29 179.2 C159.96 183.43, 127.93 178.49, 32 179.2 M189.29 179.2 C127.82 177.79, 65.67 177.36, 32 179.2 M32 179.2 C11.35 181.56, -3.16 171.59, 0 147.2 M32 179.2 C10.29 181.35, 0.24 170.75, 0 147.2 M0 147.2 C-0.09 108.92, 2.04 63.14, 0 32 M0 147.2 C1.72 120.41, 0.69 94.85, 0 32 M0 32 C-2.7 8.12, 8.35 3.66, 32 0 M0 32 C-2.2 13.87, 6.58 -0.93, 32 0" stroke="#1e1e1e" stroke-width="1" fill="none"></path></g><g transform="translate(563.7082167405347 16.999984741210938) rotate(0 98.11195373535156 17.5)"><text x="0" y="0" font-family="Virgil, Segoe UI Emoji" font-size="28px" fill="#1e1e1e" text-anchor="start" style="white-space: pre;" direction="ltr" dominant-baseline="text-before-edge">Polling station</text></g><g transform="translate(576.2501930823692 60.73850308931793) rotate(0 63.97993469238281 62.5)"><text x="0" y="0" font-family="Virgil, Segoe UI Emoji" font-size="20px" fill="#1e1e1e" text-anchor="start" style="white-space: pre;" direction="ltr" dominant-baseline="text-before-edge">id</text><text x="0" y="25" font-family="Virgil, Segoe UI Emoji" font-size="20px" fill="#1e1e1e" text-anchor="start" style="white-space: pre;" direction="ltr" dominant-baseline="text-before-edge">municipalityId</text><text x="0" y="50" font-family="Virgil, Segoe UI Emoji" font-size="20px" fill="#1e1e1e" text-anchor="start" style="white-space: pre;" direction="ltr" dominant-baseline="text-before-edge">address</text><text x="0" y="75" font-family="Virgil, Segoe UI Emoji" font-size="20px" fill="#1e1e1e" text-anchor="start" style="white-space: pre;" direction="ltr" dominant-baseline="text-before-edge">number</text><text x="0" y="100" font-family="Virgil, Segoe UI Emoji" font-size="20px" fill="#1e1e1e" text-anchor="start" style="white-space: pre;" direction="ltr" dominant-baseline="text-before-edge">...</text></g><g stroke-linecap="round"><g transform="translate(545.8460646409253 101.33993643164479) rotate(0 -48.263089440275905 1.3685264289459838)"><path d="M-0.12 0.85 C-16.32 1.75, -80.23 3.77, -96.41 3.89 M-3.63 -1.15 C-18.99 -1, -76.28 -1.48, -90.97 -0.64" stroke="#1e1e1e" stroke-width="1" fill="none"></path></g><g transform="translate(545.8460646409253 101.33993643164479) rotate(0 -48.263089440275905 1.3685264289459838)"><path d="M-61.77 -14.01 C-71.04 -11.6, -83.55 -1.16, -93.73 -1.2 M-63.68 -10.37 C-73.27 -8.05, -85.7 -4.2, -92.38 -2.51" stroke="#1e1e1e" stroke-width="1" fill="none"></path></g><g transform="translate(545.8460646409253 101.33993643164479) rotate(0 -48.263089440275905 1.3685264289459838)"><path d="M-61.36 6.51 C-70.55 2.19, -83.19 5.89, -93.73 -1.2 M-63.27 10.15 C-73.32 4.74, -85.9 0.88, -92.38 -2.51" stroke="#1e1e1e" stroke-width="1" fill="none"></path></g></g><mask></mask><g stroke-linecap="round"><g transform="translate(272.1537193885213 111.03366492644608) rotate(0 -45.535840128089745 0.6880124531925844)"><path d="M1.66 -1.87 C-13.78 -2.13, -75.22 -1.14, -90.87 -0.37 M-0.89 3.29 C-16.8 3.23, -77.14 3.14, -92.73 2.26" stroke="#1e1e1e" stroke-width="1" fill="none"></path></g><g transform="translate(272.1537193885213 111.03366492644608) rotate(0 -45.535840128089745 0.6880124531925844)"><path d="M-66.96 -6.3 C-77.2 -4.44, -83.05 -1.74, -92.42 -0.29 M-62.78 -7.15 C-69.82 -5.23, -77.6 -4.27, -90.8 1.65" stroke="#1e1e1e" stroke-width="1" fill="none"></path></g><g transform="translate(272.1537193885213 111.03366492644608) rotate(0 -45.535840128089745 0.6880124531925844)"><path d="M-67.48 14.21 C-77.71 8.6, -83.37 3.84, -92.42 -0.29 M-63.31 13.37 C-70.24 10.29, -77.89 6.25, -90.8 1.65" stroke="#1e1e1e" stroke-width="1" fill="none"></path></g></g><mask></mask></svg>