<svg version="1.1" xmlns="http://www.w3.org/2000/svg" viewBox="0 0 503.8769625150238 199.81537452110877" width="503.8769625150238" height="199.81537452110877">
  <!-- svg-source:excalidraw -->
  
  <defs>
    <style class="style-fonts">
      @font-face {
        font-family: "Virgil";
        src: url("https://excalidraw.com/Virgil.woff2");
      }
      @font-face {
        font-family: "Cascadia";
        src: url("https://excalidraw.com/Cascadia.woff2");
      }
    </style>
    
  </defs>
  <rect x="0" y="0" width="503.8769625150238" height="199.81537452110877" fill="#ffffff"></rect><g stroke-linecap="round" transform="translate(10 10.615438608022828) rotate(0 84.80001831054688 89.59996795654297)"><path d="M32 0 M32 0 C75.35 1.34, 113.57 0.89, 137.6 0 M32 0 C66.25 -2.24, 103.47 -3.81, 137.6 0 M137.6 0 C158.44 3.6, 172.94 9.65, 169.6 32 M137.6 0 C155.73 2.07, 168.55 10.3, 169.6 32 M169.6 32 C165.64 71.46, 172.26 110.22, 169.6 147.2 M169.6 32 C165.85 54.07, 169.15 76.72, 169.6 147.2 M169.6 147.2 C170.08 169.85, 160.55 179.9, 137.6 179.2 M169.6 147.2 C171.65 169.83, 155.33 175.2, 137.6 179.2 M137.6 179.2 C105.24 180.02, 73.7 181.34, 32 179.2 M137.6 179.2 C100.85 180.89, 68.66 180.24, 32 179.2 M32 179.2 C11.88 179.73, -2.79 168.01, 0 147.2 M32 179.2 C13.77 178.84, 0.43 166.76, 0 147.2 M0 147.2 C-2.6 124.05, 4.91 97.22, 0 32 M0 147.2 C-0.72 105.62, -0.47 61.43, 0 32 M0 32 C0.19 11.22, 11.59 0.99, 32 0 M0 32 C-3.77 8.22, 12.88 1.17, 32 0" stroke="#1e1e1e" stroke-width="1" fill="none"></path></g><g transform="translate(49.062042236328125 20.815435556265015) rotate(0 45.73797607421875 17.5)"><text x="0" y="0" font-family="Virgil, Segoe UI Emoji" font-size="28px" fill="#1e1e1e" text-anchor="start" style="white-space: pre;" direction="ltr" dominant-baseline="text-before-edge">County</text></g><g transform="translate(63.204017639160156 63.81546607384314) rotate(0 23.139984130859375 50)"><text x="0" y="0" font-family="Virgil, Segoe UI Emoji" font-size="20px" fill="#1e1e1e" text-anchor="start" style="white-space: pre;" direction="ltr" dominant-baseline="text-before-edge">id</text><text x="0" y="25" font-family="Virgil, Segoe UI Emoji" font-size="20px" fill="#1e1e1e" text-anchor="start" style="white-space: pre;" direction="ltr" dominant-baseline="text-before-edge">code</text><text x="0" y="50" font-family="Virgil, Segoe UI Emoji" font-size="20px" fill="#1e1e1e" text-anchor="start" style="white-space: pre;" direction="ltr" dominant-baseline="text-before-edge">name</text><text x="0" y="75" font-family="Virgil, Segoe UI Emoji" font-size="20px" fill="#1e1e1e" text-anchor="start" style="white-space: pre;" direction="ltr" dominant-baseline="text-before-edge">...</text></g><g stroke-linecap="round" transform="translate(272.58465576171864 10) rotate(0 110.64615337665259 89.59996795654297)"><path d="M32 0 M32 0 C89.85 -4.49, 156.22 -2.42, 189.29 0 M32 0 C67.85 1.38, 104.76 3.99, 189.29 0 M189.29 0 C209.32 -0.18, 224.76 7.16, 221.29 32 M189.29 0 C214.28 3.47, 223.14 14.48, 221.29 32 M221.29 32 C222.04 64.8, 219.56 92.59, 221.29 147.2 M221.29 32 C220.36 59.78, 220.42 85.74, 221.29 147.2 M221.29 147.2 C218.47 165.72, 208.61 175.6, 189.29 179.2 M221.29 147.2 C224.73 166.44, 211.95 176.31, 189.29 179.2 M189.29 179.2 C159.96 183.43, 127.93 178.49, 32 179.2 M189.29 179.2 C127.82 177.79, 65.67 177.36, 32 179.2 M32 179.2 C11.35 181.56, -3.16 171.59, 0 147.2 M32 179.2 C10.29 181.35, 0.24 170.75, 0 147.2 M0 147.2 C-0.09 108.92, 2.04 63.14, 0 32 M0 147.2 C1.72 120.41, 0.69 94.85, 0 32 M0 32 C-2.7 8.12, 8.35 3.66, 32 0 M0 32 C-2.2 13.87, 6.58 -0.93, 32 0" stroke="#1e1e1e" stroke-width="1" fill="none"></path></g><g transform="translate(289.2467346191405 16.999984741210938) rotate(0 98.11195373535156 17.5)"><text x="0" y="0" font-family="Virgil, Segoe UI Emoji" font-size="28px" fill="#1e1e1e" text-anchor="start" style="white-space: pre;" direction="ltr" dominant-baseline="text-before-edge">Polling station</text></g><g transform="translate(301.788710960975 60.73850308931793) rotate(0 42.38996124267578 62.5)"><text x="0" y="0" font-family="Virgil, Segoe UI Emoji" font-size="20px" fill="#1e1e1e" text-anchor="start" style="white-space: pre;" direction="ltr" dominant-baseline="text-before-edge">id</text><text x="0" y="25" font-family="Virgil, Segoe UI Emoji" font-size="20px" fill="#1e1e1e" text-anchor="start" style="white-space: pre;" direction="ltr" dominant-baseline="text-before-edge">countyId</text><text x="0" y="50" font-family="Virgil, Segoe UI Emoji" font-size="20px" fill="#1e1e1e" text-anchor="start" style="white-space: pre;" direction="ltr" dominant-baseline="text-before-edge">address</text><text x="0" y="75" font-family="Virgil, Segoe UI Emoji" font-size="20px" fill="#1e1e1e" text-anchor="start" style="white-space: pre;" direction="ltr" dominant-baseline="text-before-edge">number</text><text x="0" y="100" font-family="Virgil, Segoe UI Emoji" font-size="20px" fill="#1e1e1e" text-anchor="start" style="white-space: pre;" direction="ltr" dominant-baseline="text-before-edge">...</text></g><g stroke-linecap="round"><g transform="translate(271.38458251953114 101.66888013132382) rotate(0 -48.263089440275905 1.5138389672254675)"><path d="M-0.12 0.85 C-16.32 1.8, -80.23 4.01, -96.41 4.18 M-3.63 -1.15 C-18.99 -0.95, -76.28 -1.25, -90.97 -0.36" stroke="#1e1e1e" stroke-width="1" fill="none"></path></g><g transform="translate(271.38458251953114 101.66888013132382) rotate(0 -48.263089440275905 1.5138389672254675)"><path d="M-61.81 -13.81 C-71.07 -11.37, -83.56 -0.9, -93.73 -0.92 M-63.71 -10.18 C-73.3 -7.82, -85.71 -3.94, -92.38 -2.22" stroke="#1e1e1e" stroke-width="1" fill="none"></path></g><g transform="translate(271.38458251953114 101.66888013132382) rotate(0 -48.263089440275905 1.5138389672254675)"><path d="M-61.33 6.7 C-70.53 2.41, -83.18 6.15, -93.73 -0.92 M-63.23 10.34 C-73.3 4.97, -85.89 1.14, -92.38 -2.22" stroke="#1e1e1e" stroke-width="1" fill="none"></path></g></g><mask></mask></svg>