<svg width="21" height="20" viewBox="0 0 21 20" fill="none" xmlns="http://www.w3.org/2000/svg">
<path d="M16.4433 0H3.57462C1.605 0 0 1.605 0 3.57462V12.5076C0 14.4772 1.605 16.0822 3.57462 16.0822H6.15192L9.47989 19.7641C9.61573 19.9142 9.80876 20 10.0089 20C10.2091 20 10.4021 19.9142 10.538 19.7641L13.866 16.0822H16.4433C18.4129 16.0822 20.0179 14.4772 20.0179 12.5076V3.57462C20.0179 1.605 18.4129 0 16.4433 0ZM18.588 12.5112C18.588 13.6944 17.6265 14.6559 16.4433 14.6559H13.5478C13.3441 14.6559 13.1546 14.7417 13.0188 14.8919L10.0089 18.2198L6.99911 14.8883C6.86327 14.7382 6.67024 14.6524 6.47006 14.6524H3.57462C2.39142 14.6524 1.42985 13.6908 1.42985 12.5076V3.57462C1.42985 2.39142 2.39142 1.42985 3.57462 1.42985H16.4433C17.6265 1.42985 18.588 2.39142 18.588 3.57462V12.5112Z" fill="black"/>
<path d="M10.0727 3.0498C8.32114 3.0498 6.89844 4.4725 6.89844 6.22407C6.89844 6.61728 7.22015 6.93899 7.61336 6.93899C8.00657 6.93899 8.32829 6.61728 8.32829 6.22407C8.32829 5.26249 9.11113 4.47965 10.0727 4.47965C11.0343 4.47965 11.8171 5.26249 11.8171 6.22407C11.8171 7.18564 11.0343 7.96848 10.0727 7.96848C9.67949 7.96848 9.35778 8.2902 9.35778 8.68341V9.79511C9.35778 10.1883 9.67949 10.51 10.0727 10.51C10.4659 10.51 10.7876 10.1883 10.7876 9.79511V9.31254C12.1925 8.98725 13.247 7.72541 13.247 6.22407C13.247 4.47608 11.8243 3.0498 10.0727 3.0498Z" fill="black"/>
<path d="M9.93294 11.3784C9.89004 11.3892 9.84357 11.4035 9.80067 11.4213C9.75778 11.4392 9.71488 11.4607 9.67556 11.4857C9.63982 11.5107 9.6005 11.5429 9.56832 11.575C9.43606 11.7073 9.35742 11.8932 9.35742 12.0791C9.35742 12.2685 9.43606 12.4544 9.56832 12.5867C9.70059 12.7189 9.88647 12.794 10.0723 12.794C10.2618 12.794 10.4477 12.7189 10.5799 12.5867C10.7122 12.4544 10.7873 12.2685 10.7873 12.0791C10.7873 11.8932 10.7122 11.7073 10.5799 11.575C10.4155 11.4106 10.1653 11.332 9.93294 11.3784Z" fill="black"/>
</svg>
