<svg width="32" height="32" viewBox="0 0 32 32" fill="none" xmlns="http://www.w3.org/2000/svg">
<path d="M11.0357 18.0315L10.6813 21.067C10.654 21.3733 10.8449 21.6518 11.1175 21.7075C12.535 22.0695 14.0616 22.2644 15.5882 22.2644C17.1421 22.2644 18.6414 22.0695 20.059 21.7075C20.3589 21.6239 20.5224 21.3454 20.4952 21.067L20.1408 18.0315C19.9772 16.667 19.0776 15.553 17.9054 15.0796C18.5597 14.4391 18.9686 13.5758 18.9686 12.5733C18.9686 10.6796 17.442 9.12012 15.5882 9.12012C13.7345 9.12012 12.2079 10.6796 12.2079 12.5733C12.2079 13.548 12.6168 14.4391 13.2711 15.0796C12.0716 15.553 11.1993 16.667 11.0357 18.0315ZM15.5882 10.3454C16.815 10.3454 17.7964 11.348 17.7964 12.6011C17.7964 13.8543 16.815 14.8568 15.5882 14.8568C14.3615 14.8568 13.3801 13.8543 13.3801 12.6011C13.3801 11.348 14.3615 10.3454 15.5882 10.3454ZM14.5523 16.0264H16.6241C17.8236 16.0264 18.8323 16.9454 18.9958 18.1707L19.2957 20.6771C16.924 21.2062 14.2797 21.2062 11.908 20.6771L12.2079 18.1707C12.3442 16.9733 13.3529 16.0264 14.5523 16.0264Z" fill="black"/>
<path d="M8.09188 16.0545C7.87379 15.8317 7.49214 15.8317 7.27406 16.0545L6.04732 17.3077V16.3052C6.04732 10.9026 10.3273 6.53048 15.6158 6.53048C18.7781 6.53048 21.7495 8.11782 23.5215 10.7912C23.7123 11.0697 24.0667 11.1254 24.3393 10.9583C24.6119 10.7634 24.6664 10.4014 24.5028 10.1229C22.4855 7.14313 19.1597 5.33301 15.6158 5.33301C9.70026 5.33301 4.87511 10.2621 4.87511 16.3052V17.3077L3.64838 16.0545C3.43029 15.8317 3.04864 15.8317 2.83056 16.0545C2.61247 16.2773 2.61247 16.6672 2.83056 16.89L5.06594 19.1735C5.17498 19.2849 5.31128 19.3406 5.47485 19.3406C5.63841 19.3406 5.77472 19.2849 5.88376 19.1735L8.11914 16.89C8.33723 16.6672 8.33723 16.3052 8.09188 16.0545Z" fill="black"/>
<path d="M28.3736 15.7485L26.1382 13.4649C25.9201 13.2422 25.5385 13.2422 25.3204 13.4649L23.085 15.7485C22.8669 15.9713 22.8669 16.3611 23.085 16.5839C23.3031 16.8067 23.6847 16.8067 23.9028 16.5839L25.1296 15.3308V16.3333C25.1296 21.7358 20.8496 26.108 15.561 26.108C12.3988 26.108 9.42737 24.5206 7.65542 21.8472C7.4646 21.5687 7.11021 21.513 6.8376 21.6801C6.56499 21.8751 6.51047 22.2371 6.67404 22.5156C8.69133 25.5232 12.0171 27.3333 15.561 27.3333C21.4766 27.3333 26.3018 22.4042 26.3018 16.3611V15.3586L27.5285 16.6118C27.6375 16.7232 27.8011 16.7789 27.9374 16.7789C28.0737 16.7789 28.2373 16.7232 28.3463 16.6118C28.5917 16.3611 28.5917 15.9991 28.3736 15.7485Z" fill="black"/>
</svg>
