<svg width="24" height="24" viewBox="0 0 24 24" fill="none" xmlns="http://www.w3.org/2000/svg">
<path d="M4.87496 0.75L16.875 0.750078C18.5318 0.750078 19.875 2.0932 19.875 3.75008V8.10908C19.4013 7.95712 18.897 7.87518 18.375 7.87518V3.75018C18.375 2.92182 17.7034 2.25026 16.875 2.25026L4.87496 2.25018C4.04652 2.25018 3.37496 2.92174 3.37496 3.75018V20.2502C3.37496 21.0787 4.04652 21.7503 4.87496 21.7503H13.6884C13.8768 22.3236 14.1981 22.8348 14.6146 23.2503H4.875C3.21812 23.2503 1.875 21.9071 1.875 20.2503V3.75026C1.875 2.09338 3.21812 0.75026 4.875 0.75026L4.87496 0.75Z" fill="#7833B3"/>
<path d="M15.2947 7.2054C15.9799 7.2054 16.5827 7.55774 16.9319 8.0911C16.4291 8.24571 15.96 8.479 15.5399 8.77696C15.4692 8.73164 15.385 8.70539 15.2947 8.70539H13.4293C13.0945 8.70539 12.8002 8.48335 12.7081 8.16141L12.5303 7.53883C12.5237 7.51587 12.5027 7.50001 12.4788 7.50001H9.27135C9.24745 7.50001 9.22643 7.51586 9.21979 7.53883L9.04198 8.16141C8.94995 8.48337 8.65566 8.70539 8.3208 8.70539H6.4554C6.20392 8.70539 6 8.90921 6 9.16071V15.5893C6 15.8408 6.2039 16.0446 6.4554 16.0446H13.5V17.5446H6.4554C5.37548 17.5446 4.5 16.6692 4.5 15.5893V9.16071C4.5 8.08079 5.37546 7.20539 6.4554 7.20539H7.75508L7.7775 7.1268C7.96805 6.45984 8.57766 6 9.27132 6H12.4787C13.1724 6 13.782 6.45984 13.9725 7.1268L13.995 7.20539L15.2947 7.2054Z" fill="#7833B3"/>
<path fill-rule="evenodd" clip-rule="evenodd" d="M10.8748 8.41113C12.2735 8.41113 13.4942 9.17425 14.1428 10.3069C13.7342 11.0125 13.4997 11.8319 13.4997 12.7103V14.8713C12.8218 15.5314 11.8957 15.938 10.8747 15.938C8.79633 15.938 7.11133 14.253 7.11133 12.1746C7.11133 10.096 8.79625 8.41115 10.8747 8.41115L10.8748 8.41113ZM10.8748 9.91113C9.62477 9.91113 8.61137 10.9245 8.61137 12.1745C8.61137 13.4245 9.62473 14.4379 10.8748 14.4379C12.1248 14.4379 13.1382 13.4246 13.1382 12.1745C13.1382 10.9245 12.1248 9.91113 10.8748 9.91113Z" fill="#7833B3"/>
<path d="M16.125 12.7098C16.125 11.4989 17.1228 10.5 18.375 10.5C19.6272 10.5 20.625 11.4989 20.625 12.7098V17.7188C20.625 18.133 20.9608 18.4688 21.375 18.4688C21.7892 18.4688 22.125 18.133 22.125 17.7188V12.7098C22.125 10.6514 20.4365 9 18.375 9C16.3135 9 14.625 10.6514 14.625 12.7098V20.5648C14.625 22.0573 15.8485 23.25 17.3366 23.25C18.8246 23.25 20.048 22.0573 20.048 20.5648V12.7098C20.048 11.7831 19.2894 11.0491 18.375 11.0491C17.4605 11.0491 16.7019 11.7831 16.7019 12.7098V19.3124C16.7019 19.7266 17.0377 20.0624 17.4519 20.0624C17.8661 20.0624 18.2019 19.7266 18.2019 19.3124V12.7098C18.2019 12.6305 18.2698 12.5491 18.375 12.5491C18.4801 12.5491 18.548 12.6305 18.548 12.7098V20.5648C18.548 21.2099 18.0152 21.75 17.3365 21.75C16.6579 21.75 16.125 21.2099 16.125 20.5648L16.125 12.7098Z" fill="#7833B3"/>
</svg>
