<svg width="16" height="20" viewBox="0 0 16 20" fill="none" xmlns="http://www.w3.org/2000/svg">
<path d="M7.58099 0C11.169 0 12.5215 2.47633 12.5215 3.72466V7.49007H13.688C14.4225 7.49007 15.0234 8.08696 15.0234 8.81663V18.6734C15.0234 19.4031 14.4225 20 13.688 20H1.33541C0.60087 20 0 19.4031 0 18.6734V8.81663C0 8.08696 0.60087 7.49007 1.33541 7.49007H2.50924V3.7205C2.50924 2.47255 3.99303 0 7.58099 0ZM13.7714 8.73246H1.25195V18.7481H13.7714V8.73246ZM7.51169 10.0156C8.8923 10.0156 10.0156 11.1335 10.0156 12.5076C10.0156 13.2167 9.71957 13.8744 9.20625 14.3416L9.71363 16.3441C9.71623 16.3545 9.7185 16.3647 9.72064 16.3753C9.77856 16.6658 9.70811 16.9589 9.5273 17.1796C9.34593 17.4006 9.07128 17.5274 8.77356 17.5274H6.24983C5.95121 17.5274 5.67597 17.4 5.49472 17.1782C5.31391 16.9572 5.24422 16.6638 5.30319 16.3733L5.81731 14.3418C5.30382 13.8746 5.0078 13.2168 5.0078 12.5076C5.0078 11.1335 6.13108 10.0156 7.51169 10.0156ZM7.51169 11.2675C6.82136 11.2675 6.25975 11.8237 6.25975 12.5074C6.25975 12.9384 6.48165 13.3322 6.85347 13.5607C7.08669 13.7042 7.19978 13.9825 7.13253 14.2476L6.61873 16.2753H8.40466L7.89086 14.2476C7.82361 13.9825 7.9367 13.7042 8.16992 13.5607C8.54174 13.3322 8.76364 12.9384 8.76364 12.5074C8.76364 11.8237 8.20203 11.2675 7.51169 11.2675ZM7.52083 1.22076C4.58411 1.22076 3.75585 3.23935 3.75585 4.1817V7.48051H11.2675V4.1817C11.2675 3.23935 10.4575 1.22076 7.52083 1.22076Z" fill="black"/>
</svg>
