<svg width="20" height="21" viewBox="0 0 20 21" fill="none" xmlns="http://www.w3.org/2000/svg">
<path fill-rule="evenodd" clip-rule="evenodd" d="M10.0004 20.1004C12.5465 20.1004 14.9883 19.089 16.7886 17.2886C18.589 15.4883 19.6004 13.0465 19.6004 10.5004C19.6004 7.95431 18.589 5.51252 16.7886 3.71217C14.9883 1.91182 12.5465 0.900391 10.0004 0.900391C7.45431 0.900391 5.01252 1.91182 3.21217 3.71217C1.41182 5.51252 0.400391 7.95431 0.400391 10.5004C0.400391 13.0465 1.41182 15.4883 3.21217 17.2886C5.01252 19.089 7.45431 20.1004 10.0004 20.1004ZM14.4488 8.94879C14.6674 8.72247 14.7883 8.41935 14.7856 8.10471C14.7829 7.79007 14.6567 7.4891 14.4342 7.26661C14.2117 7.04412 13.9107 6.91792 13.5961 6.91518C13.2814 6.91245 12.9783 7.0334 12.752 7.25199L8.80039 11.2036L7.24879 9.65199C7.02247 9.4334 6.71935 9.31245 6.40471 9.31518C6.09007 9.31792 5.7891 9.44412 5.56661 9.66661C5.34412 9.8891 5.21792 10.1901 5.21518 10.5047C5.21245 10.8193 5.3334 11.1225 5.55199 11.3488L7.95199 13.7488C8.17702 13.9738 8.48219 14.1001 8.80039 14.1001C9.11859 14.1001 9.42376 13.9738 9.64879 13.7488L14.4488 8.94879Z" fill="#5F288D"/>
</svg>
