<svg width="24" height="24" viewBox="0 0 24 24" fill="none" xmlns="http://www.w3.org/2000/svg">
<path d="M5.14286 10.2H4.22691C4.35055 8.82795 4.89409 7.57698 5.72805 6.57657L6.37557 7.22409C6.6099 7.45842 6.98979 7.45842 7.22409 7.22409C7.45842 6.98979 7.45842 6.6099 7.22409 6.37557L6.57657 5.72805C7.57698 4.89409 8.82795 4.35055 10.2 4.22691V5.14286C10.2 5.47422 10.4686 5.74287 10.8 5.74287C11.1314 5.74287 11.4 5.47422 11.4 5.14286V4.22691C14.7639 4.53004 17.4 7.35717 17.4 10.8C17.4 11.2237 17.3602 11.6376 17.2842 12.0382C17.2224 12.3638 17.4363 12.6777 17.7618 12.7395C18.0874 12.8012 18.4014 12.5874 18.4631 12.2618C18.5531 11.7879 18.6 11.2991 18.6 10.8C18.6 6.49218 15.1078 3 10.8 3C6.49218 3 3 6.49218 3 10.8C3 14.3173 5.32766 17.2894 8.52525 18.2629C8.84226 18.3594 9.17748 18.1807 9.27399 17.8637C9.3705 17.5467 9.19176 17.2115 8.87475 17.1149C6.35226 16.347 4.47106 14.1089 4.22691 11.4H5.14286C5.47422 11.4 5.74287 11.1314 5.74287 10.8C5.74287 10.4686 5.47422 10.2 5.14286 10.2Z" fill="black"/>
<path d="M11.3997 6.94375C11.3997 6.61237 11.1311 6.34375 10.7997 6.34375C10.4683 6.34375 10.1997 6.61237 10.1997 6.94375V10.2009H7.97109C7.63974 10.2009 7.37109 10.4695 7.37109 10.8009C7.37109 11.1323 7.63974 11.4009 7.97109 11.4009H10.7997C11.1311 11.4009 11.3997 11.1323 11.3997 10.8009V6.94375Z" fill="black"/>
<path d="M15 12.0016C15 12.3329 15.2686 12.6016 15.6 12.6016C15.9314 12.6016 16.2 12.3329 16.2 12.0016V10.2016C16.2 9.87018 15.9314 9.60156 15.6 9.60156C15.2686 9.60156 15 9.87018 15 10.2016V12.0016Z" fill="black"/>
<path d="M13.1996 13.5C12.8682 13.5 12.5996 13.2314 12.5996 12.9V11.1C12.5996 10.7686 12.8682 10.5 13.1996 10.5C13.531 10.5 13.7996 10.7686 13.7996 11.1V12.9C13.7996 13.2314 13.531 13.5 13.1996 13.5Z" fill="black"/>
<path fill-rule="evenodd" clip-rule="evenodd" d="M10.375 13.9765C10.4875 13.864 10.6401 13.8008 10.7992 13.8008H18.7492C19.9918 13.8008 20.9992 14.8082 20.9992 16.0508C20.9992 17.2934 19.9918 18.3008 18.7492 18.3008H18.3234C17.7196 19.8796 16.1903 21.0008 14.3992 21.0008C12.0796 21.0008 10.1992 19.1204 10.1992 16.8008V14.4008C10.1992 14.2417 10.2624 14.0891 10.375 13.9765ZM17.3992 15.0008V16.8008C17.3992 18.4576 16.0561 19.8008 14.3992 19.8008C12.7423 19.8008 11.3992 18.4576 11.3992 16.8008V15.0008H17.3992ZM18.7492 17.1008H18.5992V15.0008H18.7492C19.3291 15.0008 19.7992 15.4709 19.7992 16.0508C19.7992 16.6307 19.3291 17.1008 18.7492 17.1008Z" fill="black"/>
</svg>
