<svg width="390" height="117" viewBox="0 0 390 117" fill="none" xmlns="http://www.w3.org/2000/svg">
<path d="M191.1 31.4522L199.626 32.6637L215.177 59.2652L199.626 85.852L191.1 87.0635L207.651 59.2515L191.101 31.4522H191.1ZM169.251 31.4522L160.725 32.6637L145.174 59.2652L160.725 85.8666L169.251 87.0781L152.7 59.2661L169.251 31.4522Z" fill="black"/>
<path d="M169.251 31.4526L180.175 30.2411V59.2656H152.699L169.251 31.4526Z" fill="#FFF8DA"/>
<path d="M169.251 87.0629L180.175 88.2744V59.2635H152.699L169.251 87.0619V87.0629Z" fill="#FFE46B"/>
<path d="M191.1 87.0629L180.176 88.2744V59.2635H207.652L191.1 87.0619V87.0629Z" fill="#FFD209"/>
<path d="M191.1 31.4526L180.176 30.2411V59.2656H207.652L191.1 31.4526Z" fill="#FFF1B5"/>
<mask id="mask0_5415_5045" style="mask-type:luminance" maskUnits="userSpaceOnUse" x="0" y="0" width="390" height="117">
<path d="M0 0.763206H390V116.49H0V0.763206Z" fill="white"/>
</mask>
<g mask="url(#mask0_5415_5045)">
<path d="M360.585 60.8834H357.978C356.166 60.8834 354.782 60.3643 353.827 59.3251C352.897 58.286 352.431 57.0471 352.431 55.6067V46.4695H350.411V42.9634H352.431V37.5095H357.206V42.9634H360.585V46.4695H357.206V55.3233C357.206 56.4326 357.758 56.9877 358.859 56.9877H360.585V60.8834ZM346.871 39.2801H341.986V35.5256H346.871V39.2801ZM346.834 60.8834H342.06V42.4326H346.834V60.8834ZM337.102 60.8834H332.327V49.7272C332.327 48.5702 332.009 47.72 331.372 47.1775C330.76 46.6341 330.025 46.3633 329.168 46.3633C328.31 46.3633 327.564 46.6351 326.927 47.1775C326.29 47.6966 325.971 48.5118 325.971 49.6211V60.8834H321.197V49.7272C321.197 48.5702 320.879 47.72 320.241 47.1775C319.629 46.6341 318.894 46.3633 318.037 46.3633C317.181 46.3633 316.397 46.6351 315.761 47.1775C315.149 47.721 314.843 48.5702 314.843 49.7272V60.8834H310.068V42.4326H314.733V44.1321C316.005 42.8573 317.597 42.2193 319.507 42.2193C321.711 42.2193 323.4 42.9985 324.575 44.5567C326.119 42.9985 328.028 42.2193 330.305 42.2193C332.312 42.2193 333.88 42.7628 335.006 43.8487C336.402 45.1946 337.1 46.9418 337.1 49.0903V60.8834H337.102ZM305.112 60.8834H300.338V49.7272C300.338 48.5702 300.019 47.72 299.382 47.1775C298.77 46.6341 298.035 46.3633 297.178 46.3633C296.322 46.3633 295.574 46.6351 294.938 47.1775C294.302 47.6966 293.982 48.5118 293.982 49.6211V60.8834H289.208V49.7272C289.208 48.5702 288.89 47.72 288.253 47.1775C287.641 46.6341 286.905 46.3633 286.049 46.3633C285.192 46.3633 284.408 46.6351 283.772 47.1775C283.16 47.721 282.854 48.5702 282.854 49.7272V60.8834H278.079V42.4326H282.743V44.1321C284.017 42.8573 285.608 42.2193 287.518 42.2193C289.722 42.2193 291.411 42.9985 292.587 44.5567C294.129 42.9985 296.039 42.2193 298.316 42.2193C300.323 42.2193 301.891 42.7628 303.017 43.8487C304.413 45.1946 305.111 46.9418 305.111 49.0903V60.8834H305.112ZM268.936 51.64C268.936 49.3737 268.568 47.8856 267.834 47.1775C267.271 46.6341 266.524 46.3633 265.594 46.3633C264.663 46.3633 263.953 46.6351 263.39 47.1775C262.655 47.8856 262.288 49.3737 262.288 51.64C262.288 53.9063 262.655 55.4295 263.39 56.1375C263.953 56.681 264.688 56.9517 265.594 56.9517C266.5 56.9517 267.271 56.68 267.834 56.1375C268.568 55.4295 268.936 53.9297 268.936 51.64ZM273.71 51.64C273.71 53.4106 273.551 54.851 273.232 55.9603C272.938 57.0462 272.375 58.0026 271.543 58.8284C270.074 60.3399 268.09 61.0947 265.593 61.0947C263.095 61.0947 261.148 60.339 259.679 58.8284C258.847 58.0026 258.271 57.0462 257.953 55.9603C257.659 54.851 257.512 53.4106 257.512 51.64C257.512 49.8694 257.659 48.4767 257.953 47.3898C258.271 46.2806 258.847 45.3125 259.679 44.4856C261.148 42.9741 263.119 42.2193 265.593 42.2193C268.066 42.2193 270.073 42.9751 271.543 44.4856C272.375 45.3115 272.938 46.2796 273.232 47.3898C273.551 48.4757 273.71 49.8928 273.71 51.64ZM254.46 53.1272C254.02 55.6535 252.942 57.613 251.228 59.0057C249.514 60.3984 247.384 61.0947 244.837 61.0947C242.046 61.0947 239.695 60.1744 237.785 58.3327C236.659 57.2468 235.949 55.9836 235.655 54.5432C235.361 53.1262 235.215 51.0371 235.215 48.2751C235.215 45.5131 235.361 43.4231 235.655 42.007C235.949 40.5666 236.659 39.3034 237.785 38.2175C239.695 36.3759 242.046 35.4555 244.837 35.4555C247.384 35.4555 249.514 36.1519 251.228 37.5446C252.942 38.9373 254.02 40.8968 254.46 43.4231H249.282C248.669 41.039 247.2 39.8459 244.874 39.8459C243.453 39.8459 242.364 40.2832 241.605 41.1558C241.067 41.6993 240.711 42.419 240.54 43.316C240.393 44.1896 240.32 45.8423 240.32 48.2742C240.32 50.706 240.393 52.3704 240.54 53.2674C240.711 54.141 241.067 54.849 241.605 55.3925C242.364 56.2661 243.454 56.7024 244.874 56.7024C247.2 56.7024 248.668 55.5103 249.282 53.1252H254.46V53.1272Z" fill="black"/>
<path d="M298.675 81.7102H290.994V70.2969H293.305V79.7225H298.675V81.7102ZM285.147 77.8146L283.701 73.6628L282.205 77.8146H285.147ZM288.871 81.7102H286.46L285.762 79.6903H281.557L280.841 81.7102H278.431L282.736 70.2969H284.548L288.87 81.7102H288.871ZM273.823 74.5607C274.088 74.3153 274.222 73.9939 274.222 73.5985C274.222 73.2031 274.088 72.8875 273.823 72.6528C273.557 72.4074 273.18 72.2837 272.693 72.2837H270.431V74.9123H272.693C273.18 74.9123 273.557 74.7945 273.823 74.5598V74.5607ZM273.989 79.3212C274.255 79.0544 274.388 78.7174 274.388 78.3113C274.388 77.9051 274.255 77.574 273.989 77.3179C273.724 77.051 273.341 76.9176 272.842 76.9176H270.432V79.7225H272.842C273.341 79.7225 273.724 79.589 273.989 79.3222V79.3212ZM276.699 78.4233C276.699 79.4595 276.367 80.2669 275.701 80.8434C275.036 81.421 274.161 81.7092 273.074 81.7092H268.12V70.296H272.874C274.017 70.296 274.909 70.5842 275.551 71.1618C276.204 71.7393 276.532 72.5194 276.532 73.5021C276.532 74.0796 276.376 74.5763 276.066 74.9931C275.767 75.3993 275.434 75.6875 275.068 75.859C276.154 76.3508 276.697 77.2059 276.697 78.4242L276.699 78.4233ZM262.675 78.2304C262.753 77.8136 262.791 77.0705 262.791 76.0021C262.791 74.9337 262.753 74.1965 262.675 73.7904C262.597 73.3735 262.442 73.0424 262.209 72.797C261.844 72.3909 261.351 72.1883 260.73 72.1883C260.109 72.1883 259.598 72.3918 259.234 72.797C259.001 73.0424 258.846 73.3687 258.768 73.7748C258.702 74.1809 258.668 74.924 258.668 76.0031C258.668 77.0822 258.702 77.8253 258.768 78.2314C258.846 78.6375 259.001 78.9638 259.234 79.2092C259.6 79.6153 260.098 79.8179 260.73 79.8179C261.361 79.8179 261.844 79.6144 262.209 79.2092C262.443 78.9638 262.597 78.6375 262.675 78.2314V78.2304ZM265.086 74.5753C265.097 74.8743 265.102 75.3506 265.102 76.0021C265.102 76.6537 265.096 77.1299 265.086 77.4289C265.075 77.7279 265.037 78.1019 264.97 78.5508C264.903 78.9891 264.782 79.3631 264.604 79.6728C264.438 79.9825 264.211 80.2766 263.922 80.5542C263.058 81.3879 261.994 81.8047 260.731 81.8047C259.467 81.8047 258.386 81.3879 257.523 80.5542C257.234 80.2766 257.008 79.9874 256.841 79.6884C256.674 79.3787 256.558 78.994 256.492 78.5343C256.425 78.0746 256.387 77.7065 256.375 77.4279C256.364 77.1504 256.359 76.6741 256.359 76.0011C256.359 75.3282 256.364 74.8519 256.375 74.5744C256.387 74.2968 256.425 73.9277 256.492 73.468C256.558 73.0083 256.674 72.6295 256.841 72.3295C257.008 72.0198 257.234 71.7257 257.523 71.4481C258.387 70.6144 259.457 70.1976 260.731 70.1976C262.004 70.1976 263.058 70.6144 263.922 71.4481C264.211 71.7257 264.438 72.0198 264.604 72.3295C264.782 72.6392 264.903 73.019 264.97 73.468C265.037 73.9063 265.075 74.2744 265.086 74.5744V74.5753ZM254.648 81.7083H246.968V70.295H249.278V79.7205H254.648V81.7083ZM244.146 77.0276C244.146 77.8613 244.057 78.545 243.88 79.0797C243.714 79.6144 243.426 80.0896 243.016 80.5065C242.129 81.3723 241.016 81.8047 239.675 81.8047C238.411 81.8047 237.348 81.3879 236.483 80.5542C235.973 80.0624 235.652 79.4907 235.518 78.8391C235.385 78.1983 235.318 77.2526 235.318 76.0021C235.318 74.7516 235.385 73.8059 235.518 73.1651C235.652 72.5136 235.973 71.9419 236.483 71.4501C237.348 70.6164 238.411 70.1996 239.675 70.1996C240.938 70.1996 241.968 70.5414 242.733 71.2251C243.498 71.9088 243.963 72.7853 244.13 73.8537H241.803C241.515 72.7424 240.805 72.1863 239.675 72.1863C239.054 72.1863 238.561 72.3899 238.195 72.795C237.962 73.0726 237.807 73.4096 237.729 73.805C237.663 74.1897 237.629 74.9221 237.629 76.0011C237.629 77.0802 237.663 77.8496 237.729 78.245C237.807 78.6297 237.962 78.956 238.195 79.2228C238.538 79.6183 239.031 79.816 239.675 79.816C240.361 79.816 240.911 79.6027 241.32 79.1751C241.674 78.7797 241.852 78.2723 241.852 77.6519V77.2195H239.675V75.3603H244.147V77.0276H244.146Z" fill="black"/>
<path d="M42.072 49.563C41.764 51.3258 41.0125 52.6931 39.8166 53.6661C38.6207 54.638 37.134 55.124 35.3563 55.124C33.408 55.124 31.7677 54.4812 30.4354 53.1967C29.6496 52.4389 29.1537 51.5576 28.9487 50.5525C28.7436 49.564 28.6406 48.106 28.6406 46.1777C28.6406 44.2493 28.7426 42.7914 28.9487 41.8029C29.1537 40.7978 29.6486 39.9164 30.4354 39.1587C31.7687 37.8731 33.409 37.2313 35.3563 37.2313C37.133 37.2313 38.6197 37.7173 39.8166 38.6893C41.0125 39.6612 41.765 41.0286 42.072 42.7924H38.4581C38.0309 41.1279 37.0057 40.2962 35.3826 40.2962C34.3917 40.2962 33.6312 40.601 33.1009 41.2107C32.7252 41.5896 32.4818 42.0882 32.3707 42.7057C32.2596 43.3231 32.204 44.4811 32.204 46.1777C32.204 47.8742 32.2596 49.0322 32.3707 49.6497C32.4818 50.2671 32.7252 50.7658 33.1009 51.1446C33.6302 51.7543 34.3907 52.0591 35.3826 52.0591C37.0057 52.0591 38.0309 51.2274 38.4581 49.563H42.072Z" fill="black"/>
<path d="M52.2993 48.5248C52.2993 46.9432 52.0427 45.905 51.5307 45.4112C51.1378 45.0323 50.6166 44.8424 49.9671 44.8424C49.3177 44.8424 48.8218 45.0323 48.4289 45.4112C47.9158 45.9059 47.6602 46.9432 47.6602 48.5248C47.6602 50.1064 47.9168 51.169 48.4289 51.6637C48.8218 52.0426 49.3348 52.2325 49.9671 52.2325C50.5994 52.2325 51.1378 52.0435 51.5307 51.6637C52.0438 51.169 52.2993 50.123 52.2993 48.5248ZM55.6314 48.5248C55.6314 49.7607 55.5243 50.7619 55.3112 51.5274C55.0971 52.2938 54.7001 52.9649 54.1194 53.5414C53.0942 54.5962 51.7104 55.123 49.9671 55.123C48.2238 55.123 46.8653 54.5962 45.8401 53.5414C45.2594 52.9649 44.8614 52.2929 44.6483 51.5274C44.4342 50.7609 44.3281 49.7607 44.3281 48.5248C44.3281 47.2889 44.4342 46.313 44.6483 45.5466C44.8614 44.7801 45.2594 44.1091 45.8401 43.5325C46.8653 42.4787 48.241 41.9509 49.9671 41.9509C51.6933 41.9509 53.0942 42.4787 54.1194 43.5325C54.7001 44.1091 55.0971 44.7811 55.3112 45.5466C55.5243 46.313 55.6314 47.3055 55.6314 48.5248Z" fill="black"/>
<path d="M65.6668 51.2927C65.9658 50.6664 66.1152 49.7441 66.1152 48.5248C66.1152 47.3055 65.9658 46.3871 65.6668 45.7686C65.3678 45.1512 64.7568 44.8415 63.8346 44.8415C62.9124 44.8415 62.3054 45.1502 62.0145 45.7686C61.7236 46.3861 61.5792 47.3055 61.5792 48.5248C61.5792 49.1179 61.6044 49.6127 61.656 50.0081C61.7075 50.4035 61.8054 50.7823 61.9509 51.1446C62.0963 51.5069 62.3266 51.7786 62.6428 51.9598C62.9589 52.1409 63.3558 52.2315 63.8346 52.2315C64.7578 52.2315 65.3678 51.9189 65.6668 51.2927ZM69.4473 54.975H66.192V53.7644C65.3547 54.6712 64.2527 55.124 62.8852 55.124C61.5176 55.124 60.4076 54.7374 59.6046 53.9621C59.1945 53.5667 58.8824 53.0272 58.6693 52.3435C58.4552 51.6598 58.3319 51.0667 58.2976 50.5642C58.2633 50.0616 58.2461 49.3818 58.2461 48.5248C58.2461 47.6678 58.2633 46.9889 58.2976 46.4854C58.3319 45.9829 58.4552 45.3937 58.6693 44.7187C58.8824 44.0429 59.1945 43.5082 59.6046 43.1128C60.4076 42.3385 61.4923 41.9509 62.8599 41.9509C64.2275 41.9509 65.3113 42.3794 66.1152 43.2365V37.3793H69.4473V54.976V54.975Z" fill="black"/>
<path d="M80.8765 47.3376C80.8594 46.8273 80.7563 46.3656 80.5685 45.9537C80.1584 45.0635 79.415 44.6194 78.3383 44.6194C77.2616 44.6194 76.5182 45.0645 76.1082 45.9537C75.9203 46.3656 75.8173 46.8273 75.8001 47.3376H80.8755H80.8765ZM84.1571 49.5377H75.8011C75.8011 50.3947 76.0617 51.0862 76.5829 51.614C77.1041 52.1419 77.8171 52.4049 78.7231 52.4049C79.4231 52.4049 79.9917 52.3104 80.4281 52.1205C80.8634 51.9315 81.3038 51.6228 81.7482 51.1933L83.7733 53.0963C83.038 53.8053 82.2946 54.3196 81.5431 54.641C80.7907 54.9624 79.8423 55.123 78.6979 55.123C77.8434 55.123 77.0707 55.0198 76.3779 54.8143C75.686 54.6088 75.0406 54.267 74.4426 53.7888C73.8447 53.3106 73.375 52.6269 73.0326 51.7377C72.6902 50.8476 72.5195 49.7772 72.5195 48.5248C72.5195 46.465 73.0488 44.8551 74.1083 43.6932C75.1678 42.5313 76.5768 41.9509 78.3373 41.9509C80.0978 41.9509 81.5704 42.5235 82.6047 43.6689C83.638 44.8142 84.1551 46.2926 84.1551 48.105V49.5386L84.1571 49.5377Z" fill="black"/>
<path d="M99.3814 44.916H96.9209V54.9746H93.5888V44.916H92.2051V42.4696H93.5888V40.8636C93.5888 39.8585 93.9221 38.9937 94.5888 38.2681C95.2554 37.5435 96.22 37.1803 97.4855 37.1803H99.3824V39.8985H98.0754C97.3067 39.8985 96.9219 40.2861 96.9219 41.0603V42.4686H99.3824V44.9151L99.3814 44.916Z" fill="black"/>
<path d="M108.946 48.5248C108.946 46.9432 108.689 45.905 108.177 45.4112C107.784 45.0323 107.263 44.8424 106.614 44.8424C105.964 44.8424 105.468 45.0323 105.075 45.4112C104.562 45.9059 104.307 46.9432 104.307 48.5248C104.307 50.1064 104.563 51.169 105.075 51.6637C105.468 52.0426 105.981 52.2325 106.614 52.2325C107.246 52.2325 107.784 52.0435 108.177 51.6637C108.69 51.169 108.946 50.123 108.946 48.5248ZM112.278 48.5248C112.278 49.7607 112.171 50.7619 111.958 51.5274C111.744 52.2938 111.347 52.9649 110.766 53.5414C109.741 54.5962 108.357 55.123 106.614 55.123C104.87 55.123 103.512 54.5962 102.487 53.5414C101.906 52.9649 101.508 52.2929 101.295 51.5274C101.081 50.7609 100.975 49.7607 100.975 48.5248C100.975 47.2889 101.081 46.313 101.295 45.5466C101.508 44.7801 101.906 44.1091 102.487 43.5325C103.512 42.4787 104.887 41.9509 106.614 41.9509C108.34 41.9509 109.741 42.4787 110.766 43.5325C111.347 44.1091 111.744 44.7811 111.958 45.5466C112.171 46.313 112.278 47.3055 112.278 48.5248Z" fill="black"/>
<path d="M125.219 43.1601L122.707 45.6065C122.177 45.0962 121.588 44.8401 120.939 44.8401C120.375 44.8401 119.875 45.0465 119.439 45.4575C119.003 45.8695 118.785 46.4548 118.785 47.2125V54.9727H115.453V42.0966H118.708V43.3325C119.05 42.9371 119.525 42.6079 120.131 42.3439C120.737 42.081 121.382 41.9485 122.066 41.9485C123.33 41.9485 124.381 42.3527 125.218 43.1591L125.219 43.1601Z" fill="black"/>
<path d="M38.0491 70.9544C38.5269 70.5259 38.7673 69.9659 38.7673 69.2735C38.7673 68.581 38.5279 68.021 38.0491 67.5925C37.5704 67.164 36.9472 66.9497 36.1785 66.9497H32.8212V71.5962H36.1785C36.9472 71.5962 37.5714 71.382 38.0491 70.9535V70.9544ZM43.073 81.4824H38.946L35.3837 74.4634H32.8202V81.4824H29.2578V63.8858H36.4088C38.2198 63.8858 39.6591 64.4049 40.7277 65.4431C41.7953 66.4813 42.3296 67.7581 42.3296 69.2735C42.3296 70.4431 42.0135 71.4239 41.3812 72.2147C40.7489 73.0055 39.954 73.5655 38.9975 73.8957L43.073 81.4834V81.4824Z" fill="black"/>
<path d="M53.1704 75.0336C53.1704 73.4519 52.9138 72.4138 52.4017 71.92C52.0088 71.5411 51.4877 71.3512 50.8382 71.3512C50.1888 71.3512 49.6928 71.5411 49.2999 71.92C48.7868 72.4147 48.5313 73.4519 48.5313 75.0336C48.5313 76.6152 48.7879 77.6778 49.2999 78.1725C49.6928 78.5514 50.2059 78.7413 50.8382 78.7413C51.4705 78.7413 52.0088 78.5523 52.4017 78.1725C52.9148 77.6778 53.1704 76.6318 53.1704 75.0336ZM56.5025 75.0336C56.5025 76.2695 56.3954 77.2707 56.1823 78.0362C55.9682 78.8026 55.5712 79.4736 54.9905 80.0502C53.9653 81.1049 52.5815 81.6318 50.8382 81.6318C49.0949 81.6318 47.7364 81.1049 46.7112 80.0502C46.1305 79.4736 45.7325 78.8016 45.5194 78.0362C45.3053 77.2697 45.1992 76.2695 45.1992 75.0336C45.1992 73.7977 45.3053 72.8218 45.5194 72.0554C45.7325 71.2889 46.1305 70.6179 46.7112 70.0413C47.7364 68.9875 49.1121 68.4597 50.8382 68.4597C52.5644 68.4597 53.9653 68.9875 54.9905 70.0413C55.5712 70.6179 55.9682 71.2899 56.1823 72.0554C56.3954 72.8218 56.5025 73.8142 56.5025 75.0336Z" fill="black"/>
<path d="M78.544 81.4824H75.2119V73.697C75.2119 72.8896 74.9938 72.2965 74.5585 71.9176C74.1231 71.5388 73.606 71.3489 73.0081 71.3489C72.4101 71.3489 71.8889 71.5339 71.4445 71.905C71.0001 72.276 70.7779 72.8487 70.7779 73.623V81.4824H67.4458V73.697C67.4458 72.8896 67.2277 72.2965 66.7923 71.9176C66.357 71.5388 65.8399 71.3489 65.2419 71.3489C64.644 71.3489 64.1016 71.5388 63.6653 71.9176C63.2299 72.2965 63.0118 72.8896 63.0118 73.697V81.4824H59.6797V68.6063H62.935V69.7926C63.8228 68.9024 64.9339 68.4583 66.2671 68.4583C67.8054 68.4583 68.9841 69.0017 69.8042 70.0896C70.8809 69.0017 72.2132 68.4583 73.803 68.4583C75.2039 68.4583 76.2977 68.8371 77.0835 69.5949C78.0572 70.5337 78.544 71.754 78.544 73.2529V81.4824Z" fill="black"/>
<path d="M88.9002 76.7369V76.0444H86.2599C85.662 76.0444 85.2004 76.172 84.8762 76.4272C84.551 76.6833 84.3894 77.0407 84.3894 77.5024C84.3894 78.4909 85.0297 78.9856 86.3115 78.9856C87.268 78.9856 87.9689 78.7801 88.4133 78.3682C88.7375 78.0711 88.9002 77.5277 88.9002 76.7369ZM92.2323 81.4818H88.9769V80.3696C88.5153 80.8147 88.0416 81.1321 87.5548 81.3211C87.068 81.51 86.4478 81.6055 85.6963 81.6055C84.2096 81.6055 83.0733 81.2266 82.2875 80.4689C81.5522 79.7278 81.1855 78.7636 81.1855 77.5774C81.1855 76.4895 81.5744 75.5964 82.3521 74.8962C83.1299 74.1959 84.2621 73.8463 85.7479 73.8463H88.9002V73.2035C88.9002 72.4955 88.7032 71.9803 88.3103 71.6589C87.9174 71.3375 87.2851 71.1768 86.4135 71.1768C85.7812 71.1768 85.2853 71.2557 84.9267 71.4115C84.5681 71.5683 84.2086 71.8439 83.85 72.2394L81.7229 70.237C82.3552 69.5621 83.0299 69.0965 83.748 68.8404C84.4661 68.5852 85.3964 68.4577 86.5417 68.4577C90.3354 68.4577 92.2323 69.974 92.2323 73.0049V81.4818Z" fill="black"/>
<path d="M106.919 81.4824H103.586V73.697C103.586 72.8896 103.368 72.2965 102.933 71.9176C102.498 71.5388 101.98 71.3489 101.383 71.3489C100.785 71.3489 100.242 71.5388 99.8059 71.9176C99.3706 72.2965 99.1524 72.8896 99.1524 73.697V81.4824H95.8203V68.6063H99.0756V69.7926C99.9473 68.9024 101.057 68.4583 102.408 68.4583C103.758 68.4583 104.774 68.8371 105.56 69.5949C106.466 70.4685 106.919 71.6878 106.919 73.2529V81.4824Z" fill="black"/>
<path d="M113.841 81.4834H110.509V68.6073H113.841V81.4834ZM113.866 66.4072H110.457V63.7874H113.866V66.4072Z" fill="black"/>
<path d="M124.32 76.7369V76.0444H121.68C121.082 76.0444 120.62 76.172 120.296 76.4272C119.971 76.6833 119.809 77.0407 119.809 77.5024C119.809 78.4909 120.45 78.9856 121.731 78.9856C122.688 78.9856 123.389 78.7801 123.833 78.3682C124.157 78.0711 124.32 77.5277 124.32 76.7369ZM127.652 81.4818H124.397V80.3696C123.935 80.8147 123.462 81.1321 122.975 81.3211C122.488 81.51 121.868 81.6055 121.116 81.6055C119.63 81.6055 118.493 81.2266 117.707 80.4689C116.972 79.7278 116.605 78.7636 116.605 77.5774C116.605 76.4895 116.994 75.5964 117.772 74.8962C118.55 74.1959 119.682 73.8463 121.168 73.8463H124.32V73.2035C124.32 72.4955 124.123 71.9803 123.73 71.6589C123.337 71.3375 122.705 71.1768 121.833 71.1768C121.201 71.1768 120.705 71.2557 120.347 71.4115C119.988 71.5683 119.628 71.8439 119.27 72.2394L117.143 70.237C117.775 69.5621 118.45 69.0965 119.168 68.8404C119.886 68.5852 120.816 68.4577 121.962 68.4577C125.755 68.4577 127.652 69.974 127.652 73.0049V81.4818Z" fill="black"/>
</g>
</svg>
