<svg width="22" height="22" viewBox="0 0 22 22" fill="none" xmlns="http://www.w3.org/2000/svg">
<path d="M15.3842 12.7171V8.01497C15.3842 7.77134 15.1889 7.55207 14.9203 7.55207H13.8215L12.7227 5.70046C12.6006 5.48119 12.3809 5.35938 12.1367 5.35938C11.8925 5.35938 11.6728 5.48119 11.5507 5.70046L10.4519 7.55207H5.29987C5.05569 7.55207 4.83594 7.74697 4.83594 8.01497V12.7171C4.83594 14.1058 5.39754 15.397 6.37423 16.3716C7.37534 17.3461 8.69387 17.8821 10.1101 17.8821C13.0157 17.8577 15.3842 15.5432 15.3842 12.7171ZM5.73938 12.7171V8.45351H10.6961C10.867 8.45351 11.0135 8.35605 11.0868 8.23424L12.1123 6.50445L13.1378 8.23424C13.2111 8.38042 13.382 8.45351 13.5285 8.45351H14.4319V12.7171C14.4319 15.0559 12.4786 16.9563 10.0612 16.9563C8.88921 16.9563 7.79043 16.5177 6.98466 15.7138C6.20331 14.9098 5.73938 13.8378 5.73938 12.7171Z" fill="black"/>
<path d="M20.4617 0H15.6515C14.7969 0 14.1132 0.682171 14.1132 1.51052V2.1196C12.8923 1.43743 11.525 1.09635 10.1088 1.09635C5.6404 1.09635 1.95339 4.67774 1.73363 9.18494H1.58713C0.708102 9.18494 0 9.89147 0 10.7685V14.1794C0 15.0565 0.708102 15.763 1.58713 15.763H2.78357C3.6626 15.763 4.3707 15.0565 4.3707 14.1794V10.7929C4.3707 9.91584 3.6626 9.2093 2.78357 9.2093H2.66149C2.88124 5.18937 6.12875 1.99779 10.1088 1.99779C11.5494 1.99779 12.9168 2.41196 14.1132 3.16722V4.53156C14.1132 5.21373 14.5771 5.79845 15.1876 5.99336V6.6268C15.1876 6.99225 15.6759 7.52824 16.2131 7.11406L16.97 6.52935C17.3363 7.3577 17.556 8.25914 17.6049 9.18494H17.4828C16.6038 9.18494 15.8957 9.89147 15.8957 10.7685V14.1794C15.8957 14.8859 16.3596 15.4707 16.9944 15.6899C16.091 17.5659 14.4306 19.052 12.3796 19.6855C12.111 19.247 11.6226 18.9302 11.061 18.9302H9.18091C8.3263 18.9302 7.64262 19.6124 7.64262 20.4651C7.64262 21.3178 8.3263 22 9.18091 22H11.061C11.8912 22 12.5505 21.3666 12.5993 20.5382C15.0166 19.8073 16.9945 18.0288 17.9223 15.7386H18.6548C19.5339 15.7386 20.242 15.0321 20.242 14.155V10.7929C20.242 9.91584 19.5339 9.2093 18.6548 9.2093H18.5083C18.4595 8.11296 18.1909 7.06534 17.7514 6.09081H20.4617C21.3163 6.09081 22 5.40864 22 4.58029V1.51052C22 0.682171 21.3163 0 20.4617 0ZM3.44284 10.7929V14.1794C3.44284 14.5449 3.12542 14.8616 2.75916 14.8616H1.56271C1.19645 14.8616 0.879023 14.5449 0.879023 14.1794V10.7929C0.879023 10.4275 1.19645 10.1107 1.56271 10.1107H2.75916C3.14983 10.1107 3.44284 10.4031 3.44284 10.7929ZM11.6715 20.4895C11.6715 20.8306 11.3785 21.1229 11.0366 21.1229H9.15649C8.81465 21.1229 8.52164 20.8306 8.52164 20.4895C8.52164 20.1484 8.81465 19.856 9.15649 19.856H11.0366C11.4029 19.856 11.6715 20.124 11.6715 20.4895ZM19.3385 10.7929V14.1794C19.3385 14.5449 19.0211 14.8616 18.6548 14.8616H17.4584C17.0921 14.8616 16.7747 14.5449 16.7747 14.1794V10.7929C16.7747 10.4275 17.0921 10.1107 17.4584 10.1107H18.6548C19.0211 10.1107 19.3385 10.4031 19.3385 10.7929ZM21.0721 4.55592C21.0721 4.89701 20.8036 5.16501 20.4373 5.16501H17.4095C17.3119 5.16501 17.2142 5.18937 17.1165 5.26246L16.1154 6.04208V5.60354C16.1154 5.35991 15.9201 5.14064 15.6515 5.14064C15.3097 5.14064 15.0166 4.87265 15.0166 4.53156V1.51052C15.0166 1.16944 15.2852 0.90144 15.6515 0.90144H20.4617C20.8036 0.90144 21.0966 1.16944 21.0966 1.51052L21.0721 4.55592Z" fill="black"/>
<path d="M18.046 2.58252C17.8018 2.58252 17.582 2.77743 17.582 3.04542C17.582 3.28905 17.7774 3.50832 18.046 3.50832C18.2901 3.50832 18.5099 3.31342 18.5099 3.04542C18.5099 2.77743 18.3146 2.58252 18.046 2.58252Z" fill="black"/>
<path d="M19.5577 2.58252C19.3135 2.58252 19.0938 2.77743 19.0938 3.04542C19.0938 3.28905 19.2891 3.50832 19.5577 3.50832C19.8019 3.50832 20.0216 3.31342 20.0216 3.04542C20.0216 2.77743 19.8019 2.58252 19.5577 2.58252Z" fill="black"/>
<path d="M16.5538 3.48342C16.7979 3.48342 17.0177 3.28851 17.0177 3.02052C17.0177 2.77689 16.8224 2.55762 16.5538 2.55762C16.3096 2.55762 16.0898 2.75252 16.0898 3.02052C16.0898 3.28851 16.2852 3.48342 16.5538 3.48342Z" fill="black"/>
</svg>
