<svg width="128" height="127" viewBox="0 0 128 127" fill="none" xmlns="http://www.w3.org/2000/svg">
<path opacity="0.2" d="M64.001 126.416C98.9098 126.416 127.209 98.1168 127.209 63.208C127.209 28.2992 98.9098 0 64.001 0C29.0922 0 0.792969 28.2992 0.792969 63.208C0.792969 98.1168 29.0922 126.416 64.001 126.416Z" fill="#D3C1E5"/>
<path d="M64.0005 114.103C92.109 114.103 114.895 91.316 114.895 63.2075C114.895 35.099 92.109 12.3125 64.0005 12.3125C35.8919 12.3125 13.1055 35.099 13.1055 63.2075C13.1055 91.316 35.8919 114.103 64.0005 114.103Z" fill="#7833B3"/>
<path d="M58.0659 84.9687L40.1289 61.9077L50.5599 53.7947L59.0519 64.7137L87.7409 34.4297L97.3349 43.5177L58.0659 84.9687Z" fill="white"/>
</svg>
