<svg width="24" height="21" viewBox="0 0 24 21" fill="none" xmlns="http://www.w3.org/2000/svg">
<path d="M14.0651 16.5442H10.3353C10.2355 16.5442 10.1348 16.594 10.0351 16.6693L7.08146 19.622V16.9694C7.08146 16.7446 6.90645 16.5686 6.68059 16.5686H6.05487C5.02828 16.5686 4.1777 15.718 4.1777 14.6914L4.17868 11.2627C4.17868 11.0378 4.00367 10.8618 3.77782 10.8618C3.55295 10.8618 3.37695 11.0368 3.37695 11.2627V14.6671C3.37695 16.1688 4.57854 17.3705 6.08033 17.3705H6.28075V20.5987C6.28075 20.7737 6.38048 20.9243 6.53104 20.9741C6.5809 20.9996 6.63077 20.9996 6.68161 20.9996C6.78133 20.9996 6.88203 20.9497 6.98175 20.8744L10.5113 17.3448H14.0652C14.2901 17.3448 14.466 17.1698 14.466 16.944C14.4651 16.7191 14.29 16.5442 14.0651 16.5442Z" fill="black"/>
<path d="M11.3366 6.50777H16.8928C17.6437 6.50777 18.3447 6.95849 18.6194 7.6595C18.6947 7.81007 18.8443 7.90979 18.9948 7.90979C19.0447 7.90979 19.0946 7.90979 19.1454 7.88437C19.3458 7.78465 19.4455 7.55879 19.3703 7.35836C18.945 6.35721 17.9682 5.70605 16.8674 5.70605L11.3365 5.70703C11.1116 5.70703 10.9356 5.88204 10.9356 6.1079C10.9112 6.33277 11.1118 6.50777 11.3366 6.50777Z" fill="black"/>
<path d="M16.5178 9.43552C16.7426 9.43552 16.9186 9.26051 16.9186 9.03465C16.9186 8.80978 16.7436 8.63379 16.5178 8.63379L10.0102 8.63477C9.78537 8.63477 9.60938 8.80977 9.60938 9.03563C9.60938 9.2605 9.78438 9.43649 10.0102 9.43649L16.5178 9.43552Z" fill="black"/>
<path d="M16.9189 11.5386C16.9189 11.3137 16.7439 11.1377 16.518 11.1377H6.43211C6.20724 11.1377 6.03125 11.3127 6.03125 11.5386C6.03125 11.7634 6.20626 11.9394 6.43211 11.9394H16.4935C16.7438 11.9384 16.9189 11.7634 16.9189 11.5386Z" fill="black"/>
<path d="M6.43211 13.6406C6.20724 13.6406 6.03125 13.8156 6.03125 14.0415C6.03125 14.2664 6.20626 14.4424 6.43211 14.4424H15.4923C15.7172 14.4424 15.8932 14.2673 15.8932 14.0415C15.8932 13.8166 15.7182 13.6406 15.4923 13.6406H6.43211Z" fill="black"/>
<path d="M23.7518 9.41119C23.6521 9.11104 23.4517 8.83532 23.1515 8.68575L21.6244 7.88502C21.0241 7.55945 20.2976 7.80974 19.9721 8.3856L15.4924 16.8446C15.2167 17.3452 15.117 17.9211 15.1923 18.4715L15.468 20.6488C15.4934 20.774 15.5677 20.8991 15.6928 20.949C15.7427 20.9744 15.818 20.9988 15.8933 20.9988C15.9685 20.9988 16.0184 20.9734 16.0683 20.949L18.0207 19.9478C18.5213 19.6975 18.9466 19.2967 19.1969 18.7717L23.6523 10.3116C23.8019 10.0369 23.8516 9.71136 23.7518 9.41119ZM18.4702 18.3961C18.2952 18.7461 17.9951 19.0218 17.6441 19.2222L16.2176 19.9477L16.0172 18.3462C15.9673 17.9453 16.0426 17.5455 16.2176 17.1945L19.8966 10.2617L22.1492 11.4379L18.4702 18.3961ZM22.9256 9.96157L22.5248 10.7379L20.2722 9.56171L20.673 8.78541C20.7483 8.66027 20.8735 8.56055 21.023 8.56055C21.0983 8.56055 21.1482 8.58596 21.198 8.61041L22.7252 9.41113C22.8249 9.461 22.9002 9.53628 22.9256 9.636C23.0009 9.76115 22.9755 9.86087 22.9256 9.96157Z" fill="black"/>
<path d="M10.1112 5.05559C10.1112 2.27688 7.85858 0 5.05559 0C2.2526 0 0 2.2526 0 5.05559C0 7.85858 2.2526 10.1112 5.05559 10.1112C7.85858 10.1112 10.1112 7.83413 10.1112 5.05559ZM0.850483 5.05559C0.850483 2.7277 2.75308 0.826204 5.07987 0.826204C7.40776 0.826204 9.30926 2.7288 9.30926 5.05559C9.31023 7.38348 7.40763 9.28598 5.07987 9.28598C2.7521 9.28598 0.850483 7.38338 0.850483 5.05559Z" fill="black"/>
<path d="M6.28087 7.60897C6.35616 7.65883 6.45588 7.65883 6.53116 7.65883C6.65631 7.65883 6.75603 7.63341 6.85674 7.5591C7.03175 7.43396 7.10703 7.23353 7.08161 7.00867L6.85674 5.65751L7.83247 4.70621C7.98303 4.55565 8.03289 4.33078 7.95761 4.13034C7.88233 3.92991 7.70732 3.78034 7.50689 3.75491L6.15573 3.55448L5.55544 2.32847C5.45571 2.12804 5.27972 2.02832 5.05486 2.02832C4.82999 2.02832 4.65399 2.15346 4.55428 2.32847L3.95399 3.55448L2.60185 3.75491C2.40142 3.78033 2.22642 3.92992 2.15113 4.13034C2.07584 4.33077 2.12571 4.55564 2.30169 4.70621L3.27742 5.65751L3.05255 7.00867C3.00269 7.2091 3.10241 7.43396 3.27742 7.5591C3.45243 7.68425 3.67828 7.70967 3.87771 7.60897L5.10373 6.95781L6.28087 7.60897ZM3.95298 6.63324L4.12799 5.58223C4.15341 5.45708 4.10257 5.30651 4.00285 5.23222L3.25198 4.48135L4.30299 4.33079C4.42814 4.30537 4.55328 4.23107 4.60314 4.10592L5.07829 3.15462L5.55344 4.10592C5.6033 4.23107 5.72845 4.30635 5.85359 4.33079L6.9046 4.48135L6.15373 5.23222C6.05401 5.33195 6.00317 5.45709 6.02859 5.58223L6.20359 6.63324L5.27773 6.13266C5.15258 6.05738 5.02744 6.05738 4.90229 6.13266L3.95298 6.63324Z" fill="black"/>
</svg>
