<svg width="79" height="90" viewBox="0 0 79 90" fill="none" xmlns="http://www.w3.org/2000/svg">
<path d="M70.9369 90H8.04439C5.91162 89.9976 3.8669 89.1488 2.35881 87.6399C0.850714 86.131 0.00240917 84.0852 0 81.9512V8.04878C0.00240917 5.91485 0.850714 3.86901 2.35881 2.3601C3.8669 0.851179 5.91162 0.00241048 8.04439 0H66.5556L78.9812 9.90949V81.9512C78.9788 84.0852 78.1305 86.131 76.6224 87.6399C75.1143 89.1488 73.0696 89.9976 70.9369 90Z" fill="#E6E6E6"/>
<path d="M8.04303 2.31641C6.52424 2.31812 5.06815 2.92254 3.99421 3.99708C2.92026 5.07161 2.31616 6.5285 2.31445 8.04811V81.9505C2.31616 83.4702 2.92026 84.9271 3.99421 86.0016C5.06815 87.0761 6.52424 87.6805 8.04303 87.6823H70.9355C72.4543 87.6805 73.9104 87.0761 74.9843 86.0016C76.0583 84.9271 76.6624 83.4702 76.6641 81.9505V11.0251L65.7442 2.31641H8.04303Z" fill="white"/>
<path d="M58.7041 23.8057H30.0701C29.8941 23.8057 29.72 23.771 29.5574 23.7036C29.3949 23.6363 29.2472 23.5376 29.1228 23.4131C28.9984 23.2886 28.8998 23.1409 28.8324 22.9783C28.7651 22.8156 28.7305 22.6414 28.7305 22.4653C28.7305 22.2893 28.7651 22.115 28.8324 21.9524C28.8998 21.7898 28.9984 21.642 29.1228 21.5176C29.2472 21.3931 29.3949 21.2944 29.5574 21.227C29.72 21.1597 29.8941 21.125 30.0701 21.125H58.7041C58.8801 21.125 59.0543 21.1597 59.2168 21.227C59.3793 21.2944 59.527 21.3931 59.6514 21.5176C59.7758 21.642 59.8745 21.7898 59.9418 21.9524C60.0091 22.115 60.0437 22.2893 60.0437 22.4653C60.0437 22.6414 60.0091 22.8156 59.9418 22.9783C59.8745 23.1409 59.7758 23.2886 59.6514 23.4131C59.527 23.5376 59.3793 23.6363 59.2168 23.7036C59.0543 23.771 58.8801 23.8057 58.7041 23.8057Z" fill="#F0E5FF"/>
<path d="M64.23 28.3311H30.0701C29.7148 28.3311 29.3741 28.1899 29.1228 27.9385C28.8716 27.6871 28.7305 27.3462 28.7305 26.9907C28.7305 26.6353 28.8716 26.2943 29.1228 26.043C29.3741 25.7916 29.7148 25.6504 30.0701 25.6504H64.23C64.5853 25.6504 64.926 25.7916 65.1772 26.043C65.4285 26.2943 65.5696 26.6353 65.5696 26.9907C65.5696 27.3462 65.4285 27.6871 65.1772 27.9385C64.926 28.1899 64.5853 28.3311 64.23 28.3311Z" fill="#F0E5FF"/>
<path d="M58.7041 44.0791H30.0701C29.7148 44.0791 29.3741 43.9379 29.1228 43.6865C28.8716 43.4352 28.7305 43.0942 28.7305 42.7388C28.7305 42.3833 28.8716 42.0424 29.1228 41.791C29.3741 41.5397 29.7148 41.3984 30.0701 41.3984H58.7041C59.0594 41.3984 59.4002 41.5397 59.6514 41.791C59.9026 42.0424 60.0437 42.3833 60.0437 42.7388C60.0437 43.0942 59.9026 43.4352 59.6514 43.6865C59.4002 43.9379 59.0594 44.0791 58.7041 44.0791Z" fill="#CCCCCC"/>
<path d="M64.23 48.6025H30.0701C29.7148 48.6025 29.3741 48.4613 29.1228 48.21C28.8716 47.9586 28.7305 47.6177 28.7305 47.2622C28.7305 46.9067 28.8716 46.5658 29.1228 46.3145C29.3741 46.0631 29.7148 45.9219 30.0701 45.9219H64.23C64.5853 45.9219 64.926 46.0631 65.1772 46.3145C65.4285 46.5658 65.5696 46.9067 65.5696 47.2622C65.5696 47.6177 65.4285 47.9586 65.1772 48.21C64.926 48.4613 64.5853 48.6025 64.23 48.6025Z" fill="#CCCCCC"/>
<path d="M58.7041 64.3506H30.0701C29.7148 64.3506 29.3741 64.2094 29.1228 63.958C28.8716 63.7067 28.7305 63.3657 28.7305 63.0103C28.7305 62.6548 28.8716 62.3139 29.1228 62.0625C29.3741 61.8111 29.7148 61.6699 30.0701 61.6699H58.7041C59.0594 61.6699 59.4002 61.8111 59.6514 62.0625C59.9026 62.3139 60.0437 62.6548 60.0437 63.0103C60.0437 63.3657 59.9026 63.7067 59.6514 63.958C59.4002 64.2094 59.0594 64.3506 58.7041 64.3506Z" fill="#CCCCCC"/>
<path d="M64.23 68.876H30.0701C29.7148 68.876 29.3741 68.7348 29.1228 68.4834C28.8716 68.232 28.7305 67.8911 28.7305 67.5357C28.7305 67.1802 28.8716 66.8392 29.1228 66.5879C29.3741 66.3365 29.7148 66.1953 30.0701 66.1953H64.23C64.5853 66.1953 64.926 66.3365 65.1772 66.5879C65.4285 66.8392 65.5696 67.1802 65.5696 67.5357C65.5696 67.8911 65.4285 68.232 65.1772 68.4834C64.926 68.7348 64.5853 68.876 64.23 68.876Z" fill="#CCCCCC"/>
<path d="M18.1469 29.4649C20.7618 29.4649 22.8816 27.344 22.8816 24.7276C22.8816 22.1112 20.7618 19.9902 18.1469 19.9902C15.5319 19.9902 13.4121 22.1112 13.4121 24.7276C13.4121 27.344 15.5319 29.4649 18.1469 29.4649Z" fill="#3F3D56"/>
<path d="M17.677 26.5346C17.5705 26.5348 17.4668 26.5003 17.3816 26.4364L17.3763 26.4324L16.2636 25.5808C16.1597 25.5009 16.0917 25.383 16.0745 25.2529C16.0574 25.1229 16.0926 24.9914 16.1724 24.8873C16.2521 24.7833 16.3699 24.7151 16.4998 24.6979C16.6298 24.6807 16.7612 24.7158 16.8653 24.7955L17.5861 25.3485L19.2892 23.1253C19.3287 23.0738 19.3779 23.0305 19.4341 22.998C19.4903 22.9655 19.5524 22.9444 19.6168 22.9359C19.6811 22.9274 19.7465 22.9317 19.8092 22.9484C19.8719 22.9652 19.9307 22.9942 19.9822 23.0337L19.9718 23.0485L19.9826 23.0338C20.0866 23.1137 20.1546 23.2316 20.1717 23.3617C20.1888 23.4917 20.1537 23.6232 20.0741 23.7273L18.0708 26.3411C18.0245 26.4013 17.9649 26.4501 17.8967 26.4835C17.8284 26.517 17.7535 26.5343 17.6775 26.534L17.677 26.5346Z" fill="white"/>
<path d="M18.6332 49.7364C21.2481 49.7364 23.368 47.6154 23.368 44.9991C23.368 42.3827 21.2481 40.2617 18.6332 40.2617C16.0183 40.2617 13.8984 42.3827 13.8984 44.9991C13.8984 47.6154 16.0183 49.7364 18.6332 49.7364Z" fill="#CCCCCC"/>
<path d="M18.1469 70.0099C20.7618 70.0099 22.8816 67.8889 22.8816 65.2725C22.8816 62.6561 20.7618 60.5352 18.1469 60.5352C15.5319 60.5352 13.4121 62.6561 13.4121 65.2725C13.4121 67.8889 15.5319 70.0099 18.1469 70.0099Z" fill="#CCCCCC"/>
<path d="M78.7388 10.2286H69.0054C68.2948 10.2286 67.6133 9.94622 67.1109 9.44349C66.6084 8.94077 66.3262 8.25893 66.3262 7.54797V0.355045C66.3262 0.323554 66.335 0.292697 66.3518 0.266019C66.3685 0.239341 66.3924 0.21792 66.4207 0.20421C66.4491 0.190501 66.4807 0.185058 66.512 0.188509C66.5432 0.191959 66.5729 0.204161 66.5976 0.223715L78.8428 9.92977C78.8701 9.95137 78.8899 9.98092 78.8996 10.0143C78.9093 10.0477 78.9084 10.0833 78.897 10.1162C78.8856 10.149 78.8642 10.1775 78.8358 10.1977C78.8075 10.2178 78.7736 10.2286 78.7388 10.2286Z" fill="#E6E6E6"/>
</svg>
