<svg width="24" height="24" viewBox="0 0 24 24" fill="none" xmlns="http://www.w3.org/2000/svg">
<path d="M2 12.5C1.86739 12.5 1.74021 12.4473 1.64645 12.3536C1.55268 12.2598 1.5 12.1326 1.5 12V2.5C1.50026 2.23486 1.60571 1.98066 1.79319 1.79319C1.98066 1.60571 2.23486 1.50026 2.5 1.5H11.5C11.7651 1.50026 12.0193 1.60571 12.2068 1.79319C12.3943 1.98066 12.4997 2.23486 12.5 2.5V9.5C12.4997 9.76513 12.3943 10.0193 12.2068 10.2068C12.0193 10.3943 11.7651 10.4997 11.5 10.5H4.207L2.3535 12.3535C2.3071 12.4 2.25199 12.4368 2.19133 12.4619C2.13068 12.4871 2.06566 12.5 2 12.5ZM11.5 2.499L2.5 2.5V10.793L3.6465 9.6465C3.74025 9.55272 3.8674 9.50003 4 9.5H11.5V2.499ZM22 22.5C21.9343 22.5 21.8693 22.4871 21.8087 22.4619C21.748 22.4368 21.6929 22.4 21.6465 22.3535L19.793 20.5H12.5C12.2349 20.4997 11.9807 20.3943 11.7932 20.2068C11.6057 20.0193 11.5003 19.7651 11.5 19.5V12.5C11.5003 12.2349 11.6057 11.9807 11.7932 11.7932C11.9807 11.6057 12.2349 11.5003 12.5 11.5H21.5C21.7651 11.5003 22.0193 11.6057 22.2068 11.7932C22.3943 11.9807 22.4997 12.2349 22.5 12.5V22C22.5 22.1326 22.4473 22.2598 22.3536 22.3536C22.2598 22.4473 22.1326 22.5 22 22.5ZM12.5 12.5V19.5H20C20.1326 19.5 20.2598 19.5527 20.3535 19.6465L21.5 20.793V12.5H12.5Z" fill="#18181B"/>
<path d="M5.49947 8.5C5.37303 8.49987 5.25133 8.45183 5.15888 8.36557C5.06644 8.2793 5.01011 8.16122 5.00123 8.03509C4.99236 7.90896 5.0316 7.78415 5.11106 7.68579C5.19052 7.58744 5.30429 7.52284 5.42947 7.505C6.0792 7.41034 6.6813 7.10938 7.14697 6.6465C7.46987 6.32341 7.7155 5.93146 7.86547 5.5H5.50047C5.36786 5.5 5.24068 5.44732 5.14692 5.35355C5.05315 5.25978 5.00047 5.13261 5.00047 5C5.00047 4.86739 5.05315 4.74021 5.14692 4.64645C5.24068 4.55268 5.36786 4.5 5.50047 4.5H8.50047C8.57209 4.5 8.64287 4.51539 8.70802 4.54512C8.77318 4.57485 8.83119 4.61823 8.87812 4.67232C8.92506 4.72641 8.95983 4.78996 8.98007 4.85866C9.00032 4.92735 9.00557 4.9996 8.99547 5.0705C8.87213 5.93493 8.4717 6.73603 7.85431 7.35351C7.23692 7.97099 6.43588 8.37153 5.57147 8.495C5.54778 8.49836 5.52339 8.50003 5.49947 8.5Z" fill="#18181B"/>
<path d="M7.00003 5.5C6.86742 5.5 6.74024 5.44732 6.64647 5.35355C6.5527 5.25979 6.50003 5.13261 6.50003 5V4C6.50003 3.86739 6.5527 3.74021 6.64647 3.64645C6.74024 3.55268 6.86742 3.5 7.00003 3.5C7.13263 3.5 7.25981 3.55268 7.35358 3.64645C7.44735 3.74021 7.50003 3.86739 7.50003 4V5C7.50003 5.13261 7.44735 5.25979 7.35358 5.35355C7.25981 5.44732 7.13263 5.5 7.00003 5.5ZM9.00052 8.5C8.98752 8.5 8.97419 8.4995 8.96052 8.4985C8.37892 8.45347 7.81577 8.27377 7.31558 7.9736C6.81539 7.67344 6.39188 7.26104 6.07853 6.769C6.00718 6.65721 5.98317 6.52166 6.01177 6.39217C6.04037 6.26267 6.11924 6.14984 6.23103 6.0785C6.34281 6.00716 6.47837 5.98314 6.60786 6.01174C6.73735 6.04034 6.85018 6.11921 6.92153 6.231C7.15153 6.59267 7.46265 6.89575 7.83021 7.1162C8.19778 7.33665 8.61166 7.4684 9.03902 7.501C9.16942 7.509 9.29151 7.56771 9.37916 7.66458C9.46682 7.76145 9.51308 7.88877 9.50805 8.01932C9.50302 8.14986 9.44709 8.27325 9.35224 8.36308C9.25739 8.45292 9.13115 8.50206 9.00052 8.5ZM14.9995 18.5C14.9144 18.4999 14.8307 18.478 14.7563 18.4364C14.682 18.3949 14.6195 18.3351 14.5748 18.2626C14.5301 18.1901 14.5046 18.1074 14.5008 18.0224C14.497 17.9373 14.515 17.8527 14.553 17.7765L16.553 13.7765C16.6147 13.6621 16.7185 13.5763 16.8423 13.5371C16.9662 13.4979 17.1005 13.5085 17.2167 13.5666C17.3329 13.6247 17.422 13.7258 17.465 13.8484C17.5079 13.971 17.5015 14.1055 17.447 14.2235L15.447 18.2235C15.4055 18.3065 15.3417 18.3764 15.2628 18.4252C15.1838 18.4741 15.0924 18.5 14.9995 18.5Z" fill="#18181B"/>
<path d="M19.0014 18.4999C18.9085 18.4999 18.8174 18.474 18.7384 18.4252C18.6593 18.3764 18.5954 18.3065 18.5539 18.2234L16.5539 14.2234C16.4994 14.1054 16.493 13.9709 16.536 13.8482C16.579 13.7256 16.668 13.6246 16.7842 13.5665C16.9004 13.5084 17.0347 13.4978 17.1586 13.5369C17.2825 13.5761 17.3862 13.662 17.4479 13.7764L19.4479 17.7764C19.4859 17.8525 19.5039 17.9371 19.5001 18.0221C19.4964 18.1071 19.4709 18.1898 19.4263 18.2622C19.3816 18.3347 19.3192 18.3945 19.2449 18.4361C19.1707 18.4777 19.0865 18.4996 19.0014 18.4999Z" fill="#18181B"/>
<path d="M18.7414 16.9837H15.2584C15.1258 16.9837 14.9986 16.931 14.9048 16.8373C14.8111 16.7435 14.7584 16.6163 14.7584 16.4837C14.7584 16.3511 14.8111 16.2239 14.9048 16.1301C14.9986 16.0364 15.1258 15.9837 15.2584 15.9837H18.7414C18.874 15.9837 19.0012 16.0364 19.0949 16.1301C19.1887 16.2239 19.2414 16.3511 19.2414 16.4837C19.2414 16.6163 19.1887 16.7435 19.0949 16.8373C19.0012 16.931 18.874 16.9837 18.7414 16.9837ZM4.99989 13.5002C4.90102 13.5002 4.80437 13.4708 4.72216 13.4159C4.63996 13.361 4.57589 13.2829 4.53805 13.1915C4.50022 13.1002 4.49032 12.9997 4.5096 12.9027C4.52889 12.8057 4.57649 12.7166 4.64639 12.6467L5.64639 11.6467C5.74069 11.5556 5.867 11.5052 5.99809 11.5064C6.12919 11.5075 6.2546 11.5601 6.3473 11.6528C6.44001 11.7455 6.49259 11.8709 6.49373 12.002C6.49487 12.1331 6.44447 12.2594 6.35339 12.3537L5.35339 13.3537C5.30702 13.4002 5.25192 13.4371 5.19126 13.4622C5.1306 13.4874 5.06556 13.5003 4.99989 13.5002Z" fill="#18181B"/>
<path d="M6.99972 13.5002C6.93405 13.5003 6.86901 13.4874 6.80835 13.4622C6.74768 13.4371 6.69258 13.4002 6.64622 13.3537L5.64622 12.3537C5.55514 12.2594 5.50474 12.1331 5.50588 12.002C5.50702 11.8709 5.5596 11.7455 5.65231 11.6528C5.74501 11.5601 5.87042 11.5075 6.00151 11.5064C6.13261 11.5052 6.25891 11.5556 6.35322 11.6467L7.35322 12.6467C7.42312 12.7166 7.47072 12.8057 7.49001 12.9027C7.50929 12.9997 7.49939 13.1002 7.46155 13.1915C7.42372 13.2829 7.35965 13.361 7.27744 13.4159C7.19524 13.4708 7.09859 13.5002 6.99972 13.5002Z" fill="#18181B"/>
<path d="M10 17.5002H6.5C6.23486 17.4999 5.98066 17.3945 5.79319 17.207C5.60571 17.0195 5.50026 16.7653 5.5 16.5002V12.0002C5.5 11.8676 5.55268 11.7404 5.64645 11.6467C5.74021 11.5529 5.86739 11.5002 6 11.5002C6.13261 11.5002 6.25979 11.5529 6.35355 11.6467C6.44732 11.7404 6.5 11.8676 6.5 12.0002V16.5002H10C10.1326 16.5002 10.2598 16.5529 10.3536 16.6467C10.4473 16.7404 10.5 16.8676 10.5 17.0002C10.5 17.1328 10.4473 17.26 10.3536 17.3538C10.2598 17.4475 10.1326 17.5002 10 17.5002ZM18 10.5002C17.9011 10.5002 17.8045 10.4708 17.7223 10.4159C17.6401 10.361 17.576 10.2829 17.5382 10.1915C17.5003 10.1002 17.4904 9.99966 17.5097 9.90269C17.529 9.80571 17.5766 9.71663 17.6465 9.6467L18.6465 8.6467C18.7408 8.55562 18.8671 8.50523 18.9982 8.50637C19.1293 8.50751 19.2547 8.56009 19.3474 8.65279C19.4401 8.7455 19.4927 8.87091 19.4938 9.002C19.495 9.1331 19.4446 9.2594 19.3535 9.3537L18.3535 10.3537C18.3071 10.4002 18.252 10.4371 18.1914 10.4622C18.1307 10.4874 18.0657 10.5003 18 10.5002Z" fill="#18181B"/>
<path d="M17.9997 10.5002C17.934 10.5003 17.869 10.4874 17.8083 10.4622C17.7477 10.4371 17.6926 10.4002 17.6462 10.3537L16.6462 9.3537C16.5551 9.2594 16.5047 9.1331 16.5059 9.002C16.507 8.87091 16.5596 8.7455 16.6523 8.65279C16.745 8.56009 16.8704 8.50751 17.0015 8.50637C17.1326 8.50523 17.2589 8.55562 17.3532 8.6467L18.3532 9.6467C18.4231 9.71663 18.4707 9.80571 18.49 9.90269C18.5093 9.99966 18.4994 10.1002 18.4616 10.1915C18.4237 10.2829 18.3596 10.361 18.2774 10.4159C18.1952 10.4708 18.0986 10.5002 17.9997 10.5002Z" fill="#18181B"/>
<path d="M18 10.5C17.8674 10.5 17.7402 10.4473 17.6464 10.3536C17.5527 10.2598 17.5 10.1326 17.5 10V5.5H14C13.8674 5.5 13.7402 5.44732 13.6464 5.35355C13.5527 5.25979 13.5 5.13261 13.5 5C13.5 4.86739 13.5527 4.74021 13.6464 4.64645C13.7402 4.55268 13.8674 4.5 14 4.5H17.5C17.7651 4.50026 18.0193 4.60571 18.2068 4.79319C18.3943 4.98066 18.4997 5.23486 18.5 5.5V10C18.5 10.1326 18.4473 10.2598 18.3536 10.3536C18.2598 10.4473 18.1326 10.5 18 10.5Z" fill="#18181B"/>
</svg>
