<svg width="23" height="20" viewBox="0 0 23 20" fill="none" xmlns="http://www.w3.org/2000/svg">
<path d="M13.92 15.3846C13.4718 15.3846 13.1291 15.7179 13.1291 16.1538V18.2051C13.1291 18.359 13.0236 18.4615 12.8655 18.4615H1.84545C1.68727 18.4615 1.58182 18.359 1.58182 18.2051V1.79487C1.58182 1.64103 1.68727 1.53846 1.84545 1.53846H12.8655C13.0236 1.53846 13.1291 1.64103 13.1291 1.79487V3.84615C13.1291 4.28205 13.4718 4.61539 13.92 4.61539C14.3682 4.61539 14.7109 4.28205 14.7109 3.84615V1.79487C14.7109 0.794872 13.8936 0 12.8655 0H1.84545C0.817273 0 0 0.794872 0 1.79487V18.2051C0 19.2051 0.817273 20 1.84545 20H12.8655C13.8936 20 14.7109 19.2051 14.7109 18.2051V16.1538C14.7109 15.7179 14.3682 15.3846 13.92 15.3846Z" fill="black"/>
<path d="M21.9092 9.46178L17.5592 5.30794C17.401 5.17973 17.1901 5.10281 16.9792 5.12845C16.7683 5.15409 16.5837 5.23101 16.4519 5.4105C16.1883 5.71819 16.2146 6.12845 16.4783 6.43614L19.4046 9.25665H8.27919C7.83101 9.25665 7.48828 9.58999 7.48828 10.0259C7.48828 10.4618 7.83101 10.7951 8.27919 10.7951H19.4046L16.5046 13.59C16.3465 13.7182 16.241 13.8977 16.2146 14.1028C16.1883 14.3079 16.2674 14.5131 16.3992 14.6669C16.531 14.8208 16.7156 14.9233 16.9265 14.949C16.9528 14.949 16.9792 14.949 17.0056 14.949C17.1901 14.949 17.3746 14.872 17.5065 14.7695C17.5328 14.7438 17.5592 14.7182 17.5856 14.6926L21.8828 10.5643C22.041 10.4105 22.1201 10.231 22.1201 10.0259C22.1465 9.79511 22.0674 9.61563 21.9092 9.46178Z" fill="black"/>
</svg>
