<svg width="24" height="24" viewBox="0 0 24 24" fill="none" xmlns="http://www.w3.org/2000/svg">
<path d="M4.1001 6.00005C4.1001 5.8144 4.17385 5.63635 4.30512 5.50507C4.4364 5.3738 4.61445 5.30005 4.8001 5.30005H19.2001C19.3857 5.30005 19.5638 5.3738 19.6951 5.50507C19.8263 5.63635 19.9001 5.8144 19.9001 6.00005C19.9001 6.1857 19.8263 6.36375 19.6951 6.49502C19.5638 6.6263 19.3857 6.70005 19.2001 6.70005H4.8001C4.61445 6.70005 4.4364 6.6263 4.30512 6.49502C4.17385 6.36375 4.1001 6.1857 4.1001 6.00005ZM4.1001 12C4.1001 11.8144 4.17385 11.6364 4.30512 11.5051C4.4364 11.3738 4.61445 11.3 4.8001 11.3H19.2001C19.3857 11.3 19.5638 11.3738 19.6951 11.5051C19.8263 11.6363 19.9001 11.8144 19.9001 12C19.9001 12.1857 19.8263 12.3637 19.6951 12.495C19.5638 12.6263 19.3857 12.7 19.2001 12.7H4.8001C4.61445 12.7 4.4364 12.6263 4.30512 12.495C4.17385 12.3637 4.1001 12.1857 4.1001 12ZM4.1001 18C4.1001 17.8144 4.17385 17.6364 4.30512 17.5051L3.95443 17.1544L4.30512 17.5051C4.4364 17.3738 4.61445 17.3 4.8001 17.3H12.0001C12.1857 17.3 12.3638 17.3738 12.4951 17.5051C12.6263 17.6364 12.7001 17.8144 12.7001 18C12.7001 18.1857 12.6263 18.3637 12.4951 18.495C12.3638 18.6263 12.1857 18.7 12.0001 18.7H4.8001C4.61445 18.7 4.4364 18.6263 4.30512 18.495C4.17385 18.3637 4.1001 18.1857 4.1001 18Z" fill="black" stroke="black"/>
</svg>
