<svg width="225" height="170" viewBox="0 0 225 170" fill="none" xmlns="http://www.w3.org/2000/svg">
<g clip-path="url(#clip0_1095_11819)">
<path opacity="0.8" d="M32.4968 100.381C40.336 100.381 46.6909 94.0596 46.6909 86.2616C46.6909 78.4636 40.336 72.1421 32.4968 72.1421C24.6576 72.1421 18.3027 78.4636 18.3027 86.2616C18.3027 94.0596 24.6576 100.381 32.4968 100.381Z" fill="#7833B3"/>
<path d="M61.5656 166.015H61.5512C61.0514 166.014 60.5722 165.817 60.2188 165.465C59.8654 165.114 59.6666 164.637 59.666 164.14V54.0515C59.6666 53.5543 59.8654 53.0777 60.2188 52.7261C60.5722 52.3746 61.0514 52.1768 61.5512 52.1763H154.7C155.199 52.1768 155.679 52.3746 156.032 52.7261C156.385 53.0777 156.584 53.5543 156.585 54.0515V139.651C156.584 140.146 156.387 140.62 156.037 140.971C155.687 141.323 155.212 141.522 154.714 141.526L61.5656 166.015Z" fill="#F2F2F2"/>
<path d="M130.414 36.6224H87.166V11.6926C87.1666 11.1662 87.3771 10.6615 87.7513 10.2893C88.1255 9.91702 88.6329 9.70763 89.1621 9.70703H128.418C128.947 9.70763 129.454 9.91702 129.828 10.2893C130.202 10.6615 130.413 11.1662 130.414 11.6926V36.6224ZM87.6096 36.1812H129.97V11.6926C129.97 11.2832 129.806 10.8906 129.515 10.6011C129.224 10.3116 128.829 10.1487 128.418 10.1483H89.1621C88.7505 10.1487 88.3558 10.3116 88.0648 10.6011C87.7738 10.8906 87.61 11.2832 87.6096 11.6926V36.1812Z" fill="#3F3D56"/>
<path d="M99.4754 19.1938H118.105C118.576 19.1938 119.027 19.3798 119.36 19.7108C119.692 20.0418 119.879 20.4907 119.879 20.9588V47.4329H97.7012V20.9588C97.7012 20.4907 97.8881 20.0418 98.2208 19.7108C98.5536 19.3798 99.0049 19.1938 99.4754 19.1938Z" fill="#E6E6E6"/>
<path d="M103.134 10.1484H94.041V1.10309C94.0414 0.810634 94.1583 0.530254 94.3662 0.323457C94.5741 0.11666 94.8559 0.000334578 95.1499 0H102.025C102.319 0.000334578 102.601 0.11666 102.809 0.323457C103.017 0.530254 103.134 0.810634 103.134 1.10309V10.1484ZM94.4846 9.70718H102.691V1.10309C102.69 0.927613 102.62 0.75938 102.495 0.635299C102.371 0.511219 102.202 0.441427 102.025 0.441236H95.1499C94.9735 0.441427 94.8044 0.511219 94.6797 0.635299C94.5549 0.75938 94.4848 0.927613 94.4846 1.10309V9.70718Z" fill="#3F3D56"/>
<path d="M177.856 143.145C177.768 143.145 177.681 143.145 177.593 143.143C172.106 143.083 166.831 141.032 162.757 137.375C162.606 137.238 162.457 137.1 162.309 136.96L162.24 136.895V94.6131L162.261 94.5684C162.408 94.2588 162.557 93.9536 162.706 93.6485C167.319 84.3319 172.699 79.2017 177.856 79.2017C185.292 79.2017 191.059 89.3487 193.835 95.3971C197.695 103.808 200.391 114.23 200.391 120.742C200.389 126.641 198.049 132.301 193.879 136.495C189.708 140.689 184.043 143.078 178.113 143.143C178.031 143.145 177.942 143.145 177.856 143.145ZM162.684 136.706C162.807 136.821 162.931 136.935 163.055 137.048C167.049 140.633 172.222 142.644 177.601 142.702C177.691 142.704 177.776 142.702 177.862 142.704C177.942 142.704 178.025 142.704 178.105 142.702C190.151 142.569 199.948 132.718 199.948 120.742C199.948 114.287 197.268 103.94 193.432 95.5804C190.7 89.6282 185.044 79.6429 177.856 79.6429C172.877 79.6429 167.638 84.6856 163.105 93.8422C162.964 94.1302 162.823 94.4192 162.684 94.712L162.684 136.706Z" fill="#3F3D56"/>
<path d="M177.855 169.895C177.787 169.895 177.722 169.868 177.674 169.821C177.626 169.773 177.6 169.709 177.6 169.641V117.825C177.599 117.792 177.606 117.759 177.619 117.728C177.631 117.697 177.65 117.668 177.674 117.645C177.698 117.621 177.726 117.602 177.757 117.589C177.788 117.576 177.821 117.57 177.855 117.57C177.888 117.57 177.922 117.576 177.953 117.589C177.984 117.602 178.012 117.621 178.036 117.645C178.059 117.668 178.078 117.697 178.091 117.728C178.104 117.759 178.11 117.792 178.11 117.825V169.641C178.11 169.709 178.083 169.773 178.035 169.821C177.987 169.868 177.922 169.895 177.855 169.895Z" fill="#CCCCCC"/>
<path d="M45.4505 169.895C45.3828 169.895 45.3179 169.868 45.2701 169.821C45.2222 169.773 45.1953 169.709 45.1953 169.641V117.825C45.1951 117.792 45.2016 117.759 45.2143 117.728C45.227 117.697 45.2458 117.668 45.2695 117.645C45.2932 117.621 45.3214 117.602 45.3525 117.589C45.3835 117.576 45.4168 117.57 45.4505 117.57C45.4841 117.57 45.5174 117.576 45.5485 117.589C45.5795 117.602 45.6077 117.621 45.6314 117.645C45.6551 117.668 45.6739 117.697 45.6866 117.728C45.6994 117.759 45.7058 117.792 45.7056 117.825V169.641C45.7056 169.709 45.6788 169.773 45.6309 169.821C45.5831 169.868 45.5182 169.895 45.4505 169.895Z" fill="#CCCCCC"/>
<path d="M177.854 127.506C177.817 127.506 177.781 127.498 177.748 127.483C177.714 127.468 177.685 127.446 177.661 127.419L164.828 112.697C164.783 112.646 164.761 112.58 164.766 112.512C164.771 112.445 164.803 112.383 164.854 112.339C164.905 112.295 164.971 112.273 165.039 112.277C165.106 112.282 165.169 112.313 165.213 112.364L178.046 127.086C178.078 127.123 178.099 127.168 178.106 127.216C178.113 127.264 178.106 127.313 178.086 127.358C178.065 127.402 178.033 127.439 177.992 127.466C177.951 127.492 177.903 127.506 177.854 127.506Z" fill="#CCCCCC"/>
<path d="M177.855 136.002C177.804 136.002 177.755 135.987 177.713 135.959C177.671 135.932 177.638 135.892 177.619 135.846C177.6 135.799 177.595 135.748 177.605 135.699C177.614 135.65 177.639 135.604 177.674 135.569L184.966 128.315C185.014 128.268 185.079 128.241 185.147 128.241C185.214 128.241 185.279 128.268 185.327 128.316C185.374 128.363 185.401 128.427 185.401 128.495C185.401 128.562 185.375 128.626 185.327 128.674L178.035 135.928C178.011 135.951 177.983 135.97 177.952 135.983C177.921 135.996 177.888 136.002 177.855 136.002Z" fill="#CCCCCC"/>
<path d="M201.463 170H182.389V169.779C182.388 168.533 182.634 167.299 183.113 166.147C183.592 164.996 184.295 163.949 185.18 163.068C186.066 162.186 187.118 161.487 188.275 161.01C189.432 160.533 190.673 160.288 191.926 160.288C193.179 160.288 194.419 160.533 195.577 161.01C196.734 161.487 197.786 162.186 198.671 163.068C199.557 163.949 200.259 164.996 200.738 166.147C201.217 167.299 201.464 168.533 201.463 169.779L201.463 170ZM182.835 169.559H201.017C200.959 167.198 199.976 164.954 198.277 163.305C196.579 161.656 194.299 160.733 191.926 160.733C189.552 160.733 187.273 161.656 185.575 163.305C183.876 164.954 182.893 167.198 182.835 169.559Z" fill="#3F3D56"/>
<path d="M191.926 164.395C191.859 164.395 191.795 164.421 191.748 164.468C191.701 164.515 191.674 164.579 191.674 164.645V167.306L189.069 165.081C189.044 165.06 189.014 165.043 188.983 165.033C188.952 165.023 188.918 165.018 188.885 165.021C188.852 165.023 188.82 165.032 188.791 165.047C188.761 165.062 188.735 165.083 188.713 165.108C188.692 165.133 188.675 165.162 188.665 165.193C188.655 165.224 188.651 165.257 188.653 165.29C188.656 165.323 188.665 165.355 188.68 165.384C188.695 165.414 188.715 165.44 188.741 165.461L191.674 167.966V169.529C191.674 169.562 191.68 169.594 191.693 169.625C191.706 169.655 191.724 169.683 191.747 169.706C191.771 169.73 191.799 169.748 191.829 169.761C191.86 169.773 191.893 169.78 191.926 169.78C191.959 169.78 191.992 169.773 192.022 169.761C192.053 169.748 192.081 169.73 192.104 169.706C192.127 169.683 192.146 169.655 192.159 169.625C192.171 169.594 192.178 169.562 192.178 169.529V164.645C192.178 164.579 192.151 164.515 192.104 164.468C192.057 164.421 191.993 164.395 191.926 164.395Z" fill="#3F3D56"/>
<path d="M41.5568 170H22.4824V169.779C22.4818 168.533 22.7281 167.299 23.2071 166.147C23.6861 164.996 24.3885 163.949 25.2742 163.068C26.1599 162.186 27.2114 161.487 28.3688 161.01C29.5262 160.533 30.7668 160.288 32.0196 160.288C33.2725 160.288 34.513 160.533 35.6704 161.01C36.8278 161.487 37.8794 162.186 38.7651 163.068C39.6507 163.949 40.3532 164.996 40.8322 166.147C41.3112 167.299 41.5574 168.533 41.5568 169.779L41.5568 170ZM22.9287 169.559H41.1106C41.0527 167.198 40.0695 164.954 38.3709 163.305C36.6724 161.656 34.393 160.733 32.0196 160.733C29.6462 160.733 27.3669 161.656 25.6683 163.305C23.9697 164.954 22.9865 167.198 22.9287 169.559Z" fill="#3F3D56"/>
<path d="M32.0195 164.395C31.9528 164.395 31.8887 164.421 31.8415 164.468C31.7943 164.515 31.7678 164.579 31.7678 164.645V167.306L29.1624 165.081C29.1373 165.06 29.1082 165.043 29.0767 165.033C29.0453 165.023 29.0121 165.018 28.9791 165.021C28.946 165.023 28.9138 165.032 28.8843 165.047C28.8547 165.062 28.8284 165.083 28.8068 165.108C28.7853 165.133 28.7689 165.162 28.7586 165.193C28.7483 165.224 28.7443 165.257 28.7468 165.29C28.7494 165.323 28.7584 165.355 28.7735 165.384C28.7885 165.414 28.8092 165.44 28.8343 165.461L31.7677 167.966V169.529C31.7677 169.562 31.7741 169.594 31.7867 169.625C31.7993 169.655 31.8178 169.683 31.8412 169.706C31.8646 169.73 31.8924 169.748 31.923 169.761C31.9536 169.773 31.9864 169.78 32.0195 169.78C32.0527 169.78 32.0855 169.773 32.1161 169.761C32.1466 169.748 32.1744 169.73 32.1978 169.706C32.2212 169.683 32.2398 169.655 32.2524 169.625C32.265 169.594 32.2714 169.562 32.2713 169.529V164.645C32.2713 164.579 32.2448 164.515 32.1976 164.468C32.1503 164.421 32.0863 164.395 32.0195 164.395Z" fill="#3F3D56"/>
<path d="M45.6723 143.145C45.5839 143.145 45.4978 143.145 45.4094 143.143C39.4802 143.077 33.8164 140.687 29.6465 136.494C25.4766 132.3 23.1368 126.64 23.1348 120.742C23.1348 114.23 25.8308 103.808 29.691 95.3971C32.4671 89.3487 38.2347 79.2017 45.6723 79.2017C48.7358 79.2017 51.8206 80.9386 54.8411 84.3643C54.9909 84.5332 55.141 84.7072 55.289 84.8855L55.3397 84.9467V140.981L55.2147 141.041C55.0654 141.113 54.914 141.18 54.7625 141.245C51.9792 142.471 48.9733 143.117 45.9297 143.143C45.8469 143.145 45.7584 143.145 45.6723 143.145ZM45.6723 79.6429C38.4828 79.6429 32.8263 89.6282 30.0945 95.5804C26.2579 103.94 23.5783 114.286 23.5783 120.742C23.5783 132.716 33.3753 142.567 45.4175 142.702C45.5072 142.704 45.5909 142.705 45.6781 142.704C45.7587 142.704 45.8412 142.704 45.9216 142.702C48.9067 142.676 51.8549 142.043 54.5847 140.841C54.6894 140.796 54.7933 140.75 54.8962 140.703V85.1056C54.7678 84.9522 54.6379 84.8022 54.5081 84.6556C51.5751 81.3293 48.6024 79.6429 45.6723 79.6429Z" fill="#3F3D56"/>
<path d="M45.6721 127.506C45.6355 127.506 45.5993 127.498 45.5661 127.483C45.5328 127.468 45.5031 127.446 45.4792 127.419L32.646 112.697C32.6019 112.646 32.5798 112.58 32.5846 112.512C32.5895 112.445 32.6209 112.383 32.672 112.339C32.7231 112.295 32.7896 112.273 32.857 112.277C32.9245 112.282 32.9873 112.313 33.0317 112.364L45.8648 127.086C45.8968 127.123 45.9176 127.168 45.9245 127.216C45.9315 127.264 45.9244 127.313 45.9041 127.358C45.8838 127.402 45.8511 127.439 45.81 127.466C45.7689 127.492 45.721 127.506 45.6721 127.506Z" fill="#CCCCCC"/>
<path d="M45.6711 136.002C45.6207 136.002 45.5714 135.987 45.5294 135.959C45.4874 135.932 45.4547 135.892 45.4354 135.846C45.4161 135.799 45.4111 135.748 45.4209 135.699C45.4308 135.65 45.4551 135.604 45.4907 135.569L52.7828 128.315C52.8306 128.268 52.8955 128.241 52.963 128.241C53.0306 128.241 53.0953 128.268 53.1431 128.316C53.1908 128.363 53.2177 128.427 53.2178 128.495C53.2179 128.562 53.1912 128.626 53.1436 128.674L45.8516 135.928C45.8279 135.951 45.7998 135.97 45.7688 135.983C45.7379 135.996 45.7047 136.002 45.6711 136.002Z" fill="#CCCCCC"/>
<path d="M65.7105 38.3873L65.8747 38.7094C65.9475 38.8484 65.9855 39.0028 65.9856 39.1595V47.8739H73.748V39.1595C73.7481 39.0028 73.7861 38.8484 73.8589 38.7094L74.023 38.3873H65.7105ZM73.3044 39.1595V47.4327H66.4292V39.1595C66.4293 39.048 66.4159 38.9369 66.3892 38.8286H73.3444C73.3177 38.9369 73.3043 39.048 73.3044 39.1595ZM75.469 38.3873L75.6331 38.7094C75.7059 38.8484 75.7439 39.0028 75.744 39.1595V47.8739H83.5064V39.1595C83.5065 39.0028 83.5445 38.8484 83.6173 38.7094L83.7815 38.3873H75.469ZM83.0628 39.1595V47.4327H76.1876V39.1595C76.1877 39.048 76.1743 38.9369 76.1476 38.8286H83.1028C83.0761 38.9369 83.0627 39.048 83.0628 39.1595ZM85.2274 38.3873L85.3915 38.7094C85.4643 38.8484 85.5023 39.0028 85.5024 39.1595V47.8739H93.2648V39.1595C93.2649 39.0028 93.3029 38.8484 93.3757 38.7094L93.5399 38.3873H85.2274ZM92.8212 39.1595V47.4327H85.946V39.1595C85.9461 39.048 85.9327 38.9369 85.906 38.8286H92.8612C92.8345 38.9369 92.8211 39.048 92.8212 39.1595ZM94.9858 38.3873L95.15 38.7094C95.2227 38.8484 95.2607 39.0028 95.2608 39.1595V47.8739H103.023V39.1595C103.023 39.0028 103.061 38.8484 103.134 38.7094L103.298 38.3873H94.9858ZM102.58 39.1595V47.4327H95.7044V39.1595C95.7045 39.048 95.6911 38.9369 95.6644 38.8286H102.62C102.593 38.9369 102.58 39.048 102.58 39.1595ZM104.744 38.3873L104.908 38.7094C104.981 38.8484 105.019 39.0028 105.019 39.1595V47.8739H112.782V39.1595C112.782 39.0028 112.82 38.8484 112.893 38.7094L113.057 38.3873H104.744ZM112.338 39.1595V47.4327H105.463V39.1595C105.463 39.048 105.45 38.9369 105.423 38.8286H112.378C112.351 38.9369 112.338 39.048 112.338 39.1595ZM114.503 38.3873L114.667 38.7094C114.74 38.8484 114.778 39.0028 114.778 39.1595V47.8739H122.54V39.1595C122.54 39.0028 122.578 38.8484 122.651 38.7094L122.815 38.3873H114.503ZM122.096 39.1595V47.4327H115.221V39.1595C115.221 39.048 115.208 38.9369 115.181 38.8286H122.136C122.11 38.9369 122.096 39.048 122.096 39.1595ZM124.261 38.3873L124.425 38.7094C124.498 38.8484 124.536 39.0028 124.536 39.1595V47.8739H132.298V39.1595C132.299 39.0028 132.337 38.8484 132.409 38.7094L132.574 38.3873H124.261ZM131.855 39.1595V47.4327H124.98V39.1595C124.98 39.048 124.966 38.9369 124.94 38.8286H131.895C131.868 38.9369 131.855 39.048 131.855 39.1595ZM134.019 38.3873L134.184 38.7094C134.256 38.8484 134.294 39.0028 134.295 39.1595V47.8739H142.057V39.1595C142.057 39.0028 142.095 38.8484 142.168 38.7094L142.332 38.3873H134.019ZM141.613 39.1595V47.4327H134.738V39.1595C134.738 39.048 134.725 38.9369 134.698 38.8286H141.653C141.627 38.9369 141.613 39.048 141.613 39.1595ZM143.778 38.3873L143.942 38.7094C144.015 38.8484 144.053 39.0028 144.053 39.1595V47.8739H151.815V39.1595C151.815 39.0028 151.853 38.8484 151.926 38.7094L152.09 38.3873H143.778ZM151.372 39.1595V47.4327H144.496V39.1595C144.497 39.048 144.483 38.9369 144.457 38.8286H151.412C151.385 38.9369 151.372 39.048 151.372 39.1595ZM143.778 38.3873L143.942 38.7094C144.015 38.8484 144.053 39.0028 144.053 39.1595V47.8739H151.815V39.1595C151.815 39.0028 151.853 38.8484 151.926 38.7094L152.09 38.3873H143.778ZM151.372 39.1595V47.4327H144.496V39.1595C144.497 39.048 144.483 38.9369 144.457 38.8286H151.412C151.385 38.9369 151.372 39.048 151.372 39.1595ZM134.019 38.3873L134.184 38.7094C134.256 38.8484 134.294 39.0028 134.295 39.1595V47.8739H142.057V39.1595C142.057 39.0028 142.095 38.8484 142.168 38.7094L142.332 38.3873H134.019ZM141.613 39.1595V47.4327H134.738V39.1595C134.738 39.048 134.725 38.9369 134.698 38.8286H141.653C141.627 38.9369 141.613 39.048 141.613 39.1595ZM124.261 38.3873L124.425 38.7094C124.498 38.8484 124.536 39.0028 124.536 39.1595V47.8739H132.298V39.1595C132.299 39.0028 132.337 38.8484 132.409 38.7094L132.574 38.3873H124.261ZM131.855 39.1595V47.4327H124.98V39.1595C124.98 39.048 124.966 38.9369 124.94 38.8286H131.895C131.868 38.9369 131.855 39.048 131.855 39.1595ZM114.503 38.3873L114.667 38.7094C114.74 38.8484 114.778 39.0028 114.778 39.1595V47.8739H122.54V39.1595C122.54 39.0028 122.578 38.8484 122.651 38.7094L122.815 38.3873H114.503ZM122.096 39.1595V47.4327H115.221V39.1595C115.221 39.048 115.208 38.9369 115.181 38.8286H122.136C122.11 38.9369 122.096 39.048 122.096 39.1595ZM104.744 38.3873L104.908 38.7094C104.981 38.8484 105.019 39.0028 105.019 39.1595V47.8739H112.782V39.1595C112.782 39.0028 112.82 38.8484 112.893 38.7094L113.057 38.3873H104.744ZM112.338 39.1595V47.4327H105.463V39.1595C105.463 39.048 105.45 38.9369 105.423 38.8286H112.378C112.351 38.9369 112.338 39.048 112.338 39.1595ZM94.9858 38.3873L95.15 38.7094C95.2227 38.8484 95.2607 39.0028 95.2608 39.1595V47.8739H103.023V39.1595C103.023 39.0028 103.061 38.8484 103.134 38.7094L103.298 38.3873H94.9858ZM102.58 39.1595V47.4327H95.7044V39.1595C95.7045 39.048 95.6911 38.9369 95.6644 38.8286H102.62C102.593 38.9369 102.58 39.048 102.58 39.1595ZM85.2274 38.3873L85.3915 38.7094C85.4643 38.8484 85.5023 39.0028 85.5024 39.1595V47.8739H93.2648V39.1595C93.2649 39.0028 93.3029 38.8484 93.3757 38.7094L93.5399 38.3873H85.2274ZM92.8212 39.1595V47.4327H85.946V39.1595C85.9461 39.048 85.9327 38.9369 85.906 38.8286H92.8612C92.8345 38.9369 92.8211 39.048 92.8212 39.1595ZM75.469 38.3873L75.6331 38.7094C75.7059 38.8484 75.7439 39.0028 75.744 39.1595V47.8739H83.5064V39.1595C83.5065 39.0028 83.5445 38.8484 83.6173 38.7094L83.7815 38.3873H75.469ZM83.0628 39.1595V47.4327H76.1876V39.1595C76.1877 39.048 76.1743 38.9369 76.1476 38.8286H83.1028C83.0761 38.9369 83.0627 39.048 83.0628 39.1595ZM65.7105 38.3873L65.8747 38.7094C65.9475 38.8484 65.9855 39.0028 65.9856 39.1595V47.8739H73.748V39.1595C73.7481 39.0028 73.7861 38.8484 73.8589 38.7094L74.023 38.3873H65.7105ZM73.3044 39.1595V47.4327H66.4292V39.1595C66.4293 39.048 66.4159 38.9369 66.3892 38.8286H73.3444C73.3177 38.9369 73.3043 39.048 73.3044 39.1595ZM143.778 38.3873L143.942 38.7094C144.015 38.8484 144.053 39.0028 144.053 39.1595V47.8739H151.815V39.1595C151.815 39.0028 151.853 38.8484 151.926 38.7094L152.09 38.3873H143.778ZM151.372 39.1595V47.4327H144.496V39.1595C144.497 39.048 144.483 38.9369 144.457 38.8286H151.412C151.385 38.9369 151.372 39.048 151.372 39.1595ZM134.019 38.3873L134.184 38.7094C134.256 38.8484 134.294 39.0028 134.295 39.1595V47.8739H142.057V39.1595C142.057 39.0028 142.095 38.8484 142.168 38.7094L142.332 38.3873H134.019ZM141.613 39.1595V47.4327H134.738V39.1595C134.738 39.048 134.725 38.9369 134.698 38.8286H141.653C141.627 38.9369 141.613 39.048 141.613 39.1595ZM124.261 38.3873L124.425 38.7094C124.498 38.8484 124.536 39.0028 124.536 39.1595V47.8739H132.298V39.1595C132.299 39.0028 132.337 38.8484 132.409 38.7094L132.574 38.3873H124.261ZM131.855 39.1595V47.4327H124.98V39.1595C124.98 39.048 124.966 38.9369 124.94 38.8286H131.895C131.868 38.9369 131.855 39.048 131.855 39.1595ZM114.503 38.3873L114.667 38.7094C114.74 38.8484 114.778 39.0028 114.778 39.1595V47.8739H122.54V39.1595C122.54 39.0028 122.578 38.8484 122.651 38.7094L122.815 38.3873H114.503ZM122.096 39.1595V47.4327H115.221V39.1595C115.221 39.048 115.208 38.9369 115.181 38.8286H122.136C122.11 38.9369 122.096 39.048 122.096 39.1595ZM104.744 38.3873L104.908 38.7094C104.981 38.8484 105.019 39.0028 105.019 39.1595V47.8739H112.782V39.1595C112.782 39.0028 112.82 38.8484 112.893 38.7094L113.057 38.3873H104.744ZM112.338 39.1595V47.4327H105.463V39.1595C105.463 39.048 105.45 38.9369 105.423 38.8286H112.378C112.351 38.9369 112.338 39.048 112.338 39.1595ZM94.9858 38.3873L95.15 38.7094C95.2227 38.8484 95.2607 39.0028 95.2608 39.1595V47.8739H103.023V39.1595C103.023 39.0028 103.061 38.8484 103.134 38.7094L103.298 38.3873H94.9858ZM102.58 39.1595V47.4327H95.7044V39.1595C95.7045 39.048 95.6911 38.9369 95.6644 38.8286H102.62C102.593 38.9369 102.58 39.048 102.58 39.1595ZM85.2274 38.3873L85.3915 38.7094C85.4643 38.8484 85.5023 39.0028 85.5024 39.1595V47.8739H93.2648V39.1595C93.2649 39.0028 93.3029 38.8484 93.3757 38.7094L93.5399 38.3873H85.2274ZM92.8212 39.1595V47.4327H85.946V39.1595C85.9461 39.048 85.9327 38.9369 85.906 38.8286H92.8612C92.8345 38.9369 92.8211 39.048 92.8212 39.1595ZM75.469 38.3873L75.6331 38.7094C75.7059 38.8484 75.7439 39.0028 75.744 39.1595V47.8739H83.5064V39.1595C83.5065 39.0028 83.5445 38.8484 83.6173 38.7094L83.7815 38.3873H75.469ZM83.0628 39.1595V47.4327H76.1876V39.1595C76.1877 39.048 76.1743 38.9369 76.1476 38.8286H83.1028C83.0761 38.9369 83.0627 39.048 83.0628 39.1595ZM65.7105 38.3873L65.8747 38.7094C65.9475 38.8484 65.9855 39.0028 65.9856 39.1595V47.8739H73.748V39.1595C73.7481 39.0028 73.7861 38.8484 73.8589 38.7094L74.023 38.3873H65.7105ZM73.3044 39.1595V47.4327H66.4292V39.1595C66.4293 39.048 66.4159 38.9369 66.3892 38.8286H73.3444C73.3177 38.9369 73.3043 39.048 73.3044 39.1595ZM143.778 38.3873L143.942 38.7094C144.015 38.8484 144.053 39.0028 144.053 39.1595V47.8739H151.815V39.1595C151.815 39.0028 151.853 38.8484 151.926 38.7094L152.09 38.3873H143.778ZM151.372 39.1595V47.4327H144.496V39.1595C144.497 39.048 144.483 38.9369 144.457 38.8286H151.412C151.385 38.9369 151.372 39.048 151.372 39.1595ZM134.019 38.3873L134.184 38.7094C134.256 38.8484 134.294 39.0028 134.295 39.1595V47.8739H142.057V39.1595C142.057 39.0028 142.095 38.8484 142.168 38.7094L142.332 38.3873H134.019ZM141.613 39.1595V47.4327H134.738V39.1595C134.738 39.048 134.725 38.9369 134.698 38.8286H141.653C141.627 38.9369 141.613 39.048 141.613 39.1595ZM124.261 38.3873L124.425 38.7094C124.498 38.8484 124.536 39.0028 124.536 39.1595V47.8739H132.298V39.1595C132.299 39.0028 132.337 38.8484 132.409 38.7094L132.574 38.3873H124.261ZM131.855 39.1595V47.4327H124.98V39.1595C124.98 39.048 124.966 38.9369 124.94 38.8286H131.895C131.868 38.9369 131.855 39.048 131.855 39.1595ZM114.503 38.3873L114.667 38.7094C114.74 38.8484 114.778 39.0028 114.778 39.1595V47.8739H122.54V39.1595C122.54 39.0028 122.578 38.8484 122.651 38.7094L122.815 38.3873H114.503ZM122.096 39.1595V47.4327H115.221V39.1595C115.221 39.048 115.208 38.9369 115.181 38.8286H122.136C122.11 38.9369 122.096 39.048 122.096 39.1595ZM104.744 38.3873L104.908 38.7094C104.981 38.8484 105.019 39.0028 105.019 39.1595V47.8739H112.782V39.1595C112.782 39.0028 112.82 38.8484 112.893 38.7094L113.057 38.3873H104.744ZM112.338 39.1595V47.4327H105.463V39.1595C105.463 39.048 105.45 38.9369 105.423 38.8286H112.378C112.351 38.9369 112.338 39.048 112.338 39.1595ZM94.9858 38.3873L95.15 38.7094C95.2227 38.8484 95.2607 39.0028 95.2608 39.1595V47.8739H103.023V39.1595C103.023 39.0028 103.061 38.8484 103.134 38.7094L103.298 38.3873H94.9858ZM102.58 39.1595V47.4327H95.7044V39.1595C95.7045 39.048 95.6911 38.9369 95.6644 38.8286H102.62C102.593 38.9369 102.58 39.048 102.58 39.1595ZM85.2274 38.3873L85.3915 38.7094C85.4643 38.8484 85.5023 39.0028 85.5024 39.1595V47.8739H93.2648V39.1595C93.2649 39.0028 93.3029 38.8484 93.3757 38.7094L93.5399 38.3873H85.2274ZM92.8212 39.1595V47.4327H85.946V39.1595C85.9461 39.048 85.9327 38.9369 85.906 38.8286H92.8612C92.8345 38.9369 92.8211 39.048 92.8212 39.1595ZM75.469 38.3873L75.6331 38.7094C75.7059 38.8484 75.7439 39.0028 75.744 39.1595V47.8739H83.5064V39.1595C83.5065 39.0028 83.5445 38.8484 83.6173 38.7094L83.7815 38.3873H75.469ZM83.0628 39.1595V47.4327H76.1876V39.1595C76.1877 39.048 76.1743 38.9369 76.1476 38.8286H83.1028C83.0761 38.9369 83.0627 39.048 83.0628 39.1595ZM65.7105 38.3873L65.8747 38.7094C65.9475 38.8484 65.9855 39.0028 65.9856 39.1595V47.8739H73.748V39.1595C73.7481 39.0028 73.7861 38.8484 73.8589 38.7094L74.023 38.3873H65.7105ZM73.3044 39.1595V47.4327H66.4292V39.1595C66.4293 39.048 66.4159 38.9369 66.3892 38.8286H73.3444C73.3177 38.9369 73.3043 39.048 73.3044 39.1595ZM143.778 38.3873L143.942 38.7094C144.015 38.8484 144.053 39.0028 144.053 39.1595V47.8739H151.815V39.1595C151.815 39.0028 151.853 38.8484 151.926 38.7094L152.09 38.3873H143.778ZM151.372 39.1595V47.4327H144.496V39.1595C144.497 39.048 144.483 38.9369 144.457 38.8286H151.412C151.385 38.9369 151.372 39.048 151.372 39.1595ZM134.019 38.3873L134.184 38.7094C134.256 38.8484 134.294 39.0028 134.295 39.1595V47.8739H142.057V39.1595C142.057 39.0028 142.095 38.8484 142.168 38.7094L142.332 38.3873H134.019ZM141.613 39.1595V47.4327H134.738V39.1595C134.738 39.048 134.725 38.9369 134.698 38.8286H141.653C141.627 38.9369 141.613 39.048 141.613 39.1595ZM124.261 38.3873L124.425 38.7094C124.498 38.8484 124.536 39.0028 124.536 39.1595V47.8739H132.298V39.1595C132.299 39.0028 132.337 38.8484 132.409 38.7094L132.574 38.3873H124.261ZM131.855 39.1595V47.4327H124.98V39.1595C124.98 39.048 124.966 38.9369 124.94 38.8286H131.895C131.868 38.9369 131.855 39.048 131.855 39.1595ZM114.503 38.3873L114.667 38.7094C114.74 38.8484 114.778 39.0028 114.778 39.1595V47.8739H122.54V39.1595C122.54 39.0028 122.578 38.8484 122.651 38.7094L122.815 38.3873H114.503ZM122.096 39.1595V47.4327H115.221V39.1595C115.221 39.048 115.208 38.9369 115.181 38.8286H122.136C122.11 38.9369 122.096 39.048 122.096 39.1595ZM104.744 38.3873L104.908 38.7094C104.981 38.8484 105.019 39.0028 105.019 39.1595V47.8739H112.782V39.1595C112.782 39.0028 112.82 38.8484 112.893 38.7094L113.057 38.3873H104.744ZM112.338 39.1595V47.4327H105.463V39.1595C105.463 39.048 105.45 38.9369 105.423 38.8286H112.378C112.351 38.9369 112.338 39.048 112.338 39.1595ZM94.9858 38.3873L95.15 38.7094C95.2227 38.8484 95.2607 39.0028 95.2608 39.1595V47.8739H103.023V39.1595C103.023 39.0028 103.061 38.8484 103.134 38.7094L103.298 38.3873H94.9858ZM102.58 39.1595V47.4327H95.7044V39.1595C95.7045 39.048 95.6911 38.9369 95.6644 38.8286H102.62C102.593 38.9369 102.58 39.048 102.58 39.1595ZM85.2274 38.3873L85.3915 38.7094C85.4643 38.8484 85.5023 39.0028 85.5024 39.1595V47.8739H93.2648V39.1595C93.2649 39.0028 93.3029 38.8484 93.3757 38.7094L93.5399 38.3873H85.2274ZM92.8212 39.1595V47.4327H85.946V39.1595C85.9461 39.048 85.9327 38.9369 85.906 38.8286H92.8612C92.8345 38.9369 92.8211 39.048 92.8212 39.1595ZM75.469 38.3873L75.6331 38.7094C75.7059 38.8484 75.7439 39.0028 75.744 39.1595V47.8739H83.5064V39.1595C83.5065 39.0028 83.5445 38.8484 83.6173 38.7094L83.7815 38.3873H75.469ZM83.0628 39.1595V47.4327H76.1876V39.1595C76.1877 39.048 76.1743 38.9369 76.1476 38.8286H83.1028C83.0761 38.9369 83.0627 39.048 83.0628 39.1595ZM65.7105 38.3873L65.8747 38.7094C65.9475 38.8484 65.9855 39.0028 65.9856 39.1595V47.8739H73.748V39.1595C73.7481 39.0028 73.7861 38.8484 73.8589 38.7094L74.023 38.3873H65.7105ZM73.3044 39.1595V47.4327H66.4292V39.1595C66.4293 39.048 66.4159 38.9369 66.3892 38.8286H73.3444C73.3177 38.9369 73.3043 39.048 73.3044 39.1595ZM143.778 38.3873L143.942 38.7094C144.015 38.8484 144.053 39.0028 144.053 39.1595V47.8739H151.815V39.1595C151.815 39.0028 151.853 38.8484 151.926 38.7094L152.09 38.3873H143.778ZM151.372 39.1595V47.4327H144.496V39.1595C144.497 39.048 144.483 38.9369 144.457 38.8286H151.412C151.385 38.9369 151.372 39.048 151.372 39.1595ZM134.184 38.7094C134.256 38.8484 134.294 39.0028 134.295 39.1595V47.8739H142.057V39.1595C142.057 39.0028 142.095 38.8484 142.168 38.7094L142.332 38.3873H134.019L134.184 38.7094ZM141.653 38.8286C141.627 38.9369 141.613 39.048 141.613 39.1595V47.4327H134.738V39.1595C134.738 39.048 134.725 38.9369 134.698 38.8286H141.653ZM124.425 38.7094C124.498 38.8484 124.536 39.0028 124.536 39.1595V47.8739H132.298V39.1595C132.299 39.0028 132.337 38.8484 132.409 38.7094L132.574 38.3873H124.261L124.425 38.7094ZM131.895 38.8286C131.868 38.9369 131.855 39.048 131.855 39.1595V47.4327H124.98V39.1595C124.98 39.048 124.966 38.9369 124.94 38.8286H131.895ZM114.667 38.7094C114.74 38.8484 114.778 39.0028 114.778 39.1595V47.8739H122.54V39.1595C122.54 39.0028 122.578 38.8484 122.651 38.7094L122.815 38.3873H114.503L114.667 38.7094ZM122.136 38.8286C122.11 38.9369 122.096 39.048 122.096 39.1595V47.4327H115.221V39.1595C115.221 39.048 115.208 38.9369 115.181 38.8286H122.136ZM104.908 38.7094C104.981 38.8484 105.019 39.0028 105.019 39.1595V47.8739H112.782V39.1595C112.782 39.0028 112.82 38.8484 112.893 38.7094L113.057 38.3873H104.744L104.908 38.7094ZM112.378 38.8286C112.351 38.9369 112.338 39.048 112.338 39.1595V47.4327H105.463V39.1595C105.463 39.048 105.45 38.9369 105.423 38.8286H112.378ZM95.15 38.7094C95.2227 38.8484 95.2607 39.0028 95.2608 39.1595V47.8739H103.023V39.1595C103.023 39.0028 103.061 38.8484 103.134 38.7094L103.298 38.3873H94.9858L95.15 38.7094ZM102.62 38.8286C102.593 38.9369 102.58 39.048 102.58 39.1595V47.4327H95.7044V39.1595C95.7045 39.048 95.6911 38.9369 95.6644 38.8286H102.62ZM85.3915 38.7094C85.4643 38.8484 85.5023 39.0028 85.5024 39.1595V47.8739H93.2648V39.1595C93.2649 39.0028 93.3029 38.8484 93.3757 38.7094L93.5399 38.3873H85.2274L85.3915 38.7094ZM92.8612 38.8286C92.8345 38.9369 92.8211 39.048 92.8212 39.1595V47.4327H85.946V39.1595C85.9461 39.048 85.9327 38.9369 85.906 38.8286H92.8612ZM75.6331 38.7094C75.7059 38.8484 75.7439 39.0028 75.744 39.1595V47.8739H83.5064V39.1595C83.5065 39.0028 83.5445 38.8484 83.6173 38.7094L83.7815 38.3873H75.469L75.6331 38.7094ZM83.1028 38.8286C83.0761 38.9369 83.0627 39.048 83.0628 39.1595V47.4327H76.1876V39.1595C76.1877 39.048 76.1743 38.9369 76.1476 38.8286H83.1028ZM65.8747 38.7094C65.9475 38.8484 65.9855 39.0028 65.9856 39.1595V47.8739H73.748V39.1595C73.7481 39.0028 73.7861 38.8484 73.8589 38.7094L74.023 38.3873H65.7105L65.8747 38.7094ZM73.3444 38.8286C73.3177 38.9369 73.3043 39.048 73.3044 39.1595V47.4327H66.4292V39.1595C66.4293 39.048 66.4159 38.9369 66.3892 38.8286H73.3444ZM143.942 38.7094C144.015 38.8484 144.053 39.0028 144.053 39.1595V47.8739H151.815V39.1595C151.815 39.0028 151.853 38.8484 151.926 38.7094L152.09 38.3873H143.778L143.942 38.7094ZM151.412 38.8286C151.385 38.9369 151.372 39.048 151.372 39.1595V47.4327H144.496V39.1595C144.497 39.048 144.483 38.9369 144.457 38.8286H151.412ZM134.184 38.7094C134.256 38.8484 134.294 39.0028 134.295 39.1595V47.8739H142.057V39.1595C142.057 39.0028 142.095 38.8484 142.168 38.7094L142.332 38.3873H134.019L134.184 38.7094ZM141.653 38.8286C141.627 38.9369 141.613 39.048 141.613 39.1595V47.4327H134.738V39.1595C134.738 39.048 134.725 38.9369 134.698 38.8286H141.653ZM124.425 38.7094C124.498 38.8484 124.536 39.0028 124.536 39.1595V47.8739H132.298V39.1595C132.299 39.0028 132.337 38.8484 132.409 38.7094L132.574 38.3873H124.261L124.425 38.7094ZM131.895 38.8286C131.868 38.9369 131.855 39.048 131.855 39.1595V47.4327H124.98V39.1595C124.98 39.048 124.966 38.9369 124.94 38.8286H131.895ZM114.667 38.7094C114.74 38.8484 114.778 39.0028 114.778 39.1595V47.8739H122.54V39.1595C122.54 39.0028 122.578 38.8484 122.651 38.7094L122.815 38.3873H114.503L114.667 38.7094ZM122.136 38.8286C122.11 38.9369 122.096 39.048 122.096 39.1595V47.4327H115.221V39.1595C115.221 39.048 115.208 38.9369 115.181 38.8286H122.136ZM104.908 38.7094C104.981 38.8484 105.019 39.0028 105.019 39.1595V47.8739H112.782V39.1595C112.782 39.0028 112.82 38.8484 112.893 38.7094L113.057 38.3873H104.744L104.908 38.7094ZM112.378 38.8286C112.351 38.9369 112.338 39.048 112.338 39.1595V47.4327H105.463V39.1595C105.463 39.048 105.45 38.9369 105.423 38.8286H112.378ZM95.15 38.7094C95.2227 38.8484 95.2607 39.0028 95.2608 39.1595V47.8739H103.023V39.1595C103.023 39.0028 103.061 38.8484 103.134 38.7094L103.298 38.3873H94.9858L95.15 38.7094ZM102.62 38.8286C102.593 38.9369 102.58 39.048 102.58 39.1595V47.4327H95.7044V39.1595C95.7045 39.048 95.6911 38.9369 95.6644 38.8286H102.62ZM85.3915 38.7094C85.4643 38.8484 85.5023 39.0028 85.5024 39.1595V47.8739H93.2648V39.1595C93.2649 39.0028 93.3029 38.8484 93.3757 38.7094L93.5399 38.3873H85.2274L85.3915 38.7094ZM92.8612 38.8286C92.8345 38.9369 92.8211 39.048 92.8212 39.1595V47.4327H85.946V39.1595C85.9461 39.048 85.9327 38.9369 85.906 38.8286H92.8612ZM75.6331 38.7094C75.7059 38.8484 75.7439 39.0028 75.744 39.1595V47.8739H83.5064V39.1595C83.5065 39.0028 83.5445 38.8484 83.6173 38.7094L83.7815 38.3873H75.469L75.6331 38.7094ZM83.1028 38.8286C83.0761 38.9369 83.0627 39.048 83.0628 39.1595V47.4327H76.1876V39.1595C76.1877 39.048 76.1743 38.9369 76.1476 38.8286H83.1028ZM65.8747 38.7094C65.9475 38.8484 65.9855 39.0028 65.9856 39.1595V47.8739H73.748V39.1595C73.7481 39.0028 73.7861 38.8484 73.8589 38.7094L74.023 38.3873H65.7105L65.8747 38.7094ZM73.3444 38.8286C73.3177 38.9369 73.3043 39.048 73.3044 39.1595V47.4327H66.4292V39.1595C66.4293 39.048 66.4159 38.9369 66.3892 38.8286H73.3444ZM160.687 49.1976H158.043C157.897 48.6901 157.589 48.2435 157.166 47.9251C156.743 47.6068 156.227 47.4339 155.696 47.4327H154.255V39.1595C154.255 38.9819 154.222 38.8059 154.155 38.641C154.406 38.4938 154.602 38.2685 154.712 37.9997C154.821 37.7309 154.839 37.4337 154.762 37.1539C154.685 36.874 154.518 36.6272 154.286 36.4514C154.054 36.2756 153.77 36.1806 153.479 36.1812H64.3222C64.0306 36.1806 63.7469 36.2756 63.5149 36.4514C63.2829 36.6272 63.1155 36.874 63.0386 37.1539C62.9617 37.4337 62.9794 37.7309 63.0892 37.9997C63.1989 38.2685 63.3945 38.4938 63.6458 38.641C63.5793 38.8059 63.5454 38.9819 63.546 39.1595V47.4327H62.1044C61.5738 47.4339 61.058 47.6068 60.6347 47.9251C60.2115 48.2435 59.9037 48.6901 59.7579 49.1976H56.8925C56.3634 49.1984 55.8562 49.4078 55.482 49.78C55.1078 50.1522 54.8973 50.6568 54.8965 51.1832V167.669C54.8976 168.196 55.1083 168.7 55.4824 169.072C55.8565 169.444 56.3635 169.654 56.8925 169.655H160.687C161.216 169.654 161.723 169.445 162.097 169.072C162.471 168.7 162.682 168.196 162.683 167.669V51.1832C162.682 50.6568 162.471 50.1522 162.097 49.78C161.723 49.4078 161.216 49.1984 160.687 49.1976ZM162.239 167.669C162.239 167.985 162.141 168.292 161.96 168.551C161.779 168.81 161.523 169.007 161.226 169.117C161.053 169.182 160.871 169.215 160.687 169.214H56.8925C56.7084 169.215 56.5257 169.182 56.3536 169.117C56.0564 169.007 55.8 168.81 55.6189 168.551C55.4377 168.292 55.3404 167.985 55.34 167.669V51.1832C55.3405 50.7737 55.5042 50.3812 55.7953 50.0917C56.0863 49.8021 56.4809 49.6393 56.8925 49.6388H60.1128L60.1483 49.4623C60.2416 49.0145 60.4869 48.6121 60.8431 48.3229C61.1992 48.0337 61.6446 47.8751 62.1044 47.8739H63.9896V39.1595C63.9896 38.98 64.0387 38.8038 64.1315 38.6499L64.2689 38.4226L64.0184 38.33C63.8225 38.2594 63.658 38.1223 63.5538 37.9428C63.4496 37.7634 63.4123 37.5532 63.4486 37.3491C63.4849 37.1451 63.5925 36.9603 63.7523 36.8274C63.9121 36.6944 64.1139 36.6218 64.3222 36.6224H153.479C153.687 36.6218 153.889 36.6944 154.049 36.8274C154.208 36.9603 154.316 37.1451 154.352 37.3491C154.389 37.5532 154.351 37.7634 154.247 37.9428C154.143 38.1223 153.978 38.2594 153.783 38.33L153.532 38.4226L153.669 38.6499C153.762 38.8038 153.811 38.98 153.811 39.1595V47.8739H155.696C156.156 47.8751 156.602 48.0336 156.958 48.3229C157.314 48.6121 157.559 49.0145 157.653 49.4623L157.688 49.6388H160.687C161.098 49.6393 161.493 49.8021 161.784 50.0917C162.075 50.3812 162.239 50.7737 162.239 51.1832L162.239 167.669ZM65.7105 38.3873L65.8747 38.7094C65.9475 38.8484 65.9855 39.0028 65.9856 39.1595V47.8739H73.748V39.1595C73.7481 39.0028 73.7861 38.8484 73.8589 38.7094L74.023 38.3873H65.7105ZM73.3044 39.1595V47.4327H66.4292V39.1595C66.4293 39.048 66.4159 38.9369 66.3892 38.8286H73.3444C73.3177 38.9369 73.3043 39.048 73.3044 39.1595ZM75.469 38.3873L75.6331 38.7094C75.7059 38.8484 75.7439 39.0028 75.744 39.1595V47.8739H83.5064V39.1595C83.5065 39.0028 83.5445 38.8484 83.6173 38.7094L83.7815 38.3873H75.469ZM83.0628 39.1595V47.4327H76.1876V39.1595C76.1877 39.048 76.1743 38.9369 76.1476 38.8286H83.1028C83.0761 38.9369 83.0627 39.048 83.0628 39.1595ZM85.2274 38.3873L85.3915 38.7094C85.4643 38.8484 85.5023 39.0028 85.5024 39.1595V47.8739H93.2648V39.1595C93.2649 39.0028 93.3029 38.8484 93.3757 38.7094L93.5399 38.3873H85.2274ZM92.8212 39.1595V47.4327H85.946V39.1595C85.9461 39.048 85.9327 38.9369 85.906 38.8286H92.8612C92.8345 38.9369 92.8211 39.048 92.8212 39.1595ZM94.9858 38.3873L95.15 38.7094C95.2227 38.8484 95.2607 39.0028 95.2608 39.1595V47.8739H103.023V39.1595C103.023 39.0028 103.061 38.8484 103.134 38.7094L103.298 38.3873H94.9858ZM102.58 39.1595V47.4327H95.7044V39.1595C95.7045 39.048 95.6911 38.9369 95.6644 38.8286H102.62C102.593 38.9369 102.58 39.048 102.58 39.1595ZM104.744 38.3873L104.908 38.7094C104.981 38.8484 105.019 39.0028 105.019 39.1595V47.8739H112.782V39.1595C112.782 39.0028 112.82 38.8484 112.893 38.7094L113.057 38.3873H104.744ZM112.338 39.1595V47.4327H105.463V39.1595C105.463 39.048 105.45 38.9369 105.423 38.8286H112.378C112.351 38.9369 112.338 39.048 112.338 39.1595ZM114.503 38.3873L114.667 38.7094C114.74 38.8484 114.778 39.0028 114.778 39.1595V47.8739H122.54V39.1595C122.54 39.0028 122.578 38.8484 122.651 38.7094L122.815 38.3873H114.503ZM122.096 39.1595V47.4327H115.221V39.1595C115.221 39.048 115.208 38.9369 115.181 38.8286H122.136C122.11 38.9369 122.096 39.048 122.096 39.1595ZM124.261 38.3873L124.425 38.7094C124.498 38.8484 124.536 39.0028 124.536 39.1595V47.8739H132.298V39.1595C132.299 39.0028 132.337 38.8484 132.409 38.7094L132.574 38.3873H124.261ZM131.855 39.1595V47.4327H124.98V39.1595C124.98 39.048 124.966 38.9369 124.94 38.8286H131.895C131.868 38.9369 131.855 39.048 131.855 39.1595ZM134.019 38.3873L134.184 38.7094C134.256 38.8484 134.294 39.0028 134.295 39.1595V47.8739H142.057V39.1595C142.057 39.0028 142.095 38.8484 142.168 38.7094L142.332 38.3873H134.019ZM141.613 39.1595V47.4327H134.738V39.1595C134.738 39.048 134.725 38.9369 134.698 38.8286H141.653C141.627 38.9369 141.613 39.048 141.613 39.1595ZM143.778 38.3873L143.942 38.7094C144.015 38.8484 144.053 39.0028 144.053 39.1595V47.8739H151.815V39.1595C151.815 39.0028 151.853 38.8484 151.926 38.7094L152.09 38.3873H143.778ZM151.372 39.1595V47.4327H144.496V39.1595C144.497 39.048 144.483 38.9369 144.457 38.8286H151.412C151.385 38.9369 151.372 39.048 151.372 39.1595ZM65.7105 38.3873L65.8747 38.7094C65.9475 38.8484 65.9855 39.0028 65.9856 39.1595V47.8739H73.748V39.1595C73.7481 39.0028 73.7861 38.8484 73.8589 38.7094L74.023 38.3873H65.7105ZM73.3044 39.1595V47.4327H66.4292V39.1595C66.4293 39.048 66.4159 38.9369 66.3892 38.8286H73.3444C73.3177 38.9369 73.3043 39.048 73.3044 39.1595ZM75.469 38.3873L75.6331 38.7094C75.7059 38.8484 75.7439 39.0028 75.744 39.1595V47.8739H83.5064V39.1595C83.5065 39.0028 83.5445 38.8484 83.6173 38.7094L83.7815 38.3873H75.469ZM83.0628 39.1595V47.4327H76.1876V39.1595C76.1877 39.048 76.1743 38.9369 76.1476 38.8286H83.1028C83.0761 38.9369 83.0627 39.048 83.0628 39.1595ZM85.2274 38.3873L85.3915 38.7094C85.4643 38.8484 85.5023 39.0028 85.5024 39.1595V47.8739H93.2648V39.1595C93.2649 39.0028 93.3029 38.8484 93.3757 38.7094L93.5399 38.3873H85.2274ZM92.8212 39.1595V47.4327H85.946V39.1595C85.9461 39.048 85.9327 38.9369 85.906 38.8286H92.8612C92.8345 38.9369 92.8211 39.048 92.8212 39.1595ZM94.9858 38.3873L95.15 38.7094C95.2227 38.8484 95.2607 39.0028 95.2608 39.1595V47.8739H103.023V39.1595C103.023 39.0028 103.061 38.8484 103.134 38.7094L103.298 38.3873H94.9858ZM102.58 39.1595V47.4327H95.7044V39.1595C95.7045 39.048 95.6911 38.9369 95.6644 38.8286H102.62C102.593 38.9369 102.58 39.048 102.58 39.1595ZM104.744 38.3873L104.908 38.7094C104.981 38.8484 105.019 39.0028 105.019 39.1595V47.8739H112.782V39.1595C112.782 39.0028 112.82 38.8484 112.893 38.7094L113.057 38.3873H104.744ZM112.338 39.1595V47.4327H105.463V39.1595C105.463 39.048 105.45 38.9369 105.423 38.8286H112.378C112.351 38.9369 112.338 39.048 112.338 39.1595ZM114.503 38.3873L114.667 38.7094C114.74 38.8484 114.778 39.0028 114.778 39.1595V47.8739H122.54V39.1595C122.54 39.0028 122.578 38.8484 122.651 38.7094L122.815 38.3873H114.503ZM122.096 39.1595V47.4327H115.221V39.1595C115.221 39.048 115.208 38.9369 115.181 38.8286H122.136C122.11 38.9369 122.096 39.048 122.096 39.1595ZM124.261 38.3873L124.425 38.7094C124.498 38.8484 124.536 39.0028 124.536 39.1595V47.8739H132.298V39.1595C132.299 39.0028 132.337 38.8484 132.409 38.7094L132.574 38.3873H124.261ZM131.855 39.1595V47.4327H124.98V39.1595C124.98 39.048 124.966 38.9369 124.94 38.8286H131.895C131.868 38.9369 131.855 39.048 131.855 39.1595ZM134.019 38.3873L134.184 38.7094C134.256 38.8484 134.294 39.0028 134.295 39.1595V47.8739H142.057V39.1595C142.057 39.0028 142.095 38.8484 142.168 38.7094L142.332 38.3873H134.019ZM141.613 39.1595V47.4327H134.738V39.1595C134.738 39.048 134.725 38.9369 134.698 38.8286H141.653C141.627 38.9369 141.613 39.048 141.613 39.1595ZM143.778 38.3873L143.942 38.7094C144.015 38.8484 144.053 39.0028 144.053 39.1595V47.8739H151.815V39.1595C151.815 39.0028 151.853 38.8484 151.926 38.7094L152.09 38.3873H143.778ZM151.372 39.1595V47.4327H144.496V39.1595C144.497 39.048 144.483 38.9369 144.457 38.8286H151.412C151.385 38.9369 151.372 39.048 151.372 39.1595ZM65.7105 38.3873L65.8747 38.7094C65.9475 38.8484 65.9855 39.0028 65.9856 39.1595V47.8739H73.748V39.1595C73.7481 39.0028 73.7861 38.8484 73.8589 38.7094L74.023 38.3873H65.7105ZM73.3044 39.1595V47.4327H66.4292V39.1595C66.4293 39.048 66.4159 38.9369 66.3892 38.8286H73.3444C73.3177 38.9369 73.3043 39.048 73.3044 39.1595ZM75.469 38.3873L75.6331 38.7094C75.7059 38.8484 75.7439 39.0028 75.744 39.1595V47.8739H83.5064V39.1595C83.5065 39.0028 83.5445 38.8484 83.6173 38.7094L83.7815 38.3873H75.469ZM83.0628 39.1595V47.4327H76.1876V39.1595C76.1877 39.048 76.1743 38.9369 76.1476 38.8286H83.1028C83.0761 38.9369 83.0627 39.048 83.0628 39.1595ZM85.2274 38.3873L85.3915 38.7094C85.4643 38.8484 85.5023 39.0028 85.5024 39.1595V47.8739H93.2648V39.1595C93.2649 39.0028 93.3029 38.8484 93.3757 38.7094L93.5399 38.3873H85.2274ZM92.8212 39.1595V47.4327H85.946V39.1595C85.9461 39.048 85.9327 38.9369 85.906 38.8286H92.8612C92.8345 38.9369 92.8211 39.048 92.8212 39.1595ZM94.9858 38.3873L95.15 38.7094C95.2227 38.8484 95.2607 39.0028 95.2608 39.1595V47.8739H103.023V39.1595C103.023 39.0028 103.061 38.8484 103.134 38.7094L103.298 38.3873H94.9858ZM102.58 39.1595V47.4327H95.7044V39.1595C95.7045 39.048 95.6911 38.9369 95.6644 38.8286H102.62C102.593 38.9369 102.58 39.048 102.58 39.1595ZM104.744 38.3873L104.908 38.7094C104.981 38.8484 105.019 39.0028 105.019 39.1595V47.8739H112.782V39.1595C112.782 39.0028 112.82 38.8484 112.893 38.7094L113.057 38.3873H104.744ZM112.338 39.1595V47.4327H105.463V39.1595C105.463 39.048 105.45 38.9369 105.423 38.8286H112.378C112.351 38.9369 112.338 39.048 112.338 39.1595ZM114.503 38.3873L114.667 38.7094C114.74 38.8484 114.778 39.0028 114.778 39.1595V47.8739H122.54V39.1595C122.54 39.0028 122.578 38.8484 122.651 38.7094L122.815 38.3873H114.503ZM122.096 39.1595V47.4327H115.221V39.1595C115.221 39.048 115.208 38.9369 115.181 38.8286H122.136C122.11 38.9369 122.096 39.048 122.096 39.1595ZM124.261 38.3873L124.425 38.7094C124.498 38.8484 124.536 39.0028 124.536 39.1595V47.8739H132.298V39.1595C132.299 39.0028 132.337 38.8484 132.409 38.7094L132.574 38.3873H124.261ZM131.855 39.1595V47.4327H124.98V39.1595C124.98 39.048 124.966 38.9369 124.94 38.8286H131.895C131.868 38.9369 131.855 39.048 131.855 39.1595ZM134.019 38.3873L134.184 38.7094C134.256 38.8484 134.294 39.0028 134.295 39.1595V47.8739H142.057V39.1595C142.057 39.0028 142.095 38.8484 142.168 38.7094L142.332 38.3873H134.019ZM141.613 39.1595V47.4327H134.738V39.1595C134.738 39.048 134.725 38.9369 134.698 38.8286H141.653C141.627 38.9369 141.613 39.048 141.613 39.1595ZM143.778 38.3873L143.942 38.7094C144.015 38.8484 144.053 39.0028 144.053 39.1595V47.8739H151.815V39.1595C151.815 39.0028 151.853 38.8484 151.926 38.7094L152.09 38.3873H143.778ZM151.372 39.1595V47.4327H144.496V39.1595C144.497 39.048 144.483 38.9369 144.457 38.8286H151.412C151.385 38.9369 151.372 39.048 151.372 39.1595ZM65.7105 38.3873L65.8747 38.7094C65.9475 38.8484 65.9855 39.0028 65.9856 39.1595V47.8739H73.748V39.1595C73.7481 39.0028 73.7861 38.8484 73.8589 38.7094L74.023 38.3873H65.7105ZM73.3044 39.1595V47.4327H66.4292V39.1595C66.4293 39.048 66.4159 38.9369 66.3892 38.8286H73.3444C73.3177 38.9369 73.3043 39.048 73.3044 39.1595ZM75.469 38.3873L75.6331 38.7094C75.7059 38.8484 75.7439 39.0028 75.744 39.1595V47.8739H83.5064V39.1595C83.5065 39.0028 83.5445 38.8484 83.6173 38.7094L83.7815 38.3873H75.469ZM83.0628 39.1595V47.4327H76.1876V39.1595C76.1877 39.048 76.1743 38.9369 76.1476 38.8286H83.1028C83.0761 38.9369 83.0627 39.048 83.0628 39.1595ZM85.2274 38.3873L85.3915 38.7094C85.4643 38.8484 85.5023 39.0028 85.5024 39.1595V47.8739H93.2648V39.1595C93.2649 39.0028 93.3029 38.8484 93.3757 38.7094L93.5399 38.3873H85.2274ZM92.8212 39.1595V47.4327H85.946V39.1595C85.9461 39.048 85.9327 38.9369 85.906 38.8286H92.8612C92.8345 38.9369 92.8211 39.048 92.8212 39.1595ZM94.9858 38.3873L95.15 38.7094C95.2227 38.8484 95.2607 39.0028 95.2608 39.1595V47.8739H103.023V39.1595C103.023 39.0028 103.061 38.8484 103.134 38.7094L103.298 38.3873H94.9858ZM102.58 39.1595V47.4327H95.7044V39.1595C95.7045 39.048 95.6911 38.9369 95.6644 38.8286H102.62C102.593 38.9369 102.58 39.048 102.58 39.1595ZM104.744 38.3873L104.908 38.7094C104.981 38.8484 105.019 39.0028 105.019 39.1595V47.8739H112.782V39.1595C112.782 39.0028 112.82 38.8484 112.893 38.7094L113.057 38.3873H104.744ZM112.338 39.1595V47.4327H105.463V39.1595C105.463 39.048 105.45 38.9369 105.423 38.8286H112.378C112.351 38.9369 112.338 39.048 112.338 39.1595ZM114.503 38.3873L114.667 38.7094C114.74 38.8484 114.778 39.0028 114.778 39.1595V47.8739H122.54V39.1595C122.54 39.0028 122.578 38.8484 122.651 38.7094L122.815 38.3873H114.503ZM122.096 39.1595V47.4327H115.221V39.1595C115.221 39.048 115.208 38.9369 115.181 38.8286H122.136C122.11 38.9369 122.096 39.048 122.096 39.1595ZM124.261 38.3873L124.425 38.7094C124.498 38.8484 124.536 39.0028 124.536 39.1595V47.8739H132.298V39.1595C132.299 39.0028 132.337 38.8484 132.409 38.7094L132.574 38.3873H124.261ZM131.855 39.1595V47.4327H124.98V39.1595C124.98 39.048 124.966 38.9369 124.94 38.8286H131.895C131.868 38.9369 131.855 39.048 131.855 39.1595ZM134.019 38.3873L134.184 38.7094C134.256 38.8484 134.294 39.0028 134.295 39.1595V47.8739H142.057V39.1595C142.057 39.0028 142.095 38.8484 142.168 38.7094L142.332 38.3873H134.019ZM141.613 39.1595V47.4327H134.738V39.1595C134.738 39.048 134.725 38.9369 134.698 38.8286H141.653C141.627 38.9369 141.613 39.048 141.613 39.1595ZM143.778 38.3873L143.942 38.7094C144.015 38.8484 144.053 39.0028 144.053 39.1595V47.8739H151.815V39.1595C151.815 39.0028 151.853 38.8484 151.926 38.7094L152.09 38.3873H143.778ZM151.372 39.1595V47.4327H144.496V39.1595C144.497 39.048 144.483 38.9369 144.457 38.8286H151.412C151.385 38.9369 151.372 39.048 151.372 39.1595Z" fill="#3F3D56"/>
<path d="M92.0799 76.9956H75.725C75.3806 76.9953 75.0503 76.859 74.8067 76.6167C74.5632 76.3744 74.4262 76.0459 74.4258 75.7032V67.0365C74.4262 66.6939 74.5632 66.3654 74.8067 66.1231C75.0503 65.8808 75.3806 65.7445 75.725 65.7441H92.0799C92.4244 65.7445 92.7546 65.8808 92.9982 66.1231C93.2418 66.3654 93.3788 66.6939 93.3792 67.0365V75.7032C93.3788 76.0459 93.2418 76.3744 92.9982 76.6167C92.7546 76.859 92.4244 76.9953 92.0799 76.9956Z" fill="#F0E5FF"/>
<path d="M116.967 76.9956H100.612C100.267 76.9953 99.937 76.859 99.6935 76.6167C99.4499 76.3744 99.3129 76.0459 99.3125 75.7032V67.0365C99.3129 66.6939 99.4499 66.3654 99.6935 66.1231C99.937 65.8808 100.267 65.7445 100.612 65.7441H116.967C117.311 65.7445 117.641 65.8808 117.885 66.1231C118.128 66.3654 118.266 66.6939 118.266 67.0365V75.7032C118.266 76.0459 118.128 76.3744 117.885 76.6167C117.641 76.859 117.311 76.9953 116.967 76.9956Z" fill="#F0E5FF"/>
<path d="M141.855 76.9956H125.5C125.156 76.9953 124.826 76.859 124.582 76.6167C124.339 76.3744 124.202 76.0459 124.201 75.7032V67.0365C124.202 66.6939 124.339 66.3654 124.582 66.1231C124.826 65.8808 125.156 65.7445 125.5 65.7441H141.855C142.2 65.7445 142.53 65.8808 142.774 66.1231C143.017 66.3654 143.154 66.6939 143.155 67.0365V75.7032C143.154 76.0459 143.017 76.3744 142.774 76.6167C142.53 76.859 142.2 76.9953 141.855 76.9956Z" fill="#F0E5FF"/>
<path d="M92.0799 105.897H75.725C75.3806 105.896 75.0503 105.76 74.8067 105.518C74.5632 105.275 74.4262 104.947 74.4258 104.604V95.9374C74.4262 95.5948 74.5632 95.2663 74.8067 95.024C75.0503 94.7817 75.3806 94.6454 75.725 94.645H92.0799C92.4244 94.6454 92.7546 94.7817 92.9982 95.024C93.2418 95.2663 93.3788 95.5948 93.3792 95.9374V104.604C93.3788 104.947 93.2418 105.275 92.9982 105.518C92.7546 105.76 92.4244 105.896 92.0799 105.897Z" fill="#F0E5FF"/>
<path d="M116.967 105.897H100.612C100.267 105.896 99.937 105.76 99.6935 105.518C99.4499 105.275 99.3129 104.947 99.3125 104.604V95.9374C99.3129 95.5948 99.4499 95.2663 99.6935 95.024C99.937 94.7817 100.267 94.6454 100.612 94.645H116.967C117.311 94.6454 117.641 94.7817 117.885 95.024C118.128 95.2663 118.266 95.5948 118.266 95.9374V104.604C118.266 104.947 118.128 105.275 117.885 105.518C117.641 105.76 117.311 105.896 116.967 105.897Z" fill="#F0E5FF"/>
<path d="M141.855 105.897H125.5C125.156 105.896 124.826 105.76 124.582 105.518C124.339 105.275 124.202 104.947 124.201 104.604V95.9374C124.202 95.5948 124.339 95.2663 124.582 95.024C124.826 94.7817 125.156 94.6454 125.5 94.645H141.855C142.2 94.6454 142.53 94.7817 142.774 95.024C143.017 95.2663 143.154 95.5948 143.155 95.9374V104.604C143.154 104.947 143.017 105.275 142.774 105.518C142.53 105.76 142.2 105.896 141.855 105.897Z" fill="#F0E5FF"/>
<path d="M92.0799 134.797H75.725C75.3806 134.797 75.0503 134.661 74.8067 134.418C74.5632 134.176 74.4262 133.848 74.4258 133.505V124.838C74.4262 124.496 74.5632 124.167 74.8067 123.925C75.0503 123.683 75.3806 123.546 75.725 123.546H92.0799C92.4244 123.546 92.7546 123.683 92.9982 123.925C93.2418 124.167 93.3788 124.496 93.3792 124.838V133.505C93.3788 133.848 93.2418 134.176 92.9982 134.418C92.7546 134.661 92.4244 134.797 92.0799 134.797Z" fill="#F0E5FF"/>
<path d="M116.967 134.797H100.612C100.267 134.797 99.937 134.661 99.6935 134.418C99.4499 134.176 99.3129 133.848 99.3125 133.505V124.838C99.3129 124.496 99.4499 124.167 99.6935 123.925C99.937 123.683 100.267 123.546 100.612 123.546H116.967C117.311 123.546 117.641 123.683 117.885 123.925C118.128 124.167 118.266 124.496 118.266 124.838V133.505C118.266 133.848 118.128 134.176 117.885 134.418C117.641 134.661 117.311 134.797 116.967 134.797Z" fill="#F0E5FF"/>
<path d="M141.855 134.797H125.5C125.156 134.797 124.826 134.661 124.582 134.418C124.339 134.176 124.202 133.848 124.201 133.505V124.838C124.202 124.496 124.339 124.167 124.582 123.925C124.826 123.683 125.156 123.546 125.5 123.546H141.855C142.2 123.546 142.53 123.683 142.774 123.925C143.017 124.167 143.154 124.496 143.155 124.838V133.505C143.154 133.848 143.017 134.176 142.774 134.418C142.53 134.661 142.2 134.797 141.855 134.797Z" fill="#F0E5FF"/>
<path d="M89.4309 78.1074H70.4847C70.0268 78.1069 69.5879 77.9257 69.2642 77.6037C68.9404 77.2816 68.7583 76.845 68.7578 76.3895V66.3497C68.7583 65.8943 68.9404 65.4576 69.2642 65.1356C69.5879 64.8135 70.0268 64.6324 70.4847 64.6318H89.4309C89.8888 64.6324 90.3277 64.8135 90.6515 65.1356C90.9752 65.4576 91.1573 65.8943 91.1578 66.3497V76.3895C91.1573 76.845 90.9752 77.2816 90.6515 77.6037C90.3277 77.9257 89.8888 78.1069 89.4309 78.1074ZM70.4847 65.0731C70.1444 65.0735 69.8182 65.2081 69.5777 65.4474C69.3371 65.6868 69.2017 66.0112 69.2014 66.3497V76.3895C69.2017 76.728 69.3371 77.0525 69.5777 77.2918C69.8182 77.5312 70.1444 77.6658 70.4847 77.6662H89.4309C89.7712 77.6658 90.0974 77.5312 90.338 77.2918C90.5786 77.0525 90.7139 76.728 90.7142 76.3895V66.3497C90.7139 66.0112 90.5786 65.6867 90.338 65.4474C90.0974 65.2081 89.7712 65.0735 89.4309 65.0731H70.4847Z" fill="#3F3D56"/>
<path d="M118.263 78.1074H99.3167C98.8589 78.1069 98.4199 77.9257 98.0962 77.6037C97.7725 77.2816 97.5904 76.845 97.5898 76.3895V66.3497C97.5904 65.8943 97.7725 65.4576 98.0962 65.1356C98.4199 64.8135 98.8589 64.6324 99.3167 64.6318H118.263C118.721 64.6324 119.16 64.8135 119.483 65.1356C119.807 65.4576 119.989 65.8943 119.99 66.3497V76.3895C119.989 76.845 119.807 77.2816 119.483 77.6037C119.16 77.9257 118.721 78.1069 118.263 78.1074ZM99.3167 65.0731C98.9765 65.0735 98.6503 65.2081 98.4097 65.4474C98.1691 65.6867 98.0338 66.0112 98.0334 66.3497V76.3895C98.0338 76.728 98.1691 77.0525 98.4097 77.2918C98.6503 77.5312 98.9765 77.6658 99.3167 77.6662H118.263C118.603 77.6658 118.929 77.5312 119.17 77.2918C119.411 77.0525 119.546 76.728 119.546 76.3895V66.3497C119.546 66.0112 119.411 65.6867 119.17 65.4474C118.929 65.2081 118.603 65.0735 118.263 65.0731H99.3167Z" fill="#3F3D56"/>
<path d="M147.095 78.1074H128.149C127.691 78.1069 127.252 77.9257 126.928 77.6037C126.604 77.2816 126.422 76.845 126.422 76.3895V66.3497C126.422 65.8943 126.604 65.4576 126.928 65.1356C127.252 64.8135 127.691 64.6324 128.149 64.6318H147.095C147.553 64.6324 147.992 64.8135 148.316 65.1356C148.639 65.4576 148.821 65.8943 148.822 66.3497V76.3895C148.821 76.845 148.639 77.2816 148.316 77.6037C147.992 77.9257 147.553 78.1069 147.095 78.1074ZM128.149 65.0731C127.809 65.0735 127.482 65.2081 127.242 65.4474C127.001 65.6867 126.866 66.0112 126.865 66.3497V76.3895C126.866 76.728 127.001 77.0525 127.242 77.2918C127.482 77.5312 127.809 77.6658 128.149 77.6662H147.095C147.435 77.6658 147.761 77.5312 148.002 77.2918C148.243 77.0525 148.378 76.728 148.378 76.3895V66.3497C148.378 66.0112 148.243 65.6867 148.002 65.4474C147.761 65.2081 147.435 65.0735 147.095 65.0731H128.149Z" fill="#3F3D56"/>
<path d="M89.4309 107.009H70.4847C70.0268 107.008 69.5879 106.827 69.2642 106.505C68.9404 106.183 68.7583 105.746 68.7578 105.291V95.2511C68.7583 94.7956 68.9404 94.359 69.2642 94.0369C69.5879 93.7149 70.0268 93.5337 70.4847 93.5332H89.4309C89.8888 93.5337 90.3277 93.7149 90.6515 94.0369C90.9752 94.359 91.1573 94.7956 91.1578 95.2511V105.291C91.1573 105.746 90.9752 106.183 90.6515 106.505C90.3277 106.827 89.8888 107.008 89.4309 107.009ZM70.4847 93.9744C70.1444 93.9748 69.8182 94.1095 69.5777 94.3488C69.3371 94.5881 69.2017 94.9126 69.2014 95.2511V105.291C69.2017 105.629 69.3371 105.954 69.5777 106.193C69.8182 106.433 70.1444 106.567 70.4847 106.568H89.4309C89.7712 106.567 90.0974 106.433 90.338 106.193C90.5786 105.954 90.7139 105.629 90.7142 105.291V95.2511C90.7139 94.9126 90.5786 94.5881 90.338 94.3488C90.0974 94.1094 89.7712 93.9748 89.4309 93.9744H70.4847Z" fill="#3F3D56"/>
<path d="M118.263 107.009H99.3167C98.8589 107.008 98.4199 106.827 98.0962 106.505C97.7725 106.183 97.5904 105.746 97.5898 105.291V95.2511C97.5904 94.7956 97.7725 94.359 98.0962 94.0369C98.4199 93.7149 98.8589 93.5337 99.3167 93.5332H118.263C118.721 93.5337 119.16 93.7149 119.483 94.0369C119.807 94.359 119.989 94.7956 119.99 95.2511V105.291C119.989 105.746 119.807 106.183 119.483 106.505C119.16 106.827 118.721 107.008 118.263 107.009ZM99.3167 93.9744C98.9765 93.9748 98.6503 94.1094 98.4097 94.3488C98.1691 94.5881 98.0338 94.9126 98.0334 95.2511V105.291C98.0338 105.629 98.1691 105.954 98.4097 106.193C98.6503 106.433 98.9765 106.567 99.3167 106.568H118.263C118.603 106.567 118.929 106.433 119.17 106.193C119.411 105.954 119.546 105.629 119.546 105.291V95.2511C119.546 94.9126 119.411 94.5881 119.17 94.3488C118.929 94.1094 118.603 93.9748 118.263 93.9744H99.3167Z" fill="#3F3D56"/>
<path d="M147.095 107.009H128.149C127.691 107.008 127.252 106.827 126.928 106.505C126.604 106.183 126.422 105.746 126.422 105.291V95.2511C126.422 94.7956 126.604 94.359 126.928 94.0369C127.252 93.7149 127.691 93.5337 128.149 93.5332H147.095C147.553 93.5337 147.992 93.7149 148.316 94.0369C148.639 94.359 148.821 94.7956 148.822 95.2511V105.291C148.821 105.746 148.639 106.183 148.316 106.505C147.992 106.827 147.553 107.008 147.095 107.009ZM128.149 93.9744C127.809 93.9748 127.482 94.1094 127.242 94.3488C127.001 94.5881 126.866 94.9126 126.865 95.2511V105.291C126.866 105.629 127.001 105.954 127.242 106.193C127.482 106.433 127.809 106.567 128.149 106.568H147.095C147.435 106.567 147.761 106.433 148.002 106.193C148.243 105.954 148.378 105.629 148.378 105.291V95.2511C148.378 94.9126 148.243 94.5881 148.002 94.3488C147.761 94.1094 147.435 93.9748 147.095 93.9744H128.149Z" fill="#3F3D56"/>
<path d="M89.4309 135.91H70.4847C70.0268 135.909 69.5879 135.728 69.2642 135.406C68.9404 135.084 68.7583 134.647 68.7578 134.192V124.152C68.7583 123.697 68.9404 123.26 69.2642 122.938C69.5879 122.616 70.0268 122.435 70.4847 122.434H89.4309C89.8888 122.435 90.3277 122.616 90.6515 122.938C90.9752 123.26 91.1573 123.697 91.1578 124.152V134.192C91.1573 134.647 90.9752 135.084 90.6515 135.406C90.3277 135.728 89.8888 135.909 89.4309 135.91ZM70.4847 122.875C70.1444 122.876 69.8182 123.01 69.5777 123.25C69.3371 123.489 69.2017 123.813 69.2014 124.152V134.192C69.2017 134.53 69.3371 134.855 69.5777 135.094C69.8182 135.333 70.1444 135.468 70.4847 135.468H89.4309C89.7712 135.468 90.0974 135.333 90.338 135.094C90.5786 134.855 90.7139 134.53 90.7142 134.192V124.152C90.7139 123.813 90.5786 123.489 90.338 123.25C90.0974 123.01 89.7712 122.876 89.4309 122.875H70.4847Z" fill="#3F3D56"/>
<path d="M118.263 135.91H99.3167C98.8589 135.909 98.4199 135.728 98.0962 135.406C97.7725 135.084 97.5904 134.647 97.5898 134.192V124.152C97.5904 123.697 97.7725 123.26 98.0962 122.938C98.4199 122.616 98.8589 122.435 99.3167 122.434H118.263C118.721 122.435 119.16 122.616 119.483 122.938C119.807 123.26 119.989 123.697 119.99 124.152V134.192C119.989 134.647 119.807 135.084 119.483 135.406C119.16 135.728 118.721 135.909 118.263 135.91ZM99.3167 122.875C98.9765 122.876 98.6503 123.01 98.4097 123.25C98.1691 123.489 98.0338 123.813 98.0334 124.152V134.192C98.0338 134.53 98.1691 134.855 98.4097 135.094C98.6503 135.333 98.9765 135.468 99.3167 135.468H118.263C118.603 135.468 118.929 135.333 119.17 135.094C119.411 134.855 119.546 134.53 119.546 134.192V124.152C119.546 123.813 119.411 123.489 119.17 123.25C118.929 123.01 118.603 122.876 118.263 122.875H99.3167Z" fill="#3F3D56"/>
<path d="M147.095 135.91H128.149C127.691 135.909 127.252 135.728 126.928 135.406C126.604 135.084 126.422 134.647 126.422 134.192V124.152C126.422 123.697 126.604 123.26 126.928 122.938C127.252 122.616 127.691 122.435 128.149 122.434H147.095C147.553 122.435 147.992 122.616 148.316 122.938C148.639 123.26 148.821 123.697 148.822 124.152V134.192C148.821 134.647 148.639 135.084 148.316 135.406C147.992 135.728 147.553 135.909 147.095 135.91ZM128.149 122.875C127.809 122.876 127.482 123.01 127.242 123.25C127.001 123.489 126.866 123.813 126.865 124.152V134.192C126.866 134.53 127.001 134.855 127.242 135.094C127.482 135.333 127.809 135.468 128.149 135.468H147.095C147.435 135.468 147.761 135.333 148.002 135.094C148.243 134.855 148.378 134.53 148.378 134.192V124.152C148.378 123.813 148.243 123.489 148.002 123.25C147.761 123.01 147.435 122.876 147.095 122.875H128.149Z" fill="#3F3D56"/>
<path d="M224.278 169.986H0.721782C0.662962 169.986 0.606551 169.963 0.564958 169.922C0.523366 169.88 0.5 169.824 0.5 169.766C0.5 169.707 0.523366 169.651 0.564958 169.61C0.606551 169.568 0.662962 169.545 0.721782 169.545H224.278C224.337 169.545 224.393 169.568 224.435 169.61C224.477 169.651 224.5 169.707 224.5 169.766C224.5 169.824 224.477 169.88 224.435 169.922C224.393 169.963 224.337 169.986 224.278 169.986Z" fill="#3F3D56"/>
<path d="M119.989 148.633C119.995 148.129 119.8 147.644 119.446 147.283C119.093 146.923 118.61 146.717 118.104 146.711H108.789V169.545H119.989V148.633Z" fill="#3F3D56"/>
<path d="M109.013 169.324H97.3691V148.696C97.3698 148.141 97.592 147.608 97.9869 147.215C98.3819 146.822 98.9175 146.601 99.4761 146.601H109.013V169.324ZM97.8127 168.883H108.569V147.042H99.4761C99.0351 147.042 98.6123 147.217 98.3004 147.527C97.9886 147.837 97.8132 148.258 97.8127 148.696V168.883Z" fill="#3F3D56"/>
<path d="M98.8099 159.507C99.1773 159.507 99.4752 159.21 99.4752 158.845C99.4752 158.479 99.1773 158.183 98.8099 158.183C98.4424 158.183 98.1445 158.479 98.1445 158.845C98.1445 159.21 98.4424 159.507 98.8099 159.507Z" fill="#3F3D56"/>
</g>
<defs>
<clipPath id="clip0_1095_11819">
<rect width="224" height="170" fill="white" transform="translate(0.5)"/>
</clipPath>
</defs>
</svg>
