<svg width="24" height="24" viewBox="0 0 24 24" fill="none" xmlns="http://www.w3.org/2000/svg">
<g clip-path="url(#clip0_1326_3196)">
<path d="M3.84142 12.442V22.833C3.84142 23.0981 4.05634 23.313 4.32142 23.313H19.679C19.9441 23.313 20.159 23.0981 20.159 22.833V12.4418L12.0004 5.20858L3.84142 12.442ZM18.2454 15.7282C18.6518 16.1479 18.6521 16.8063 18.2454 17.2268C17.3398 18.1626 14.9182 20.339 12.0002 20.339C9.08182 20.339 6.66042 18.1624 5.75482 17.2266C5.34818 16.8066 5.34818 16.1482 5.75482 15.7282C6.66028 14.7924 9.08162 12.6158 12.0002 12.6158C14.9188 12.6158 17.34 14.7924 18.2454 15.7282ZM23.7212 11.3936C23.6329 11.6266 23.4095 11.7808 23.1604 11.7808H21.2222L12.3982 3.95796C12.1714 3.75664 11.8293 3.75664 11.6022 3.95796L2.77822 11.7808H0.840259C0.591039 11.7808 0.367759 11.6267 0.279319 11.3936C0.190803 11.1606 0.255803 10.8972 0.442209 10.7319L11.0002 0.999878C11.2276 0.798558 12.7734 0.798558 13.0002 0.999878L23.5582 10.7319C23.7448 10.8973 23.8098 11.1606 23.7212 11.3936ZM14.9624 18.2812C15.2916 17.7425 15.4812 17.1101 15.4726 16.4335C15.4645 15.7891 15.2779 15.1892 14.9648 14.6751C16.0051 15.2584 16.8329 16.0056 17.2998 16.4776C16.8325 16.9498 16.0038 17.6977 14.9624 18.2812ZM8.52782 16.5214C8.53602 17.1667 8.72383 17.7669 9.03822 18.2812C7.99682 17.6977 7.16798 16.9496 6.70062 16.4774C7.1678 16.0053 7.99648 15.2573 9.03782 14.6739C8.70868 15.2126 8.5193 15.8449 8.52782 16.5214ZM9.48782 16.5092C9.50524 17.8838 10.6291 18.99 11.9998 18.99C12.0106 18.99 12.0211 18.99 12.0319 18.9898C13.4173 18.9725 14.5301 17.831 14.5125 16.4456C14.4952 15.071 13.3713 13.9648 12.0005 13.9648C11.9897 13.9648 11.9792 13.9648 11.9684 13.965C10.583 13.9824 9.47022 15.1238 9.48782 16.5092ZM13.2884 16.4613C13.2974 17.1727 12.728 17.7568 12.0165 17.7658C11.305 17.7748 10.7209 17.2053 10.7119 16.4938C10.7029 15.7824 11.2724 15.1983 11.9839 15.1893C12.6954 15.1803 13.2794 15.7498 13.2884 16.4613Z" fill="black"/>
</g>
<defs>
<clipPath id="clip0_1326_3196">
<rect width="24" height="24" fill="white"/>
</clipPath>
</defs>
</svg>
