<svg width="127" height="127" viewBox="0 0 127 127" fill="none" xmlns="http://www.w3.org/2000/svg">
  <path
    opacity="0.2"
    d="M63.708 126.416C98.6168 126.416 126.916 98.1168 126.916 63.208C126.916 28.2992 98.6168 0 63.708 0C28.7992 0 0.5 28.2992 0.5 63.208C0.5 98.1168 28.7992 126.416 63.708 126.416Z"
    fill="#FFD209"
  />
  <path
    d="M63.7075 114.103C91.816 114.103 114.603 91.316 114.603 63.2075C114.603 35.099 91.816 12.3125 63.7075 12.3125C35.599 12.3125 12.8125 35.099 12.8125 63.2075C12.8125 91.316 35.599 114.103 63.7075 114.103Z"
    fill="#FFD209"
  />
  <path
    d="M57.7729 84.9687L39.8359 61.9077L50.2669 53.7947L58.7589 64.7137L87.4479 34.4297L97.0419 43.5177L57.7729 84.9687Z"
    fill="white"
  />
</svg>
