<svg width="227" height="170" viewBox="0 0 227 170" fill="none" xmlns="http://www.w3.org/2000/svg">
<g clip-path="url(#clip0_2100_4327)">
<path d="M195.846 120.545C191.564 125.233 191.408 132.062 191.408 132.062C191.408 132.062 198.196 131.291 202.478 126.602C206.76 121.914 206.916 115.084 206.916 115.084C206.916 115.084 200.128 115.856 195.846 120.545Z" fill="#3F3D56"/>
<path d="M198.265 121.893C196.969 128.109 191.522 132.232 191.522 132.232C191.522 132.232 188.176 126.276 189.472 120.06C190.768 113.844 196.215 109.722 196.215 109.722C196.215 109.722 199.561 115.677 198.265 121.893Z" fill="#7833B3"/>
<path d="M192.702 57.752V131.854L168.001 152.258H41.6348V74.577L78.5065 57.752H192.702Z" fill="#D3C1E5"/>
<path opacity="0.1" d="M192.702 57.752V58.0489L183.835 63.9843L168.001 74.577H41.6348L78.5065 57.752H192.702Z" fill="black"/>
<path opacity="0.1" d="M192.703 57.752V131.854L168.002 152.258L168.181 74.398L183.835 63.9843L192.559 57.752H192.703Z" fill="black"/>
<path d="M159.411 67.9543H82.4453L88.173 64.7324H161.917L159.411 67.9543Z" fill="#2F2E41"/>
<path d="M225.838 156.289C225.838 156.289 227.33 162.529 225.974 162.8C224.617 163.071 217.971 162.984 216.343 163.255C214.715 163.526 211.324 163.071 211.324 161.85C211.324 160.63 214.851 159.816 214.851 159.816C214.851 159.816 219.87 157.103 220.005 156.967C220.141 156.832 225.838 156.289 225.838 156.289Z" fill="#2F2E41"/>
<path d="M224.616 119.53C224.616 119.53 224.209 124.142 224.209 124.549C224.209 124.955 224.616 131.331 224.209 131.602C223.802 131.873 224.48 133.772 224.48 134.451C224.48 135.129 226.65 146.387 226.108 150.728C225.565 155.068 226.921 154.661 226.515 155.068C226.108 155.475 226.108 155.475 226.108 156.289C226.108 157.103 221.767 157.781 221.767 157.781L217.02 127.804L219.461 118.852L224.616 119.53Z" fill="#575A89"/>
<path opacity="0.1" d="M224.616 119.53C224.616 119.53 224.209 124.142 224.209 124.549C224.209 124.955 224.616 131.331 224.209 131.602C223.802 131.873 224.48 133.772 224.48 134.451C224.48 135.129 226.65 146.387 226.108 150.728C225.565 155.068 226.921 154.661 226.515 155.068C226.108 155.475 226.108 155.475 226.108 156.289C226.108 157.103 221.767 157.781 221.767 157.781L217.02 127.804L219.461 118.852L224.616 119.53Z" fill="black"/>
<path d="M223.939 158.188C223.939 158.188 225.295 163.071 223.939 163.343C222.582 163.614 215.936 163.032 214.308 163.303C212.68 163.574 209.289 163.614 209.289 162.393C209.289 161.172 212.816 160.358 212.816 160.358C212.816 160.358 217.835 157.646 217.97 157.51C218.106 157.374 223.939 158.188 223.939 158.188Z" fill="#2F2E41"/>
<path d="M225.838 114.104C225.838 114.104 227.465 118.038 225.566 120.072C223.667 122.107 221.497 126.176 221.497 126.448C221.497 126.719 225.295 153.712 224.753 155.475C224.21 157.238 224.346 158.324 224.481 158.595C224.617 158.866 223.125 160.358 221.497 160.358C219.869 160.358 217.428 159.137 217.157 158.052C216.885 156.967 217.563 147.608 217.428 145.844C217.292 144.081 216.614 141.504 216.343 140.961C216.071 140.419 214.579 139.876 214.308 138.248C214.037 136.621 211.866 115.867 212.545 115.189C213.223 114.511 225.838 114.104 225.838 114.104Z" fill="#575A89"/>
<path d="M215.528 82.9059C218.075 82.9059 220.14 80.841 220.14 78.294C220.14 75.7469 218.075 73.6821 215.528 73.6821C212.981 73.6821 210.916 75.7469 210.916 78.294C210.916 80.841 212.981 82.9059 215.528 82.9059Z" fill="#FFB9B9"/>
<path d="M218.376 80.6001C218.376 80.6001 217.427 85.6189 218.105 86.1615C218.783 86.7041 212.951 87.5179 212.951 87.5179C212.951 87.5179 212.273 80.8714 212.137 80.1932C212.001 79.515 218.376 80.6001 218.376 80.6001Z" fill="#FFB9B9"/>
<path d="M212.137 87.1109C212.137 87.1109 213.765 82.3634 220.412 83.7198C220.412 83.7198 221.632 84.1267 221.225 84.5337C220.819 84.9406 220.412 84.9406 220.954 85.3475C221.497 85.7545 222.175 85.3475 221.768 85.7545C221.361 86.1614 225.43 88.603 225.159 93.2148C224.888 97.8267 226.109 104.338 225.159 105.423C224.21 106.508 225.837 111.255 225.566 112.205C225.295 113.154 227.194 114.375 226.38 114.782C225.566 115.189 210.917 117.631 210.51 114.782C210.103 111.934 210.374 113.968 209.967 113.29C209.56 112.612 209.425 111.391 209.696 109.899C209.967 108.407 210.645 104.744 210.374 103.388C210.103 102.032 210.374 90.6376 211.188 89.2812C212.002 87.9248 212.137 87.1109 212.137 87.1109Z" fill="#7833B3"/>
<path d="M214.985 120.208C214.985 120.208 217.02 127.939 214.443 127.939C211.866 127.939 212.001 119.937 212.001 119.937L214.985 120.208Z" fill="#FFB9B9"/>
<path d="M213.494 78.294C213.494 78.6873 214.064 78.9369 214.947 78.9939H214.948C215.323 79.0151 215.698 79.0079 216.071 78.9722C216.636 78.9206 216.869 79.451 216.965 80.1509C217.123 81.3052 216.903 82.9235 217.157 83.1771C217.506 83.5271 220.058 83.1758 220.855 82.3822C220.98 82.2709 221.062 82.1207 221.09 81.9563C221.174 81.4718 221.413 81.0276 221.771 80.6908C222.242 80.1767 222.912 79.607 223.667 78.7009C225.024 77.0732 223.667 76.9375 223.26 75.7167C222.854 74.496 222.175 74.089 222.175 73.2752C222.175 72.4613 219.056 71.7831 216.478 71.9187C213.901 72.0544 214.444 75.3098 214.444 75.3098C214.444 75.3098 214.29 75.7032 214.107 76.2105C213.86 76.8471 213.658 77.5008 213.505 78.1664C213.499 78.2087 213.495 78.2513 213.494 78.294Z" fill="#2F2E41"/>
<path opacity="0.1" d="M214.036 89.1455C214.036 89.1455 218.648 88.8742 219.054 95.6564C219.461 102.439 219.326 108.814 219.326 108.949C219.326 109.085 217.427 121.971 215.663 121.971C213.9 121.971 212.544 121.7 212.137 121.022C211.73 120.343 213.222 110.577 213.222 110.577C213.222 110.577 213.9 100.268 212.815 97.0128C211.73 93.7574 211.594 89.5525 214.036 89.1455Z" fill="black"/>
<path d="M213.358 88.4673C213.358 88.4673 217.97 88.196 218.377 94.9782C218.784 101.76 218.648 108.136 218.648 108.271C218.648 108.407 216.749 121.293 214.986 121.293C213.222 121.293 211.866 121.022 211.459 120.343C211.052 119.665 212.544 109.899 212.544 109.899C212.544 109.899 213.222 99.59 212.137 96.3346C211.052 93.0792 210.916 88.8742 213.358 88.4673Z" fill="#7833B3"/>
<path d="M136.884 22.1632C136.884 22.1632 134.874 16.4686 133.423 18.2551C131.971 20.0417 135.656 23.0565 135.656 23.0565L136.884 22.1632Z" fill="#A0616A"/>
<path d="M146.374 16.5806L145.165 17.0287C145.165 17.0287 144.587 19.5954 144.811 20.042C145.034 20.4887 145.146 20.1537 144.811 21.047C144.476 21.9402 143.471 24.2851 143.359 24.6201C143.248 24.955 136.883 22.4985 136.883 21.2703C136.883 21.2703 135.543 22.8335 134.873 23.1685C134.873 23.1685 142.243 28.5281 143.248 29.1981C144.252 29.8681 144.811 29.5331 145.704 28.7515C146.597 27.9698 150.394 21.4936 150.394 21.4936L146.374 16.5806Z" fill="#575A89"/>
<path d="M143.136 56.2197C143.136 56.2197 143.248 57.448 143.471 57.5596C143.694 57.6713 145.369 60.4628 143.471 61.0211C141.573 61.5793 140.456 61.3561 140.01 61.5794C139.563 61.8027 131.747 62.2493 131.635 61.0211C131.524 59.7928 135.432 59.5695 135.432 59.5695C135.432 59.5695 139.005 57.2246 139.563 55.9964C140.121 54.7681 143.136 56.2197 143.136 56.2197Z" fill="#2F2E41"/>
<path d="M165.803 58.4526C165.803 58.4526 168.483 63.0307 167.813 63.589C167.143 64.1473 160.619 66.1818 159.662 66.2688C158.434 66.3805 157.541 65.3755 158.545 64.8172C159.55 64.2589 161.672 61.9141 161.672 61.1325V59.1226L165.803 58.4526Z" fill="#2F2E41"/>
<path d="M168.371 28.5278C168.371 28.5278 170.716 31.431 167.031 36.1207L160.89 43.9369C160.89 43.9369 164.686 49.9665 164.798 53.0929C164.909 56.2194 165.691 55.5495 165.914 56.8894C166.138 58.2293 167.142 57.5593 166.361 58.5643C165.579 59.5692 162.676 60.4625 161.783 59.6809C161.476 59.3998 161.236 59.053 161.081 58.6664C160.926 58.2797 160.861 57.8631 160.89 57.4477C160.89 57.001 159.326 54.4329 159.215 53.6512C159.103 52.8696 154.972 46.505 154.972 46.505C154.972 46.505 153.632 42.7086 155.195 40.5871C156.758 38.4655 157.791 35.4566 157.791 35.4566C157.791 35.4566 153.185 41.0337 149.947 42.3736C149.947 42.3736 148.719 42.5969 148.942 43.1552C149.165 43.7135 148.942 44.0485 148.607 44.6068C148.272 45.1651 145.927 51.6414 145.146 53.3163C144.364 54.9912 144.699 55.9961 143.806 56.5544C142.912 57.1127 138.893 56.6661 138.893 56.1078C138.893 55.5495 139.451 54.0979 139.786 53.3163C140.121 52.5346 142.801 43.4902 142.577 41.927C142.354 40.3638 142.689 38.2422 144.364 37.3489C146.039 36.4557 154.525 29.1978 154.972 29.1978C155.418 29.1978 168.371 28.5278 168.371 28.5278Z" fill="#2F2E41"/>
<path d="M145.928 10.9976C148.518 10.9976 150.618 8.89792 150.618 6.30787C150.618 3.71782 148.518 1.61816 145.928 1.61816C143.338 1.61816 141.238 3.71782 141.238 6.30787C141.238 8.89792 143.338 10.9976 145.928 10.9976Z" fill="#A0616A"/>
<path d="M149.725 6.75439C149.725 6.75439 151.176 9.32257 152.963 9.65756C154.75 9.99254 148.273 15.1289 148.273 15.1289C148.273 15.1289 146.71 10.2159 145.37 9.99254C144.03 9.76922 149.725 6.75439 149.725 6.75439Z" fill="#A0616A"/>
<path d="M145.146 17.2503C145.146 18.7019 149.501 22.8333 149.501 22.8333L153.633 26.2947C153.633 26.2947 153.744 27.523 154.191 27.6346C154.638 27.7463 155.196 27.7463 154.749 28.4162C154.303 29.0862 153.186 30.5378 154.191 30.7611C154.494 30.8072 154.799 30.8363 155.105 30.8482C155.373 30.8638 155.688 30.8783 156.042 30.8917C156.869 30.9208 157.902 30.9398 159.022 30.9319C159.341 30.9308 159.664 30.9271 159.994 30.9208C164.216 30.837 169.106 30.3513 168.707 28.7512C168.037 26.0714 168.483 25.1781 167.032 23.7265C165.58 22.275 163.235 17.2503 163.235 17.2503C163.235 17.2503 158.546 9.32246 154.638 9.32246L153.826 9.10918C153.449 9.00982 153.05 9.03162 152.686 9.17149C152.321 9.31137 152.011 9.56223 151.797 9.88857C151.013 11.0822 149.777 12.8755 149.055 13.4539C147.938 14.3471 147.764 13.7062 147.764 13.7062C147.764 13.7062 145.146 15.7987 145.146 17.2503Z" fill="#575A89"/>
<path d="M155.083 34.2227C155.083 34.2227 151.845 39.2473 153.855 40.1406C155.865 41.0339 156.981 34.8926 156.981 34.8926L155.083 34.2227Z" fill="#A0616A"/>
<path d="M148.993 5.77806C148.813 5.75535 148.756 5.52824 148.726 5.34938C148.564 4.39153 147.85 3.48324 146.891 3.32861C146.524 3.27984 146.151 3.30988 145.797 3.41673C145.29 3.5559 144.814 3.79025 144.394 4.10729C144.189 4.29498 143.952 4.44412 143.693 4.54753C143.517 4.59921 142.77 4.9314 142.596 4.9876C142.212 5.11118 141.894 5.51293 141.499 5.43339C141.121 5.35728 140.977 4.90059 140.916 4.51963C140.778 3.65172 141.274 2.35672 141.768 1.62974C142.143 1.07807 142.777 0.760578 143.412 0.554026C144.155 0.328509 144.918 0.176827 145.691 0.101179C146.734 -0.0220158 147.814 -0.0873775 148.814 0.235058C149.813 0.557494 150.724 1.34624 150.91 2.37991C150.949 2.59524 150.956 2.81578 151.004 3.02934C151.12 3.5503 151.465 3.9882 151.666 4.48265C151.811 4.84578 151.879 5.23528 151.864 5.62604C151.849 6.0168 151.753 6.40014 151.581 6.75134C151.302 7.31127 150.818 7.84933 150.923 8.46588L150.061 7.78645C149.936 7.7157 149.84 7.60438 149.788 7.47108C149.735 7.33778 149.73 7.19056 149.773 7.05399L149.899 5.97507C149.942 5.7796 149.922 5.57542 149.843 5.39174C149.46 4.72273 149.293 5.81592 148.993 5.77806Z" fill="#2F2E41"/>
<path opacity="0.1" d="M157.094 26.5179L156.042 30.8916C157.103 30.9296 158.506 30.9497 159.994 30.9207C160.369 29.7951 160.727 28.6216 161.002 27.5229C162.007 23.5031 160.332 17.3618 159.439 14.4587C158.545 11.5555 156.312 10.7739 156.312 10.7739C155.397 11.0959 154.532 11.5471 153.744 12.1138C152.293 13.1188 157.094 26.5179 157.094 26.5179Z" fill="black"/>
<path opacity="0.1" d="M156.2 26.2946L155.105 30.8481C155.373 30.8637 155.687 30.8782 156.041 30.8916C156.868 30.9207 157.902 30.9396 159.022 30.9318C159.425 29.736 159.814 28.4742 160.108 27.2995C161.113 23.2798 159.438 17.1385 158.545 14.2354C157.652 11.3322 155.697 14.5145 155.697 14.5145C155.697 14.5145 156.479 12.6163 155.028 13.6212C153.576 14.6262 156.2 26.2946 156.2 26.2946Z" fill="black"/>
<path d="M155.865 10.5508C155.865 10.5508 158.098 11.3324 158.991 14.2355C159.885 17.1387 161.56 23.28 160.555 27.2997C159.55 31.3195 157.428 36.3442 157.428 36.3442C157.428 36.3442 155.307 34.7809 154.525 35.1159L156.647 26.2948C156.647 26.2948 151.845 12.8956 153.297 11.8907C154.085 11.324 154.949 10.8728 155.865 10.5508Z" fill="#575A89"/>
<path d="M157.53 66.5583L126.637 2.18262L74.9824 26.9707L93.9798 66.5583H157.53Z" fill="#F2F2F2"/>
<path d="M116.184 27.4518L88.748 40.6177L89.5652 42.3206L117.001 29.1547L116.184 27.4518Z" fill="#3F3D56"/>
<path d="M123.447 42.5885L96.0117 55.7544L96.8289 57.4573L124.265 44.2915L123.447 42.5885Z" fill="#3F3D56"/>
<path d="M128.437 18.5452L121.625 21.814L124.894 28.6256L131.705 25.3568L128.437 18.5452Z" fill="#3F3D56"/>
<path d="M135.7 33.6819L128.889 36.9507L132.157 43.7623L138.969 40.4935L135.7 33.6819Z" fill="#3F3D56"/>
<path d="M128.907 13.8271L126.102 21.8087L122.32 20.4795L121.803 21.9519L127.052 23.7966L130.379 14.3446L128.907 13.8271Z" fill="#10B981"/>
<path d="M136.171 28.9639L133.365 36.9455L129.584 35.6165L129.066 37.0886L134.315 38.9333L137.643 29.4814L136.171 28.9639Z" fill="#10B981"/>
<path d="M3.38867 140.651L17.3457 137.669L14.3644 123.712L0.407334 126.694L3.38867 140.651Z" fill="#F2F2F2"/>
<path d="M16.9578 119.983C16.9578 119.983 11.8313 123.645 13.5401 125.11C15.249 126.575 18.6666 120.716 18.6666 120.716L16.9578 119.983Z" fill="#FFB9B9"/>
<path d="M40.6379 125.598C40.6379 125.598 39.6614 137.804 39.4173 139.513C39.1732 141.221 38.9291 156.601 38.4408 158.31C37.9526 160.018 37.4644 164.168 37.4644 164.168H34.535C34.535 164.168 34.7791 156.601 34.0467 153.671C33.3144 150.742 33.5585 142.686 33.5585 142.686C33.5585 142.686 32.0938 128.283 32.8262 126.33C33.5585 124.377 40.6379 125.598 40.6379 125.598Z" fill="#FFB9B9"/>
<path d="M36.7321 163.436C36.7321 163.436 37.9527 164.168 37.9527 164.657C37.9527 165.145 37.7086 166.365 37.9527 166.854C38.1968 167.342 39.9056 169.295 38.9292 169.783C37.9527 170.271 33.5586 169.783 33.5586 169.783C33.5586 169.783 33.8027 166.365 34.0468 166.121C34.2909 165.877 33.8027 163.436 33.8027 163.436H36.7321Z" fill="#2F2E41"/>
<path d="M21.9769 125.299C21.9769 125.299 21.6668 137.539 21.7302 139.264C21.7936 140.989 20.4221 156.31 20.7282 158.06C21.0344 159.811 21.0843 163.989 21.0843 163.989L23.9975 164.297C23.9975 164.297 24.5491 156.745 25.5849 153.909C26.6207 151.072 27.2235 143.035 27.2235 143.035C27.2235 143.035 30.192 128.866 29.6686 126.847C29.1453 124.828 21.9769 125.299 21.9769 125.299Z" fill="#FFB9B9"/>
<path d="M21.8891 163.338C21.8891 163.338 20.5984 163.938 20.5471 164.424C20.4959 164.909 20.6105 166.149 20.3165 166.609C20.0225 167.068 18.1181 168.831 19.0379 169.419C19.9578 170.007 24.3788 169.983 24.3788 169.983C24.3788 169.983 24.4948 166.559 24.2777 166.29C24.0605 166.022 24.8023 163.645 24.8023 163.645L21.8891 163.338Z" fill="#2F2E41"/>
<path d="M37.2198 107.289C37.2198 107.289 39.1727 107.533 39.9051 111.683C40.6374 115.833 43.3227 126.33 41.1257 127.063C38.9286 127.795 32.3375 129.26 32.0933 128.771C31.8492 128.283 31.361 127.063 31.361 127.063C31.361 127.063 32.0933 129.26 31.1169 129.26C30.1404 129.26 20.6199 127.795 20.864 127.063C21.1081 126.33 21.5963 120.96 21.5963 120.96C21.5963 120.96 23.061 111.927 24.5257 110.463C24.9496 110.056 25.2787 109.56 25.4897 109.012C25.7006 108.463 25.7882 107.875 25.7463 107.289H37.2198Z" fill="#2F2E41"/>
<path d="M40.8809 105.336C40.8809 105.336 37.7074 104.604 37.2192 105.581C36.7309 106.557 38.4397 108.022 39.1721 108.022C39.9044 108.022 41.125 107.289 41.125 107.289L40.8809 105.336Z" fill="#FFB9B9"/>
<path d="M34.2906 84.586C36.7174 84.586 38.6847 82.6187 38.6847 80.192C38.6847 77.7652 36.7174 75.7979 34.2906 75.7979C31.8638 75.7979 29.8965 77.7652 29.8965 80.192C29.8965 82.6187 31.8638 84.586 34.2906 84.586Z" fill="#FFB9B9"/>
<path d="M33.5578 83.3658C33.5578 83.3658 32.8255 86.7834 33.3137 86.7834C33.8019 86.7834 29.6519 88.9804 29.6519 88.9804L26.4784 88.4922L25.502 87.0275C25.502 87.0275 30.6284 83.6099 30.6284 81.6569C30.6284 79.704 33.5578 83.3658 33.5578 83.3658Z" fill="#FFB9B9"/>
<path d="M31.3622 86.7832C31.3622 86.7832 32.0945 86.2949 32.3387 86.2949H34.2916C34.5357 86.2949 37.7092 87.0273 37.7092 87.0273L39.6622 98.0125C39.6622 98.0125 36.2445 103.627 38.6857 108.021C38.6857 108.021 37.9534 107.533 34.5357 107.777C31.1181 108.021 25.0152 108.754 24.771 108.754C24.5269 108.754 24.5269 106.801 24.771 106.312C25.0152 105.824 24.5269 106.068 24.5269 104.848C24.5269 103.627 23.7946 101.43 23.7946 101.43L20.377 88.9802C20.377 88.9802 24.7711 86.539 25.5034 86.7831C26.2358 87.0273 28.4328 87.7596 28.921 87.5155C29.4093 87.2714 31.3622 86.7832 31.3622 86.7832Z" fill="#7833B3"/>
<path d="M36.9766 87.2716L37.7089 87.0275C37.7089 87.0275 39.1736 86.7833 40.8824 88.248C42.5912 89.7127 48.9383 94.1068 48.9383 94.1068C48.9383 94.1068 51.3795 96.0598 50.6471 98.2568C49.9148 100.454 48.6942 105.824 45.0324 105.58C45.0324 105.58 42.8354 108.51 41.6148 108.022C40.3942 107.533 39.4177 105.58 40.1501 105.336C40.8824 105.092 42.8354 102.651 42.8354 102.651L40.3942 98.0127H39.6619L36.9766 96.548L36.9766 87.2716Z" fill="#7833B3"/>
<path d="M22.3296 88.7363L20.3766 88.9804C20.3766 88.9804 18.6678 89.7128 18.9119 92.8863C19.1561 96.0598 17.4472 110.463 18.1796 112.172C18.1796 112.172 15.7384 120.472 16.2267 120.716C16.7149 120.96 19.6443 122.424 19.4002 121.448C19.1561 120.471 22.0855 113.636 22.0855 113.636C22.0855 113.636 25.5031 109.974 24.0384 104.848V100.698L22.3296 88.7363Z" fill="#7833B3"/>
<path d="M37.9485 84.4405L34.8452 85.1166L34.4464 83.5885L34.5997 85.1701L29.5933 86.2607L29.3731 85.4171L29.4578 86.2902L26.2512 86.9888L25.5653 80.4042C24.8601 77.7021 27.4338 74.8223 30.1358 74.1171L31.3345 73.8043C33.319 73.2863 36.9263 73.7573 37.4443 75.7418C36.5377 79.2018 34.9923 82.9949 37.9485 84.4405Z" fill="#2F2E41"/>
</g>
<defs>
<clipPath id="clip0_2100_4327">
<rect width="226.185" height="170" fill="white" transform="translate(0.408203)"/>
</clipPath>
</defs>
</svg>
