<svg width="24" height="24" viewBox="0 0 24 24" fill="none" xmlns="http://www.w3.org/2000/svg">
<path d="M11.9217 3C8.10561 3.00001 5 6.10568 5 9.92172C5.00173 11.4077 5.48886 12.8545 6.3754 14.0466C6.3753 14.0534 6.3753 14.0602 6.3754 14.067L11.3699 20.7223C11.4344 20.8085 11.5181 20.8785 11.6143 20.9267C11.7106 20.9749 11.8167 21 11.9244 21C12.032 21 12.1383 20.9749 12.2345 20.9267C12.3308 20.8785 12.4144 20.8085 12.4789 20.7223L17.5491 13.9643C17.5491 13.9638 17.5491 13.9647 17.5491 13.9643C17.5491 13.9638 17.5491 13.962 17.5491 13.9615C17.5491 13.9611 17.5491 13.962 17.5491 13.9615C17.5491 13.9611 17.5491 13.9593 17.5491 13.9588C17.5491 13.9584 17.5491 13.9593 17.5491 13.9588C17.5491 13.9584 17.5491 13.9566 17.5491 13.9561C17.5491 13.9557 17.5491 13.9566 17.5491 13.9561C17.5622 13.9383 17.557 13.9106 17.5701 13.8926C18.3882 12.7291 18.8465 11.3452 18.8481 9.92186C18.8481 6.10581 15.7424 3.00014 11.9264 3.00013L11.9217 3ZM11.9217 4.38082H11.9269C14.9946 4.38083 17.4624 6.85412 17.4624 9.92172C17.4611 11.0782 17.0993 12.2063 16.4251 13.1459C16.4251 13.1477 16.4251 13.1496 16.4251 13.1514L11.9269 19.1535L7.49499 13.2434C7.49327 13.2402 7.49157 13.2371 7.4898 13.234C6.77386 12.2775 6.38757 11.1166 6.38619 9.92186C6.38619 6.85426 8.85407 4.38083 11.9217 4.38082ZM11.9217 7.1506C10.4002 7.15059 9.156 8.40022 9.156 9.92172C9.156 11.4432 10.4002 12.6915 11.9217 12.6915C13.4431 12.6915 14.6915 11.4432 14.6915 9.92172C14.6915 8.40024 13.4431 7.15061 11.9217 7.1506ZM11.9217 8.53549C12.6947 8.53549 13.3066 9.14868 13.3066 9.92172C13.3066 10.6948 12.6947 11.3066 11.9217 11.3066C11.1486 11.3066 10.5409 10.6948 10.5409 9.92172C10.5409 9.14868 11.1486 8.53548 11.9217 8.53549Z" fill="#7833B3"/>
</svg>
