<svg width="19" height="20" viewBox="0 0 19 20" fill="none" xmlns="http://www.w3.org/2000/svg">
<path d="M6.76184 19.0579L8.56085 19.8571C8.77293 19.9512 9.00237 19.9999 9.2344 20C9.46643 20.0001 9.69591 19.9516 9.90805 19.8576L11.7075 19.0579C13.7195 18.1623 15.4288 16.703 16.6288 14.8564C17.8288 13.0098 18.4681 10.855 18.4694 8.65275V5.03852C18.4707 4.64949 18.3343 4.27254 18.0843 3.97442C17.8344 3.67631 17.487 3.47625 17.1037 3.40969C16.1206 3.23915 15.1565 2.97288 14.2252 2.61469C12.7944 2.06332 11.4542 1.30072 10.2493 0.352272C9.96029 0.124315 9.60243 -8.41596e-05 9.23433 4.28775e-08C8.86623 8.42454e-05 8.50889 0.124183 8.21998 0.352272C7.01491 1.30079 5.67461 2.06354 4.24367 2.61516C3.31249 2.97304 2.34859 3.23915 1.36569 3.40969C0.982389 3.47625 0.635008 3.67631 0.385055 3.97442C0.135102 4.27254 -0.00129738 4.64949 9.30184e-06 5.03852V8.65275C0.00123504 10.855 0.640517 13.0098 1.84054 14.8564C3.04055 16.703 4.7499 18.1623 6.76184 19.0579ZM1.42073 5.03852C1.41944 4.98409 1.43773 4.93099 1.47227 4.8889C1.50681 4.8468 1.55531 4.8185 1.60895 4.80913C2.68295 4.62274 3.7362 4.33201 4.75374 3.94107C6.31707 3.33894 7.78123 2.5057 9.09735 1.46915C9.13602 1.43752 9.18443 1.42021 9.23439 1.42012C9.28435 1.42004 9.33281 1.43719 9.37159 1.46868C10.6876 2.50537 12.1518 3.33863 13.7151 3.94061C14.7328 4.33186 15.7862 4.62275 16.8604 4.80914C16.9141 4.81851 16.9626 4.84681 16.9971 4.88891C17.0317 4.931 17.0499 4.9841 17.0487 5.03853V8.65275C17.0476 10.5802 16.488 12.4661 15.4377 14.0822C14.3874 15.6984 12.8913 16.9756 11.1304 17.7593L9.33043 18.5594C9.3002 18.5728 9.26749 18.5797 9.23442 18.5796C9.20135 18.5796 9.16867 18.5725 9.13851 18.5589L7.33903 17.7593C5.5781 16.9756 4.08199 15.6984 3.03167 14.0822C1.98134 12.4661 1.4218 10.5802 1.42073 8.65275V5.03852Z" fill="black"/>
<path d="M8.3183 12.3565C8.44916 12.4613 8.61287 12.5164 8.78047 12.5121C8.94806 12.5078 9.10872 12.4443 9.234 12.3329L13.4962 8.54429C13.5662 8.48243 13.6233 8.40736 13.6643 8.32338C13.7053 8.2394 13.7293 8.14815 13.7349 8.05488C13.7406 7.96161 13.7278 7.86814 13.6972 7.77983C13.6667 7.69152 13.619 7.6101 13.5569 7.54025C13.4949 7.47039 13.4196 7.41347 13.3355 7.37275C13.2514 7.33203 13.1601 7.3083 13.0668 7.30293C12.9735 7.29756 12.8801 7.31065 12.7919 7.34146C12.7037 7.37226 12.6224 7.42018 12.5527 7.48245L8.73823 10.8728L6.83839 9.35316C6.69119 9.23679 6.50394 9.1834 6.31751 9.20462C6.13108 9.22585 5.96062 9.31997 5.84334 9.46644C5.72607 9.61291 5.67151 9.79983 5.69158 9.98639C5.71164 10.1729 5.8047 10.344 5.95044 10.4622L8.3183 12.3565Z" fill="black"/>
</svg>
