<svg width="68" height="68" viewBox="0 0 68 68" fill="none" xmlns="http://www.w3.org/2000/svg">
<rect x="0.5" y="0.5" width="67" height="67" rx="11.5" stroke="#7833B3"/>
<mask id="path-2-inside-1_8461_2265" fill="white">
<path d="M15.3854 27.9734H35.2023C35.9661 27.9734 36.5877 27.3518 36.5877 26.588V15.3854C36.5877 14.6215 35.9661 14 35.2023 14H15.3854C14.6215 14 14 14.6215 14 15.3854V26.588C13.9996 27.3518 14.6211 27.9734 15.3854 27.9734ZM15.1331 15.3854C15.1331 15.2466 15.2461 15.1335 15.3849 15.1335H35.2018C35.3406 15.1335 35.4537 15.2466 35.4537 15.3854V26.588C35.4537 26.7268 35.3406 26.8398 35.2018 26.8398H15.3854C15.2466 26.8398 15.1335 26.7268 15.1335 26.588L15.1331 15.3854ZM16.2256 24.3746H16.5067C17.109 24.3746 17.5987 24.8643 17.5987 25.4667V25.7478C17.5987 26.0607 17.8523 26.3147 18.1657 26.3147H32.4228C32.7357 26.3147 32.9898 26.0612 32.9898 25.7478V25.4667C32.9898 24.8643 33.4799 24.3746 34.0818 24.3746H34.3629C34.6759 24.3746 34.9299 24.121 34.9299 23.8076V18.1653C34.9299 17.8523 34.6763 17.5983 34.3629 17.5983H34.0818C33.4795 17.5983 32.9898 17.1086 32.9898 16.5062V16.2252C32.9898 15.9122 32.7362 15.6582 32.4228 15.6582H18.1653C17.8523 15.6582 17.5983 15.9118 17.5983 16.2252V16.5062C17.5983 17.1086 17.1086 17.5983 16.5062 17.5983H16.2256C15.9126 17.5983 15.6586 17.8519 15.6586 18.1653V23.8076C15.6586 24.1206 15.9122 24.3746 16.2256 24.3746ZM16.7921 18.7139C17.7912 18.5852 18.5852 17.7917 18.7135 16.7921H31.8733C32.002 17.7912 32.7955 18.5852 33.7946 18.7139V23.2594C32.7955 23.3882 32.0016 24.1821 31.8733 25.1812H18.7135C18.5847 24.1821 17.7908 23.3882 16.7921 23.2594V18.7139ZM25.2938 24.9896C27.5011 24.9896 29.2972 23.1935 29.2972 20.9862C29.2972 18.779 27.5011 16.9829 25.2938 16.9829C23.0866 16.9829 21.2905 18.7785 21.2905 20.9862C21.2905 23.1939 23.0861 24.9896 25.2938 24.9896ZM25.2938 18.1168C26.8761 18.1168 28.1637 19.404 28.1637 20.9867C28.1637 22.5693 26.8765 23.8565 25.2938 23.8565C23.7112 23.8565 22.424 22.5693 22.424 20.9867C22.424 19.404 23.7112 18.1168 25.2938 18.1168ZM23.8971 20.2591C23.8971 19.7305 24.2341 19.2739 24.7172 19.0679C24.7133 18.758 24.9599 18.5018 25.2703 18.4944C25.5841 18.4844 25.8429 18.7345 25.8503 19.0474L25.8508 19.0588C26 19.1194 26.1375 19.2045 26.258 19.3119C26.4915 19.5206 26.5116 19.8789 26.303 20.1124C26.0943 20.3459 25.7364 20.366 25.5025 20.1578C25.4505 20.1115 25.3741 20.0849 25.293 20.0849C25.1424 20.0849 25.0302 20.177 25.0302 20.2591C25.0302 20.3411 25.1428 20.4332 25.2934 20.4332C26.0633 20.4332 26.6901 21.0198 26.6901 21.7409C26.6901 22.2699 26.3532 22.7265 25.8695 22.9321C25.8591 23.2293 25.6181 23.4707 25.317 23.4781C25.3122 23.4781 25.3074 23.4781 25.303 23.4781C25.0023 23.4781 24.7539 23.2424 24.7373 22.9425C24.5169 22.85 24.3532 22.7099 24.2101 22.5755C23.9822 22.3607 23.9717 22.0019 24.1869 21.7741C24.4017 21.5462 24.7605 21.5358 24.9883 21.7505C25.155 21.9081 25.1895 21.9146 25.2934 21.9146C25.444 21.9146 25.5566 21.8225 25.5566 21.7405C25.5566 21.6584 25.444 21.5663 25.2934 21.5663C24.5234 21.5668 23.8971 20.9801 23.8971 20.2591ZM53.8512 40.3815C53.5653 39.5369 52.8822 38.9241 51.9276 38.6548C51.3755 38.499 50.733 38.4549 50.008 38.5195C49.5794 36.9997 48.3001 35.8496 46.7519 35.5733C47.6205 35.2739 48.2464 34.4494 48.2464 33.4804C48.2464 32.26 47.2534 31.2674 46.033 31.2674C44.8126 31.2674 43.8196 32.2604 43.8196 33.4804C43.8196 34.4489 44.4455 35.2739 45.3137 35.5733C43.3788 35.9146 41.9035 37.6073 41.9035 39.6386C41.9035 39.8809 41.9716 40.2405 42.2893 40.5923L40.6434 41.0751C40.4278 40.6347 40.107 40.2475 39.705 39.9524C39.7294 39.8499 39.7434 39.7451 39.7434 39.6386C39.7434 37.6073 38.2685 35.915 36.3336 35.5733C37.2018 35.2739 37.8277 34.4494 37.8277 33.4804C37.8277 32.26 36.8347 31.2674 35.6143 31.2674C34.3939 31.2674 33.4009 32.2604 33.4009 33.4804C33.4009 34.4476 34.0247 35.2712 34.8911 35.5715C33.8108 35.761 32.8558 36.3703 32.2273 37.2742C29.2116 35.6047 27.3182 36.3506 24.6801 37.6404C23.252 38.3388 21.8304 39.0153 20.486 39.6508L20.2045 38.9743C19.8309 38.0769 18.7964 37.6496 17.8982 38.0228L15.0908 39.1886C14.653 39.3702 14.3134 39.7098 14.134 40.1445C13.9546 40.5792 13.9564 41.0598 14.1384 41.4971L18.8929 52.9136C19.1749 53.591 19.8331 54 20.5249 54C20.7501 54 20.9788 53.9568 21.1992 53.8651L24.0071 52.6993C24.4449 52.5177 24.7845 52.1782 24.9639 51.7434C25.1432 51.3087 25.1415 50.8281 24.9595 50.3908L24.6409 49.6261L26.471 48.7365C27.1392 48.4114 27.8114 48.3542 28.5251 48.5615L34.3651 50.2572C34.795 50.382 35.2394 50.4353 35.6903 50.4353C37.2424 50.4353 38.8704 49.802 40.2383 49.2695C40.3588 49.2228 40.4771 49.1765 40.5928 49.132L51.5531 44.9082C53.3261 44.2251 54.4221 42.0672 53.8512 40.3815ZM44.9527 33.4804C44.9527 32.885 45.4372 32.401 46.0326 32.401C46.6279 32.401 47.1124 32.885 47.1124 33.4804C47.1124 34.0757 46.6279 34.5602 46.0326 34.5602C45.4372 34.5602 44.9527 34.0757 44.9527 33.4804ZM43.0366 39.6386C43.0366 37.987 44.3805 36.6431 46.0326 36.6431C47.3359 36.6431 48.4768 37.4946 48.8762 38.695C48.5807 38.7582 48.2747 38.8359 47.9574 38.9289L43.693 40.1799C43.2845 40.0162 43.0366 39.8145 43.0366 39.6386ZM34.5336 33.4804C34.5336 32.885 35.0181 32.401 35.6134 32.401C36.2088 32.401 36.6933 32.885 36.6933 33.4804C36.6933 34.0757 36.2088 34.5602 35.6134 34.5602C35.0181 34.5602 34.5336 34.0757 34.5336 33.4804ZM35.6134 36.6431C37.1992 36.6431 38.5003 37.8818 38.602 39.4426L33.4943 38.0739C33.3935 38.0031 33.2944 37.9355 33.1962 37.87C33.7549 37.1036 34.6418 36.6431 35.6134 36.6431ZM23.9146 51.3117C23.8508 51.4663 23.7286 51.5876 23.5706 51.6531L20.7628 52.8189C20.4415 52.952 20.0714 52.7997 19.9374 52.4784L15.1833 41.062C15.1174 40.9044 15.1165 40.732 15.1802 40.5775C15.244 40.423 15.3662 40.3016 15.5242 40.2362L18.3316 39.0703C18.4106 39.0376 18.4922 39.0219 18.573 39.0219C18.8204 39.0219 19.0561 39.1681 19.157 39.4103L23.9115 50.8268C23.977 50.9848 23.9783 51.1568 23.9146 51.3117ZM51.1441 43.8511L40.1838 48.0748C40.0668 48.1198 39.9476 48.1665 39.8259 48.2136C38.2196 48.8387 36.2206 49.6165 34.6798 49.1691L28.8398 47.4734C27.8577 47.1884 26.8935 47.2704 25.9739 47.7174L24.2031 48.5785L20.9216 40.6993C22.2839 40.0555 23.726 39.3693 25.1773 38.6596C27.9712 37.2934 29.5844 36.6907 32.9226 39.0577C32.9776 39.0965 33.0387 39.1253 33.1037 39.1428L38.399 40.5618C39.4208 40.8354 40.0293 41.8895 39.7556 42.9113C39.4819 43.9331 38.4283 44.5416 37.406 44.2679L30.3692 42.3823C30.0671 42.3016 29.7559 42.481 29.6752 42.783C29.594 43.0855 29.7738 43.3962 30.0759 43.477L37.1127 45.3626C38.7382 45.7977 40.4151 44.8301 40.8507 43.2046C40.9437 42.8572 40.9729 42.5076 40.945 42.1684L48.2774 40.017C50.7002 39.3065 52.3824 39.5788 52.7779 40.7455C53.1519 41.8507 52.3427 43.3888 51.1441 43.8511ZM38.1777 31.7585C38.8848 32.0191 39.8246 32.1622 40.8228 32.1622C42.7276 32.1622 44.9523 31.6271 44.9523 30.1199C44.9523 28.0886 43.4774 26.3964 41.5425 26.0546C42.4107 25.7552 43.0366 24.9307 43.0366 23.9617C43.0366 22.7413 42.0436 21.7488 40.8232 21.7488C39.6028 21.7488 38.6098 22.7417 38.6098 23.9617C38.6098 24.9302 39.2358 25.7552 40.1039 26.0546C38.169 26.3964 36.6937 28.0886 36.6937 30.1199C36.6933 30.528 36.8862 31.2832 38.1777 31.7585ZM39.7434 23.9621C39.7434 23.3668 40.2279 22.8827 40.8232 22.8827C41.4186 22.8827 41.9031 23.3668 41.9031 23.9621C41.9031 24.5575 41.4186 25.042 40.8232 25.042C40.2279 25.042 39.7434 24.5575 39.7434 23.9621ZM40.8232 27.1244C42.4748 27.1244 43.8188 28.4683 43.8188 30.1199C43.8188 30.4992 42.6791 31.0287 40.8228 31.0287C38.9664 31.0287 37.8268 30.4992 37.8268 30.1199C37.8272 28.4683 39.1712 27.1244 40.8232 27.1244Z"/>
</mask>
<path d="M15.3854 27.9734H35.2023C35.9661 27.9734 36.5877 27.3518 36.5877 26.588V15.3854C36.5877 14.6215 35.9661 14 35.2023 14H15.3854C14.6215 14 14 14.6215 14 15.3854V26.588C13.9996 27.3518 14.6211 27.9734 15.3854 27.9734ZM15.1331 15.3854C15.1331 15.2466 15.2461 15.1335 15.3849 15.1335H35.2018C35.3406 15.1335 35.4537 15.2466 35.4537 15.3854V26.588C35.4537 26.7268 35.3406 26.8398 35.2018 26.8398H15.3854C15.2466 26.8398 15.1335 26.7268 15.1335 26.588L15.1331 15.3854ZM16.2256 24.3746H16.5067C17.109 24.3746 17.5987 24.8643 17.5987 25.4667V25.7478C17.5987 26.0607 17.8523 26.3147 18.1657 26.3147H32.4228C32.7357 26.3147 32.9898 26.0612 32.9898 25.7478V25.4667C32.9898 24.8643 33.4799 24.3746 34.0818 24.3746H34.3629C34.6759 24.3746 34.9299 24.121 34.9299 23.8076V18.1653C34.9299 17.8523 34.6763 17.5983 34.3629 17.5983H34.0818C33.4795 17.5983 32.9898 17.1086 32.9898 16.5062V16.2252C32.9898 15.9122 32.7362 15.6582 32.4228 15.6582H18.1653C17.8523 15.6582 17.5983 15.9118 17.5983 16.2252V16.5062C17.5983 17.1086 17.1086 17.5983 16.5062 17.5983H16.2256C15.9126 17.5983 15.6586 17.8519 15.6586 18.1653V23.8076C15.6586 24.1206 15.9122 24.3746 16.2256 24.3746ZM16.7921 18.7139C17.7912 18.5852 18.5852 17.7917 18.7135 16.7921H31.8733C32.002 17.7912 32.7955 18.5852 33.7946 18.7139V23.2594C32.7955 23.3882 32.0016 24.1821 31.8733 25.1812H18.7135C18.5847 24.1821 17.7908 23.3882 16.7921 23.2594V18.7139ZM25.2938 24.9896C27.5011 24.9896 29.2972 23.1935 29.2972 20.9862C29.2972 18.779 27.5011 16.9829 25.2938 16.9829C23.0866 16.9829 21.2905 18.7785 21.2905 20.9862C21.2905 23.1939 23.0861 24.9896 25.2938 24.9896ZM25.2938 18.1168C26.8761 18.1168 28.1637 19.404 28.1637 20.9867C28.1637 22.5693 26.8765 23.8565 25.2938 23.8565C23.7112 23.8565 22.424 22.5693 22.424 20.9867C22.424 19.404 23.7112 18.1168 25.2938 18.1168ZM23.8971 20.2591C23.8971 19.7305 24.2341 19.2739 24.7172 19.0679C24.7133 18.758 24.9599 18.5018 25.2703 18.4944C25.5841 18.4844 25.8429 18.7345 25.8503 19.0474L25.8508 19.0588C26 19.1194 26.1375 19.2045 26.258 19.3119C26.4915 19.5206 26.5116 19.8789 26.303 20.1124C26.0943 20.3459 25.7364 20.366 25.5025 20.1578C25.4505 20.1115 25.3741 20.0849 25.293 20.0849C25.1424 20.0849 25.0302 20.177 25.0302 20.2591C25.0302 20.3411 25.1428 20.4332 25.2934 20.4332C26.0633 20.4332 26.6901 21.0198 26.6901 21.7409C26.6901 22.2699 26.3532 22.7265 25.8695 22.9321C25.8591 23.2293 25.6181 23.4707 25.317 23.4781C25.3122 23.4781 25.3074 23.4781 25.303 23.4781C25.0023 23.4781 24.7539 23.2424 24.7373 22.9425C24.5169 22.85 24.3532 22.7099 24.2101 22.5755C23.9822 22.3607 23.9717 22.0019 24.1869 21.7741C24.4017 21.5462 24.7605 21.5358 24.9883 21.7505C25.155 21.9081 25.1895 21.9146 25.2934 21.9146C25.444 21.9146 25.5566 21.8225 25.5566 21.7405C25.5566 21.6584 25.444 21.5663 25.2934 21.5663C24.5234 21.5668 23.8971 20.9801 23.8971 20.2591ZM53.8512 40.3815C53.5653 39.5369 52.8822 38.9241 51.9276 38.6548C51.3755 38.499 50.733 38.4549 50.008 38.5195C49.5794 36.9997 48.3001 35.8496 46.7519 35.5733C47.6205 35.2739 48.2464 34.4494 48.2464 33.4804C48.2464 32.26 47.2534 31.2674 46.033 31.2674C44.8126 31.2674 43.8196 32.2604 43.8196 33.4804C43.8196 34.4489 44.4455 35.2739 45.3137 35.5733C43.3788 35.9146 41.9035 37.6073 41.9035 39.6386C41.9035 39.8809 41.9716 40.2405 42.2893 40.5923L40.6434 41.0751C40.4278 40.6347 40.107 40.2475 39.705 39.9524C39.7294 39.8499 39.7434 39.7451 39.7434 39.6386C39.7434 37.6073 38.2685 35.915 36.3336 35.5733C37.2018 35.2739 37.8277 34.4494 37.8277 33.4804C37.8277 32.26 36.8347 31.2674 35.6143 31.2674C34.3939 31.2674 33.4009 32.2604 33.4009 33.4804C33.4009 34.4476 34.0247 35.2712 34.8911 35.5715C33.8108 35.761 32.8558 36.3703 32.2273 37.2742C29.2116 35.6047 27.3182 36.3506 24.6801 37.6404C23.252 38.3388 21.8304 39.0153 20.486 39.6508L20.2045 38.9743C19.8309 38.0769 18.7964 37.6496 17.8982 38.0228L15.0908 39.1886C14.653 39.3702 14.3134 39.7098 14.134 40.1445C13.9546 40.5792 13.9564 41.0598 14.1384 41.4971L18.8929 52.9136C19.1749 53.591 19.8331 54 20.5249 54C20.7501 54 20.9788 53.9568 21.1992 53.8651L24.0071 52.6993C24.4449 52.5177 24.7845 52.1782 24.9639 51.7434C25.1432 51.3087 25.1415 50.8281 24.9595 50.3908L24.6409 49.6261L26.471 48.7365C27.1392 48.4114 27.8114 48.3542 28.5251 48.5615L34.3651 50.2572C34.795 50.382 35.2394 50.4353 35.6903 50.4353C37.2424 50.4353 38.8704 49.802 40.2383 49.2695C40.3588 49.2228 40.4771 49.1765 40.5928 49.132L51.5531 44.9082C53.3261 44.2251 54.4221 42.0672 53.8512 40.3815ZM44.9527 33.4804C44.9527 32.885 45.4372 32.401 46.0326 32.401C46.6279 32.401 47.1124 32.885 47.1124 33.4804C47.1124 34.0757 46.6279 34.5602 46.0326 34.5602C45.4372 34.5602 44.9527 34.0757 44.9527 33.4804ZM43.0366 39.6386C43.0366 37.987 44.3805 36.6431 46.0326 36.6431C47.3359 36.6431 48.4768 37.4946 48.8762 38.695C48.5807 38.7582 48.2747 38.8359 47.9574 38.9289L43.693 40.1799C43.2845 40.0162 43.0366 39.8145 43.0366 39.6386ZM34.5336 33.4804C34.5336 32.885 35.0181 32.401 35.6134 32.401C36.2088 32.401 36.6933 32.885 36.6933 33.4804C36.6933 34.0757 36.2088 34.5602 35.6134 34.5602C35.0181 34.5602 34.5336 34.0757 34.5336 33.4804ZM35.6134 36.6431C37.1992 36.6431 38.5003 37.8818 38.602 39.4426L33.4943 38.0739C33.3935 38.0031 33.2944 37.9355 33.1962 37.87C33.7549 37.1036 34.6418 36.6431 35.6134 36.6431ZM23.9146 51.3117C23.8508 51.4663 23.7286 51.5876 23.5706 51.6531L20.7628 52.8189C20.4415 52.952 20.0714 52.7997 19.9374 52.4784L15.1833 41.062C15.1174 40.9044 15.1165 40.732 15.1802 40.5775C15.244 40.423 15.3662 40.3016 15.5242 40.2362L18.3316 39.0703C18.4106 39.0376 18.4922 39.0219 18.573 39.0219C18.8204 39.0219 19.0561 39.1681 19.157 39.4103L23.9115 50.8268C23.977 50.9848 23.9783 51.1568 23.9146 51.3117ZM51.1441 43.8511L40.1838 48.0748C40.0668 48.1198 39.9476 48.1665 39.8259 48.2136C38.2196 48.8387 36.2206 49.6165 34.6798 49.1691L28.8398 47.4734C27.8577 47.1884 26.8935 47.2704 25.9739 47.7174L24.2031 48.5785L20.9216 40.6993C22.2839 40.0555 23.726 39.3693 25.1773 38.6596C27.9712 37.2934 29.5844 36.6907 32.9226 39.0577C32.9776 39.0965 33.0387 39.1253 33.1037 39.1428L38.399 40.5618C39.4208 40.8354 40.0293 41.8895 39.7556 42.9113C39.4819 43.9331 38.4283 44.5416 37.406 44.2679L30.3692 42.3823C30.0671 42.3016 29.7559 42.481 29.6752 42.783C29.594 43.0855 29.7738 43.3962 30.0759 43.477L37.1127 45.3626C38.7382 45.7977 40.4151 44.8301 40.8507 43.2046C40.9437 42.8572 40.9729 42.5076 40.945 42.1684L48.2774 40.017C50.7002 39.3065 52.3824 39.5788 52.7779 40.7455C53.1519 41.8507 52.3427 43.3888 51.1441 43.8511ZM38.1777 31.7585C38.8848 32.0191 39.8246 32.1622 40.8228 32.1622C42.7276 32.1622 44.9523 31.6271 44.9523 30.1199C44.9523 28.0886 43.4774 26.3964 41.5425 26.0546C42.4107 25.7552 43.0366 24.9307 43.0366 23.9617C43.0366 22.7413 42.0436 21.7488 40.8232 21.7488C39.6028 21.7488 38.6098 22.7417 38.6098 23.9617C38.6098 24.9302 39.2358 25.7552 40.1039 26.0546C38.169 26.3964 36.6937 28.0886 36.6937 30.1199C36.6933 30.528 36.8862 31.2832 38.1777 31.7585ZM39.7434 23.9621C39.7434 23.3668 40.2279 22.8827 40.8232 22.8827C41.4186 22.8827 41.9031 23.3668 41.9031 23.9621C41.9031 24.5575 41.4186 25.042 40.8232 25.042C40.2279 25.042 39.7434 24.5575 39.7434 23.9621ZM40.8232 27.1244C42.4748 27.1244 43.8188 28.4683 43.8188 30.1199C43.8188 30.4992 42.6791 31.0287 40.8228 31.0287C38.9664 31.0287 37.8268 30.4992 37.8268 30.1199C37.8272 28.4683 39.1712 27.1244 40.8232 27.1244Z" stroke="#7833B3" stroke-width="2" mask="url(#path-2-inside-1_8461_2265)"/>
</svg>
