<svg width="40" height="40" viewBox="0 0 40 40" fill="none" xmlns="http://www.w3.org/2000/svg">
<mask id="path-1-inside-1_7342_802" fill="white">
<path d="M1.38538 13.9734H21.2023C21.9661 13.9734 22.5877 13.3518 22.5877 12.588V1.38538C22.5877 0.621542 21.9661 0 21.2023 0H1.38538C0.621542 0 2.29746e-07 0.621542 2.29746e-07 1.38538V12.588C-0.000436247 13.3518 0.621106 13.9734 1.38538 13.9734ZM1.13309 1.38538C1.13309 1.24658 1.24614 1.13353 1.38494 1.13353H21.2018C21.3406 1.13353 21.4537 1.24658 21.4537 1.38538V12.588C21.4537 12.7268 21.3406 12.8398 21.2018 12.8398H1.38538C1.24658 12.8398 1.13353 12.7268 1.13353 12.588L1.13309 1.38538ZM2.22559 10.3746H2.50668C3.10902 10.3746 3.59875 10.8643 3.59875 11.4667V11.7478C3.59875 12.0607 3.85234 12.3147 4.16573 12.3147H18.4228C18.7357 12.3147 18.9898 12.0612 18.9898 11.7478V11.4667C18.9898 10.8643 19.4799 10.3746 20.0818 10.3746H20.3629C20.6759 10.3746 20.9299 10.121 20.9299 9.80762V4.16529C20.9299 3.85234 20.6763 3.59831 20.3629 3.59831H20.0818C19.4795 3.59831 18.9898 3.10858 18.9898 2.50625V2.22516C18.9898 1.9122 18.7362 1.65817 18.4228 1.65817H4.16529C3.85234 1.65817 3.59831 1.91177 3.59831 2.22516V2.50625C3.59831 3.10858 3.10858 3.59831 2.50625 3.59831H2.22559C1.91264 3.59831 1.65861 3.8519 1.65861 4.16529V9.80762C1.65861 10.1206 1.9122 10.3746 2.22559 10.3746ZM2.79214 4.71394C3.79123 4.58518 4.58518 3.79167 4.71351 2.79214H17.8733C18.002 3.79123 18.7955 4.58518 19.7946 4.71394V9.25941C18.7955 9.38817 18.0016 10.1821 17.8733 11.1812H4.71351C4.58475 10.1821 3.7908 9.38817 2.79214 9.25941V4.71394ZM11.2938 10.9896C13.5011 10.9896 15.2972 9.1935 15.2972 6.98624C15.2972 4.77898 13.5011 2.98288 11.2938 2.98288C9.08657 2.98288 7.29046 4.77854 7.29046 6.98624C7.29046 9.19394 9.08613 10.9896 11.2938 10.9896ZM11.2938 4.11684C12.8761 4.11684 14.1637 5.40401 14.1637 6.98668C14.1637 8.56934 12.8765 9.85651 11.2938 9.85651C9.71116 9.85651 8.42399 8.56934 8.42399 6.98668C8.42399 5.40401 9.71116 4.11684 11.2938 4.11684ZM9.8971 6.25907C9.8971 5.7305 10.2341 5.27394 10.7172 5.06793C10.7133 4.75803 10.9599 4.50182 11.2703 4.4944C11.5841 4.48436 11.8429 4.73446 11.8503 5.04741L11.8508 5.05876C12 5.11943 12.1375 5.20454 12.258 5.31192C12.4915 5.52055 12.5116 5.8789 12.303 6.11241C12.0943 6.34593 11.7364 6.36601 11.5025 6.15781C11.4505 6.11154 11.3741 6.08492 11.293 6.08492C11.1424 6.08492 11.0302 6.17701 11.0302 6.25907C11.0302 6.34113 11.1428 6.43323 11.2934 6.43323C12.0633 6.43323 12.6901 7.01985 12.6901 7.74091C12.6901 8.26992 12.3532 8.72647 11.8695 8.93205C11.8591 9.22929 11.6181 9.47066 11.317 9.47808C11.3122 9.47808 11.3074 9.47808 11.303 9.47808C11.0023 9.47808 10.7539 9.24239 10.7373 8.94253C10.5169 8.84999 10.3532 8.70989 10.2101 8.57545C9.98221 8.36071 9.97174 8.00192 10.1869 7.77408C10.4017 7.54624 10.7605 7.53576 10.9883 7.75051C11.155 7.90808 11.1895 7.91463 11.2934 7.91463C11.444 7.91463 11.5566 7.82253 11.5566 7.74047C11.5566 7.65841 11.444 7.56632 11.2934 7.56632C10.5234 7.56675 9.8971 6.98013 9.8971 6.25907ZM39.8512 26.3815C39.5653 25.5369 38.8822 24.9241 37.9276 24.6548C37.3755 24.499 36.733 24.4549 36.008 24.5195C35.5794 22.9997 34.3001 21.8496 32.7519 21.5733C33.6205 21.2739 34.2464 20.4494 34.2464 19.4804C34.2464 18.26 33.2534 17.2674 32.033 17.2674C30.8126 17.2674 29.8196 18.2604 29.8196 19.4804C29.8196 20.4489 30.4455 21.2739 31.3137 21.5733C29.3788 21.9146 27.9035 23.6073 27.9035 25.6386C27.9035 25.8809 27.9716 26.2405 28.2893 26.5923L26.6434 27.0751C26.4278 26.6347 26.107 26.2475 25.705 25.9524C25.7294 25.8499 25.7434 25.7451 25.7434 25.6386C25.7434 23.6073 24.2685 21.915 22.3336 21.5733C23.2018 21.2739 23.8277 20.4494 23.8277 19.4804C23.8277 18.26 22.8347 17.2674 21.6143 17.2674C20.3939 17.2674 19.4009 18.2604 19.4009 19.4804C19.4009 20.4476 20.0247 21.2712 20.8911 21.5715C19.8108 21.761 18.8558 22.3703 18.2273 23.2742C15.2116 21.6047 13.3182 22.3506 10.6801 23.6404C9.25199 24.3388 7.83039 25.0153 6.48604 25.6508L6.20451 24.9743C5.83089 24.0769 4.79644 23.6496 3.89817 24.0228L1.09075 25.1886C0.652969 25.3702 0.31339 25.7098 0.133998 26.1445C-0.0453933 26.5792 -0.0436474 27.0598 0.138363 27.4971L4.8929 38.9136C5.17486 39.591 5.83307 40 6.52489 40C6.75011 40 6.97882 39.9568 7.19924 39.8651L10.0071 38.6993C10.4449 38.5177 10.7845 38.1782 10.9639 37.7434C11.1432 37.3087 11.1415 36.8281 10.9595 36.3908L10.6409 35.6261L12.471 34.7365C13.1392 34.4114 13.8114 34.3542 14.5251 34.5615L20.3651 36.2572C20.795 36.382 21.2394 36.4353 21.6903 36.4353C23.2424 36.4353 24.8704 35.802 26.2383 35.2695C26.3588 35.2228 26.4771 35.1765 26.5928 35.132L37.5531 30.9082C39.3261 30.2251 40.4221 28.0672 39.8512 26.3815ZM30.9527 19.4804C30.9527 18.885 31.4372 18.401 32.0326 18.401C32.6279 18.401 33.1124 18.885 33.1124 19.4804C33.1124 20.0757 32.6279 20.5602 32.0326 20.5602C31.4372 20.5602 30.9527 20.0757 30.9527 19.4804ZM29.0366 25.6386C29.0366 23.987 30.3805 22.6431 32.0326 22.6431C33.3359 22.6431 34.4768 23.4946 34.8762 24.695C34.5807 24.7582 34.2747 24.8359 33.9574 24.9289L29.693 26.1799C29.2845 26.0162 29.0366 25.8145 29.0366 25.6386ZM20.5336 19.4804C20.5336 18.885 21.0181 18.401 21.6134 18.401C22.2088 18.401 22.6933 18.885 22.6933 19.4804C22.6933 20.0757 22.2088 20.5602 21.6134 20.5602C21.0181 20.5602 20.5336 20.0757 20.5336 19.4804ZM21.6134 22.6431C23.1992 22.6431 24.5003 23.8818 24.602 25.4426L19.4943 24.0739C19.3935 24.0031 19.2944 23.9355 19.1962 23.87C19.7549 23.1036 20.6418 22.6431 21.6134 22.6431ZM9.91456 37.3117C9.85084 37.4663 9.72862 37.5876 9.57062 37.6531L6.76276 38.8189C6.44152 38.952 6.07139 38.7997 5.93739 38.4784L1.18329 27.062C1.11738 26.9044 1.11651 26.732 1.18023 26.5775C1.24396 26.423 1.36617 26.3016 1.52418 26.2362L4.33159 25.0703C4.41059 25.0376 4.49221 25.0219 4.57296 25.0219C4.82045 25.0219 5.05614 25.1681 5.15697 25.4103L9.91151 36.8268C9.97698 36.9848 9.97829 37.1568 9.91456 37.3117ZM37.1441 29.8511L26.1838 34.0748C26.0668 34.1198 25.9476 34.1665 25.8259 34.2136C24.2196 34.8387 22.2206 35.6165 20.6798 35.1691L14.8398 33.4734C13.8577 33.1884 12.8935 33.2704 11.9739 33.7174L10.2031 34.5785L6.92164 26.6993C8.28389 26.0555 9.726 25.3693 11.1773 24.6596C13.9712 23.2934 15.5844 22.6907 18.9226 25.0577C18.9776 25.0965 19.0387 25.1253 19.1037 25.1428L24.399 26.5618C25.4208 26.8354 26.0293 27.8895 25.7556 28.9113C25.4819 29.9331 24.4283 30.5416 23.406 30.2679L16.3692 28.3823C16.0671 28.3016 15.7559 28.481 15.6752 28.783C15.594 29.0855 15.7738 29.3962 16.0759 29.477L23.1127 31.3626C24.7382 31.7977 26.4151 30.8301 26.8507 29.2046C26.9437 28.8572 26.9729 28.5076 26.945 28.1684L34.2774 26.017C36.7002 25.3065 38.3824 25.5788 38.7779 26.7455C39.1519 27.8507 38.3427 29.3888 37.1441 29.8511ZM24.1777 17.7585C24.8848 18.0191 25.8246 18.1622 26.8228 18.1622C28.7276 18.1622 30.9523 17.6271 30.9523 16.1199C30.9523 14.0886 29.4774 12.3964 27.5425 12.0546C28.4107 11.7552 29.0366 10.9307 29.0366 9.9617C29.0366 8.74131 28.0436 7.74876 26.8232 7.74876C25.6028 7.74876 24.6098 8.74175 24.6098 9.9617C24.6098 10.9302 25.2358 11.7552 26.1039 12.0546C24.169 12.3964 22.6937 14.0886 22.6937 16.1199C22.6933 16.528 22.8862 17.2832 24.1777 17.7585ZM25.7434 9.96214C25.7434 9.36678 26.2279 8.88273 26.8232 8.88273C27.4186 8.88273 27.9031 9.36678 27.9031 9.96214C27.9031 10.5575 27.4186 11.042 26.8232 11.042C26.2279 11.042 25.7434 10.5575 25.7434 9.96214ZM26.8232 13.1244C28.4748 13.1244 29.8188 14.4683 29.8188 16.1199C29.8188 16.4992 28.6791 17.0287 26.8228 17.0287C24.9664 17.0287 23.8268 16.4992 23.8268 16.1199C23.8272 14.4683 25.1712 13.1244 26.8232 13.1244Z"/>
</mask>
<path d="M1.38538 13.9734H21.2023C21.9661 13.9734 22.5877 13.3518 22.5877 12.588V1.38538C22.5877 0.621542 21.9661 0 21.2023 0H1.38538C0.621542 0 2.29746e-07 0.621542 2.29746e-07 1.38538V12.588C-0.000436247 13.3518 0.621106 13.9734 1.38538 13.9734ZM1.13309 1.38538C1.13309 1.24658 1.24614 1.13353 1.38494 1.13353H21.2018C21.3406 1.13353 21.4537 1.24658 21.4537 1.38538V12.588C21.4537 12.7268 21.3406 12.8398 21.2018 12.8398H1.38538C1.24658 12.8398 1.13353 12.7268 1.13353 12.588L1.13309 1.38538ZM2.22559 10.3746H2.50668C3.10902 10.3746 3.59875 10.8643 3.59875 11.4667V11.7478C3.59875 12.0607 3.85234 12.3147 4.16573 12.3147H18.4228C18.7357 12.3147 18.9898 12.0612 18.9898 11.7478V11.4667C18.9898 10.8643 19.4799 10.3746 20.0818 10.3746H20.3629C20.6759 10.3746 20.9299 10.121 20.9299 9.80762V4.16529C20.9299 3.85234 20.6763 3.59831 20.3629 3.59831H20.0818C19.4795 3.59831 18.9898 3.10858 18.9898 2.50625V2.22516C18.9898 1.9122 18.7362 1.65817 18.4228 1.65817H4.16529C3.85234 1.65817 3.59831 1.91177 3.59831 2.22516V2.50625C3.59831 3.10858 3.10858 3.59831 2.50625 3.59831H2.22559C1.91264 3.59831 1.65861 3.8519 1.65861 4.16529V9.80762C1.65861 10.1206 1.9122 10.3746 2.22559 10.3746ZM2.79214 4.71394C3.79123 4.58518 4.58518 3.79167 4.71351 2.79214H17.8733C18.002 3.79123 18.7955 4.58518 19.7946 4.71394V9.25941C18.7955 9.38817 18.0016 10.1821 17.8733 11.1812H4.71351C4.58475 10.1821 3.7908 9.38817 2.79214 9.25941V4.71394ZM11.2938 10.9896C13.5011 10.9896 15.2972 9.1935 15.2972 6.98624C15.2972 4.77898 13.5011 2.98288 11.2938 2.98288C9.08657 2.98288 7.29046 4.77854 7.29046 6.98624C7.29046 9.19394 9.08613 10.9896 11.2938 10.9896ZM11.2938 4.11684C12.8761 4.11684 14.1637 5.40401 14.1637 6.98668C14.1637 8.56934 12.8765 9.85651 11.2938 9.85651C9.71116 9.85651 8.42399 8.56934 8.42399 6.98668C8.42399 5.40401 9.71116 4.11684 11.2938 4.11684ZM9.8971 6.25907C9.8971 5.7305 10.2341 5.27394 10.7172 5.06793C10.7133 4.75803 10.9599 4.50182 11.2703 4.4944C11.5841 4.48436 11.8429 4.73446 11.8503 5.04741L11.8508 5.05876C12 5.11943 12.1375 5.20454 12.258 5.31192C12.4915 5.52055 12.5116 5.8789 12.303 6.11241C12.0943 6.34593 11.7364 6.36601 11.5025 6.15781C11.4505 6.11154 11.3741 6.08492 11.293 6.08492C11.1424 6.08492 11.0302 6.17701 11.0302 6.25907C11.0302 6.34113 11.1428 6.43323 11.2934 6.43323C12.0633 6.43323 12.6901 7.01985 12.6901 7.74091C12.6901 8.26992 12.3532 8.72647 11.8695 8.93205C11.8591 9.22929 11.6181 9.47066 11.317 9.47808C11.3122 9.47808 11.3074 9.47808 11.303 9.47808C11.0023 9.47808 10.7539 9.24239 10.7373 8.94253C10.5169 8.84999 10.3532 8.70989 10.2101 8.57545C9.98221 8.36071 9.97174 8.00192 10.1869 7.77408C10.4017 7.54624 10.7605 7.53576 10.9883 7.75051C11.155 7.90808 11.1895 7.91463 11.2934 7.91463C11.444 7.91463 11.5566 7.82253 11.5566 7.74047C11.5566 7.65841 11.444 7.56632 11.2934 7.56632C10.5234 7.56675 9.8971 6.98013 9.8971 6.25907ZM39.8512 26.3815C39.5653 25.5369 38.8822 24.9241 37.9276 24.6548C37.3755 24.499 36.733 24.4549 36.008 24.5195C35.5794 22.9997 34.3001 21.8496 32.7519 21.5733C33.6205 21.2739 34.2464 20.4494 34.2464 19.4804C34.2464 18.26 33.2534 17.2674 32.033 17.2674C30.8126 17.2674 29.8196 18.2604 29.8196 19.4804C29.8196 20.4489 30.4455 21.2739 31.3137 21.5733C29.3788 21.9146 27.9035 23.6073 27.9035 25.6386C27.9035 25.8809 27.9716 26.2405 28.2893 26.5923L26.6434 27.0751C26.4278 26.6347 26.107 26.2475 25.705 25.9524C25.7294 25.8499 25.7434 25.7451 25.7434 25.6386C25.7434 23.6073 24.2685 21.915 22.3336 21.5733C23.2018 21.2739 23.8277 20.4494 23.8277 19.4804C23.8277 18.26 22.8347 17.2674 21.6143 17.2674C20.3939 17.2674 19.4009 18.2604 19.4009 19.4804C19.4009 20.4476 20.0247 21.2712 20.8911 21.5715C19.8108 21.761 18.8558 22.3703 18.2273 23.2742C15.2116 21.6047 13.3182 22.3506 10.6801 23.6404C9.25199 24.3388 7.83039 25.0153 6.48604 25.6508L6.20451 24.9743C5.83089 24.0769 4.79644 23.6496 3.89817 24.0228L1.09075 25.1886C0.652969 25.3702 0.31339 25.7098 0.133998 26.1445C-0.0453933 26.5792 -0.0436474 27.0598 0.138363 27.4971L4.8929 38.9136C5.17486 39.591 5.83307 40 6.52489 40C6.75011 40 6.97882 39.9568 7.19924 39.8651L10.0071 38.6993C10.4449 38.5177 10.7845 38.1782 10.9639 37.7434C11.1432 37.3087 11.1415 36.8281 10.9595 36.3908L10.6409 35.6261L12.471 34.7365C13.1392 34.4114 13.8114 34.3542 14.5251 34.5615L20.3651 36.2572C20.795 36.382 21.2394 36.4353 21.6903 36.4353C23.2424 36.4353 24.8704 35.802 26.2383 35.2695C26.3588 35.2228 26.4771 35.1765 26.5928 35.132L37.5531 30.9082C39.3261 30.2251 40.4221 28.0672 39.8512 26.3815ZM30.9527 19.4804C30.9527 18.885 31.4372 18.401 32.0326 18.401C32.6279 18.401 33.1124 18.885 33.1124 19.4804C33.1124 20.0757 32.6279 20.5602 32.0326 20.5602C31.4372 20.5602 30.9527 20.0757 30.9527 19.4804ZM29.0366 25.6386C29.0366 23.987 30.3805 22.6431 32.0326 22.6431C33.3359 22.6431 34.4768 23.4946 34.8762 24.695C34.5807 24.7582 34.2747 24.8359 33.9574 24.9289L29.693 26.1799C29.2845 26.0162 29.0366 25.8145 29.0366 25.6386ZM20.5336 19.4804C20.5336 18.885 21.0181 18.401 21.6134 18.401C22.2088 18.401 22.6933 18.885 22.6933 19.4804C22.6933 20.0757 22.2088 20.5602 21.6134 20.5602C21.0181 20.5602 20.5336 20.0757 20.5336 19.4804ZM21.6134 22.6431C23.1992 22.6431 24.5003 23.8818 24.602 25.4426L19.4943 24.0739C19.3935 24.0031 19.2944 23.9355 19.1962 23.87C19.7549 23.1036 20.6418 22.6431 21.6134 22.6431ZM9.91456 37.3117C9.85084 37.4663 9.72862 37.5876 9.57062 37.6531L6.76276 38.8189C6.44152 38.952 6.07139 38.7997 5.93739 38.4784L1.18329 27.062C1.11738 26.9044 1.11651 26.732 1.18023 26.5775C1.24396 26.423 1.36617 26.3016 1.52418 26.2362L4.33159 25.0703C4.41059 25.0376 4.49221 25.0219 4.57296 25.0219C4.82045 25.0219 5.05614 25.1681 5.15697 25.4103L9.91151 36.8268C9.97698 36.9848 9.97829 37.1568 9.91456 37.3117ZM37.1441 29.8511L26.1838 34.0748C26.0668 34.1198 25.9476 34.1665 25.8259 34.2136C24.2196 34.8387 22.2206 35.6165 20.6798 35.1691L14.8398 33.4734C13.8577 33.1884 12.8935 33.2704 11.9739 33.7174L10.2031 34.5785L6.92164 26.6993C8.28389 26.0555 9.726 25.3693 11.1773 24.6596C13.9712 23.2934 15.5844 22.6907 18.9226 25.0577C18.9776 25.0965 19.0387 25.1253 19.1037 25.1428L24.399 26.5618C25.4208 26.8354 26.0293 27.8895 25.7556 28.9113C25.4819 29.9331 24.4283 30.5416 23.406 30.2679L16.3692 28.3823C16.0671 28.3016 15.7559 28.481 15.6752 28.783C15.594 29.0855 15.7738 29.3962 16.0759 29.477L23.1127 31.3626C24.7382 31.7977 26.4151 30.8301 26.8507 29.2046C26.9437 28.8572 26.9729 28.5076 26.945 28.1684L34.2774 26.017C36.7002 25.3065 38.3824 25.5788 38.7779 26.7455C39.1519 27.8507 38.3427 29.3888 37.1441 29.8511ZM24.1777 17.7585C24.8848 18.0191 25.8246 18.1622 26.8228 18.1622C28.7276 18.1622 30.9523 17.6271 30.9523 16.1199C30.9523 14.0886 29.4774 12.3964 27.5425 12.0546C28.4107 11.7552 29.0366 10.9307 29.0366 9.9617C29.0366 8.74131 28.0436 7.74876 26.8232 7.74876C25.6028 7.74876 24.6098 8.74175 24.6098 9.9617C24.6098 10.9302 25.2358 11.7552 26.1039 12.0546C24.169 12.3964 22.6937 14.0886 22.6937 16.1199C22.6933 16.528 22.8862 17.2832 24.1777 17.7585ZM25.7434 9.96214C25.7434 9.36678 26.2279 8.88273 26.8232 8.88273C27.4186 8.88273 27.9031 9.36678 27.9031 9.96214C27.9031 10.5575 27.4186 11.042 26.8232 11.042C26.2279 11.042 25.7434 10.5575 25.7434 9.96214ZM26.8232 13.1244C28.4748 13.1244 29.8188 14.4683 29.8188 16.1199C29.8188 16.4992 28.6791 17.0287 26.8228 17.0287C24.9664 17.0287 23.8268 16.4992 23.8268 16.1199C23.8272 14.4683 25.1712 13.1244 26.8232 13.1244Z" stroke="#7833B3" stroke-width="2" mask="url(#path-1-inside-1_7342_802)"/>
</svg>
