<svg width="20" height="20" viewBox="0 0 20 20" fill="none" xmlns="http://www.w3.org/2000/svg">
<path fill-rule="evenodd" clip-rule="evenodd" d="M9.19086 0C8.3052 0 7.57375 0.731518 7.57375 1.61717V2.2145C7.10291 2.36101 6.64647 2.54988 6.20976 2.77887L5.78814 2.35725C5.16167 1.73078 4.12701 1.73078 3.50054 2.35725L2.35719 3.50061C1.73074 4.12708 1.73074 5.16174 2.35719 5.78818L2.77883 6.20982C2.54983 6.64654 2.36099 7.10293 2.21443 7.57375H1.61711C0.731452 7.57375 0 8.30527 0 9.1909V10.8092C0 11.6948 0.731452 12.4263 1.61711 12.4263H2.21443C2.36094 12.8971 2.54983 13.3535 2.77883 13.7902L2.35719 14.2119C1.73074 14.8384 1.73074 15.8731 2.35719 16.4995L3.50054 17.6428C4.12701 18.2693 5.16167 18.2693 5.78814 17.6428L6.20976 17.2212C6.64647 17.4502 7.10291 17.6391 7.57375 17.7856V18.3829C7.57375 19.2685 8.3052 20.0001 9.19086 20.0001H10.8091C11.6948 20.0001 12.4263 19.2685 12.4263 18.3829V17.7856C12.8971 17.6391 13.3535 17.4502 13.7902 17.2212L14.2118 17.6428C14.8383 18.2693 15.873 18.2693 16.4995 17.6428L17.6428 16.4995C18.2692 15.8731 18.2692 14.8384 17.6428 14.2119L17.2211 13.7902C17.4501 13.3535 17.639 12.8971 17.7856 12.4263H18.3829C19.2685 12.4263 20 11.6948 20 10.8092V9.1909C20 8.30527 19.2685 7.57375 18.3829 7.57375H17.7891C17.6421 7.10219 17.4527 6.64514 17.2231 6.20784L17.6428 5.78818C18.2692 5.16171 18.2692 4.12708 17.6428 3.50061L16.4995 2.35725C15.873 1.73078 14.8383 1.73078 14.2118 2.35725L13.7922 2.77689C13.3549 2.54727 12.8978 2.3579 12.4263 2.21096V1.61717C12.4263 0.731518 11.6948 0 10.8091 0H9.19086ZM9.19086 1.1765H10.8091C11.0641 1.1765 11.2498 1.36215 11.2498 1.61717V2.65515C11.2498 2.78629 11.2937 2.91368 11.3743 3.01706C11.455 3.12045 11.568 3.19391 11.6952 3.22577C12.3625 3.39274 13.0015 3.65757 13.5915 4.01142C13.7039 4.07888 13.8358 4.10682 13.9659 4.09079C14.0961 4.07475 14.2172 4.01568 14.31 3.92294L15.0437 3.18917C15.2238 3.00909 15.4875 3.00909 15.6675 3.18917L16.8109 4.33248C16.991 4.51257 16.991 4.77627 16.8109 4.95635L16.0772 5.69009C15.9844 5.78285 15.9253 5.90394 15.9093 6.03412C15.8933 6.16429 15.9212 6.2961 15.9887 6.40858C16.3425 6.99852 16.6072 7.63753 16.7743 8.30487C16.8062 8.43209 16.8796 8.54502 16.983 8.62572C17.0864 8.70642 17.2138 8.75026 17.3449 8.75027H18.3829C18.6379 8.75027 18.8236 8.93592 18.8236 9.19092V10.8092C18.8236 11.0642 18.6379 11.2499 18.3829 11.2499H17.3413C17.2101 11.2499 17.0827 11.2937 16.9793 11.3745C16.8759 11.4552 16.8024 11.5682 16.7706 11.6954C16.6039 12.3621 16.3397 13.0005 15.9866 13.59C15.9193 13.7025 15.8914 13.8343 15.9075 13.9644C15.9236 14.0945 15.9826 14.2155 16.0753 14.3082L16.8109 15.0438C16.991 15.2239 16.991 15.4876 16.8109 15.6676L15.6675 16.811C15.4875 16.9911 15.2238 16.9911 15.0437 16.811L14.3081 16.0754C14.2154 15.9827 14.0944 15.9236 13.9643 15.9075C13.8342 15.8915 13.7024 15.9193 13.5899 15.9867C13.0004 16.3398 12.362 16.604 11.6953 16.7707C11.5681 16.8025 11.4551 16.876 11.3744 16.9794C11.2937 17.0828 11.2498 17.2102 11.2498 17.3413V18.3829C11.2498 18.6379 11.0642 18.8236 10.8091 18.8236H9.19086C8.93589 18.8236 8.75018 18.6379 8.75018 18.3829V17.3413C8.75018 17.2102 8.70633 17.0828 8.6256 16.9794C8.54488 16.876 8.43192 16.8025 8.30467 16.7707C7.638 16.6039 6.99957 16.3398 6.41005 15.9867C6.29757 15.9193 6.16581 15.8915 6.0357 15.9075C5.90558 15.9236 5.78456 15.9827 5.69185 16.0754L4.95626 16.811C4.77618 16.9911 4.5125 16.9911 4.33242 16.811L3.18911 15.6676C3.00902 15.4875 3.00902 15.2239 3.18911 15.0438L3.92469 14.3082C4.01739 14.2155 4.07647 14.0945 4.09254 13.9644C4.10861 13.8343 4.08076 13.7025 4.0134 13.59C3.66028 13.0005 3.39614 12.3621 3.22946 11.6954C3.19763 11.5682 3.12418 11.4552 3.02079 11.3745C2.91739 11.2937 2.78997 11.2499 2.65879 11.2499H1.61715C1.36219 11.2499 1.1765 11.0642 1.1765 10.8092V9.19092C1.1765 8.93596 1.36215 8.75027 1.61715 8.75027H2.65879C2.78997 8.75026 2.91739 8.70641 3.02079 8.62568C3.12418 8.54494 3.19763 8.43197 3.22946 8.30471C3.3962 7.63804 3.66028 6.99966 4.0134 6.41014C4.08076 6.29766 4.10862 6.1659 4.09255 6.03577C4.07648 5.90565 4.0174 5.78463 3.92469 5.69192L3.18911 4.95635C3.00902 4.77627 3.00902 4.51257 3.18911 4.33248L4.33242 3.18917C4.5125 3.00909 4.77618 3.00909 4.95626 3.18917L5.69185 3.92476C5.78456 4.01746 5.90558 4.07653 6.0357 4.09261C6.16581 4.10868 6.29757 4.08082 6.41005 4.01347C6.99957 3.66035 7.638 3.3962 8.30467 3.2295C8.43192 3.19767 8.54488 3.12422 8.6256 3.02082C8.70633 2.91742 8.75018 2.79001 8.75018 2.65884V1.61722C8.75018 1.36223 8.93583 1.1765 9.19086 1.1765ZM9.99999 4.96638C7.22696 4.96638 4.96636 7.22701 4.96636 10.0001C4.96636 12.7731 7.22696 15.0337 9.99999 15.0337C12.773 15.0337 15.0336 12.7731 15.0336 10.0001C15.0336 7.22701 12.773 4.96638 9.99999 4.96638ZM9.99999 6.14286C12.1372 6.14286 13.8572 7.86284 13.8572 10.0001C13.8572 12.1373 12.1372 13.8572 9.99999 13.8572C7.86277 13.8572 6.14281 12.1373 6.14281 10.0001C6.14281 7.86284 7.86277 6.14286 9.99999 6.14286Z" fill="black"/>
</svg>
