<svg width="281" height="64" viewBox="0 0 281 64" fill="none" xmlns="http://www.w3.org/2000/svg">
<path d="M80.0005 5.14217L63.7144 33.4278L47.4287 61.7139H112.572L96.2862 33.4278L80.0005 5.14217Z" fill="white"/>
<path fill-rule="evenodd" clip-rule="evenodd" d="M43.4287 64H116.572L98.2862 32.2853L80.0005 0.571121L61.7144 32.2853L43.4287 64ZM51.7817 59.1709L65.8909 34.6999L80.0005 10.2293L108.219 59.1709H51.7817Z" fill="white"/>
<path d="M106.858 5.14217L90.5718 33.4278L74.2861 61.7139H139.429L123.144 33.4278L106.858 5.14217Z" fill="#FDD20C"/>
<path fill-rule="evenodd" clip-rule="evenodd" d="M70.2861 64H143.429L125.144 32.2853L106.858 0.571121L88.5718 32.2853L70.2861 64ZM78.6392 59.1709L92.7484 34.6999L106.858 10.2293L135.076 59.1709H78.6392Z" fill="#FDD20C"/>
<path fill-rule="evenodd" clip-rule="evenodd" d="M36.5714 63.4287L54.8575 31.7145L73.1432 -0.000167847H0L18.2857 31.7145L36.5714 63.4287ZM36.5714 53.7705L8.35304 4.82896H64.7902L50.681 29.2999L36.5714 53.7705Z" fill="#FDD20C"/>
<path d="M169.144 10.8568L163.743 25.1426H160.859L155.43 10.8568H159.304L162.301 19.6861L165.27 10.8568H169.144Z" fill="#FDD20C"/>
<path d="M180.031 17.9673C180.031 16.2111 179.757 15.0585 179.208 14.5098C178.787 14.0891 178.229 13.8786 177.534 13.8786C176.857 13.8786 176.308 14.0891 175.888 14.5098C175.339 15.0585 175.065 16.2111 175.065 17.9673C175.065 19.7417 175.339 20.9034 175.888 21.4521C176.308 21.8732 176.857 22.0833 177.534 22.0833C178.229 22.0833 178.787 21.8732 179.208 21.4521C179.757 20.9034 180.031 19.7417 180.031 17.9673ZM183.599 17.9673C183.599 19.3392 183.484 20.4505 183.256 21.3014C183.027 22.1518 182.602 22.8974 181.98 23.5377C180.882 24.7085 179.4 25.2939 177.534 25.2939C175.687 25.2939 174.214 24.7085 173.116 23.5377C172.494 22.8974 172.069 22.1518 171.84 21.3014C171.611 20.4505 171.497 19.3392 171.497 17.9673C171.497 16.6136 171.611 15.5114 171.84 14.6605C172.069 13.8101 172.494 13.0649 173.116 12.4242C174.214 11.2538 175.687 10.668 177.534 10.668C179.4 10.668 180.882 11.2538 181.98 12.4242C182.602 13.0649 183.027 13.8101 183.256 14.6605C183.484 15.5114 183.599 16.6136 183.599 17.9673Z" fill="#FDD20C"/>
<path d="M194.794 25.1289H192.845C191.491 25.1289 190.462 24.7268 189.758 23.9214C189.054 23.1167 188.701 22.1565 188.701 21.0402V13.9604H187.192V11.244H188.701V7.01816H192.269V11.244H194.794V13.9604H192.269V20.8205C192.269 21.6809 192.681 22.1102 193.504 22.1102H194.794V25.1289Z" fill="#FDD20C"/>
<path d="M207.554 16.6504C207.536 16.0836 207.426 15.5712 207.225 15.1134C206.786 14.1259 205.99 13.6317 204.838 13.6317C203.685 13.6317 202.889 14.1259 202.45 15.1134C202.248 15.5712 202.139 16.0836 202.121 16.6504H207.554ZM211.067 19.0927H202.121C202.121 20.0439 202.399 20.8122 202.958 21.3976C203.516 21.983 204.279 22.2757 205.249 22.2757C205.999 22.2757 206.608 22.1708 207.074 21.9599C207.541 21.7502 208.011 21.4067 208.487 20.9311L210.655 23.044C209.868 23.8309 209.073 24.4022 208.268 24.7589C207.462 25.1156 206.447 25.2939 205.222 25.2939C204.307 25.2939 203.479 25.1796 202.738 24.9509C201.997 24.7226 201.307 24.3432 200.666 23.8123C200.026 23.2818 199.523 22.5226 199.157 21.5347C198.791 20.5467 198.608 19.3582 198.608 17.9673C198.608 15.6806 199.175 13.8926 200.31 12.6029C201.444 11.3132 202.953 10.6684 204.838 10.6684C206.776 10.6684 208.299 11.3041 209.406 12.5753C210.513 13.8468 211.067 15.4887 211.067 17.5008V19.0927Z" fill="#FDD20C"/>
<path d="M175.037 50.8926H172.951V36.047L167.6 47.8194H165.816L160.383 36.047V50.8926H158.298V31.3547H160.383L166.749 45.2124L172.951 31.3547H175.037V50.8926Z" fill="#FDD20C"/>
<path d="M192.653 45.6106C192.818 44.7598 192.9 43.2645 192.9 41.1243C192.9 38.9838 192.818 37.4885 192.653 36.638C192.489 35.7872 192.113 35.0598 191.528 34.4558C190.632 33.5232 189.506 33.0567 188.153 33.0567C186.799 33.0567 185.674 33.5232 184.778 34.4558C184.192 35.0598 183.818 35.7872 183.652 36.638C183.488 37.4885 183.406 38.9838 183.406 41.1243C183.406 43.2645 183.488 44.7598 183.652 45.6106C183.818 46.4615 184.192 47.1885 184.778 47.7925C185.674 48.7255 186.799 49.192 188.153 49.192C189.506 49.192 190.632 48.7255 191.528 47.7925C192.113 47.1885 192.489 46.4615 192.653 45.6106ZM194.697 36.0064C194.889 37.0216 194.986 38.7278 194.986 41.1243C194.986 43.5209 194.889 45.2267 194.697 46.2419C194.505 47.257 193.988 48.1859 193.147 49.0269C191.793 50.3814 190.129 51.0576 188.153 51.0576C186.177 51.0576 184.512 50.3814 183.159 49.0269C182.317 48.1859 181.8 47.257 181.608 46.2419C181.416 45.2267 181.32 43.5209 181.32 41.1243C181.32 38.7278 181.416 37.0216 181.608 36.0064C181.8 34.9912 182.317 34.0628 183.159 33.2214C184.512 31.8677 186.177 31.1907 188.153 31.1907C190.129 31.1907 191.793 31.8677 193.147 33.2214C193.988 34.0628 194.505 34.9912 194.697 36.0064Z" fill="#FDD20C"/>
<path d="M215.703 50.8926H213.728L203.355 35.2238V50.8926H201.27V31.3547H203.245L213.617 46.9686V31.3547H215.703V50.8926Z" fill="#FDD20C"/>
<path d="M224.814 50.8926H222.729V31.3547H224.814V50.8926Z" fill="#FDD20C"/>
<path d="M243.226 33.2207H237.574V50.8926H235.488V33.2207H229.835V31.3542H243.226V33.2207Z" fill="#FDD20C"/>
<path d="M258.291 45.6106C258.456 44.7598 258.538 43.2645 258.538 41.1243C258.538 38.9838 258.456 37.4885 258.291 36.638C258.126 35.7872 257.751 35.0598 257.166 34.4558C256.27 33.5232 255.144 33.0567 253.791 33.0567C252.436 33.0567 251.312 33.5232 250.416 34.4558C249.83 35.0598 249.455 35.7872 249.29 36.638C249.126 37.4885 249.044 38.9838 249.044 41.1243C249.044 43.2645 249.126 44.7598 249.29 45.6106C249.455 46.4615 249.83 47.1885 250.416 47.7925C251.312 48.7255 252.436 49.192 253.791 49.192C255.144 49.192 256.27 48.7255 257.166 47.7925C257.751 47.1885 258.126 46.4615 258.291 45.6106ZM260.335 36.0064C260.527 37.0216 260.623 38.7278 260.623 41.1243C260.623 43.5209 260.527 45.2267 260.335 46.2419C260.143 47.257 259.626 48.1859 258.785 49.0269C257.431 50.3814 255.766 51.0576 253.791 51.0576C251.815 51.0576 250.15 50.3814 248.796 49.0269C247.955 48.1859 247.438 47.257 247.246 46.2419C247.054 45.2267 246.958 43.5209 246.958 41.1243C246.958 38.7278 247.054 37.0216 247.246 36.0064C247.438 34.9912 247.955 34.0628 248.796 33.2214C250.15 31.8677 251.815 31.1907 253.791 31.1907C255.766 31.1907 257.431 31.8677 258.785 33.2214C259.626 34.0628 260.143 34.9912 260.335 36.0064Z" fill="#FDD20C"/>
<path d="M277.047 39.4632C277.75 38.8505 278.103 37.9679 278.103 36.8152C278.103 35.6626 277.746 34.7758 277.033 34.1537C276.319 33.532 275.377 33.2207 274.207 33.2207H268.992V40.3826H274.207C275.396 40.3826 276.342 40.0762 277.047 39.4632ZM280.573 50.8926H278.131L273.685 42.2213H268.992V50.8926H266.907V31.3542H274.399C276.118 31.3542 277.513 31.8439 278.583 32.8227C279.653 33.8015 280.189 35.123 280.189 36.788C280.189 38.1784 279.805 39.3311 279.036 40.2455C278.268 41.1599 277.234 41.7544 275.936 42.029L280.573 50.8926Z" fill="#FDD20C"/>
</svg>
