<svg width="880" height="200" viewBox="0 0 880 200" fill="none" xmlns="http://www.w3.org/2000/svg">
<path d="M529.871 34.3042L513.453 79.0901H504.685L488.18 34.3042H499.957L509.069 61.9827L518.095 34.3042H529.871Z" fill="#231F20"/>
<path d="M564.771 56.6543C564.771 51.1528 563.911 47.5433 562.192 45.8232C560.873 44.5054 559.125 43.8471 556.948 43.8471C554.828 43.8471 553.108 44.5054 551.79 45.8232C550.071 47.5433 549.213 51.1528 549.213 56.6543C549.213 62.2141 550.071 65.8521 551.79 67.5708C553.108 68.8912 554.828 69.5495 556.948 69.5495C559.125 69.5495 560.873 68.8912 562.192 67.5708C563.911 65.8521 564.771 62.2141 564.771 56.6543ZM575.946 56.6543C575.946 60.9532 575.586 64.4346 574.872 67.0988C574.155 69.7642 572.822 72.0985 570.875 74.1044C567.436 77.7734 562.794 79.606 556.948 79.606C551.16 79.606 546.547 77.7734 543.108 74.1044C541.159 72.0985 539.827 69.7642 539.111 67.0988C538.393 64.4346 538.036 60.9532 538.036 56.6543C538.036 52.415 538.393 48.962 539.111 46.2965C539.827 43.6324 541.159 41.2968 543.108 39.2896C546.547 35.6232 551.16 33.7881 556.948 33.7881C562.794 33.7881 567.436 35.6232 570.875 39.2896C572.822 41.2968 574.155 43.6324 574.872 46.2965C575.586 48.962 575.946 52.415 575.946 56.6543Z" fill="#231F20"/>
<path d="M611.021 79.0901H604.917C600.676 79.0901 597.452 77.8292 595.247 75.3073C593.041 72.7867 591.936 69.7786 591.936 66.2816V44.1033H587.209V35.5936H591.936V22.3557H603.113V35.5936H611.021V44.1033H603.113V65.5935C603.113 68.2874 604.402 69.6337 606.981 69.6337H611.021V79.0901Z" fill="#231F20"/>
<path d="M650.992 52.5288C650.934 50.7531 650.59 49.1482 649.96 47.7153C648.585 44.6205 646.092 43.0724 642.482 43.0724C638.871 43.0724 636.378 44.6205 635.003 47.7153C634.371 49.1482 634.028 50.7531 633.971 52.5288H650.992ZM661.995 60.1798H633.971C633.971 63.1608 634.844 65.5675 636.593 67.4001C638.341 69.2352 640.732 70.1509 643.77 70.1509C646.12 70.1509 648.026 69.8224 649.488 69.1628C650.949 68.5058 652.423 67.4298 653.915 65.9387L660.706 72.5576C658.241 75.0239 655.748 76.8125 653.227 77.9312C650.703 79.0486 647.523 79.606 643.685 79.606C640.819 79.606 638.226 79.2477 635.906 78.5325C633.584 77.8174 631.421 76.6289 629.415 74.9657C627.409 73.3026 625.833 70.9255 624.687 67.8308C623.54 64.7347 622.968 61.0114 622.968 56.6543C622.968 49.4922 624.744 43.8898 628.298 39.8496C631.85 35.8094 636.577 33.7893 642.482 33.7893C648.555 33.7893 653.326 35.7823 656.793 39.7643C660.261 43.7475 661.995 48.8908 661.995 55.1942V60.1798Z" fill="#231F20"/>
<path d="M549.127 159.796H542.593V113.29L525.83 150.169H520.243L503.222 113.29V159.796H496.69V98.5925H503.222L523.166 142.002L542.593 98.5925H549.127V159.796Z" fill="#231F20"/>
<path d="M604.314 143.25C604.83 140.585 605.088 135.899 605.088 129.195C605.088 122.489 604.83 117.805 604.314 115.141C603.799 112.476 602.622 110.197 600.789 108.306C597.982 105.385 594.456 103.922 590.217 103.922C585.974 103.922 582.451 105.385 579.643 108.306C577.808 110.197 576.635 112.476 576.118 115.141C575.603 117.805 575.346 122.489 575.346 129.195C575.346 135.899 575.603 140.585 576.118 143.25C576.635 145.916 577.808 148.192 579.643 150.084C582.451 153.007 585.974 154.468 590.217 154.468C594.456 154.468 597.982 153.007 600.789 150.084C602.622 148.192 603.799 145.916 604.314 143.25ZM610.718 113.162C611.319 116.344 611.62 121.688 611.62 129.195C611.62 136.704 611.319 142.046 610.718 145.226C610.116 148.408 608.496 151.316 605.86 153.952C601.62 158.194 596.405 160.312 590.217 160.312C584.026 160.312 578.812 158.194 574.571 153.952C571.934 151.316 570.316 148.408 569.715 145.226C569.112 142.046 568.812 136.704 568.812 129.195C568.812 121.688 569.112 116.344 569.715 113.162C570.316 109.982 571.934 107.075 574.571 104.438C578.812 100.197 584.026 98.0763 590.217 98.0763C596.405 98.0763 601.62 100.197 605.86 104.438C608.496 107.075 610.116 109.982 610.718 113.162Z" fill="#231F20"/>
<path d="M676.521 159.796H670.332L637.838 110.713V159.796H631.305V98.5925H637.494L669.987 147.504V98.5925H676.521V159.796Z" fill="#231F20"/>
<path d="M705.06 159.796H698.528V98.5925H705.06V159.796Z" fill="#231F20"/>
<path d="M762.74 104.437H745.032V159.796H738.499V104.437H720.79V98.5912H762.74V104.437Z" fill="#231F20"/>
<path d="M809.933 143.25C810.449 140.585 810.708 135.899 810.708 129.195C810.708 122.489 810.449 117.805 809.933 115.141C809.419 112.476 808.242 110.197 806.409 108.306C803.602 105.385 800.076 103.922 795.837 103.922C791.594 103.922 788.071 105.385 785.263 108.306C783.428 110.197 782.255 112.476 781.738 115.141C781.223 117.805 780.965 122.489 780.965 129.195C780.965 135.899 781.223 140.585 781.738 143.25C782.255 145.916 783.428 148.192 785.263 150.084C788.071 153.007 791.594 154.468 795.837 154.468C800.076 154.468 803.602 153.007 806.409 150.084C808.242 148.192 809.419 145.916 809.933 143.25ZM816.338 113.162C816.939 116.344 817.24 121.688 817.24 129.195C817.24 136.704 816.939 142.046 816.338 145.226C815.736 148.408 814.116 151.316 811.48 153.952C807.24 158.194 802.025 160.312 795.837 160.312C789.646 160.312 784.431 158.194 780.191 153.952C777.554 151.316 775.936 148.408 775.335 145.226C774.732 142.046 774.432 136.704 774.432 129.195C774.432 121.688 774.732 116.344 775.335 113.162C775.936 109.982 777.554 107.075 780.191 104.438C784.431 100.197 789.646 98.0763 795.837 98.0763C802.025 98.0763 807.24 100.197 811.48 104.438C814.116 107.075 815.736 109.982 816.338 113.162Z" fill="#231F20"/>
<path d="M868.686 123.992C870.891 122.074 871.997 119.308 871.997 115.697C871.997 112.088 870.878 109.309 868.644 107.36C866.408 105.412 863.456 104.437 859.79 104.437H843.456V126.874H859.79C863.514 126.874 866.48 125.913 868.686 123.992ZM879.732 159.796H872.082L858.155 132.633H843.456V159.796H836.924V98.5912H860.391C865.778 98.5912 870.148 100.125 873.501 103.19C876.852 106.256 878.529 110.397 878.529 115.612C878.529 119.968 877.327 123.578 874.919 126.443C872.512 129.309 869.273 131.171 865.206 132.03L879.732 159.796Z" fill="#231F20"/>
<path d="M251.63 16.1984L200.756 104.311L149.885 192.426H353.374L302.502 104.311L251.63 16.1984Z" fill="#5F2D8C"/>
<path fill-rule="evenodd" clip-rule="evenodd" d="M136.767 200H366.491L309.06 100.526L251.629 1.05286L194.197 100.526L136.767 200ZM163.001 184.853L207.315 108.099L251.629 31.3461L340.256 184.853H163.001Z" fill="#5F2D8C"/>
<path d="M335.588 16.1984L284.714 104.311L233.842 192.426H437.331L386.46 104.311L335.588 16.1984Z" fill="#231F20"/>
<path fill-rule="evenodd" clip-rule="evenodd" d="M220.726 200H450.45L393.019 100.526L335.589 1.05286L278.157 100.526L220.726 200ZM246.961 184.853L291.274 108.099L335.589 31.3461L424.215 184.853H246.961Z" fill="#231F20"/>
<path fill-rule="evenodd" clip-rule="evenodd" d="M114.861 198.947L172.293 99.4745L229.724 0.0001272H0L57.4306 99.4744L114.861 198.947ZM114.861 168.654L26.2347 15.1469H203.489L159.176 91.901L114.861 168.654Z" fill="#231F20"/>
</svg>
