<svg width="24" height="24" viewBox="0 0 24 24" fill="none" xmlns="http://www.w3.org/2000/svg">
<path d="M12.911 15.75H7.81836V17H12.911V15.75Z" fill="black"/>
<path d="M18.8452 6.6L14.5802 2.4125C14.3039 2.14812 13.9341 2 13.5486 2H5.90972C4.85524 2 4 2.83969 4 3.875V20.125C4 21.1603 4.85524 22 5.90972 22H17.3681C18.4225 22 19.2778 21.1603 19.2778 20.125V7.625C19.2762 7.24094 19.1209 6.8725 18.8452 6.6ZM14.1852 3.7875L17.4572 7H15.2419C14.6562 6.99312 14.1852 6.525 14.1852 5.95V3.7875ZM18.0046 20.125C18.0046 20.47 17.7194 20.75 17.3681 20.75H5.90972C5.55833 20.75 5.27315 20.47 5.27315 20.125V3.875C5.27315 3.53 5.55833 3.25 5.90972 3.25H12.912V5.95C12.9085 6.55875 13.1527 7.14375 13.59 7.57562C14.0273 8.0075 14.6216 8.25 15.2419 8.25H18.0046V20.125Z" fill="black"/>
<path d="M15.4572 10.75H7.81836V12H15.4572V10.75Z" fill="black"/>
<path d="M15.4572 13.25H7.81836V14.5H15.4572V13.25Z" fill="black"/>
</svg>
