<svg width="183" height="170" viewBox="0 0 183 170" fill="none" xmlns="http://www.w3.org/2000/svg">
<g clip-path="url(#clip0_2894_34166)">
<path d="M93.6727 168.197C92.7856 168.197 91.8894 168.183 91.0097 168.155L91.0297 167.517C92.2928 167.556 93.5819 167.567 94.8509 167.549L94.8597 168.189C94.4647 168.194 94.069 168.197 93.6727 168.197ZM98.7075 168.049L98.67 167.41C99.9351 167.336 101.216 167.231 102.478 167.099L102.545 167.734C101.273 167.868 99.9825 167.974 98.7075 168.049ZM87.1653 167.949C85.8897 167.851 84.6006 167.723 83.3337 167.568L83.4118 166.933C84.669 167.087 85.9481 167.215 87.214 167.311L87.1653 167.949ZM106.364 167.246L106.268 166.614C107.525 166.423 108.791 166.202 110.031 165.955L110.156 166.582C108.906 166.83 107.63 167.054 106.364 167.246ZM79.5242 167.012C78.264 166.798 76.992 166.553 75.7435 166.282L75.8792 165.657C77.1181 165.926 78.3803 166.169 79.631 166.381L79.5242 167.012ZM113.915 165.745L113.761 165.124C114.995 164.819 116.235 164.482 117.449 164.122L117.63 164.735C116.408 165.098 115.158 165.438 113.915 165.745ZM72.0008 165.378C70.7647 165.05 69.5207 164.688 68.3035 164.303L68.4962 163.693C69.7042 164.075 70.9386 164.434 72.165 164.76L72.0008 165.378ZM121.295 163.555L121.086 162.951C122.283 162.535 123.487 162.085 124.665 161.614L124.902 162.208C123.715 162.683 122.502 163.136 121.295 163.555ZM64.6502 163.054C63.4497 162.613 62.2417 162.137 61.06 161.639L61.3083 161.05C62.4809 161.544 63.6795 162.016 64.871 162.454L64.6502 163.054ZM128.435 160.698L128.171 160.116C129.32 159.594 130.476 159.036 131.606 158.459L131.897 159.028C130.758 159.61 129.594 160.172 128.435 160.698ZM57.54 160.061C56.386 159.511 55.2276 158.926 54.0975 158.322L54.3988 157.758C55.5205 158.357 56.6698 158.938 57.8151 159.484L57.54 160.061ZM135.278 157.201L134.961 156.645C136.064 156.016 137.165 155.355 138.232 154.679L138.574 155.22C137.498 155.9 136.389 156.567 135.278 157.201ZM50.7395 156.427C49.6418 155.774 48.5426 155.086 47.4726 154.381L47.8246 153.847C48.8863 154.547 49.9771 155.23 51.0664 155.878L50.7395 156.427ZM141.777 153.089L141.411 152.565C142.449 151.84 143.485 151.08 144.49 150.308L144.88 150.815C143.867 151.593 142.823 152.359 141.777 153.089ZM44.3037 152.189C43.2715 151.439 42.2404 150.654 41.2388 149.854L41.6378 149.354C42.6318 150.148 43.6551 150.927 44.6794 151.671L44.3037 152.189ZM147.877 148.401L147.465 147.912C148.432 147.095 149.395 146.244 150.328 145.382L150.762 145.852C149.823 146.72 148.852 147.578 147.877 148.401ZM38.2841 147.382C37.3227 146.54 36.3676 145.665 35.4455 144.779L35.8883 144.318C36.8036 145.197 37.7513 146.066 38.7053 146.901L38.2841 147.382ZM153.528 143.174L153.073 142.725C153.965 141.821 154.847 140.885 155.695 139.944L156.17 140.372C155.316 141.32 154.427 142.263 153.528 143.174ZM32.7291 142.051C31.847 141.123 30.976 140.165 30.14 139.202L30.6231 138.783C31.4526 139.738 32.317 140.69 33.1924 141.61L32.7291 142.051ZM158.683 137.453L158.189 137.047C158.995 136.066 159.788 135.054 160.548 134.038L161.06 134.421C160.295 135.444 159.495 136.465 158.683 137.453ZM27.6838 136.238C26.8918 135.238 26.1119 134.204 25.3657 133.167L25.8847 132.794C26.6252 133.823 27.3992 134.848 28.1853 135.842L27.6838 136.238ZM163.297 131.283L162.768 130.924C163.481 129.874 164.179 128.793 164.844 127.711L165.389 128.046C164.719 129.136 164.015 130.225 163.297 131.283ZM23.1907 129.995C22.4939 128.926 21.8119 127.827 21.1634 126.727L21.7143 126.402C22.3579 127.494 23.0347 128.585 23.7263 129.645L23.1907 129.995ZM167.33 124.715L166.771 124.406C167.385 123.295 167.981 122.154 168.544 121.014L169.118 121.298C168.55 122.446 167.949 123.596 167.33 124.715ZM19.2881 123.37C18.6917 122.243 18.1133 121.086 17.5692 119.933L18.1475 119.66C18.6876 120.805 19.2614 121.953 19.8533 123.071L19.2881 123.37ZM170.746 117.801L170.16 117.545C170.67 116.381 171.159 115.189 171.615 114.002L172.212 114.231C171.753 115.427 171.259 116.628 170.746 117.801ZM16.0102 116.421C15.5199 115.245 15.0504 114.041 14.6148 112.843L15.2159 112.624C15.6481 113.813 16.114 115.008 16.6003 116.175L16.0102 116.421ZM173.511 110.597L172.904 110.395C173.303 109.193 173.68 107.964 174.023 106.742L174.639 106.915C174.293 108.146 173.913 109.385 173.511 110.597ZM13.3829 109.195C13.0024 107.976 12.6448 106.731 12.3202 105.494L12.9388 105.332C13.2609 106.56 13.6158 107.795 13.9933 109.005L13.3829 109.195ZM175.596 103.185L174.973 103.04C175.259 101.808 175.521 100.549 175.751 99.2995L176.38 99.4151C176.148 100.674 175.884 101.943 175.596 103.185ZM11.4296 101.748C11.1629 100.499 10.9215 99.2265 10.7123 97.9652L11.3431 97.8603C11.5509 99.1122 11.7904 100.375 12.055 101.614L11.4296 101.748ZM176.989 95.6138L176.355 95.527C176.527 94.2745 176.673 92.9973 176.787 91.7307L177.424 91.7881C177.309 93.0647 177.162 94.3516 176.989 95.6138ZM10.1692 94.1536C10.0184 92.8877 9.89458 91.5983 9.80107 90.3214L10.439 90.2746C10.5316 91.5421 10.6547 92.8214 10.8044 94.078L10.1692 94.1536ZM177.685 87.9472L177.046 87.9185C177.103 86.6513 177.132 85.366 177.132 84.0985H177.771C177.771 85.3757 177.742 86.6706 177.685 87.9472ZM9.60732 86.4758C9.58546 85.6917 9.57438 84.8916 9.57422 84.0985C9.57422 83.6063 9.57843 83.1151 9.58687 82.6249L10.2264 82.6361C10.218 83.1226 10.2137 83.6101 10.2137 84.0985C10.2139 84.8857 10.225 85.6798 10.2465 86.4583L9.60732 86.4758ZM177.127 83.2063C177.114 81.9383 177.071 80.6532 177.001 79.3863L177.639 79.3507C177.71 80.6273 177.753 81.9221 177.767 83.1994L177.127 83.2063ZM10.3782 78.8181L9.73992 78.7782C9.81971 77.5004 9.92994 76.2097 10.0672 74.9421L10.703 75.0109C10.5667 76.269 10.4575 77.5498 10.3782 78.8181ZM176.702 75.5774C176.574 74.3166 176.415 73.0409 176.23 71.7856L176.863 71.6922C177.049 72.9571 177.209 74.2424 177.338 75.5127L176.702 75.5774ZM11.2009 71.2227L10.5688 71.125C10.7648 69.8598 10.9924 68.5847 11.2455 67.3345L11.8722 67.4613C11.6212 68.7019 11.3953 69.9674 11.2009 71.2227ZM175.584 68.0201C175.341 66.7726 175.065 65.5168 174.766 64.2877L175.388 64.1365C175.689 65.375 175.966 66.6405 176.212 67.8974L175.584 68.0201ZM12.7157 63.7348L12.0954 63.5793C12.4059 62.3407 12.7499 61.0917 13.1178 59.867L13.7301 60.0509C13.3652 61.2663 13.0239 62.5057 12.7157 63.7348ZM173.777 60.5968C173.42 59.3791 173.031 58.1542 172.619 56.9557L173.223 56.7477C173.639 57.9554 174.032 59.19 174.391 60.4169L173.777 60.5968ZM14.9173 56.4078L14.3139 56.1958C14.7389 54.9868 15.1978 53.772 15.6778 52.5853L16.2708 52.8251C15.7944 54.0027 15.339 55.2082 14.9173 56.4078ZM171.294 53.3717C170.827 52.1948 170.327 51.0136 169.808 49.8609L170.392 49.5983C170.915 50.7599 171.418 51.9501 171.888 53.136L171.294 53.3717ZM17.7876 49.3099L17.2065 49.0429C17.7406 47.8797 18.3091 46.7132 18.8962 45.5759L19.4645 45.8691C18.8818 46.9978 18.3177 48.1554 17.7876 49.3099ZM168.164 46.4206C167.591 45.2915 166.985 44.1602 166.361 43.0583L166.918 42.7433C167.546 43.8537 168.157 44.9936 168.734 46.1314L168.164 46.4206ZM21.2977 42.51L20.7434 42.1909C21.3814 41.0831 22.0542 39.9742 22.7432 38.8953L23.2822 39.2394C22.5985 40.3102 21.9307 41.4106 21.2977 42.51ZM164.406 39.7807C163.731 38.705 163.023 37.6332 162.303 36.5953L162.828 36.2308C163.554 37.2768 164.267 38.3566 164.948 39.4407L164.406 39.7807ZM25.4141 36.0639L24.8913 35.6954C25.6286 34.6498 26.3994 33.6076 27.1829 32.5977L27.6882 32.9896C26.9108 33.992 26.1456 35.0262 25.4141 36.0639ZM160.056 33.5083C159.285 32.4989 158.483 31.4954 157.67 30.5258L158.16 30.115C158.979 31.0921 159.788 32.1031 160.564 33.1201L160.056 33.5083ZM30.0997 30.0232L29.6129 29.6085C30.4403 28.6367 31.3026 27.6694 32.1759 26.7336L32.6433 27.1698C31.7768 28.0987 30.921 29.0587 30.0997 30.0232ZM155.151 27.6543C154.292 26.7192 153.4 25.7924 152.502 24.8999L152.953 24.4462C153.858 25.3457 154.756 26.2794 155.622 27.2215L155.151 27.6543ZM35.3134 24.4362L34.8662 23.979C35.7807 23.0844 36.727 22.1998 37.6787 21.3502L38.1046 21.8273C37.1602 22.6704 36.221 23.5482 35.3134 24.4362ZM149.731 22.2682C148.79 21.4143 147.818 20.5721 146.842 19.7651L147.25 19.2723C148.233 20.0855 149.212 20.9341 150.161 21.7945L149.731 22.2682ZM41.0111 19.3482L40.6073 18.8523C41.5965 18.0468 42.6187 17.2524 43.6457 16.4911L44.0267 17.0047C43.0073 17.7604 41.9927 18.5488 41.0111 19.3482ZM143.842 17.3954C142.826 16.6305 141.781 15.8799 140.736 15.1647L141.097 14.6369C142.15 15.3575 143.203 16.1137 144.227 16.8845L143.842 17.3954ZM47.1449 14.802L46.788 14.2714C47.8466 13.5591 48.9364 12.8617 50.0273 12.1979L50.3596 12.7444C49.2771 13.403 48.1955 14.0953 47.1449 14.802ZM137.53 13.0781C136.449 12.4092 135.339 11.7572 134.231 11.1398L134.542 10.5812C135.659 11.2032 136.777 11.8604 137.866 12.5341L137.53 13.0781ZM53.6642 10.8364L53.3573 10.2753C54.4772 9.66246 55.6256 9.06789 56.7704 8.50784L57.0514 9.08241C55.9154 9.6381 54.7757 10.2281 53.6642 10.8364ZM130.846 9.35471C129.708 8.78778 128.543 8.24005 127.382 7.72684L127.64 7.14196C128.81 7.65908 129.985 8.21102 131.132 8.78232L130.846 9.35471ZM60.5142 7.48593L60.26 6.89917C61.4304 6.39188 62.6277 5.90537 63.8184 5.45304L64.0454 6.05103C62.8637 6.49976 61.6757 6.98255 60.5142 7.48593ZM123.844 6.25979C122.66 5.8006 121.448 5.36248 120.242 4.95779L120.446 4.35136C121.661 4.75934 122.882 5.20073 124.076 5.66367L123.844 6.25979ZM67.6477 4.77713L67.4485 4.16945C68.6639 3.77099 69.9039 3.39579 71.1339 3.05464L71.3049 3.67075C70.0842 4.0094 68.8537 4.38162 67.6477 4.77713ZM116.592 3.82626C115.373 3.47855 114.128 3.15472 112.895 2.86384L113.041 2.24148C114.285 2.53455 115.538 2.86087 116.768 3.21109L116.592 3.82626ZM75.0094 2.73409L74.867 2.11064C76.113 1.826 77.3822 1.56666 78.6392 1.33995L78.7529 1.96918C77.5052 2.19432 76.2458 2.45164 75.0094 2.73409ZM109.156 2.07317C107.911 1.83943 106.643 1.63147 105.386 1.45502L105.475 0.821741C106.741 0.999578 108.019 1.20911 109.275 1.44456L109.156 2.07317ZM82.5278 1.37727L82.4432 0.743357C83.7091 0.574418 84.9966 0.432336 86.2697 0.321486L86.3253 0.95852C85.0619 1.06874 83.7844 1.20958 82.5278 1.37727ZM101.591 1.01035C100.331 0.891687 99.0491 0.800191 97.7798 0.738828L97.811 0.0999295C99.0897 0.161903 100.382 0.254042 101.651 0.373631L101.591 1.01035ZM90.1388 0.713223L90.1119 0.0743236C91.2873 0.0252936 92.4852 0.000312709 93.6728 0L93.9622 0.000455467L93.9604 0.639992L93.6728 0.639519C92.4942 0.639832 91.3051 0.664665 90.1388 0.713223Z" fill="#E6E6E6"/>
<path d="M93.875 167.76V132.789C93.8756 132.299 94.0704 131.83 94.4168 131.483C94.7633 131.137 95.2329 130.942 95.7228 130.941H99.9187C100.409 130.942 100.878 131.137 101.225 131.483C101.571 131.83 101.766 132.299 101.767 132.789V167.76C101.766 168.25 101.571 168.72 101.225 169.066C100.878 169.412 100.409 169.607 99.9187 169.608H95.7228C95.2329 169.607 94.7633 169.412 94.4168 169.066C94.0704 168.72 93.8756 168.25 93.875 167.76Z" fill="#2F2E41"/>
<path d="M85.5762 167.76V132.789C85.5767 132.299 85.7716 131.83 86.118 131.483C86.4644 131.137 86.9341 130.942 87.424 130.941H91.6199C92.1098 130.942 92.5795 131.137 92.9259 131.483C93.2723 131.83 93.4672 132.299 93.4677 132.789V167.76C93.4672 168.25 93.2723 168.72 92.9259 169.066C92.5795 169.412 92.1098 169.607 91.6199 169.608H87.424C86.9341 169.607 86.4644 169.412 86.118 169.066C85.7716 168.72 85.5767 168.25 85.5762 167.76Z" fill="#2F2E41"/>
<path d="M102.165 121.244H85.1764C84.2344 121.244 83.4707 122.008 83.4707 122.95V142.14C83.4707 143.082 84.2344 143.846 85.1764 143.846H102.165C103.107 143.846 103.871 143.082 103.871 142.14V122.95C103.871 122.008 103.107 121.244 102.165 121.244Z" fill="#2F2E41"/>
<path d="M65.1107 66.3012C65.1107 66.3012 56.5372 70.2841 49.282 72.9255C44.7798 62.7621 38.2937 63.1425 38.2937 63.1425L34.3614 65.8501L35.0705 69.9112L34.8771 76.551L33.8457 80.0321L35.3258 80.2995L36.1619 80.4511L36.2879 80.3372C36.0793 81.1638 35.9949 82.017 36.0375 82.8685L73.2332 77.0668C73.2332 77.0668 71.9439 71.0717 65.1107 66.3012Z" fill="#E6E6E6"/>
<path d="M54.1272 118.575L56.621 121.95C57.1809 122.707 58.2489 122.867 59.0065 122.308L87.13 101.523C87.8876 100.963 88.0478 99.8947 87.4879 99.1371L84.9941 95.7628C84.4342 95.0052 83.3662 94.845 82.6086 95.4049L54.4851 116.19C53.7275 116.75 53.5673 117.818 54.1272 118.575Z" fill="#F0E5FF"/>
<path d="M102.049 94.6164L98.3426 96.5832C97.5105 97.0248 97.1939 98.0574 97.6355 98.8895L114.028 129.78C114.47 130.612 115.503 130.929 116.335 130.487L120.041 128.52C120.873 128.078 121.19 127.046 120.748 126.214L104.355 95.3235C103.914 94.4914 102.881 94.1748 102.049 94.6164Z" fill="#F0E5FF"/>
<path d="M112.439 108.326L106.386 112.338C105.461 112.829 104.353 112.553 103.911 111.721L97.2264 99.1237C96.7848 98.2915 97.1767 97.2191 98.1017 96.7282L102.222 94.5417C103.147 94.0509 104.255 94.3275 104.696 95.1596L113.314 105.93C113.756 106.762 113.364 107.835 112.439 108.326Z" fill="#CCCCCC"/>
<path d="M71.1886 104.636L75.1229 109.861C75.4325 110.191 75.8604 110.384 76.3126 110.398C76.7647 110.413 77.204 110.247 77.5339 109.937L87.9318 100.178C88.2617 99.868 88.455 99.4401 88.4693 98.9879C88.4836 98.5358 88.3178 98.0965 88.0082 97.7666L85.1366 94.7073C84.827 94.3775 84.3991 94.1841 83.9469 94.1698C83.4948 94.1555 83.0555 94.3214 82.7257 94.631L71.2649 102.225C70.9351 102.535 70.7417 102.963 70.7274 103.415C70.7131 103.867 70.879 104.306 71.1886 104.636Z" fill="#CCCCCC"/>
<path d="M103.204 94.1143H84.1393C83.1973 94.1143 82.4336 94.8779 82.4336 95.8199V136.323C82.4336 137.265 83.1973 138.029 84.1393 138.029H103.204C104.146 138.029 104.91 137.265 104.91 136.323V95.8199C104.91 94.8779 104.146 94.1143 103.204 94.1143Z" fill="#CCCCCC"/>
<path d="M93.5602 91.4709C101.963 91.4709 108.775 84.6592 108.775 76.2565C108.775 67.8537 101.963 61.042 93.5602 61.042C85.1574 61.042 78.3457 67.8537 78.3457 76.2565C78.3457 84.6592 85.1574 91.4709 93.5602 91.4709Z" fill="#F0E5FF"/>
<path d="M95.3318 81.3361C94.3917 81.3097 93.2219 81.277 92.3215 80.619C92.0532 80.415 91.8327 80.1547 91.6755 79.8565C91.5184 79.5582 91.4284 79.2292 91.4118 78.8925C91.3955 78.6533 91.4348 78.4135 91.5265 78.192C91.6183 77.9705 91.76 77.7731 91.9407 77.6155C92.4109 77.2179 93.0983 77.1241 93.839 77.3423L93.0717 71.7344L93.6352 71.6572L94.5369 78.2498L94.0667 78.0341C93.5217 77.7837 92.773 77.6566 92.3077 78.0497C92.1935 78.1524 92.1045 78.2801 92.0477 78.4228C91.9909 78.5655 91.9677 78.7194 91.9801 78.8725C91.9938 79.1231 92.0614 79.3678 92.1782 79.59C92.295 79.8121 92.4583 80.0065 92.6569 80.1598C93.3573 80.6718 94.2901 80.7381 95.3479 80.7675L95.3318 81.3361Z" fill="#2F2E41"/>
<path d="M90.2867 72.2178H87.2246V72.7863H90.2867V72.2178Z" fill="#2F2E41"/>
<path d="M99.9528 72.2178H96.8906V72.7863H99.9528V72.2178Z" fill="#2F2E41"/>
<path d="M83.5084 64.3671C81.0425 64.0859 79.1327 61.7232 78.9229 59.3259C78.6734 56.474 80.3342 53.7653 82.6129 52.1649C84.9957 50.4913 87.9646 49.7924 90.8371 49.6385C96.4407 49.3597 101.948 51.1748 106.287 54.731C108.44 56.5187 110.45 58.7959 111.212 61.5465C111.873 63.9352 111.335 66.6414 109.414 68.3144C108.939 68.7244 108.383 69.0314 107.784 69.2161C107.184 69.4008 106.552 69.4592 105.928 69.3875C104.438 69.2327 103.062 68.4489 101.872 67.5832C99.5557 65.8993 97.6544 63.5534 94.8327 62.6735C92.7638 62.0283 90.079 62.5962 88.8147 64.4671C88.5278 64.8954 88.3419 65.3833 88.271 65.8939C88.2448 66.0028 88.2611 66.1175 88.3164 66.2149C88.3717 66.3123 88.4619 66.385 88.5688 66.4184C88.6778 66.4478 88.794 66.433 88.8922 66.3772C88.9904 66.3215 89.0627 66.2293 89.0934 66.1206C89.4253 63.7641 92.3228 62.8847 94.3561 63.4229C97.3208 64.2075 99.3109 66.8531 101.743 68.5339C103.022 69.4175 104.477 70.1241 106.045 70.2509C107.397 70.357 108.739 69.9448 109.799 69.0978C111.877 67.457 112.671 64.6348 112.212 62.0939C111.68 59.1515 109.699 56.6296 107.526 54.6772C103.121 50.7609 97.4019 48.6482 91.5087 48.7601C88.5028 48.8291 85.3665 49.4497 82.7769 51.0384C80.2651 52.5794 78.3237 55.1576 78.0699 58.1545C77.8466 60.7923 79.2618 63.5513 81.6912 64.707C82.264 64.9783 82.8782 65.1517 83.5084 65.2199C84.0527 65.282 84.0483 64.4286 83.5084 64.3671Z" fill="#2F2E41"/>
<path d="M36.1343 79.9356L37.9393 79.3553C38.1327 78.9847 37.7788 79.2225 37.9477 78.8621C42.5143 69.1197 38.2938 63.1426 38.2938 63.1426L35.0289 65.3906C35.0209 65.3721 35.0143 65.353 35.0062 65.3344C35.0062 65.3344 34.426 64.0451 33.5235 65.0121C33.5235 65.0121 36.3599 71.9098 33.2012 80.4835L36.8756 82.1596L38.2938 80.4835L38.3261 80.3223L35.7879 80.0916L36.1343 79.9356Z" fill="#CCCCCC"/>
<path d="M87.6078 116.133C73.1034 112.91 59.5982 119.582 59.5982 119.582L59.5614 119.549L54.1832 114.747L33.168 80.452L38.2929 80.4842C52.5394 71.975 72.5876 73.1353 72.5876 73.1353C81.2258 82.9338 87.6078 116.133 87.6078 116.133Z" fill="#3F3D56"/>
<path opacity="0.1" d="M59.5614 119.548L54.1832 114.746L33.168 80.4512L38.2929 80.4834C38.2929 80.4834 58.7189 107.461 59.5614 119.548Z" fill="black"/>
<path d="M61.9215 92.7899C66.3123 91.4432 69.1778 88.0888 68.3217 85.2977C67.4656 82.5067 63.2122 81.3358 58.8214 82.6826C54.4306 84.0293 51.5651 87.3837 52.4212 90.1748C53.2772 92.9658 57.5307 94.1367 61.9215 92.7899Z" fill="#F0E5FF"/>
<path d="M17.0287 63.8236C15.8706 68.1047 11.9038 70.756 11.9038 70.756C11.9038 70.756 9.81467 66.4664 10.9728 62.1854C12.1309 57.9043 16.0977 55.2529 16.0977 55.2529C16.0977 55.2529 18.1868 59.5425 17.0287 63.8236Z" fill="#CCCCCC"/>
<path d="M6.49231 63.8236C7.65042 68.1047 11.6172 70.756 11.6172 70.756C11.6172 70.756 13.7063 66.4664 12.5482 62.1854C11.3901 57.9043 7.42333 55.2529 7.42333 55.2529C7.42333 55.2529 5.3342 59.5425 6.49231 63.8236Z" fill="#CCCCCC"/>
<path d="M8.19401 62.9035C11.3719 65.997 11.76 70.7525 11.76 70.7525C11.76 70.7525 6.99585 70.4924 3.81797 67.3988C0.640104 64.3053 0.251953 59.5498 0.251953 59.5498C0.251953 59.5498 5.01614 59.8099 8.19401 62.9035Z" fill="#3F3D56"/>
<path d="M15.3258 62.9035C12.1479 65.997 11.7598 70.7525 11.7598 70.7525C11.7598 70.7525 16.524 70.4924 19.7018 67.3988C22.8797 64.3053 23.2678 59.5498 23.2678 59.5498C23.2678 59.5498 18.5037 59.8099 15.3258 62.9035Z" fill="#3F3D56"/>
<path d="M176.509 112.151C175.351 116.432 171.384 119.083 171.384 119.083C171.384 119.083 169.295 114.794 170.453 110.513C171.611 106.231 175.578 103.58 175.578 103.58C175.578 103.58 177.667 107.87 176.509 112.151Z" fill="#CCCCCC"/>
<path d="M165.975 112.151C167.133 116.432 171.1 119.083 171.1 119.083C171.1 119.083 173.189 114.794 172.031 110.513C170.873 106.231 166.906 103.58 166.906 103.58C166.906 103.58 164.817 107.87 165.975 112.151Z" fill="#CCCCCC"/>
<path d="M167.676 111.231C170.854 114.324 171.242 119.08 171.242 119.08C171.242 119.08 166.478 118.819 163.3 115.726C160.123 112.632 159.734 107.877 159.734 107.877C159.734 107.877 164.499 108.137 167.676 111.231Z" fill="#3F3D56"/>
<path d="M174.808 111.231C171.63 114.324 171.242 119.08 171.242 119.08C171.242 119.08 176.006 118.819 179.184 115.726C182.362 112.632 182.75 107.877 182.75 107.877C182.75 107.877 177.986 108.137 174.808 111.231Z" fill="#3F3D56"/>
<path d="M127.031 169.432H61.0781V170H127.031V169.432Z" fill="#3F3D56"/>
</g>
<defs>
<clipPath id="clip0_2894_34166">
<rect width="182.498" height="170" fill="white" transform="translate(0.251953)"/>
</clipPath>
</defs>
</svg>
