<svg width="191" height="170" viewBox="0 0 191 170" fill="none" xmlns="http://www.w3.org/2000/svg">
<g clip-path="url(#clip0_1878_2490)">
<path d="M132.847 168.66C130.325 166.529 128.793 163.162 129.195 159.885C129.596 156.608 132.085 153.595 135.312 152.899C138.54 152.203 142.219 154.129 143.2 157.282C143.739 151.204 144.361 144.87 147.593 139.693C150.519 135.006 155.588 131.652 161.081 131.052C166.574 130.452 172.358 132.718 175.783 137.054C179.209 141.39 180.048 147.693 177.649 152.671C175.881 156.338 172.625 159.067 169.213 161.287C158.188 168.4 144.964 171.293 131.976 169.433" fill="#F2F2F2"/>
<path d="M170.351 132.845C165.818 136.536 161.66 140.665 157.937 145.172C152.109 152.2 147.394 160.081 143.954 168.538C143.703 169.155 144.704 169.424 144.953 168.813C150.581 155.068 159.565 142.954 171.084 133.577C171.601 133.156 170.864 132.427 170.351 132.845Z" fill="white"/>
<path d="M94.0372 28.6065H5.41797C9.32981 20.1483 15.5808 12.9864 23.4325 7.96699C31.2843 2.94755 40.4086 0.280273 49.7276 0.280273C59.0466 0.280273 68.1709 2.94755 76.0227 7.96699C83.8744 12.9864 90.1254 20.1483 94.0372 28.6065Z" fill="#E6E6E6"/>
<path d="M89.1699 71.3009L92.8886 69.4826C93.2896 69.2865 93.7519 69.2578 94.1741 69.4027C94.5962 69.5476 94.9435 69.8542 95.1395 70.2551L109.385 99.3895C109.822 100.284 109.886 101.315 109.563 102.256C109.24 103.197 108.556 103.972 107.662 104.409C106.768 104.846 105.737 104.91 104.796 104.587C103.854 104.264 103.08 103.58 102.643 102.686L88.3974 73.5518C88.2013 73.1508 88.1726 72.6884 88.3175 72.2663C88.4624 71.8442 88.769 71.4969 89.1699 71.3009Z" fill="#F0E5FF"/>
<path d="M103.387 79.0966C103.525 78.1459 102.595 77.3098 101.643 77.1838C100.69 77.0579 99.7515 77.4367 98.8653 77.8078C97.2909 78.4671 95.691 79.1416 94.3763 80.2303C93.0617 81.3189 92.0503 82.9028 92.0606 84.6097C92.0704 86.2341 92.9739 87.7009 93.8474 89.0706L102.04 101.919C102.907 103.278 103.888 104.729 105.415 105.245C106.434 105.543 107.522 105.497 108.512 105.114C110.007 104.558 111.284 103.539 112.158 102.206C113.032 100.872 113.457 99.2944 113.371 97.7024C113.091 94.0227 110.17 91.2002 107.983 88.2275C105.819 85.2809 104.27 81.9284 103.43 78.3702" fill="#2F2E41"/>
<path d="M80.3035 148.418C79.864 148.419 79.4392 148.26 79.1079 147.971L75.9856 145.253C75.805 145.096 75.6571 144.905 75.5504 144.691C75.4437 144.476 75.3803 144.243 75.3637 144.004C75.3472 143.766 75.3778 143.526 75.454 143.299C75.5301 143.072 75.6502 142.862 75.8074 142.682L98.4587 116.658C98.7763 116.294 99.2256 116.071 99.7077 116.038C100.19 116.004 100.666 116.163 101.03 116.48L104.153 119.198C104.517 119.516 104.74 119.965 104.774 120.447C104.807 120.929 104.648 121.405 104.331 121.77L81.6798 147.793C81.5086 147.99 81.2971 148.147 81.0597 148.255C80.8222 148.363 80.5643 148.419 80.3035 148.418Z" fill="#F0E5FF"/>
<path d="M77.067 125.723C76.7126 125.724 76.3658 125.621 76.069 125.427C75.7721 125.234 75.538 124.958 75.3952 124.633L73.7312 120.843C73.5375 120.4 73.5272 119.899 73.7028 119.448C73.8783 118.998 74.2253 118.636 74.6676 118.441L106.258 104.573C106.701 104.379 107.202 104.369 107.653 104.545C108.103 104.72 108.465 105.067 108.66 105.509L110.324 109.3C110.518 109.742 110.528 110.244 110.352 110.694C110.177 111.145 109.83 111.507 109.388 111.702L77.7973 125.57C77.5672 125.671 77.3185 125.723 77.067 125.723Z" fill="#F0E5FF"/>
<path d="M74.1793 139.025L78.3136 139.231C78.7593 139.253 79.1956 139.097 79.5265 138.798C79.8574 138.498 80.0557 138.08 80.0778 137.634L80.9034 120.646C80.9144 120.425 80.8818 120.204 80.8074 119.996C80.7331 119.788 80.6185 119.597 80.4702 119.433C80.3219 119.269 80.1428 119.136 79.9431 119.041C79.7434 118.947 79.527 118.892 79.3063 118.881L75.172 118.676C74.7262 118.654 74.2899 118.81 73.9591 119.109C73.6282 119.409 73.4299 119.827 73.4077 120.273L72.5822 137.261C72.56 137.707 72.7158 138.143 73.0153 138.474C73.3149 138.805 73.7335 139.003 74.1793 139.025Z" fill="#F0E5FF"/>
<path d="M132.44 91.427C140.34 91.427 146.743 85.0232 146.743 77.1237C146.743 69.2241 140.34 62.8203 132.44 62.8203C124.541 62.8203 118.137 69.2241 118.137 77.1237C118.137 85.0232 124.541 91.427 132.44 91.427Z" fill="#F0E5FF"/>
<path d="M127.099 101.87L127.124 101.752C127.185 101.465 127.17 101.166 127.08 100.886C126.989 100.607 126.828 100.356 126.61 100.158L121.149 95.1899L121.79 94.4536C121.935 94.287 122.046 94.0933 122.116 93.8838C122.187 93.6743 122.215 93.453 122.2 93.2325C122.184 93.0121 122.126 92.7968 122.027 92.599C121.929 92.4011 121.792 92.2246 121.626 92.0796L118.241 89.1334C117.904 88.8404 117.465 88.6931 117.02 88.724C116.575 88.7548 116.16 88.9612 115.867 89.2979L115.339 89.9044L110.388 85.4009C110.169 85.2016 109.902 85.0637 109.612 85.001C109.323 84.9383 109.022 84.9532 108.74 85.044C102.15 87.1676 96.2373 90.9928 91.599 96.1331C86.9606 101.273 83.7611 107.547 82.3234 114.32L82.2984 114.437C82.2374 114.725 82.2527 115.023 82.3428 115.303C82.4329 115.583 82.5947 115.834 82.8121 116.031L99.0339 130.788C99.253 130.988 99.5208 131.126 99.8102 131.188C100.1 131.251 100.401 131.236 100.682 131.145C107.272 129.022 113.185 125.197 117.823 120.056C122.462 114.916 125.661 108.643 127.099 101.87Z" fill="#2F2E41"/>
<path d="M103.263 134.278L99.3317 132.982C98.9078 132.843 98.5568 132.54 98.3558 132.142C98.1549 131.743 98.1205 131.281 98.2601 130.858L108.41 100.056C108.722 99.1111 109.396 98.3283 110.285 97.8802C111.173 97.4321 112.204 97.3553 113.149 97.6668C114.094 97.9783 114.877 98.6525 115.325 99.5411C115.773 100.43 115.85 101.46 115.538 102.405L105.388 133.206C105.248 133.63 104.946 133.981 104.547 134.182C104.149 134.383 103.687 134.418 103.263 134.278Z" fill="#F0E5FF"/>
<path d="M100.379 117.288C99.6014 117.853 99.6519 119.102 100.227 119.872C100.801 120.642 101.728 121.05 102.612 121.425C104.183 122.092 105.783 122.767 107.48 122.949C109.178 123.13 111.018 122.749 112.233 121.55C113.389 120.409 113.809 118.738 114.18 117.156L117.66 102.321C118.029 100.752 118.383 99.0368 117.686 97.5832C117.189 96.6456 116.396 95.8982 115.431 95.4564C113.99 94.7747 112.368 94.5714 110.803 94.8763C109.238 95.1811 107.812 95.9781 106.732 97.1509C104.293 99.9202 104.311 103.982 103.708 107.623C103.109 111.23 101.79 114.679 99.8283 117.764" fill="#2F2E41"/>
<path d="M126.018 81.1301C125.764 80.7176 125.602 80.2555 125.542 79.7749C125.513 79.4436 125.557 79.1101 125.67 78.7975C125.784 78.485 125.964 78.201 126.199 77.9656C126.363 77.795 126.564 77.6646 126.787 77.5846C127.01 77.5046 127.248 77.4772 127.483 77.5045C128.085 77.5844 128.608 78.0255 128.942 78.7097L132.528 74.4297L132.958 74.7899L128.742 79.8215L128.587 79.3349C128.408 78.7709 128.005 78.1395 127.409 78.0606C127.258 78.0454 127.106 78.0651 126.964 78.1182C126.822 78.1714 126.694 78.2566 126.591 78.3672C126.417 78.5434 126.283 78.7551 126.198 78.9877C126.114 79.2204 126.08 79.4686 126.1 79.7154C126.19 80.5671 126.761 81.292 127.441 82.0837L127.015 82.4491C126.644 82.0401 126.31 81.5987 126.018 81.1301Z" fill="#2F2E41"/>
<path d="M128.296 70.4794L127.881 70.8564L129.912 73.0928L130.327 72.7157L128.296 70.4794Z" fill="#2F2E41"/>
<path d="M134.708 77.538L134.293 77.915L136.324 80.1514L136.739 79.7743L134.708 77.538Z" fill="#2F2E41"/>
<path d="M143.161 78.2275C139.224 76.1192 134.83 73.8037 132.658 69.694C131.681 67.8444 131.155 65.636 131.499 63.5488C131.658 62.5575 132.03 61.6122 132.588 60.7776C133.146 59.943 133.878 59.2387 134.733 58.7127C138.162 56.5791 142.731 56.8408 146.485 57.8402C150.304 58.8857 153.815 60.8373 156.72 63.5294C159.677 66.2192 161.952 69.5734 163.358 73.3155C164.044 75.1626 164.481 77.0931 164.656 79.0558C164.841 81.7194 164.694 84.3957 164.219 87.0232C163.368 92.1727 161.772 97.1769 161.177 102.372C160.64 107.049 160.901 112.028 163.238 116.224C165.051 119.48 168.113 121.894 171.559 123.233C175.032 124.609 178.863 124.793 182.451 123.755C183.321 123.488 184.164 123.143 184.971 122.723C185.452 122.473 185.027 121.746 184.546 121.996C181.228 123.721 177.305 123.978 173.712 123.045C170.114 122.11 166.761 119.981 164.642 116.893C161.952 112.971 161.505 108.013 161.914 103.397C162.379 98.1403 163.997 93.0865 164.917 87.908C165.435 85.2451 165.647 82.5319 165.549 79.821C165.442 77.7684 165.06 75.7394 164.413 73.7886C163.102 69.9595 160.924 66.485 158.05 63.6357C155.175 60.7864 151.682 58.6393 147.841 57.3618C144.052 56.1416 139.579 55.6912 135.813 57.2304C133.929 58.0005 132.267 59.3219 131.369 61.1814C130.439 63.1067 130.372 65.3267 130.88 67.38C132.013 71.9622 135.793 74.996 139.691 77.272C140.693 77.8568 141.714 78.4064 142.736 78.9539C143.214 79.2095 143.639 78.4835 143.161 78.2275Z" fill="#2F2E41"/>
<path d="M49.7268 98.1603C22.6639 98.1603 0.646635 76.143 0.646635 49.0802C0.628955 41.9688 2.17048 34.9401 5.16265 28.4888C9.09614 19.9811 15.3828 12.7771 23.2797 7.7281C31.1766 2.67909 40.3538 -0.0039207 49.7268 -0.00390625C59.0999 -0.0038918 68.277 2.67915 76.174 7.72819C84.0709 12.7772 90.3575 19.9812 94.2909 28.489C97.2831 34.9402 98.8247 41.9689 98.8069 49.0802C98.8069 76.143 76.7897 98.1603 49.7268 98.1603ZM49.7268 0.560947C40.4655 0.58003 31.4016 3.23976 23.5985 8.22814C15.7954 13.2165 9.57664 20.3267 5.6717 28.7245C2.71382 35.1019 1.19 42.0502 1.20755 49.0802C1.20755 75.8338 22.9732 97.5994 49.7268 97.5994C76.4804 97.5994 98.246 75.8338 98.246 49.0802C98.2636 42.0503 96.7398 35.102 93.7819 28.7247C89.877 20.3268 83.6582 13.2166 75.8551 8.22818C68.052 3.23978 58.9881 0.580033 49.7268 0.560947Z" fill="#3F3D56"/>
<path d="M67.7547 23.3403H31.4521C31.2292 23.3406 31.0084 23.2969 30.8024 23.2118C30.5964 23.1267 30.4092 23.0018 30.2514 22.8443C30.0937 22.6868 29.9686 22.4997 29.8832 22.2938C29.7978 22.0879 29.7539 21.8672 29.7539 21.6443C29.7539 21.4214 29.7978 21.2006 29.8832 20.9947C29.9686 20.7888 30.0937 20.6017 30.2514 20.4442C30.4092 20.2867 30.5964 20.1618 30.8024 20.0767C31.0084 19.9916 31.2292 19.948 31.4521 19.9482H67.7547C67.9776 19.948 68.1984 19.9916 68.4044 20.0767C68.6104 20.1618 68.7977 20.2867 68.9554 20.4442C69.1131 20.6017 69.2382 20.7888 69.3236 20.9947C69.409 21.2006 69.4529 21.4214 69.4529 21.6443C69.4529 21.8672 69.409 22.0879 69.3236 22.2938C69.2382 22.4997 69.1131 22.6868 68.9554 22.8443C68.7977 23.0018 68.6104 23.1267 68.4044 23.2118C68.1984 23.2969 67.9776 23.3406 67.7547 23.3403Z" fill="white"/>
<path d="M56.1153 16.0483H43.0908C42.8679 16.0486 42.6471 16.0049 42.4411 15.9198C42.2351 15.8347 42.0478 15.7099 41.8901 15.5523C41.7324 15.3948 41.6073 15.2077 41.5219 15.0018C41.4365 14.7959 41.3926 14.5752 41.3926 14.3523C41.3926 14.1294 41.4365 13.9086 41.5219 13.7027C41.6073 13.4968 41.7324 13.3098 41.8901 13.1522C42.0478 12.9947 42.2351 12.8698 42.4411 12.7847C42.6471 12.6996 42.8679 12.656 43.0908 12.6563H56.1153C56.3383 12.656 56.559 12.6996 56.7651 12.7847C56.9711 12.8698 57.1583 12.9947 57.316 13.1522C57.4738 13.3098 57.5989 13.4968 57.6843 13.7027C57.7696 13.9086 57.8136 14.1294 57.8136 14.3523C57.8136 14.5752 57.7696 14.7959 57.6843 15.0018C57.5989 15.2077 57.4738 15.3948 57.316 15.5523C57.1583 15.7099 56.9711 15.8347 56.7651 15.9198C56.559 16.0049 56.3383 16.0486 56.1153 16.0483Z" fill="white"/>
<path d="M65.2175 77.8125H33.7118C32.7355 77.8114 31.7995 77.4231 31.1091 76.7327C30.4188 76.0424 30.0304 75.1063 30.0293 74.13V54.0809C30.0304 53.1046 30.4188 52.1686 31.1091 51.4782C31.7995 50.7879 32.7355 50.3996 33.7118 50.3984H65.2175C66.1939 50.3996 67.1299 50.7879 67.8202 51.4782C68.5106 52.1686 68.8989 53.1046 68.9 54.0809V74.13C68.8989 75.1063 68.5106 76.0424 67.8202 76.7327C67.1299 77.4231 66.1939 77.8114 65.2175 77.8125ZM33.7118 51.2168C32.9524 51.2176 32.2244 51.5196 31.6875 52.0566C31.1505 52.5935 30.8485 53.3216 30.8476 54.0809V74.13C30.8485 74.8894 31.1505 75.6174 31.6875 76.1544C32.2244 76.6913 32.9524 76.9933 33.7118 76.9942H65.2175C65.9769 76.9933 66.7049 76.6913 67.2419 76.1544C67.7788 75.6174 68.0809 74.8894 68.0817 74.13V54.0809C68.0809 53.3216 67.7788 52.5935 67.2419 52.0566C66.7049 51.5196 65.9769 51.2176 65.2175 51.2168H33.7118Z" fill="#3F3D56"/>
<path d="M49.2968 63.9248C48.4548 63.9264 47.6327 63.6693 46.9418 63.1882L31.1328 52.1353L31.6017 51.4648L47.4107 62.5177C47.9573 62.8967 48.6054 63.1021 49.2705 63.1073C49.9355 63.1125 50.5868 62.9172 51.1392 62.5469L67.4136 51.5442L67.8719 52.2222L51.5975 63.225C50.9176 63.6826 50.1163 63.9263 49.2968 63.9248Z" fill="#3F3D56"/>
<path d="M49.5 67C50.8807 67 52 65.8807 52 64.5C52 63.1193 50.8807 62 49.5 62C48.1193 62 47 63.1193 47 64.5C47 65.8807 48.1193 67 49.5 67Z" fill="#3F3D56"/>
<path d="M190.018 170H65.9736C65.9296 170 65.8861 169.991 65.8455 169.975C65.8049 169.958 65.7679 169.933 65.7368 169.902C65.7057 169.871 65.681 169.835 65.6642 169.794C65.6473 169.753 65.6387 169.71 65.6387 169.666C65.6387 169.622 65.6473 169.579 65.6642 169.538C65.681 169.497 65.7057 169.461 65.7368 169.43C65.7679 169.398 65.8049 169.374 65.8455 169.357C65.8861 169.34 65.9296 169.332 65.9736 169.332H190.018C190.062 169.332 190.106 169.34 190.147 169.357C190.187 169.374 190.224 169.398 190.255 169.43C190.286 169.461 190.311 169.497 190.328 169.538C190.345 169.579 190.353 169.622 190.353 169.666C190.353 169.71 190.345 169.753 190.328 169.794C190.311 169.835 190.286 169.871 190.255 169.902C190.224 169.933 190.187 169.958 190.147 169.975C190.106 169.991 190.062 170 190.018 170Z" fill="#E6E6E6"/>
<path d="M31.3568 58.8961C35.3065 58.8961 38.5084 55.6942 38.5084 51.7445C38.5084 47.7947 35.3065 44.5928 31.3568 44.5928C27.407 44.5928 24.2051 47.7947 24.2051 51.7445C24.2051 55.6942 27.407 58.8961 31.3568 58.8961Z" fill="#7833B3"/>
</g>
<defs>
<clipPath id="clip0_1878_2490">
<rect width="189.706" height="170" fill="white" transform="translate(0.646484)"/>
</clipPath>
</defs>
</svg>
