<svg width="187" height="170" viewBox="0 0 187 170" fill="none" xmlns="http://www.w3.org/2000/svg">
<g clip-path="url(#clip0_1877_15118)">
<path d="M153.292 134.653C153.289 135.059 153.279 135.461 153.263 135.867C147.468 143.589 140.418 150.285 132.408 155.676C131.484 156.302 130.547 156.906 129.599 157.486C122.5 161.862 114.788 165.155 106.717 167.255C106.292 167.365 105.867 167.472 105.442 167.576C105.137 167.651 104.829 167.725 104.521 167.79C104.333 167.774 104.148 167.758 103.963 167.742C103.953 167.738 103.94 167.738 103.93 167.735C103.856 167.729 103.781 167.722 103.71 167.719C103.392 167.69 103.074 167.657 102.756 167.628L102.83 167.771L103.019 168.128H103.015C102.947 168.011 102.879 167.891 102.814 167.771C102.788 167.729 102.759 167.683 102.736 167.638C102.714 167.599 102.691 167.557 102.668 167.518C99.7742 162.483 96.9225 157.263 96.1925 151.517C95.4302 145.502 97.5713 138.696 102.863 135.74C103.557 135.355 104.291 135.047 105.053 134.822C105.371 134.728 105.692 134.65 106.016 134.579C108.001 134.138 110.067 134.234 112.002 134.857C113.937 135.48 115.671 136.607 117.026 138.122C118.381 139.637 119.308 141.485 119.712 143.478C120.116 145.47 119.982 147.534 119.324 149.457C123.811 144.856 122.974 137.395 121.427 131.159C119.876 124.92 118.001 117.981 121.154 112.381C122.906 109.26 125.988 107.327 129.45 106.548C129.553 106.525 129.66 106.503 129.768 106.483C133.89 105.648 138.175 106.399 141.768 108.585C148.383 112.754 151.78 120.657 152.883 128.398C153.177 130.47 153.314 132.561 153.292 134.653Z" fill="#F2F2F2"/>
<path d="M108.414 138.55C110.855 143.513 111.634 149.13 110.636 154.57C109.756 159.222 107.641 163.551 104.511 167.103C104.332 167.307 104.151 167.505 103.966 167.7C104.264 167.68 104.566 167.655 104.865 167.629C105.056 167.612 105.251 167.596 105.442 167.577C105.137 167.651 104.829 167.726 104.521 167.791C104.332 167.775 104.147 167.758 103.963 167.742C103.953 167.739 103.94 167.739 103.93 167.736C103.856 167.729 103.781 167.723 103.71 167.719C103.392 167.69 103.074 167.658 102.756 167.629L102.83 167.771L103.018 168.128H103.015C102.947 168.011 102.879 167.891 102.814 167.771C102.788 167.729 102.759 167.684 102.736 167.638C102.795 167.583 102.85 167.525 102.905 167.466C107.145 163.202 109.698 157.547 110.093 151.547C110.487 145.546 108.697 139.606 105.053 134.822C105.371 134.728 105.692 134.65 106.016 134.579C106.929 135.831 107.732 137.159 108.414 138.55Z" fill="white"/>
<path d="M137.611 142.148C137.351 144.897 136.691 147.594 135.651 150.152C135.087 151.499 134.398 152.79 133.594 154.009C133.225 154.58 132.826 155.138 132.407 155.677C131.483 156.303 130.546 156.906 129.598 157.487C130.208 156.874 130.785 156.228 131.327 155.554C131.629 155.19 131.914 154.817 132.19 154.438C135.275 150.184 136.634 145.065 136.868 139.864C137.115 134.294 136.391 128.626 135.119 123.211C133.823 117.658 131.851 112.284 129.247 107.211C129.189 107.096 129.178 106.963 129.215 106.839C129.252 106.716 129.336 106.612 129.448 106.549C129.542 106.487 129.656 106.463 129.766 106.484C129.821 106.498 129.871 106.524 129.913 106.56C129.955 106.597 129.988 106.643 130.01 106.695C130.331 107.321 130.649 107.947 130.95 108.583C133.476 113.865 135.335 119.44 136.485 125.181C137.601 130.719 138.198 136.51 137.611 142.148Z" fill="white"/>
<path d="M60.4658 166.383C60.5826 166.178 60.6994 165.974 60.8129 165.769C62.9768 161.967 65.011 158.022 65.5593 153.707C66.1725 148.867 64.4497 143.387 60.19 141.009C59.6311 140.698 59.0392 140.449 58.4251 140.269C58.1721 140.195 57.9125 140.13 57.6498 140.072C56.0523 139.718 54.3894 139.795 52.832 140.297C51.2745 140.799 49.8787 141.706 48.788 142.925C47.6972 144.145 46.9508 145.633 46.6256 147.236C46.3003 148.84 46.4078 150.501 46.9372 152.049C43.3263 148.348 44.0011 142.339 45.2469 137.32C46.4927 132.298 48.0045 126.712 45.4643 122.205C44.053 119.691 41.5744 118.134 38.7875 117.508C38.7032 117.491 38.6156 117.472 38.5312 117.456C35.2124 116.784 31.7624 117.389 28.8698 119.149C23.5459 122.504 20.811 128.866 19.9221 135.098C19.7826 136.081 19.6853 137.077 19.6366 138.076C19.6171 138.427 19.6041 138.774 19.5977 139.124C21.3074 141.191 23.122 143.184 25.0415 145.103C27.8125 147.875 30.7684 150.456 33.8887 152.828C34.3169 153.152 34.7452 153.47 35.1799 153.785C42.2552 158.954 50.095 162.986 58.4154 165.734C58.8728 165.883 59.3368 166.032 59.7975 166.175L60.4658 166.383Z" fill="#F2F2F2"/>
<path d="M59.7979 166.175C59.3373 166.032 58.8733 165.883 58.4158 165.733C58.1498 165.412 57.8967 165.085 57.6533 164.747C55.7912 162.199 54.52 159.267 53.9322 156.166C53.1291 151.787 53.7558 147.266 55.7198 143.27C56.2697 142.15 56.9155 141.08 57.6502 140.071C57.913 140.13 58.1725 140.195 58.4256 140.269C55.6858 143.867 54.2434 148.287 54.3329 152.808C54.4225 157.33 56.0386 161.689 58.9187 165.175C59.201 165.519 59.493 165.85 59.7979 166.175Z" fill="white"/>
<path d="M34.2231 130.922C33.1445 135.306 32.6708 139.816 32.8152 144.328C32.9073 147.118 33.4962 149.87 34.554 152.455C34.7454 152.906 34.9531 153.347 35.1802 153.785C34.7454 153.47 34.3172 153.152 33.8889 152.828C33.8566 152.753 33.8241 152.682 33.7949 152.607C33.6522 152.263 33.5192 151.916 33.3959 151.566C32.7891 149.819 32.3926 148.007 32.2149 146.167C31.7444 141.625 32.2246 136.966 33.1233 132.506C34.0476 127.885 35.5439 123.397 37.5777 119.146C37.821 118.633 38.0773 118.13 38.3369 117.627C38.3535 117.585 38.3798 117.548 38.4136 117.518C38.4474 117.488 38.4878 117.467 38.5315 117.455C38.6204 117.44 38.7117 117.459 38.7878 117.507C38.8782 117.559 38.9454 117.643 38.9756 117.743C39.0058 117.842 38.9966 117.95 38.95 118.043C36.8527 122.126 35.2652 126.452 34.2231 130.922Z" fill="white"/>
<path d="M57.7368 129.73C57.3542 129.871 56.9405 129.907 56.5393 129.833C56.138 129.76 55.764 129.579 55.4563 129.312L51.8477 126.164C51.3943 125.768 51.1166 125.208 51.0756 124.608C51.0346 124.007 51.2335 123.414 51.6288 122.96L77.8602 92.8829C78.2564 92.4295 78.8163 92.1518 79.417 92.1108C80.0177 92.0697 80.6101 92.2686 81.0643 92.6639L84.6731 95.8113C85.1264 96.2075 85.404 96.7674 85.4451 97.368C85.4861 97.9687 85.2872 98.5611 84.8919 99.0153L58.6606 129.093C58.4112 129.379 58.0934 129.598 57.7368 129.73Z" fill="#F0E5FF"/>
<path d="M93.7892 96.6328C93.5531 96.6326 93.3184 96.5957 93.0936 96.5235C92.8092 96.4337 92.5454 96.2883 92.3176 96.0957C92.0897 95.9032 91.9023 95.6674 91.7662 95.402L89.572 91.1461C89.2966 90.6107 89.2449 89.9878 89.4282 89.4143C89.6116 88.8408 90.0149 88.3634 90.5498 88.087L126.022 69.7985C126.557 69.5232 127.18 69.4715 127.754 69.6548C128.327 69.8381 128.804 70.2415 129.081 70.7764L131.275 75.0323C131.551 75.5677 131.602 76.1905 131.419 76.764C131.236 77.3375 130.832 77.8149 130.297 78.0913L94.8254 96.3798C94.5052 96.5458 94.1498 96.6325 93.7892 96.6328Z" fill="#F0E5FF"/>
<path d="M93.1489 97.6627C92.7269 97.6626 92.3132 97.5453 91.954 97.3239C91.5948 97.1024 91.3041 96.7855 91.1145 96.4085L88.9664 92.1292C88.7236 91.6466 88.6612 91.0932 88.7904 90.5687C88.8046 90.5108 88.8211 90.4529 88.8402 90.3954C88.8836 90.2647 88.9308 90.0608 88.9854 89.8248C89.1595 89.072 89.3761 88.1351 89.8177 87.9135L105.404 78.4663C105.94 78.1929 106.563 78.1438 107.136 78.3297C107.708 78.5157 108.184 78.9214 108.457 79.4578L108.464 79.4708L112.395 87.5747C112.664 88.113 112.709 88.7359 112.519 89.307C112.33 89.8781 111.921 90.3507 111.384 90.6212L94.1498 97.4252C93.8393 97.5815 93.4965 97.6628 93.1489 97.6627Z" fill="#2F2E41"/>
<path d="M86.6795 76.6598C96.2689 76.6598 104.043 68.8861 104.043 59.2967C104.043 49.7073 96.2689 41.9336 86.6795 41.9336C77.0901 41.9336 69.3164 49.7073 69.3164 59.2967C69.3164 68.8861 77.0901 76.6598 86.6795 76.6598Z" fill="#F0E5FF"/>
<path d="M83.2937 169.552H78.5054C77.9033 169.551 77.326 169.312 76.9003 168.886C76.4745 168.46 76.235 167.883 76.2344 167.281V126.723C76.2351 126.121 76.4745 125.544 76.9003 125.118C77.326 124.692 77.9033 124.453 78.5054 124.452H83.2937C83.8958 124.453 84.473 124.692 84.8988 125.118C85.3245 125.544 85.564 126.121 85.5647 126.723V167.281C85.564 167.883 85.3245 168.46 84.8988 168.886C84.473 169.312 83.8958 169.551 83.2937 169.552Z" fill="#F0E5FF"/>
<path d="M103.925 150.675C103.563 150.676 103.206 150.59 102.885 150.425C102.563 150.26 102.285 150.02 102.074 149.726L78.8622 117.262C78.5125 116.772 78.3715 116.163 78.4702 115.569C78.5689 114.975 78.8992 114.444 79.3887 114.094L83.2839 111.309C83.774 110.959 84.3829 110.818 84.9769 110.916C85.5708 111.015 86.1014 111.345 86.4521 111.835L109.664 144.299C110.014 144.789 110.155 145.398 110.056 145.992C109.957 146.586 109.627 147.117 109.138 147.467L105.243 150.253C104.858 150.528 104.398 150.676 103.925 150.675Z" fill="#F0E5FF"/>
<path d="M97.7673 168.949C97.2899 168.941 96.8208 168.824 96.3958 168.606L92.1092 166.472C90.9882 165.914 90.3706 164.869 90.7323 164.142L101.78 141.952C102.142 141.225 103.348 141.088 104.469 141.646L108.756 143.78C109.255 144.017 109.68 144.386 109.984 144.848C110.116 145.027 110.2 145.238 110.226 145.459C110.252 145.681 110.219 145.905 110.133 146.11L99.0848 168.3C98.873 168.726 98.3716 168.949 97.7673 168.949Z" fill="#F0E5FF"/>
<path d="M76.9277 110.071C76.5232 110.219 76.0851 110.249 75.6641 110.158C75.2432 110.067 74.8567 109.859 74.5494 109.557L68.0532 103.324C67.8406 103.115 67.6713 102.866 67.555 102.591C67.4386 102.317 67.3775 102.022 67.3751 101.724C67.3726 101.425 67.429 101.13 67.5409 100.853C67.6527 100.577 67.8179 100.325 68.0271 100.113L68.0289 100.111L81.8359 88.1738C82.173 87.8303 83.1313 87.9132 83.9009 87.9792C84.1425 88 84.351 88.018 84.4889 88.0169C84.5493 88.0164 84.6095 88.0186 84.669 88.0229C85.2078 88.0615 85.7152 88.2913 86.0996 88.6709L89.5092 92.0325C89.9375 92.4557 90.1804 93.0315 90.1847 93.6336C90.189 94.2357 89.9543 94.8149 89.5321 95.2442L77.7706 109.524C77.5337 109.766 77.2458 109.954 76.9277 110.071Z" fill="#2F2E41"/>
<path d="M84.3677 65.7313L84.3496 65.0824C85.5567 65.0488 86.6209 64.9731 87.4206 64.3889C87.6473 64.2139 87.8336 63.992 87.9669 63.7385C88.1003 63.485 88.1774 63.2058 88.1932 62.9198C88.2072 62.745 88.1808 62.5694 88.1159 62.4065C88.051 62.2437 87.9495 62.098 87.8191 61.9807C87.2883 61.5324 86.4342 61.6775 85.8116 61.963L85.2747 62.2092L86.3043 54.6855L86.9471 54.7736L86.0714 61.1735C86.9173 60.9248 87.7011 61.0318 88.238 61.4852C88.4441 61.6652 88.6059 61.8904 88.7105 62.1432C88.8152 62.396 88.8601 62.6696 88.8415 62.9426C88.8226 63.3269 88.7198 63.7023 88.5405 64.0427C88.3611 64.383 88.1095 64.6801 87.8033 64.9129C86.7759 65.6638 85.4406 65.7012 84.3677 65.7313Z" fill="#2F2E41"/>
<path d="M93.6215 55.3262H90.127V55.975H93.6215V55.3262Z" fill="#2F2E41"/>
<path d="M82.5903 55.3262H79.0957V55.975H82.5903V55.3262Z" fill="#2F2E41"/>
<path d="M113.858 131.6H59.8465C59.4758 131.601 59.1113 131.505 58.7899 131.32C58.4685 131.135 58.2016 130.869 58.0163 130.548C57.8309 130.227 57.7337 129.862 57.7344 129.492C57.7351 129.121 57.8337 128.757 58.0202 128.437L85.0257 81.6618C85.2091 81.3398 85.475 81.0724 85.7959 80.8871C86.1169 80.7018 86.4814 80.6053 86.8521 80.6075C87.2227 80.6053 87.5872 80.7018 87.9081 80.8871C88.2291 81.0724 88.4949 81.3398 88.6783 81.6618L115.684 128.437C115.869 128.757 115.966 129.121 115.966 129.491C115.966 129.861 115.869 130.225 115.684 130.546C115.499 130.866 115.233 131.132 114.912 131.317C114.591 131.502 114.228 131.6 113.858 131.6Z" fill="#2F2E41"/>
<path d="M87.9918 41.7198C86.0664 34.0019 78.603 28.076 70.606 28.2234C66.6469 28.3345 62.8291 29.7188 59.7189 32.1711C58.151 33.3913 56.8011 34.8683 55.7264 36.5393C54.5212 38.4204 53.7644 40.5437 53.1735 42.6869C51.9796 47.0173 51.4169 51.9175 48.3873 55.4538C47.131 56.8854 45.5821 58.0305 43.8451 58.8119C42.1082 59.5933 40.2238 59.9928 38.3192 59.9832C36.4004 59.9533 34.5145 59.4796 32.8093 58.5991C31.1041 57.7186 29.626 56.4553 28.4906 54.9081C26.2101 51.8677 25.0873 47.6627 26.4048 43.9933C27.0514 42.1926 28.4416 40.4917 30.4298 40.1915C31.3366 40.0687 32.2594 40.2138 33.0848 40.6089C33.9101 41.0039 34.6019 41.6317 35.075 42.4149C35.9692 43.9839 35.6832 46.0773 34.563 47.4612C33.3831 48.9188 31.4113 49.3224 29.6723 48.7368C28.8549 48.459 28.1361 47.949 27.6038 47.2693C27.2149 46.7782 26.5256 47.4668 26.9105 47.9528C27.5273 48.6925 28.3238 49.2615 29.2235 49.6053C30.1233 49.9491 31.0962 50.0561 32.0491 49.9161C33.0001 49.7722 33.8933 49.37 34.6313 48.7533C35.3693 48.1366 35.9238 47.3291 36.2344 46.4189C36.5748 45.5164 36.6641 44.5385 36.4928 43.5892C36.3215 42.64 35.8959 41.755 35.2614 41.0285C34.6003 40.3096 33.7657 39.7724 32.8376 39.4683C31.9095 39.1643 30.9188 39.1035 29.9605 39.2918C27.9075 39.7265 26.4165 41.415 25.6428 43.286C24.8803 45.2299 24.6792 47.3487 25.0622 49.4013C25.4157 51.3819 26.1824 53.2659 27.3123 54.9306C28.4423 56.5953 29.9101 58.0034 31.6204 59.0631C35.0816 61.1883 39.4017 61.4807 43.1988 60.1156C45.096 59.4445 46.8288 58.3774 48.2821 56.9854C49.8438 55.401 51.0391 53.4934 51.7837 51.3971C53.4956 46.9147 53.7464 41.8989 56.1687 37.6856C58.2815 34.108 61.6142 31.4129 65.5546 30.0954C69.472 28.7419 73.7599 28.9478 77.5297 30.6702C81.278 32.4062 84.2973 35.404 86.06 39.1399C86.4798 40.0502 86.8118 40.9984 87.0516 41.9717C87.2035 42.5806 88.1435 42.328 87.9918 41.7198Z" fill="#2F2E41"/>
<path d="M90.6602 85.1623H83.5228C82.9638 85.1617 82.4277 84.9393 82.0324 84.544C81.6371 84.1486 81.4147 83.6126 81.4141 83.0535V82.4047C81.4147 81.8456 81.6371 81.3096 82.0324 80.9142C82.4277 80.5189 82.9638 80.2965 83.5228 80.2959H90.6602C91.2193 80.2965 91.7553 80.5189 92.1507 80.9142C92.546 81.3096 92.7684 81.8456 92.769 82.4047V83.0535C92.7684 83.6126 92.546 84.1486 92.1507 84.544C91.7553 84.9393 91.2193 85.1617 90.6602 85.1623Z" fill="#2F2E41"/>
<path d="M53.0266 135.611C54.1017 135.611 54.9732 134.739 54.9732 133.664C54.9732 132.589 54.1017 131.718 53.0266 131.718C51.9516 131.718 51.0801 132.589 51.0801 133.664C51.0801 134.739 51.9516 135.611 53.0266 135.611Z" fill="#E6E6E6"/>
<path d="M147.111 104.465C148.186 104.465 149.057 103.594 149.057 102.519C149.057 101.444 148.186 100.572 147.111 100.572C146.036 100.572 145.164 101.444 145.164 102.519C145.164 103.594 146.036 104.465 147.111 104.465Z" fill="#F2F2F2"/>
<path d="M25.1263 112.901C26.2013 112.901 27.0728 112.029 27.0728 110.954C27.0728 109.879 26.2013 109.008 25.1263 109.008C24.0512 109.008 23.1797 109.879 23.1797 110.954C23.1797 112.029 24.0512 112.901 25.1263 112.901Z" fill="#F2F2F2"/>
<path d="M170.145 85C170.205 103.341 164.277 121.201 153.262 135.867C147.467 143.59 140.418 150.286 132.408 155.677C131.483 156.303 130.547 156.906 129.598 157.487C122.499 161.863 114.787 165.155 106.716 167.255C106.291 167.366 105.866 167.473 105.441 167.577C105.136 167.651 104.828 167.726 104.52 167.791C104.02 167.911 103.521 168.021 103.018 168.128H103.015C97.1403 169.377 91.1508 170.005 85.1451 170C84.3665 170 83.589 169.989 82.8125 169.968C81.1352 169.925 79.4666 169.832 77.8065 169.689C71.9271 169.192 66.1155 168.084 60.4659 166.383C60.2421 166.314 60.0214 166.246 59.7976 166.175C59.3369 166.032 58.873 165.883 58.4155 165.734C50.0951 162.986 42.2554 158.954 35.1801 153.785C34.7453 153.47 34.3171 153.152 33.8887 152.828C30.7685 150.456 27.8127 147.875 25.0417 145.103C23.121 143.183 21.3063 141.19 19.5978 139.124C13.2216 131.45 8.26068 122.704 4.94656 113.293C-10.6534 68.9894 12.6157 20.4277 56.9196 4.82767C65.9876 1.63471 75.5314 0.00235292 85.1451 0C97.9761 0 111.265 3.26374 123.574 9.44408L123.281 10.0216C111.064 3.88989 97.8757 0.648855 85.1451 0.648855C38.6352 0.648855 0.79395 38.4901 0.79395 85C0.775279 104.334 7.43103 123.082 19.6367 138.076C23.6966 143.08 28.3127 147.606 33.3957 151.566C33.7785 151.865 34.1645 152.161 34.5539 152.455C41.5657 157.732 49.3595 161.879 57.653 164.748C58.0715 164.893 58.4933 165.036 58.9184 165.176C59.5445 165.38 60.1772 165.581 60.813 165.769C66.4869 167.484 72.327 168.59 78.2348 169.069C79.8958 169.205 81.5687 169.292 83.2537 169.328C83.883 169.345 84.5124 169.351 85.1451 169.351C91.0339 169.355 96.9069 168.741 102.667 167.518C102.745 167.502 102.826 167.486 102.904 167.466C103.443 167.353 103.978 167.232 104.51 167.103C105.133 166.96 105.749 166.804 106.366 166.645C115.237 164.337 123.669 160.589 131.327 155.553C132.093 155.054 132.849 154.539 133.595 154.009C149.944 142.544 161.694 125.65 166.753 106.333C171.812 87.0168 169.853 66.5317 161.223 48.5246L161.811 48.2456C167.329 59.7105 170.178 72.2763 170.145 85Z" fill="#E6E6E6"/>
<path d="M168.477 49.0598C160.298 49.0598 152.842 47.0743 146.316 43.1582C139.414 39.0183 125.181 41.4146 124.113 43.527L122.805 46.6789L126.493 10.1845L126.632 10.0552C126.936 9.76466 134.328 3.00904 153.696 12.5103C168.397 19.7197 180.413 16.322 184.898 14.5265C185.127 14.434 185.376 14.4012 185.622 14.4313C185.867 14.4614 186.101 14.5533 186.301 14.6985C186.501 14.8437 186.661 15.0374 186.766 15.2614C186.871 15.4854 186.917 15.7324 186.901 15.9792L184.873 45.3856C184.855 45.6769 184.748 45.9559 184.569 46.1858C184.389 46.4157 184.144 46.586 183.865 46.6742C178.885 48.2373 173.697 49.0416 168.477 49.0598Z" fill="#F0E5FF"/>
<path d="M125.027 8.98828C124.433 8.98896 123.863 9.22538 123.443 9.64566C123.022 10.0659 122.786 10.6358 122.785 11.2301V86.7546C122.785 87.3491 123.021 87.9194 123.442 88.3398C123.862 88.7602 124.432 88.9964 125.027 88.9964C125.622 88.9964 126.192 88.7602 126.612 88.3398C127.033 87.9194 127.269 87.3491 127.269 86.7546V11.2301C127.268 10.6358 127.032 10.0659 126.611 9.64566C126.191 9.22538 125.621 8.98896 125.027 8.98828Z" fill="#3F3D56"/>
</g>
<defs>
<clipPath id="clip0_1877_15118">
<rect width="186.809" height="170" fill="white" transform="translate(0.0957031)"/>
</clipPath>
</defs>
</svg>
