<svg width="25" height="24" viewBox="0 0 25 24" fill="none" xmlns="http://www.w3.org/2000/svg">
<path d="M18.7095 4H6.79054C5.98414 4 5.21077 4.32034 4.64055 4.89055C4.07034 5.46077 3.75 6.23414 3.75 7.04054V13.6081C3.75 14.4145 4.07034 15.1879 4.64055 15.7581C5.21077 16.3283 5.98414 16.6486 6.79054 16.6486H9.81081V19.7297C9.80773 19.8462 9.83818 19.9611 9.89853 20.0608C9.95888 20.1604 10.0466 20.2407 10.1512 20.2919C10.2559 20.3432 10.373 20.3633 10.4887 20.3498C10.6045 20.3364 10.7139 20.29 10.8041 20.2162L15.3041 16.6486H18.7095C19.1087 16.6486 19.5041 16.57 19.873 16.4172C20.2419 16.2644 20.5771 16.0404 20.8594 15.7581C21.1418 15.4758 21.3658 15.1406 21.5186 14.7717C21.6714 14.4028 21.75 14.0074 21.75 13.6081V7.04054C21.75 6.23414 21.4297 5.46077 20.8594 4.89055C20.2892 4.32034 19.5159 4 18.7095 4ZM20.5338 13.6081C20.5338 14.0919 20.3416 14.556 19.9995 14.8981C19.6573 15.2402 19.1933 15.4324 18.7095 15.4324H15.0811C14.9426 15.4279 14.8067 15.4708 14.6959 15.5541L11.027 18.473V16.0405C11.027 15.8793 10.963 15.7246 10.8489 15.6105C10.7349 15.4965 10.5802 15.4324 10.4189 15.4324H6.79054C6.3067 15.4324 5.84268 15.2402 5.50055 14.8981C5.15842 14.556 4.96622 14.0919 4.96622 13.6081V7.04054C4.96622 6.5567 5.15842 6.09268 5.50055 5.75055C5.84268 5.40842 6.3067 5.21622 6.79054 5.21622H18.7095C19.1933 5.21622 19.6573 5.40842 19.9995 5.75055C20.3416 6.09268 20.5338 6.5567 20.5338 7.04054V13.6081Z" fill="black"/>
<path d="M7.84465 8.37891C7.44775 8.37891 7.05976 8.4966 6.72975 8.71711C6.39974 8.93761 6.14253 9.25102 5.99065 9.61771C5.83876 9.9844 5.79902 10.3879 5.87645 10.7772C5.95388 11.1664 6.14501 11.524 6.42566 11.8047C6.70631 12.0853 7.06388 12.2764 7.45315 12.3539C7.84242 12.4313 8.24591 12.3916 8.6126 12.2397C8.97929 12.0878 9.2927 11.8306 9.51321 11.5006C9.73371 11.1705 9.85141 10.7826 9.85141 10.3857C9.85141 10.1221 9.7995 9.86118 9.69865 9.61771C9.5978 9.37424 9.44998 9.15302 9.26364 8.96667C9.0773 8.78033 8.85607 8.63251 8.6126 8.53166C8.36913 8.43081 8.10818 8.37891 7.84465 8.37891ZM7.84465 11.1762C7.68829 11.1762 7.53545 11.1298 7.40545 11.043C7.27544 10.9561 7.17412 10.8326 7.11428 10.6882C7.05445 10.5437 7.03879 10.3848 7.0693 10.2314C7.0998 10.0781 7.17509 9.93723 7.28565 9.82667C7.39621 9.71611 7.53707 9.64082 7.69042 9.61031C7.84377 9.57981 8.00272 9.59546 8.14718 9.6553C8.29163 9.71513 8.41509 9.81646 8.50196 9.94646C8.58882 10.0765 8.63519 10.2293 8.63519 10.3857C8.63519 10.5953 8.5519 10.7964 8.40365 10.9447C8.25539 11.0929 8.05431 11.1762 7.84465 11.1762Z" fill="black"/>
<path d="M12.7499 8.37891C12.353 8.37891 11.965 8.4966 11.635 8.71711C11.305 8.93761 11.0478 9.25102 10.8959 9.61771C10.744 9.9844 10.7043 10.3879 10.7817 10.7772C10.8592 11.1664 11.0503 11.524 11.3309 11.8047C11.6116 12.0853 11.9692 12.2764 12.3584 12.3539C12.7477 12.4313 13.1512 12.3916 13.5179 12.2397C13.8846 12.0878 14.198 11.8306 14.4185 11.5006C14.639 11.1705 14.7567 10.7826 14.7567 10.3857C14.7567 9.85344 14.5453 9.34301 14.1689 8.96667C13.7926 8.59033 13.2821 8.37891 12.7499 8.37891ZM12.7499 11.1762C12.5936 11.1762 12.4407 11.1298 12.3107 11.043C12.1807 10.9561 12.0794 10.8326 12.0196 10.6882C11.9597 10.5437 11.9441 10.3848 11.9746 10.2314C12.0051 10.0781 12.0804 9.93723 12.1909 9.82667C12.3015 9.71611 12.4423 9.64082 12.5957 9.61031C12.749 9.57981 12.908 9.59546 13.0524 9.6553C13.1969 9.71513 13.3204 9.81646 13.4072 9.94646C13.4941 10.0765 13.5405 10.2293 13.5405 10.3857C13.5405 10.5953 13.4572 10.7964 13.3089 10.9447C13.1607 11.0929 12.9596 11.1762 12.7499 11.1762Z" fill="black"/>
<path d="M17.6557 8.37891C17.2588 8.37891 16.8708 8.4966 16.5408 8.71711C16.2108 8.93761 15.9536 9.25102 15.8017 9.61771C15.6498 9.9844 15.6101 10.3879 15.6875 10.7772C15.7649 11.1664 15.956 11.524 16.2367 11.8047C16.5173 12.0853 16.8749 12.2764 17.2642 12.3539C17.6535 12.4313 18.0569 12.3916 18.4236 12.2397C18.7903 12.0878 19.1037 11.8306 19.3242 11.5006C19.5447 11.1705 19.6624 10.7826 19.6624 10.3857C19.6624 9.85344 19.451 9.34301 19.0747 8.96667C18.6983 8.59033 18.1879 8.37891 17.6557 8.37891ZM17.6557 11.1762C17.4993 11.1762 17.3465 11.1298 17.2165 11.043C17.0865 10.9561 16.9852 10.8326 16.9253 10.6882C16.8655 10.5437 16.8498 10.3848 16.8803 10.2314C16.9108 10.0781 16.9861 9.93723 17.0967 9.82667C17.2072 9.71611 17.3481 9.64082 17.5015 9.61031C17.6548 9.57981 17.8138 9.59546 17.9582 9.6553C18.1027 9.71513 18.2261 9.81646 18.313 9.94646C18.3999 10.0765 18.4462 10.2293 18.4462 10.3857C18.4462 10.5953 18.3629 10.7964 18.2147 10.9447C18.0664 11.0929 17.8653 11.1762 17.6557 11.1762Z" fill="black"/>
</svg>
