<svg width="294" height="68" viewBox="0 0 294 68" fill="none" xmlns="http://www.w3.org/2000/svg">
<path d="M83.8894 5.88421L66.84 35.4956L49.791 65.1074H117.987L100.938 35.4956L83.8894 5.88421Z" fill="white"/>
<path fill-rule="evenodd" clip-rule="evenodd" d="M45.6035 67.5H122.175L103.032 34.2989L83.8895 1.09821L64.7463 34.2988L45.6035 67.5ZM54.3481 62.4445L69.1185 36.8266L83.8894 11.2091L113.43 62.4445H54.3481Z" fill="white"/>
<path d="M112.005 5.88421L94.9552 35.4956L77.9062 65.1074H146.103L129.054 35.4956L112.005 5.88421Z" fill="#FDD20C"/>
<path fill-rule="evenodd" clip-rule="evenodd" d="M73.7188 67.5H150.29L131.147 34.2989L112.005 1.09821L92.8615 34.2988L73.7188 67.5ZM82.4633 62.4445L97.2338 36.8266L112.005 11.2091L141.546 62.4445H82.4633Z" fill="#FDD20C"/>
<path fill-rule="evenodd" clip-rule="evenodd" d="M38.4241 66.9014L57.5674 33.7007L76.7101 0.49958H0.138672L19.2814 33.7007L38.4241 66.9014ZM38.4242 56.7905L8.88322 5.55505H67.9656L53.1951 31.173L38.4242 56.7905Z" fill="#FDD20C"/>
<path d="M177.211 11.8659L171.557 26.8213H168.537L162.854 11.8659H166.909L170.047 21.1091L173.155 11.8659H177.211Z" fill="#FDD20C"/>
<path d="M188.606 19.3095C188.606 17.471 188.319 16.2643 187.744 15.6899C187.303 15.2495 186.72 15.0291 185.992 15.0291C185.283 15.0291 184.709 15.2495 184.268 15.6899C183.694 16.2643 183.407 17.471 183.407 19.3095C183.407 21.167 183.694 22.3832 184.268 22.9576C184.709 23.3984 185.283 23.6184 185.992 23.6184C186.72 23.6184 187.303 23.3984 187.744 22.9576C188.319 22.3832 188.606 21.167 188.606 19.3095ZM192.341 19.3095C192.341 20.7456 192.22 21.9091 191.982 22.7998C191.742 23.6901 191.297 24.4706 190.646 25.141C189.497 26.3667 187.946 26.9795 185.992 26.9795C184.058 26.9795 182.516 26.3667 181.367 25.141C180.716 24.4706 180.27 23.6901 180.031 22.7998C179.791 21.9091 179.672 20.7456 179.672 19.3095C179.672 17.8923 179.791 16.7384 180.031 15.8477C180.27 14.9574 180.716 14.1773 181.367 13.5065C182.516 12.2813 184.058 11.668 185.992 11.668C187.946 11.668 189.497 12.2813 190.646 13.5065C191.297 14.1773 191.742 14.9574 191.982 15.8477C192.22 16.7384 192.341 17.8923 192.341 19.3095Z" fill="#FDD20C"/>
<path d="M204.063 26.8076H202.023C200.606 26.8076 199.528 26.3867 198.792 25.5435C198.054 24.7011 197.685 23.6959 197.685 22.5272V15.1157H196.105V12.2719H197.685V7.84802H201.42V12.2719H204.063V15.1157H201.42V22.2973C201.42 23.198 201.851 23.6475 202.713 23.6475H204.063V26.8076Z" fill="#FDD20C"/>
<path d="M217.42 17.9308C217.4 17.3374 217.285 16.8011 217.075 16.3218C216.615 15.288 215.782 14.7707 214.576 14.7707C213.369 14.7707 212.536 15.288 212.077 16.3218C211.865 16.8011 211.751 17.3374 211.732 17.9308H217.42ZM221.097 20.4876H211.732C211.732 21.4834 212.023 22.2877 212.608 22.9005C213.192 23.5134 213.991 23.8198 215.006 23.8198C215.792 23.8198 216.429 23.71 216.917 23.4892C217.405 23.2696 217.898 22.91 218.396 22.4121L220.666 24.6241C219.842 25.4478 219.009 26.046 218.167 26.4194C217.323 26.7928 216.261 26.9795 214.978 26.9795C214.02 26.9795 213.154 26.8598 212.378 26.6203C211.603 26.3813 210.879 25.9842 210.209 25.4284C209.539 24.873 209.012 24.0782 208.629 23.044C208.246 22.0098 208.055 20.7655 208.055 19.3095C208.055 16.9156 208.648 15.0438 209.836 13.6936C211.023 12.3435 212.603 11.6684 214.576 11.6684C216.606 11.6684 218.2 12.334 219.359 13.6647C220.517 14.9958 221.097 16.7146 221.097 18.8211V20.4876Z" fill="#FDD20C"/>
<path d="M183.379 53.7783H181.196V38.2369L175.593 50.5611H173.726L168.038 38.2369V53.7783H165.855V33.3247H168.038L174.703 47.8319L181.196 33.3247H183.379V53.7783Z" fill="#FDD20C"/>
<path d="M201.821 48.2479C201.993 47.3572 202.08 45.7918 202.08 43.5514C202.08 41.3105 201.993 39.7451 201.821 38.8548C201.649 37.964 201.256 37.2025 200.643 36.5702C199.705 35.5939 198.527 35.1056 197.11 35.1056C195.692 35.1056 194.515 35.5939 193.577 36.5702C192.963 37.2025 192.571 37.964 192.398 38.8548C192.226 39.7451 192.14 41.3105 192.14 43.5514C192.14 45.7918 192.226 47.3572 192.398 48.2479C192.571 49.1387 192.963 49.8997 193.577 50.532C194.515 51.5088 195.692 51.9971 197.11 51.9971C198.527 51.9971 199.705 51.5088 200.643 50.532C201.256 49.8997 201.649 49.1387 201.821 48.2479ZM203.961 38.1935C204.162 39.2563 204.263 41.0425 204.263 43.5514C204.263 46.0602 204.162 47.846 203.961 48.9087C203.76 49.9715 203.219 50.9439 202.338 51.8243C200.921 53.2423 199.178 53.9502 197.11 53.9502C195.041 53.9502 193.299 53.2423 191.882 51.8243C191 50.9439 190.46 49.9715 190.259 48.9087C190.057 47.846 189.957 46.0602 189.957 43.5514C189.957 41.0425 190.057 39.2563 190.259 38.1935C190.46 37.1308 191 36.1588 191.882 35.278C193.299 33.8609 195.041 33.1521 197.11 33.1521C199.178 33.1521 200.921 33.8609 202.338 35.278C203.219 36.1588 203.76 37.1308 203.961 38.1935Z" fill="#FDD20C"/>
<path d="M225.952 53.7783H223.884L213.025 37.3751V53.7783H210.842V33.3247H212.91L223.769 49.6704V33.3247H225.952V53.7783Z" fill="#FDD20C"/>
<path d="M235.488 53.7783H233.305V33.3247H235.488V53.7783Z" fill="#FDD20C"/>
<path d="M254.765 35.2781H248.847V53.7783H246.664V35.2781H240.746V33.3242H254.765V35.2781Z" fill="#FDD20C"/>
<path d="M270.536 48.2479C270.708 47.3572 270.795 45.7918 270.795 43.5514C270.795 41.3105 270.708 39.7451 270.536 38.8548C270.364 37.964 269.971 37.2025 269.358 36.5702C268.42 35.5939 267.242 35.1056 265.825 35.1056C264.407 35.1056 263.23 35.5939 262.291 36.5702C261.678 37.2025 261.286 37.964 261.113 38.8548C260.941 39.7451 260.855 41.3105 260.855 43.5514C260.855 45.7918 260.941 47.3572 261.113 48.2479C261.286 49.1387 261.678 49.8997 262.291 50.532C263.23 51.5088 264.407 51.9971 265.825 51.9971C267.242 51.9971 268.42 51.5088 269.358 50.532C269.971 49.8997 270.364 49.1387 270.536 48.2479ZM272.676 38.1935C272.877 39.2563 272.978 41.0425 272.978 43.5514C272.978 46.0602 272.877 47.846 272.676 48.9087C272.475 49.9715 271.934 50.9439 271.053 51.8243C269.636 53.2423 267.893 53.9502 265.825 53.9502C263.756 53.9502 262.014 53.2423 260.596 51.8243C259.715 50.9439 259.175 49.9715 258.974 48.9087C258.772 47.846 258.672 46.0602 258.672 43.5514C258.672 41.0425 258.772 39.2563 258.974 38.1935C259.175 37.1308 259.715 36.1588 260.596 35.278C262.014 33.8609 263.756 33.1521 265.825 33.1521C267.893 33.1521 269.636 33.8609 271.053 35.278C271.934 36.1588 272.475 37.1308 272.676 38.1935Z" fill="#FDD20C"/>
<path d="M290.169 41.8132C290.906 41.1719 291.276 40.2479 291.276 39.0412C291.276 37.8345 290.902 36.9062 290.155 36.2549C289.408 35.604 288.421 35.2781 287.196 35.2781H281.738V42.7757H287.196C288.441 42.7757 289.432 42.455 290.169 41.8132ZM293.86 53.7783H291.304L286.65 44.7007H281.738V53.7783H279.555V33.3242H287.397C289.197 33.3242 290.658 33.8368 291.778 34.8615C292.898 35.8862 293.459 37.2697 293.459 39.0127C293.459 40.4683 293.057 41.6749 292.252 42.6322C291.448 43.5895 290.365 44.2119 289.006 44.4993L293.86 53.7783Z" fill="#FDD20C"/>
</svg>
