<svg width="682" height="157" viewBox="0 0 682 157" fill="none" xmlns="http://www.w3.org/2000/svg">
    <path d="M410.572 9.23908L397.877 43.8691H391.097L378.335 9.23908H387.441L394.487 30.6411L401.466 9.23908H410.572Z" fill="#231F20"/>
    <path d="M437.558 26.5203C437.558 22.2663 436.893 19.4753 435.564 18.1453C434.544 17.1263 433.193 16.6173 431.509 16.6173C429.87 16.6173 428.54 17.1263 427.521 18.1453C426.192 19.4753 425.528 22.2663 425.528 26.5203C425.528 30.8193 426.192 33.6323 427.521 34.9613C428.54 35.9823 429.87 36.4913 431.509 36.4913C433.193 36.4913 434.544 35.9823 435.564 34.9613C436.893 33.6323 437.558 30.8193 437.558 26.5203ZM446.199 26.5203C446.199 29.8443 445.921 32.5363 445.369 34.5963C444.814 36.6573 443.784 38.4623 442.278 40.0133C439.619 42.8503 436.03 44.2673 431.509 44.2673C427.034 44.2673 423.467 42.8503 420.808 40.0133C419.301 38.4623 418.271 36.6573 417.717 34.5963C417.162 32.5363 416.886 29.8443 416.886 26.5203C416.886 23.2423 417.162 20.5723 417.717 18.5113C418.271 16.4513 419.301 14.6453 420.808 13.0933C423.467 10.2583 427.034 8.83927 431.509 8.83927C436.03 8.83927 439.619 10.2583 442.278 13.0933C443.784 14.6453 444.814 16.4513 445.369 18.5113C445.921 20.5723 446.199 23.2423 446.199 26.5203Z" fill="#231F20"/>
    <path d="M473.319 43.869H468.599C465.32 43.869 462.827 42.894 461.122 40.944C459.416 38.995 458.562 36.669 458.562 33.965V16.816H454.907V10.236H458.562V1.90735e-05H467.204V10.236H473.319V16.816H467.204V33.433C467.204 35.516 468.201 36.557 470.195 36.557H473.319V43.869Z" fill="#231F20"/>
    <path d="M504.226 23.3299C504.181 21.9569 503.915 20.7159 503.428 19.6079C502.365 17.2149 500.437 16.0179 497.646 16.0179C494.854 16.0179 492.926 17.2149 491.863 19.6079C491.374 20.7159 491.109 21.9569 491.065 23.3299H504.226ZM512.734 29.2459H491.065C491.065 31.5509 491.74 33.4119 493.092 34.8289C494.444 36.2479 496.293 36.9559 498.642 36.9559C500.459 36.9559 501.933 36.7019 503.063 36.1919C504.193 35.6839 505.333 34.8519 506.486 33.6989L511.737 38.8169C509.831 40.7239 507.904 42.1069 505.954 42.9719C504.003 43.8359 501.544 44.2669 498.576 44.2669C496.36 44.2669 494.355 43.9899 492.561 43.4369C490.766 42.8839 489.093 41.9649 487.542 40.6789C485.991 39.3929 484.772 37.5549 483.886 35.1619C482.999 32.7679 482.557 29.8889 482.557 26.5199C482.557 20.9819 483.93 16.6499 486.678 13.5259C489.425 10.4019 493.08 8.8399 497.646 8.8399C502.342 8.8399 506.031 10.3809 508.712 13.4599C511.393 16.5399 512.734 20.5169 512.734 25.3909V29.2459Z" fill="#231F20"/>
    <path d="M425.462 106.274H420.41V70.3143L407.448 98.8303H403.128L389.967 70.3143V106.274H384.916V58.9493H389.967L405.388 92.5153L420.41 58.9493H425.462V106.274Z" fill="#231F20"/>
    <path d="M468.134 93.4793C468.533 91.4183 468.733 87.7953 468.733 82.6113C468.733 77.4263 468.533 73.8043 468.134 71.7443C467.736 69.6833 466.826 67.9213 465.409 66.4593C463.238 64.2003 460.512 63.0693 457.234 63.0693C453.953 63.0693 451.229 64.2003 449.058 66.4593C447.639 67.9213 446.732 69.6833 446.332 71.7443C445.934 73.8043 445.735 77.4263 445.735 82.6113C445.735 87.7953 445.934 91.4183 446.332 93.4793C446.732 95.5403 447.639 97.3003 449.058 98.7633C451.229 101.023 453.953 102.153 457.234 102.153C460.512 102.153 463.238 101.023 465.409 98.7633C466.826 97.3003 467.736 95.5403 468.134 93.4793ZM473.086 70.2143C473.551 72.6743 473.784 76.8063 473.784 82.6113C473.784 88.4173 473.551 92.5483 473.086 95.0073C472.621 97.4673 471.368 99.7163 469.33 101.754C466.051 105.034 462.019 106.672 457.234 106.672C452.447 106.672 448.415 105.034 445.136 101.754C443.097 99.7163 441.846 97.4673 441.381 95.0073C440.915 92.5483 440.683 88.4173 440.683 82.6113C440.683 76.8063 440.915 72.6743 441.381 70.2143C441.846 67.7553 443.097 65.5073 445.136 63.4683C448.415 60.1893 452.447 58.5493 457.234 58.5493C462.019 58.5493 466.051 60.1893 469.33 63.4683C471.368 65.5073 472.621 67.7553 473.086 70.2143Z" fill="#231F20"/>
    <path d="M523.966 106.274H519.181L494.055 68.3213V106.274H489.004V58.9493H493.789L518.914 96.7693V58.9493H523.966V106.274Z" fill="#231F20"/>
    <path d="M546.034 106.274H540.983V58.949H546.034V106.274Z" fill="#231F20"/>
    <path d="M590.634 63.4686H576.942V106.275H571.89V63.4686H558.197V58.9486H590.634V63.4686Z" fill="#231F20"/>
    <path d="M627.126 93.4793C627.525 91.4183 627.725 87.7953 627.725 82.6113C627.725 77.4263 627.525 73.8043 627.126 71.7443C626.728 69.6833 625.818 67.9213 624.401 66.4593C622.23 64.2003 619.504 63.0693 616.226 63.0693C612.945 63.0693 610.221 64.2003 608.05 66.4593C606.631 67.9213 605.724 69.6833 605.324 71.7443C604.926 73.8043 604.727 77.4263 604.727 82.6113C604.727 87.7953 604.926 91.4183 605.324 93.4793C605.724 95.5403 606.631 97.3003 608.05 98.7633C610.221 101.023 612.945 102.153 616.226 102.153C619.504 102.153 622.23 101.023 624.401 98.7633C625.818 97.3003 626.728 95.5403 627.126 93.4793ZM632.078 70.2143C632.543 72.6743 632.776 76.8063 632.776 82.6113C632.776 88.4173 632.543 92.5483 632.078 95.0073C631.613 97.4673 630.36 99.7163 628.322 101.754C625.043 105.034 621.011 106.672 616.226 106.672C611.439 106.672 607.407 105.034 604.128 101.754C602.089 99.7163 600.838 97.4673 600.373 95.0073C599.907 92.5483 599.675 88.4173 599.675 82.6113C599.675 76.8063 599.907 72.6743 600.373 70.2143C600.838 67.7553 602.089 65.5073 604.128 63.4683C607.407 60.1893 611.439 58.5493 616.226 58.5493C621.011 58.5493 625.043 60.1893 628.322 63.4683C630.36 65.5073 631.613 67.7553 632.078 70.2143Z" fill="#231F20"/>
    <path d="M672.556 78.5897C674.261 77.1067 675.116 74.9677 675.116 72.1757C675.116 69.3847 674.251 67.2357 672.523 65.7287C670.794 64.2227 668.512 63.4687 665.677 63.4687H653.047V80.8177H665.677C668.557 80.8177 670.85 80.0747 672.556 78.5897ZM681.097 106.275H675.182L664.413 85.2707H653.047V106.275H647.996V58.9487H666.142C670.307 58.9487 673.686 60.1347 676.279 62.5047C678.87 64.8757 680.167 68.0777 680.167 72.1097C680.167 75.4777 679.237 78.2697 677.375 80.4847C675.514 82.7007 673.01 84.1407 669.865 84.8047L681.097 106.275Z" fill="#231F20"/>
    <path d="M398.474 148.609C398.054 151.106 397.027 153.043 395.394 154.419C393.76 155.796 391.73 156.484 389.304 156.484C386.644 156.484 384.404 155.574 382.583 153.755C381.51 152.681 380.833 151.432 380.554 150.009C380.274 148.609 380.134 146.544 380.134 143.814C380.134 141.084 380.274 139.019 380.554 137.619C380.833 136.196 381.51 134.948 382.583 133.874C384.404 132.054 386.644 131.144 389.304 131.144C391.73 131.144 393.76 131.833 395.394 133.209C397.027 134.587 398.054 136.522 398.474 139.019H393.538C392.955 136.663 391.555 135.484 389.338 135.484C387.985 135.484 386.947 135.916 386.224 136.779C385.71 137.316 385.377 138.021 385.226 138.896C385.075 139.771 384.998 141.411 384.998 143.814C384.998 146.217 385.075 147.856 385.226 148.731C385.377 149.606 385.71 150.312 386.224 150.849C386.947 151.713 387.985 152.144 389.338 152.144C391.555 152.144 392.955 150.966 393.538 148.609H398.474Z" fill="#231F20"/>
    <path d="M409.288 156.274H404.424V131.354H409.288V156.274Z" fill="#231F20"/>
    <path d="M432.879 135.694H426.369V156.274H421.504V135.694H414.994V131.354H432.879V135.694Z" fill="#231F20"/>
    <path d="M443.448 156.274H438.584V131.354H443.448V156.274Z" fill="#231F20"/>
    <path d="M465.883 156.274H449.503V152.354L460.143 135.694H449.958V131.354H465.883V135.204L455.208 151.934H465.883V156.274Z" fill="#231F20"/>
    <path d="M488.353 156.274H471.938V131.354H488.353V135.694H476.802V141.539H486.638V145.879H476.802V151.934H488.353V156.274Z" fill="#231F20"/>
    <path d="M513.938 156.274H509.597L499.727 140.979V156.274H494.863V131.354H499.203L509.073 146.614V131.354H513.938V156.274Z" fill="#231F20"/>
    <path d="M195.426 14.2399L156.089 82.3719L116.753 150.505H274.098L234.762 82.3719L195.426 14.2399Z" fill="#5F2D8C"/>
    <path d="M195.426 14.2399L156.089 82.3719L116.753 150.505H274.098L234.762 82.3719L195.426 14.2399Z" stroke="#5F2D8C" stroke-width="11.712" stroke-miterlimit="10"/>
    <path d="M260.345 14.2399L221.008 82.3719L181.672 150.505H339.017L299.681 82.3719L260.345 14.2399Z" fill="#231F20"/>
    <path d="M260.345 14.2399L221.008 82.3719L181.672 150.505H339.017L299.681 82.3719L260.345 14.2399Z" stroke="#231F20" stroke-width="11.712" stroke-miterlimit="10"/>
    <path d="M89.672 143.836L129.009 75.7039L168.345 7.57088H11L50.336 75.7039L89.672 143.836Z" stroke="#231F20" stroke-width="11.712" stroke-miterlimit="10"/>
    </svg>
    