<svg width="296" height="82" viewBox="0 0 296 82" fill="none" xmlns="http://www.w3.org/2000/svg">
<path d="M172.836 77.24C171.422 77.24 170.209 76.94 169.196 76.34C168.182 75.7267 167.402 74.88 166.856 73.8C166.309 72.7067 166.036 71.4467 166.036 70.02C166.036 68.5933 166.309 67.3333 166.856 66.24C167.402 65.1467 168.182 64.2933 169.196 63.68C170.209 63.0667 171.422 62.76 172.836 62.76C174.516 62.76 175.889 63.18 176.956 64.02C178.036 64.8467 178.709 66.0133 178.976 67.52H176.156C175.982 66.76 175.609 66.1667 175.036 65.74C174.476 65.3 173.729 65.08 172.796 65.08C171.502 65.08 170.489 65.52 169.756 66.4C169.022 67.28 168.656 68.4867 168.656 70.02C168.656 71.5533 169.022 72.76 169.756 73.64C170.489 74.5067 171.502 74.94 172.796 74.94C173.729 74.94 174.476 74.74 175.036 74.34C175.609 73.9267 175.982 73.36 176.156 72.64H178.976C178.709 74.08 178.036 75.2067 176.956 76.02C175.889 76.8333 174.516 77.24 172.836 77.24ZM180.842 77V63H183.402V77H180.842ZM188.975 77V65.06H184.895V63H195.635V65.06H191.535V77H188.975ZM197.131 77V63H199.691V77H197.131ZM201.585 77V75.04L208.025 65.14H201.645V63H210.985V64.96L204.505 74.86H211.025V77H201.585ZM212.933 77V63H222.073V65.06H215.493V68.9H221.473V70.9H215.493V74.94H222.073V77H212.933ZM224.096 77V63H226.656L233.236 72.86V63H235.796V77H233.236L226.656 67.16V77H224.096Z" fill="#27272A"/>
<path d="M178.151 11.4906L172.651 26.4941H169.714L164.185 11.4906H168.13L171.182 20.7631L174.206 11.4906H178.151Z" fill="#231F20"/>
<path d="M189.843 18.9791C189.843 17.136 189.555 15.9268 188.979 15.3506C188.537 14.9091 187.952 14.6886 187.222 14.6886C186.512 14.6886 185.936 14.9091 185.494 15.3506C184.919 15.9268 184.631 17.136 184.631 18.9791C184.631 20.8416 184.919 22.0603 185.494 22.6361C185.936 23.0785 186.512 23.299 187.222 23.299C187.952 23.299 188.537 23.0785 188.979 22.6361C189.555 22.0603 189.843 20.8416 189.843 18.9791ZM193.587 18.9791C193.587 20.4192 193.466 21.5855 193.227 22.478C192.987 23.3709 192.54 24.1529 191.888 24.8249C190.736 26.0541 189.181 26.668 187.222 26.668C185.283 26.668 183.738 26.0541 182.586 24.8249C181.933 24.1529 181.487 23.3709 181.247 22.478C181.006 21.5855 180.887 20.4192 180.887 18.9791C180.887 17.5589 181.006 16.4021 181.247 15.5091C181.487 14.6166 181.933 13.8342 182.586 13.1618C183.738 11.9335 185.283 11.3187 187.222 11.3187C189.181 11.3187 190.736 11.9335 191.888 13.1618C192.54 13.8342 192.987 14.6166 193.227 15.5091C193.466 16.4021 193.587 17.5589 193.587 18.9791Z" fill="#231F20"/>
<path d="M205.336 26.4941H203.291C201.871 26.4941 200.791 26.0717 200.052 25.2269C199.313 24.3825 198.943 23.3747 198.943 22.2032V14.7734H197.359V11.9226H198.943V7.48784H202.687V11.9226H205.336V14.7734H202.687V21.9727C202.687 22.8752 203.119 23.3262 203.983 23.3262H205.336V26.4941Z" fill="#231F20"/>
<path d="M218.726 17.595C218.707 17.0002 218.591 16.4625 218.38 15.9825C217.92 14.9457 217.084 14.4271 215.875 14.4271C214.666 14.4271 213.83 14.9457 213.37 15.9825C213.158 16.4625 213.043 17.0002 213.024 17.595H218.726ZM222.412 20.1581H213.024C213.024 21.1568 213.316 21.9631 213.902 22.577C214.488 23.1918 215.289 23.4985 216.307 23.4985C217.094 23.4985 217.733 23.3885 218.222 23.1675C218.712 22.9474 219.206 22.587 219.705 22.0874L221.98 24.3048C221.154 25.131 220.32 25.7302 219.475 26.105C218.629 26.4793 217.564 26.666 216.278 26.666C215.318 26.666 214.449 26.546 213.672 26.3064C212.894 26.0668 212.17 25.6687 211.498 25.1115C210.826 24.5543 210.298 23.758 209.914 22.7213C209.529 21.6841 209.338 20.4367 209.338 18.9771C209.338 16.5778 209.933 14.7009 211.123 13.3474C212.313 11.994 213.897 11.3172 215.875 11.3172C217.91 11.3172 219.508 11.9849 220.67 13.3188C221.831 14.6533 222.412 16.3763 222.412 18.488V20.1581Z" fill="#231F20"/>
<path d="M184.601 53.5322H182.412V37.9525L176.796 50.3071H174.925L169.223 37.9525V53.5322H167.034V33.0286H169.223L175.904 47.5711L182.412 33.0286H184.601V53.5322Z" fill="#231F20"/>
<path d="M203.089 47.9882C203.262 47.0953 203.349 45.5256 203.349 43.2796C203.349 41.0332 203.262 39.464 203.089 38.5715C202.917 37.6786 202.523 36.9152 201.909 36.2818C200.968 35.3031 199.787 34.813 198.367 34.813C196.946 34.813 195.765 35.3031 194.825 36.2818C194.21 36.9152 193.817 37.6786 193.644 38.5715C193.471 39.464 193.385 41.0332 193.385 43.2796C193.385 45.5256 193.471 47.0953 193.644 47.9882C193.817 48.8811 194.21 49.6437 194.825 50.2775C195.765 51.2567 196.946 51.7462 198.367 51.7462C199.787 51.7462 200.968 51.2567 201.909 50.2775C202.523 49.6437 202.917 48.8811 203.089 47.9882ZM205.235 37.9086C205.436 38.9744 205.537 40.7646 205.537 43.2796C205.537 45.7951 205.436 47.5849 205.235 48.6502C205.033 49.716 204.491 50.6904 203.608 51.5734C202.187 52.9944 200.44 53.7041 198.367 53.7041C196.293 53.7041 194.546 52.9944 193.126 51.5734C192.242 50.6904 191.7 49.716 191.499 48.6502C191.297 47.5849 191.196 45.7951 191.196 43.2796C191.196 40.7646 191.297 38.9744 191.499 37.9086C191.7 36.8433 192.242 35.8693 193.126 34.9859C194.546 33.5653 196.293 32.8547 198.367 32.8547C200.44 32.8547 202.187 33.5653 203.608 34.9859C204.491 35.8693 205.033 36.8433 205.235 37.9086Z" fill="#231F20"/>
<path d="M227.279 53.5322H225.206L214.32 37.089V53.5322H212.132V33.0286H214.205L225.09 49.4142V33.0286H227.279V53.5322Z" fill="#231F20"/>
<path d="M236.841 53.5303H234.652V33.0267H236.841V53.5303Z" fill="#231F20"/>
<path d="M256.164 34.9865H250.232V53.5322H248.043V34.9865H242.11V33.0282H256.164V34.9865Z" fill="#231F20"/>
<path d="M271.973 47.9882C272.146 47.0953 272.233 45.5256 272.233 43.2796C272.233 41.0332 272.146 39.464 271.973 38.5715C271.801 37.6786 271.407 36.9152 270.793 36.2818C269.852 35.3031 268.671 34.813 267.251 34.813C265.829 34.813 264.649 35.3031 263.709 36.2818C263.094 36.9152 262.701 37.6786 262.528 38.5715C262.355 39.464 262.269 41.0332 262.269 43.2796C262.269 45.5256 262.355 47.0953 262.528 47.9882C262.701 48.8811 263.094 49.6437 263.709 50.2775C264.649 51.2567 265.829 51.7462 267.251 51.7462C268.671 51.7462 269.852 51.2567 270.793 50.2775C271.407 49.6437 271.801 48.8811 271.973 47.9882ZM274.119 37.9086C274.32 38.9744 274.421 40.7646 274.421 43.2796C274.421 45.7951 274.32 47.5849 274.119 48.6502C273.917 49.716 273.374 50.6904 272.491 51.5734C271.071 52.9944 269.324 53.7041 267.251 53.7041C265.177 53.7041 263.43 52.9944 262.009 51.5734C261.126 50.6904 260.584 49.716 260.382 48.6502C260.181 47.5849 260.08 45.7951 260.08 43.2796C260.08 40.7646 260.181 38.9744 260.382 37.9086C260.584 36.8433 261.126 35.8693 262.009 34.9859C263.43 33.5653 265.177 32.8547 267.251 32.8547C269.324 32.8547 271.071 33.5653 272.491 34.9859C273.374 35.8693 273.917 36.8433 274.119 37.9086Z" fill="#231F20"/>
<path d="M291.656 41.5377C292.395 40.8952 292.765 39.9684 292.765 38.7588C292.765 37.5496 292.391 36.6185 291.642 35.9656C290.893 35.3131 289.904 34.9865 288.676 34.9865H283.204V42.5029H288.676C289.924 42.5029 290.917 42.181 291.656 41.5377ZM295.357 53.5322H292.794L288.128 44.4322H283.204V53.5322H281.016V33.0282H288.877C290.682 33.0282 292.146 33.542 293.269 34.5688C294.392 35.5961 294.954 36.9833 294.954 38.7302C294.954 40.1894 294.551 41.399 293.744 42.3587C292.938 43.3188 291.853 43.9426 290.49 44.2303L295.357 53.5322Z" fill="#231F20"/>
<path d="M84.9397 5.42687L67.8969 34.9452L50.8545 64.4639H119.024L101.982 34.9452L84.9397 5.42687Z" fill="#7833B3"/>
<path fill-rule="evenodd" clip-rule="evenodd" d="M46.46 67H123.419L104.179 33.6756L84.9396 0.351692L65.6995 33.6756L46.46 67ZM55.2487 61.9258L70.0939 36.2128L84.9395 10.5001L114.63 61.9258H55.2487Z" fill="#7833B3"/>
<path d="M113.067 5.42687L96.0238 34.9452L78.9814 64.4639H147.151L130.109 34.9452L113.067 5.42687Z" fill="#231F20"/>
<path fill-rule="evenodd" clip-rule="evenodd" d="M74.5869 67H151.546L132.306 33.6756L113.067 0.351692L93.8265 33.6756L74.5869 67ZM83.3757 61.9258L98.2209 36.2128L113.066 10.5001L142.757 61.9258H83.3757Z" fill="#231F20"/>
<path fill-rule="evenodd" clip-rule="evenodd" d="M39.1217 66.6484L58.3617 33.3245L77.6013 0.0001297H0.642578L19.8821 33.3245L39.1217 66.6484ZM39.1217 56.5L9.43135 5.07437H68.8125L53.9673 30.7874L39.1217 56.5Z" fill="#231F20"/>
</svg>
