<svg width="294" height="84" viewBox="0 0 294 84" fill="none" xmlns="http://www.w3.org/2000/svg">
<path d="M169.69 76.442C168.57 76.442 167.589 76.1967 166.746 75.706C165.914 75.2153 165.258 74.538 164.778 73.674C164.309 72.7993 164.074 71.7913 164.074 70.65C164.074 69.5087 164.309 68.506 164.778 67.642C165.258 66.7673 165.914 66.0847 166.746 65.594C167.589 65.1033 168.57 64.858 169.69 64.858C170.8 64.858 171.776 65.1033 172.618 65.594C173.461 66.0847 174.117 66.7673 174.586 67.642C175.056 68.506 175.29 69.5087 175.29 70.65C175.29 71.7913 175.056 72.7993 174.586 73.674C174.117 74.538 173.461 75.2153 172.618 75.706C171.776 76.1967 170.8 76.442 169.69 76.442ZM169.69 74.602C170.757 74.602 171.605 74.25 172.234 73.546C172.874 72.842 173.194 71.8767 173.194 70.65C173.194 69.4233 172.874 68.458 172.234 67.754C171.605 67.05 170.757 66.698 169.69 66.698C168.624 66.698 167.77 67.05 167.13 67.754C166.49 68.458 166.17 69.4233 166.17 70.65C166.17 71.8767 166.49 72.842 167.13 73.546C167.77 74.25 168.624 74.602 169.69 74.602ZM176.779 76.25V65.05H181.275C182.437 65.05 183.323 65.322 183.931 65.866C184.549 66.3993 184.859 67.0873 184.859 67.93C184.859 68.634 184.667 69.1993 184.283 69.626C183.909 70.042 183.451 70.3247 182.907 70.474C183.547 70.602 184.075 70.922 184.491 71.434C184.907 71.9353 185.115 72.522 185.115 73.194C185.115 74.0793 184.795 74.81 184.155 75.386C183.515 75.962 182.608 76.25 181.435 76.25H176.779ZM178.827 69.754H180.971C181.547 69.754 181.989 69.6207 182.299 69.354C182.608 69.0873 182.763 68.7087 182.763 68.218C182.763 67.7487 182.608 67.3807 182.299 67.114C182 66.8367 181.547 66.698 180.939 66.698H178.827V69.754ZM178.827 74.586H181.115C181.723 74.586 182.192 74.4473 182.523 74.17C182.864 73.882 183.035 73.482 183.035 72.97C183.035 72.4473 182.859 72.0367 182.507 71.738C182.155 71.4393 181.68 71.29 181.083 71.29H178.827V74.586ZM190.376 76.442C189.555 76.442 188.83 76.3033 188.2 76.026C187.571 75.738 187.075 75.3327 186.712 74.81C186.35 74.2767 186.163 73.6313 186.152 72.874H188.312C188.334 73.3967 188.52 73.8393 188.872 74.202C189.235 74.554 189.731 74.73 190.36 74.73C190.904 74.73 191.336 74.602 191.656 74.346C191.976 74.0793 192.136 73.7273 192.136 73.29C192.136 72.8313 191.992 72.474 191.704 72.218C191.427 71.962 191.054 71.754 190.584 71.594C190.115 71.434 189.614 71.2633 189.08 71.082C188.216 70.7833 187.555 70.3993 187.096 69.93C186.648 69.4607 186.424 68.8367 186.424 68.058C186.414 67.3967 186.568 66.8313 186.888 66.362C187.219 65.882 187.667 65.514 188.232 65.258C188.798 64.9913 189.448 64.858 190.184 64.858C190.931 64.858 191.587 64.9913 192.152 65.258C192.728 65.5247 193.176 65.898 193.496 66.378C193.827 66.858 194.003 67.4287 194.024 68.09H191.832C191.822 67.6953 191.667 67.3487 191.368 67.05C191.08 66.7407 190.675 66.586 190.152 66.586C189.704 66.5753 189.326 66.6873 189.016 66.922C188.718 67.146 188.568 67.4767 188.568 67.914C188.568 68.2873 188.686 68.586 188.92 68.81C189.155 69.0233 189.475 69.2047 189.88 69.354C190.286 69.5033 190.75 69.6633 191.272 69.834C191.827 70.026 192.334 70.25 192.792 70.506C193.251 70.762 193.619 71.1033 193.896 71.53C194.174 71.946 194.312 72.4847 194.312 73.146C194.312 73.7327 194.163 74.2767 193.864 74.778C193.566 75.2793 193.123 75.6847 192.536 75.994C191.95 76.2927 191.23 76.442 190.376 76.442ZM195.779 76.25V65.05H203.091V66.698H197.827V69.77H202.611V71.37H197.827V74.602H203.091V76.25H195.779ZM204.709 76.25V65.05H208.821C209.717 65.05 210.453 65.2047 211.029 65.514C211.616 65.8127 212.053 66.2233 212.341 66.746C212.629 67.258 212.773 67.8287 212.773 68.458C212.773 69.1407 212.592 69.7647 212.229 70.33C211.877 70.8953 211.323 71.306 210.565 71.562L212.885 76.25H210.533L208.453 71.834H206.757V76.25H204.709ZM206.757 70.33H208.693C209.376 70.33 209.877 70.1647 210.197 69.834C210.517 69.5033 210.677 69.066 210.677 68.522C210.677 67.9887 210.517 67.562 210.197 67.242C209.888 66.922 209.381 66.762 208.677 66.762H206.757V70.33ZM217.215 76.25L213.119 65.05H215.311L218.479 74.154L221.663 65.05H223.823L219.727 76.25H217.215ZM224.835 76.25V65.05H232.147V66.698H226.883V69.77H231.667V71.37H226.883V74.602H232.147V76.25H224.835ZM233.765 76.25V65.05H237.877C238.773 65.05 239.509 65.2047 240.085 65.514C240.672 65.8127 241.109 66.2233 241.397 66.746C241.685 67.258 241.829 67.8287 241.829 68.458C241.829 69.1407 241.648 69.7647 241.285 70.33C240.933 70.8953 240.378 71.306 239.621 71.562L241.941 76.25H239.589L237.509 71.834H235.813V76.25H233.765ZM235.813 70.33H237.749C238.432 70.33 238.933 70.1647 239.253 69.834C239.573 69.5033 239.733 69.066 239.733 68.522C239.733 67.9887 239.573 67.562 239.253 67.242C238.944 66.922 238.437 66.762 237.733 66.762H235.813V70.33Z" fill="#FDD20C"/>
<path d="M83.8885 6.13421L66.839 35.7456L49.79 65.3574H117.986L100.937 35.7456L83.8885 6.13421Z" fill="white"/>
<path fill-rule="evenodd" clip-rule="evenodd" d="M45.6025 67.75H122.174L103.031 34.5489L83.8885 1.34821L64.7453 34.5488L45.6025 67.75ZM54.3471 62.6945L69.1176 37.0766L83.8884 11.4591L113.429 62.6945H54.3471Z" fill="white"/>
<path d="M112.005 6.13421L94.9552 35.7456L77.9062 65.3574H146.103L129.054 35.7456L112.005 6.13421Z" fill="#FDD20C"/>
<path fill-rule="evenodd" clip-rule="evenodd" d="M73.7188 67.75H150.29L131.147 34.5489L112.005 1.34821L92.8615 34.5488L73.7188 67.75ZM82.4633 62.6945L97.2338 37.0766L112.005 11.4591L141.546 62.6945H82.4633Z" fill="#FDD20C"/>
<path fill-rule="evenodd" clip-rule="evenodd" d="M38.4241 67.1514L57.5674 33.9507L76.7101 0.74958H0.138672L19.2814 33.9507L38.4241 67.1514ZM38.4242 57.0405L8.88322 5.80505H67.9656L53.1951 31.423L38.4242 57.0405Z" fill="#FDD20C"/>
<path d="M177.21 12.1159L171.556 27.0713H168.536L162.853 12.1159H166.908L170.046 21.3591L173.154 12.1159H177.21Z" fill="#FDD20C"/>
<path d="M188.607 19.5595C188.607 17.721 188.32 16.5143 187.745 15.9399C187.304 15.4995 186.721 15.2791 185.993 15.2791C185.284 15.2791 184.71 15.4995 184.269 15.9399C183.695 16.5143 183.408 17.721 183.408 19.5595C183.408 21.417 183.695 22.6332 184.269 23.2076C184.71 23.6484 185.284 23.8684 185.993 23.8684C186.721 23.8684 187.304 23.6484 187.745 23.2076C188.32 22.6332 188.607 21.417 188.607 19.5595ZM192.342 19.5595C192.342 20.9956 192.221 22.1591 191.983 23.0498C191.743 23.9401 191.298 24.7206 190.647 25.391C189.498 26.6167 187.947 27.2295 185.993 27.2295C184.059 27.2295 182.517 26.6167 181.368 25.391C180.717 24.7206 180.271 23.9401 180.032 23.0498C179.792 22.1591 179.673 20.9956 179.673 19.5595C179.673 18.1423 179.792 16.9884 180.032 16.0977C180.271 15.2074 180.717 14.4273 181.368 13.7565C182.517 12.5313 184.059 11.918 185.993 11.918C187.947 11.918 189.498 12.5313 190.647 13.7565C191.298 14.4273 191.743 15.2074 191.983 16.0977C192.221 16.9884 192.342 18.1423 192.342 19.5595Z" fill="#FDD20C"/>
<path d="M204.062 27.0576H202.022C200.605 27.0576 199.527 26.6367 198.791 25.7935C198.053 24.9511 197.684 23.9459 197.684 22.7772V15.3657H196.104V12.5219H197.684V8.09802H201.419V12.5219H204.062V15.3657H201.419V22.5473C201.419 23.448 201.85 23.8975 202.712 23.8975H204.062V27.0576Z" fill="#FDD20C"/>
<path d="M217.42 18.1808C217.4 17.5874 217.285 17.0511 217.075 16.5718C216.615 15.538 215.782 15.0207 214.576 15.0207C213.369 15.0207 212.536 15.538 212.077 16.5718C211.865 17.0511 211.751 17.5874 211.732 18.1808H217.42ZM221.097 20.7376H211.732C211.732 21.7334 212.023 22.5377 212.608 23.1505C213.192 23.7634 213.991 24.0698 215.006 24.0698C215.792 24.0698 216.429 23.96 216.917 23.7392C217.405 23.5196 217.898 23.16 218.396 22.6621L220.666 24.8741C219.842 25.6978 219.009 26.296 218.167 26.6694C217.323 27.0428 216.261 27.2295 214.978 27.2295C214.02 27.2295 213.154 27.1098 212.378 26.8703C211.603 26.6313 210.879 26.2342 210.209 25.6784C209.539 25.123 209.012 24.3282 208.629 23.294C208.246 22.2598 208.055 21.0155 208.055 19.5595C208.055 17.1656 208.648 15.2938 209.836 13.9436C211.023 12.5935 212.603 11.9184 214.576 11.9184C216.606 11.9184 218.2 12.584 219.359 13.9147C220.517 15.2458 221.097 16.9646 221.097 19.0711V20.7376Z" fill="#FDD20C"/>
<path d="M183.379 54.0283H181.196V38.4869L175.593 50.8111H173.726L168.038 38.4869V54.0283H165.855V33.5747H168.038L174.703 48.0819L181.196 33.5747H183.379V54.0283Z" fill="#FDD20C"/>
<path d="M201.821 48.4979C201.993 47.6072 202.08 46.0418 202.08 43.8014C202.08 41.5605 201.993 39.9951 201.821 39.1048C201.649 38.214 201.256 37.4525 200.643 36.8202C199.705 35.8439 198.527 35.3556 197.11 35.3556C195.692 35.3556 194.515 35.8439 193.577 36.8202C192.963 37.4525 192.571 38.214 192.398 39.1048C192.226 39.9951 192.14 41.5605 192.14 43.8014C192.14 46.0418 192.226 47.6072 192.398 48.4979C192.571 49.3887 192.963 50.1497 193.577 50.782C194.515 51.7588 195.692 52.2471 197.11 52.2471C198.527 52.2471 199.705 51.7588 200.643 50.782C201.256 50.1497 201.649 49.3887 201.821 48.4979ZM203.961 38.4435C204.162 39.5063 204.263 41.2925 204.263 43.8014C204.263 46.3102 204.162 48.096 203.961 49.1587C203.76 50.2215 203.219 51.1939 202.338 52.0743C200.921 53.4923 199.178 54.2002 197.11 54.2002C195.041 54.2002 193.299 53.4923 191.882 52.0743C191 51.1939 190.46 50.2215 190.259 49.1587C190.057 48.096 189.957 46.3102 189.957 43.8014C189.957 41.2925 190.057 39.5063 190.259 38.4435C190.46 37.3808 191 36.4088 191.882 35.528C193.299 34.1109 195.041 33.4021 197.11 33.4021C199.178 33.4021 200.921 34.1109 202.338 35.528C203.219 36.4088 203.76 37.3808 203.961 38.4435Z" fill="#FDD20C"/>
<path d="M225.952 54.0283H223.884L213.025 37.6251V54.0283H210.842V33.5747H212.91L223.769 49.9204V33.5747H225.952V54.0283Z" fill="#FDD20C"/>
<path d="M235.489 54.0283H233.306V33.5747H235.489V54.0283Z" fill="#FDD20C"/>
<path d="M254.765 35.5281H248.847V54.0283H246.664V35.5281H240.746V33.5742H254.765V35.5281Z" fill="#FDD20C"/>
<path d="M270.535 48.4979C270.707 47.6072 270.794 46.0418 270.794 43.8014C270.794 41.5605 270.707 39.9951 270.535 39.1048C270.363 38.214 269.97 37.4525 269.357 36.8202C268.419 35.8439 267.241 35.3556 265.824 35.3556C264.406 35.3556 263.229 35.8439 262.29 36.8202C261.677 37.4525 261.285 38.214 261.112 39.1048C260.94 39.9951 260.854 41.5605 260.854 43.8014C260.854 46.0418 260.94 47.6072 261.112 48.4979C261.285 49.3887 261.677 50.1497 262.29 50.782C263.229 51.7588 264.406 52.2471 265.824 52.2471C267.241 52.2471 268.419 51.7588 269.357 50.782C269.97 50.1497 270.363 49.3887 270.535 48.4979ZM272.675 38.4435C272.876 39.5063 272.977 41.2925 272.977 43.8014C272.977 46.3102 272.876 48.096 272.675 49.1587C272.474 50.2215 271.933 51.1939 271.052 52.0743C269.635 53.4923 267.892 54.2002 265.824 54.2002C263.755 54.2002 262.013 53.4923 260.595 52.0743C259.714 51.1939 259.174 50.2215 258.973 49.1587C258.771 48.096 258.671 46.3102 258.671 43.8014C258.671 41.2925 258.771 39.5063 258.973 38.4435C259.174 37.3808 259.714 36.4088 260.595 35.528C262.013 34.1109 263.755 33.4021 265.824 33.4021C267.892 33.4021 269.635 34.1109 271.052 35.528C271.933 36.4088 272.474 37.3808 272.675 38.4435Z" fill="#FDD20C"/>
<path d="M290.17 42.0632C290.907 41.4219 291.277 40.4979 291.277 39.2912C291.277 38.0845 290.903 37.1562 290.156 36.5049C289.409 35.854 288.422 35.5281 287.197 35.5281H281.739V43.0257H287.197C288.442 43.0257 289.433 42.705 290.17 42.0632ZM293.861 54.0283H291.305L286.651 44.9507H281.739V54.0283H279.556V33.5742H287.398C289.198 33.5742 290.659 34.0868 291.779 35.1115C292.899 36.1362 293.46 37.5197 293.46 39.2627C293.46 40.7183 293.058 41.9249 292.253 42.8822C291.449 43.8395 290.366 44.4619 289.007 44.7493L293.861 54.0283Z" fill="#FDD20C"/>
</svg>
