<svg width="681" height="157" viewBox="0 0 681 157" fill="none" xmlns="http://www.w3.org/2000/svg">
    <path d="M195.426 13.6686L156.089 81.8006L116.753 149.934H274.098L234.762 81.8006L195.426 13.6686Z" fill="white"/>
    <path d="M195.426 13.6686L156.089 81.8006L116.753 149.934H274.098L234.762 81.8006L195.426 13.6686Z" stroke="white" stroke-width="11.712" stroke-miterlimit="10"/>
    <path d="M260.345 13.6686L221.008 81.8006L181.672 149.934H339.017L299.681 81.8006L260.345 13.6686Z" fill="#FDD20C"/>
    <path d="M260.345 13.6686L221.008 81.8006L181.672 149.934H339.017L299.681 81.8006L260.345 13.6686Z" stroke="#FDD20C" stroke-width="11.712" stroke-miterlimit="10"/>
    <path d="M89.672 143.264L129.009 75.1317L168.345 6.99867H11L50.336 75.1317L89.672 143.264Z" stroke="#FDD20C" stroke-width="11.712" stroke-miterlimit="10"/>
    <path d="M410.317 9.23914L397.622 43.8691H390.842L378.08 9.23914H387.186L394.232 30.6411L401.211 9.23914H410.317Z" fill="#FDD20C"/>
    <path d="M437.304 26.5206C437.304 22.2666 436.639 19.4756 435.31 18.1456C434.29 17.1266 432.939 16.6176 431.255 16.6176C429.616 16.6176 428.286 17.1266 427.267 18.1456C425.938 19.4756 425.274 22.2666 425.274 26.5206C425.274 30.8196 425.938 33.6326 427.267 34.9616C428.286 35.9826 429.616 36.4916 431.255 36.4916C432.939 36.4916 434.29 35.9826 435.31 34.9616C436.639 33.6326 437.304 30.8196 437.304 26.5206ZM445.945 26.5206C445.945 29.8446 445.667 32.5366 445.115 34.5966C444.56 36.6576 443.53 38.4626 442.024 40.0136C439.365 42.8506 435.776 44.2676 431.255 44.2676C426.78 44.2676 423.213 42.8506 420.554 40.0136C419.047 38.4626 418.017 36.6576 417.463 34.5966C416.908 32.5366 416.632 29.8446 416.632 26.5206C416.632 23.2426 416.908 20.5726 417.463 18.5116C418.017 16.4516 419.047 14.6456 420.554 13.0936C423.213 10.2586 426.78 8.83958 431.255 8.83958C435.776 8.83958 439.365 10.2586 442.024 13.0936C443.53 14.6456 444.56 16.4516 445.115 18.5116C445.667 20.5726 445.945 23.2426 445.945 26.5206Z" fill="#FDD20C"/>
    <path d="M473.064 43.8691H468.344C465.065 43.8691 462.572 42.8941 460.867 40.9441C459.161 38.9951 458.307 36.6691 458.307 33.9651V16.8161H454.652V10.2361H458.307V0.000141144H466.949V10.2361H473.064V16.8161H466.949V33.4331C466.949 35.5161 467.946 36.5571 469.94 36.5571H473.064V43.8691Z" fill="#FDD20C"/>
    <path d="M503.972 23.3306C503.927 21.9576 503.661 20.7166 503.174 19.6086C502.111 17.2156 500.183 16.0186 497.392 16.0186C494.6 16.0186 492.672 17.2156 491.609 19.6086C491.12 20.7166 490.855 21.9576 490.811 23.3306H503.972ZM512.48 29.2466H490.811C490.811 31.5516 491.486 33.4126 492.838 34.8296C494.19 36.2486 496.039 36.9566 498.388 36.9566C500.205 36.9566 501.679 36.7026 502.809 36.1926C503.939 35.6846 505.079 34.8526 506.232 33.6996L511.483 38.8176C509.577 40.7246 507.65 42.1076 505.7 42.9726C503.749 43.8366 501.29 44.2676 498.322 44.2676C496.106 44.2676 494.101 43.9906 492.307 43.4376C490.512 42.8846 488.839 41.9656 487.288 40.6796C485.737 39.3936 484.518 37.5556 483.632 35.1626C482.745 32.7686 482.303 29.8896 482.303 26.5206C482.303 20.9826 483.676 16.6506 486.424 13.5266C489.171 10.4026 492.826 8.84058 497.392 8.84058C502.088 8.84058 505.777 10.3816 508.458 13.4606C511.139 16.5406 512.48 20.5176 512.48 25.3916V29.2466Z" fill="#FDD20C"/>
    <path d="M425.207 106.273H420.155V70.3134L407.193 98.8294H402.873L389.712 70.3134V106.273H384.661V58.9484H389.712L405.133 92.5144L420.155 58.9484H425.207V106.273Z" fill="#FDD20C"/>
    <path d="M467.879 93.4789C468.278 91.4179 468.478 87.7949 468.478 82.6109C468.478 77.4259 468.278 73.8039 467.879 71.7439C467.481 69.6829 466.571 67.9209 465.154 66.4589C462.983 64.1999 460.257 63.0689 456.979 63.0689C453.698 63.0689 450.974 64.1999 448.803 66.4589C447.384 67.9209 446.477 69.6829 446.077 71.7439C445.679 73.8039 445.48 77.4259 445.48 82.6109C445.48 87.7949 445.679 91.4179 446.077 93.4789C446.477 95.5399 447.384 97.2999 448.803 98.7629C450.974 101.023 453.698 102.153 456.979 102.153C460.257 102.153 462.983 101.023 465.154 98.7629C466.571 97.2999 467.481 95.5399 467.879 93.4789ZM472.831 70.2139C473.296 72.6739 473.529 76.8059 473.529 82.6109C473.529 88.4169 473.296 92.5479 472.831 95.0069C472.366 97.4669 471.113 99.7159 469.075 101.754C465.796 105.034 461.764 106.672 456.979 106.672C452.192 106.672 448.16 105.034 444.881 101.754C442.842 99.7159 441.591 97.4669 441.126 95.0069C440.66 92.5479 440.428 88.4169 440.428 82.6109C440.428 76.8059 440.66 72.6739 441.126 70.2139C441.591 67.7549 442.842 65.5069 444.881 63.4679C448.16 60.1889 452.192 58.5489 456.979 58.5489C461.764 58.5489 465.796 60.1889 469.075 63.4679C471.113 65.5069 472.366 67.7549 472.831 70.2139Z" fill="#FDD20C"/>
    <path d="M523.712 106.273H518.927L493.801 68.3204V106.273H488.75V58.9484H493.535L518.66 96.7684V58.9484H523.712V106.273Z" fill="#FDD20C"/>
    <path d="M545.779 106.275H540.728V58.9504H545.779V106.275Z" fill="#FDD20C"/>
    <path d="M590.379 63.4694H576.687V106.275H571.635V63.4694H557.942V58.9494H590.379V63.4694Z" fill="#FDD20C"/>
    <path d="M626.871 93.4789C627.27 91.4179 627.47 87.7949 627.47 82.6109C627.47 77.4259 627.27 73.8039 626.871 71.7439C626.473 69.6829 625.563 67.9209 624.146 66.4589C621.975 64.1999 619.249 63.0689 615.971 63.0689C612.69 63.0689 609.966 64.1999 607.795 66.4589C606.376 67.9209 605.469 69.6829 605.069 71.7439C604.671 73.8039 604.472 77.4259 604.472 82.6109C604.472 87.7949 604.671 91.4179 605.069 93.4789C605.469 95.5399 606.376 97.2999 607.795 98.7629C609.966 101.023 612.69 102.153 615.971 102.153C619.249 102.153 621.975 101.023 624.146 98.7629C625.563 97.2999 626.473 95.5399 626.871 93.4789ZM631.823 70.2139C632.288 72.6739 632.521 76.8059 632.521 82.6109C632.521 88.4169 632.288 92.5479 631.823 95.0069C631.358 97.4669 630.105 99.7159 628.067 101.754C624.788 105.034 620.756 106.672 615.971 106.672C611.184 106.672 607.152 105.034 603.873 101.754C601.834 99.7159 600.583 97.4669 600.118 95.0069C599.652 92.5479 599.42 88.4169 599.42 82.6109C599.42 76.8059 599.652 72.6739 600.118 70.2139C600.583 67.7549 601.834 65.5069 603.873 63.4679C607.152 60.1889 611.184 58.5489 615.971 58.5489C620.756 58.5489 624.788 60.1889 628.067 63.4679C630.105 65.5069 631.358 67.7549 631.823 70.2139Z" fill="#FDD20C"/>
    <path d="M672.301 78.5904C674.006 77.1074 674.861 74.9684 674.861 72.1764C674.861 69.3854 673.996 67.2364 672.268 65.7294C670.539 64.2234 668.257 63.4694 665.422 63.4694H652.792V80.8184H665.422C668.302 80.8184 670.595 80.0754 672.301 78.5904ZM680.842 106.275H674.927L664.158 85.2714H652.792V106.275H647.741V58.9494H665.887C670.052 58.9494 673.431 60.1354 676.024 62.5054C678.615 64.8764 679.912 68.0784 679.912 72.1104C679.912 75.4784 678.982 78.2704 677.12 80.4854C675.259 82.7014 672.755 84.1414 669.61 84.8054L680.842 106.275Z" fill="#FDD20C"/>
    <path d="M393.179 148.662C393.342 147.764 393.424 146.147 393.424 143.814C393.424 141.481 393.342 139.865 393.179 138.967C393.015 138.069 392.689 137.351 392.199 136.814C391.429 135.928 390.39 135.484 389.083 135.484C387.754 135.484 386.703 135.928 385.934 136.814C385.444 137.351 385.122 138.062 384.971 138.949C384.82 139.837 384.743 141.458 384.743 143.814C384.743 146.172 384.82 147.793 384.971 148.68C385.122 149.566 385.444 150.278 385.934 150.814C386.703 151.701 387.754 152.144 389.083 152.144C390.39 152.144 391.429 151.701 392.199 150.814C392.689 150.278 393.015 149.56 393.179 148.662ZM398.254 140.699C398.277 141.352 398.288 142.391 398.288 143.814C398.288 145.238 398.277 146.276 398.254 146.93C398.23 147.583 398.149 148.393 398.009 149.362C397.868 150.33 397.617 151.153 397.256 151.829C396.894 152.507 396.41 153.147 395.804 153.755C393.984 155.574 391.743 156.484 389.083 156.484C386.401 156.484 384.149 155.574 382.328 153.755C381.722 153.147 381.243 152.512 380.894 151.847C380.544 151.182 380.299 150.348 380.158 149.345C380.019 148.342 379.937 147.536 379.913 146.93C379.89 146.323 379.879 145.284 379.879 143.814C379.879 142.345 379.89 141.307 379.913 140.699C379.937 140.093 380.019 139.288 380.158 138.284C380.299 137.281 380.544 136.447 380.894 135.782C381.243 135.117 381.722 134.481 382.328 133.874C384.149 132.055 386.401 131.144 389.083 131.144C391.743 131.144 393.984 132.055 395.804 133.874C396.41 134.481 396.894 135.123 397.256 135.8C397.617 136.476 397.868 137.299 398.009 138.266C398.149 139.235 398.23 140.047 398.254 140.699Z" fill="#FDD20C"/>
    <path d="M417.364 151.058C417.925 150.475 418.204 149.74 418.204 148.853C418.204 147.966 417.925 147.238 417.364 146.665C416.804 146.094 415.999 145.808 414.949 145.808H409.874V151.933H414.949C415.999 151.933 416.804 151.641 417.364 151.058ZM417.014 140.645C417.574 140.12 417.854 139.426 417.854 138.563C417.854 137.7 417.574 137.005 417.014 136.48C416.454 135.955 415.661 135.693 414.635 135.693H409.874V141.433H414.635C415.661 141.433 416.454 141.17 417.014 140.645ZM423.069 149.098C423.069 151.362 422.369 153.122 420.969 154.383C419.569 155.643 417.725 156.273 415.439 156.273H405.01V131.353H415.019C417.423 131.353 419.306 131.983 420.672 133.243C422.037 134.503 422.719 136.206 422.719 138.353C422.719 139.613 422.398 140.693 421.757 141.59C421.115 142.489 420.409 143.124 419.639 143.497C421.926 144.572 423.069 146.438 423.069 149.098Z" fill="#FDD20C"/>
    <path d="M445.888 148.924C445.888 151.28 445.019 153.13 443.281 154.471C441.542 155.813 439.331 156.484 436.648 156.484C434.664 156.484 432.95 156.234 431.503 155.731C430.056 155.23 428.739 154.384 427.548 153.194L430.699 150.043C432.098 151.444 434.105 152.144 436.718 152.144C439.659 152.144 441.128 151.117 441.128 149.064C441.128 148.153 440.871 147.453 440.358 146.964C439.891 146.543 439.157 146.252 438.153 146.089L435.143 145.668C433.02 145.365 431.409 144.677 430.313 143.604C429.123 142.413 428.528 140.78 428.528 138.703C428.528 136.441 429.31 134.614 430.873 133.226C432.436 131.838 434.548 131.144 437.208 131.144C440.568 131.144 443.251 132.112 445.258 134.049L442.178 137.094C440.989 135.95 439.284 135.379 437.068 135.379C435.831 135.379 434.88 135.676 434.215 136.271C433.551 136.866 433.218 137.618 433.218 138.528C433.218 139.252 433.463 139.847 433.953 140.314C434.513 140.827 435.284 141.153 436.263 141.293L439.203 141.714C441.303 142.017 442.89 142.658 443.963 143.639C445.246 144.852 445.888 146.613 445.888 148.924Z" fill="#FDD20C"/>
    <path d="M468.639 156.273H452.224V131.353H468.639V135.693H457.088V141.538H466.924V145.878H457.088V151.933H468.639V156.273Z" fill="#FDD20C"/>
    <path d="M487.153 141.363C487.805 140.757 488.132 139.964 488.132 138.983C488.132 138.004 487.805 137.211 487.153 136.603C486.5 135.997 485.648 135.693 484.598 135.693H480.012V142.273H484.598C485.648 142.273 486.5 141.97 487.153 141.363ZM494.012 156.273H488.378L483.512 146.333H480.012V156.273H475.148V131.353H484.913C487.385 131.353 489.352 132.089 490.81 133.558C492.268 135.028 492.998 136.837 492.998 138.983C492.998 140.64 492.566 142.028 491.703 143.148C490.84 144.268 489.755 145.061 488.448 145.528L494.012 156.273Z" fill="#FDD20C"/>
    <path d="M517.113 131.353L508.852 156.273H505.213L496.988 131.353H502.027L507.033 147.593L512.038 131.353H517.113Z" fill="#FDD20C"/>
    <path d="M538.288 156.273H521.873V131.353H538.288V135.693H526.737V141.538H536.573V145.878H526.737V151.933H538.288V156.273Z" fill="#FDD20C"/>
    <path d="M556.802 141.363C557.454 140.757 557.781 139.964 557.781 138.983C557.781 138.004 557.454 137.211 556.802 136.603C556.149 135.997 555.297 135.693 554.247 135.693H549.661V142.273H554.247C555.297 142.273 556.149 141.97 556.802 141.363ZM563.661 156.273H558.027L553.161 146.333H549.661V156.273H544.797V131.353H554.562C557.034 131.353 559.001 132.089 560.459 133.558C561.917 135.028 562.647 136.837 562.647 138.983C562.647 140.64 562.215 142.028 561.352 143.148C560.489 144.268 559.404 145.061 558.097 145.528L563.661 156.273Z" fill="#FDD20C"/>
    </svg>
    