<svg width="16" height="16" viewBox="0 0 16 16" fill="none" xmlns="http://www.w3.org/2000/svg">
<path fill-rule="evenodd" clip-rule="evenodd" d="M3.43345 3.43417C3.58347 3.2842 3.78692 3.19994 3.99905 3.19994C4.21118 3.19994 4.41463 3.2842 4.56465 3.43417L7.99905 6.86857L11.4334 3.43417C11.5072 3.35776 11.5955 3.29682 11.6931 3.25489C11.7907 3.21296 11.8957 3.19089 12.0019 3.18997C12.1082 3.18905 12.2135 3.20929 12.3118 3.24951C12.4101 3.28974 12.4995 3.34914 12.5746 3.42426C12.6497 3.49937 12.7091 3.58869 12.7493 3.68701C12.7895 3.78533 12.8098 3.89067 12.8088 3.99689C12.8079 4.10312 12.7859 4.20809 12.7439 4.3057C12.702 4.4033 12.6411 4.49157 12.5646 4.56537L9.13025 7.99977L12.5646 11.4342C12.7104 11.5851 12.791 11.7871 12.7892 11.9969C12.7874 12.2066 12.7032 12.4073 12.5549 12.5556C12.4066 12.704 12.2059 12.7881 11.9962 12.7899C11.7864 12.7917 11.5843 12.7111 11.4334 12.5654L7.99905 9.13097L4.56465 12.5654C4.41377 12.7111 4.21168 12.7917 4.00193 12.7899C3.79217 12.7881 3.59152 12.704 3.44319 12.5556C3.29487 12.4073 3.21073 12.2066 3.20891 11.9969C3.20709 11.7871 3.28772 11.5851 3.43345 11.4342L6.86785 7.99977L3.43345 4.56537C3.28347 4.41535 3.19922 4.2119 3.19922 3.99977C3.19922 3.78764 3.28347 3.58419 3.43345 3.43417Z" fill="black"/>
</svg>
